<svg id="FBWC2023_Flags_Digital_Africa_ANG_RGB" xmlns="http://www.w3.org/2000/svg" viewBox="0 0 234.22 200"><defs><style>.cls-1{fill:#c3c3c3;}.cls-2{fill:#cf1f33;}.cls-3{fill:#f5d432;}</style></defs><path id="Background" class="cls-1" d="M117.11,0a70.17,70.17,0,0,1,31,6.75c37.72,18.14,51.45,72.06,86.12,93.25h0c-34.67,21.19-48.4,75.11-86.12,93.25a70.17,70.17,0,0,1-31,6.75,70.17,70.17,0,0,1-31-6.75C48.4,175.11,34.67,121.19,0,100H0C34.67,78.81,48.4,24.89,86.12,6.75A70.17,70.17,0,0,1,117.11,0Z" transform="translate(0 0)"/><g id="Flag_ANG"><path d="M151.71,105l-3.6-.35a43.37,43.37,0,0,1-1.65,8.34l3.45,1.05a46.81,46.81,0,0,1-3.52,8.51l-3.19-1.7a42.73,42.73,0,0,1-4.73,7.07l2.8,2.29a47.52,47.52,0,0,1-3.67,4l-9.9-6.86a35.19,35.19,0,0,0,12.49-26.9c0-.14,0-.27,0-.41H92.24c9,11.5,36.73,30.8,49.67,40.05l-1.3,1.53C127,131.31,111.84,122,99.81,110.69h-.52l0,.51c12.1,11.4,27.3,20.69,40.84,30.92l-2.28,2.67c-15.68-10.43-25.66-16.07-40.7-24.62-5.06-2.87-12.5-9.48-10-20.18H16.69c12.35,10.9,22,25.17,31.41,39.07C60.89,158,73,175.83,90.46,184.24A60.38,60.38,0,0,0,116.53,190h1.16a60.38,60.38,0,0,0,26.07-5.76c17.49-8.41,29.57-26.27,42.36-45.17,9.41-13.9,19.06-28.17,31.41-39.07H151.92A46.34,46.34,0,0,1,151.71,105Zm-33.14,40.38-1-3.44a43.37,43.37,0,0,1-8.34,1.65l.35,3.58a47.34,47.34,0,0,1-9.22,0l.36-3.59a42.45,42.45,0,0,1-8.33-1.71l-1.07,3.51a47.88,47.88,0,0,1-8.51-3.53l1.77-3.31a45,45,0,0,1-7-4.73l5.15-6.28a34.64,34.64,0,0,0,33.71,6.21l4.57,2.7,1.9,7.4C121.47,144.42,120,144.93,118.57,145.38Zm37.33,7.38c2,3.34-.25,7.11-3.45,4.9-1.73-1.2-2.82-4.45-5.46-7.13-2-1.66-3.51-3.42-8.44-4.26l-.12-.76,4.39-5.15c2.32,2.24,5.43,4.44,7.69,6.45A26.16,26.16,0,0,1,155.9,152.76Zm-7.09-5.51.61.61-.61.6-.6-.6ZM143.74,144l.6.61L145,144l-.61-.61Zm9.61,7.89-.61-.6-.61.6.61.61Z" transform="translate(0 0)"/><path class="cls-2" d="M186.12,60.93C173.33,42,161.25,24.17,143.76,15.76A60.38,60.38,0,0,0,117.69,10h-1.16a60.38,60.38,0,0,0-26.07,5.76C73,24.17,60.89,42,48.1,60.93,38.69,74.83,29,89.1,16.69,100H87.17a25.37,25.37,0,0,1,2.16-5.75c.07,1.53,1.14,3.49,2.91,5.75h47.94a35.16,35.16,0,0,0-31.59-34.48l.86-8a43.24,43.24,0,0,1,8,1.62l1.11-3.68a46.65,46.65,0,0,1,8.52,3.53l-1.81,3.37A43.26,43.26,0,0,1,132.35,67l2.4-2.92a47.19,47.19,0,0,1,6.52,6.51l-2.88,2.37a42.76,42.76,0,0,1,4.76,7l3.24-1.73a46.52,46.52,0,0,1,3.52,8.51l-3.47,1a43.4,43.4,0,0,1,1.67,8.34l3.6-.35c.14,1.4.2,2.8.21,4.21h65.61C205.18,89.1,195.53,74.83,186.12,60.93ZM120.4,79.09l-9.56,7,3.65,11.24-9.56-7-9.56,7L99,86l-9.56-7h11.82l3.65-11.24,3.66,11.24Z" transform="translate(0 0)"/><path class="cls-3" d="M121,136.44l1.9,7.4c-1.4.58-2.84,1.09-4.3,1.54l-1-3.44a43.37,43.37,0,0,1-8.34,1.65l.35,3.58a47.34,47.34,0,0,1-9.22,0l.36-3.59a42.45,42.45,0,0,1-8.33-1.71l-1.07,3.51a47.88,47.88,0,0,1-8.51-3.53l1.77-3.31a45,45,0,0,1-7-4.73l5.15-6.28a34.64,34.64,0,0,0,33.71,6.21Zm29.54,10.37a26.16,26.16,0,0,1,5.39,5.95c2,3.34-.25,7.11-3.45,4.9-1.73-1.2-2.82-4.45-5.46-7.13-2-1.66-3.51-3.42-8.44-4.26l-.12-.76,4.39-5.15C145.14,142.6,148.25,144.8,150.51,146.81ZM145,144l-.61-.61-.6.61.6.61Zm4.47,3.9-.61-.61-.6.61.6.6Zm2.71,4,.61.61.61-.61-.61-.6ZM127.7,127.31l9.9,6.86a47.52,47.52,0,0,0,3.67-4l-2.8-2.29a42.73,42.73,0,0,0,4.73-7.07l3.19,1.7a46.81,46.81,0,0,0,3.52-8.51L146.46,113a43.37,43.37,0,0,0,1.65-8.34l3.6.35a46.34,46.34,0,0,0,.21-5c0-1.41-.07-2.81-.21-4.21l-3.6.35a43.4,43.4,0,0,0-1.67-8.34l3.47-1a46.52,46.52,0,0,0-3.52-8.51L143.15,80a42.76,42.76,0,0,0-4.76-7l2.88-2.37a47.19,47.19,0,0,0-6.52-6.51L132.35,67a43.26,43.26,0,0,0-7.07-4.67l1.81-3.37a46.65,46.65,0,0,0-8.52-3.53l-1.11,3.68a43.24,43.24,0,0,0-8-1.62l-.86,8A35.16,35.16,0,0,1,140.18,100c0,.14,0,.27,0,.41A35.19,35.19,0,0,1,127.7,127.31Zm-30.53-7.13c15,8.55,25,14.19,40.7,24.62l2.28-2.67c-13.54-10.23-28.74-19.52-40.84-30.92l0-.51h.52c12,11.34,27.22,20.62,40.8,30.89l1.3-1.53C129,130.8,101.25,111.5,92.24,100c-1.77-2.26-2.84-4.22-2.91-5.75A25.37,25.37,0,0,0,87.17,100C84.67,110.7,92.11,117.31,97.17,120.18Zm7.76-52.33-3.65,11.24H89.46L99,86,95.37,97.28l9.56-7,9.56,7L110.84,86l9.56-7H108.59Z" transform="translate(0 0)"/></g></svg>