<svg id="FBWC2023_Flags_Digital_Americas_BRA_RGB" xmlns="http://www.w3.org/2000/svg" viewBox="0 0 234.22 200"><defs><style>.cls-1{fill:#c3c3c3;}.cls-2{fill:#f5c115;}.cls-3{fill:#2b286c;}.cls-4{fill:#009247;}.cls-5{fill:#fff;}</style></defs><path id="Background" class="cls-1" d="M117.11,0a70.17,70.17,0,0,1,31,6.75c37.72,18.14,51.45,72.06,86.12,93.25h0c-34.67,21.19-48.4,75.11-86.12,93.25a70.17,70.17,0,0,1-31,6.75,70.17,70.17,0,0,1-31-6.75C48.4,175.11,34.67,121.19,0,100H0C34.67,78.81,48.4,24.89,86.12,6.75A70.17,70.17,0,0,1,117.11,0Z" transform="translate(0 0)"/><g id="Flag_BRA"><path class="cls-2" d="M38,100l79.13,50.52L196.24,100,117.11,49.47Zm112.41,0a33,33,0,0,1-.33,4.69h0c-.12.87-.28,1.72-.47,2.57l-.06.27c-.19.83-.4,1.65-.65,2.45h0A33.42,33.42,0,0,1,84.63,91.63h0c.21-.84.47-1.66.75-2.48,0-.06,0-.13.07-.2.29-.83.61-1.64,1-2.44h0a33.42,33.42,0,0,1,64,13.5Z" transform="translate(0 0)"/><path class="cls-3" d="M86.41,86.51a82,82,0,0,1,11.48-.82,80.79,80.79,0,0,1,52.17,19,33,33,0,0,0,.33-4.69,33.42,33.42,0,0,0-64-13.5Zm40.77,2.7.27-.83.27.83h.88l-.71.51.27.83-.71-.51-.7.51.27-.83-.71-.51ZM84.63,91.63c.21-.84.47-1.67.75-2.48C85.1,90,84.84,90.79,84.63,91.63Zm0,0A33.42,33.42,0,0,0,148.88,110a76.06,76.06,0,0,0-51-19.53A77.11,77.11,0,0,0,84.63,91.63ZM89.27,112l-.7-.51-.71.51.27-.82-.7-.51h.87l.27-.83.26.83h.87l-.7.51Zm1.28-16.85-.85-.61-.84.61.32-1-.84-.61h1l.32-1,.32,1h1l-.85.61Zm3,14-.84-.61-.84.61.32-1-.84-.62h1l.31-1h0l.32,1h1l-.84.62Zm2.76-2.66-.36-.26-.35.26.14-.43-.36-.25h.44l.13-.42.14.42h.44l-.36.26Zm21,20-.27-.2-.27.2.1-.32-.27-.19h.34l.1-.32.1.32h.34l-.27.19Zm17.09-.65-.58-.43-.58.43.22-.69-.58-.42h.72l.22-.69.22.69h.72l-.58.42Zm10.53-14.09.22-.69.22.69H146l-.58.42.22.68-.58-.42-.59.42.23-.68-.59-.42Zm-2,2.59-.7.51.27.83-.71-.51-.71.51.27-.83-.7-.51h.87l.27-.83.27.83Zm-2.82-3.1.32-1,.32,1h1l-.84.61.32,1-.84-.61-.84.61.32-1-.84-.61Zm-1.45,5.7h.86l.26-.83.27.83h.88l-.71.51.27.83-.71-.51-.71.51.27-.83-.7-.51Zm-1.78,1.74.23-.69.22.69H138l-.58.42.22.69-.58-.43-.58.43.22-.69-.59-.42Zm-3.49-.6.23-.69.22.69h.72l-.58.42.22.69-.58-.43-.59.43.23-.69-.59-.42Zm0,3.16.27-.83.27.83h.88l-.71.51.27.83-.71-.51-.71.51.27-.83-.7-.51Zm-3.75-2,.22-.69.22.69h.72l-.58.42.22.69-.58-.43-.58.43.22-.69-.58-.42Zm-1.53,2.91-.71.51.28.83L127,123l-.71.51.27-.83-.71-.51h.88l.27-.83.27.83ZM125.91,98l.22-.68.22.68h.72l-.58.43.22.68-.58-.42-.58.42.22-.68-.58-.43Zm-1.79,20.43.22-.69.22.69h.72l-.58.42.22.69-.58-.43-.59.43.23-.69-.59-.42ZM120.58,108l.26-.83.27.83H122l-.71.52.27.83-.71-.51-.71.51.28-.83-.71-.52Zm-2.76,8.28-.84-.61-.84.61.32-1-.84-.61h1l.32-1,.32,1h1l-.84.61Zm-1.11-11.2.27-.83.27.83h.87l-.7.52.27.83L117,106l-.71.51.27-.83-.7-.52Zm-1.57,5.32.14-.42.13.42h.44l-.36.26.14.41-.35-.26-.36.26.14-.41-.36-.26Zm-1.76-2.31.22-.68.23.68h.72l-.59.43.23.68-.59-.42-.58.42.22-.68-.58-.43ZM104,101l.26-.81.26.81h.85l-.68.5.26.81-.69-.5-.69.5.27-.81-.69-.5Zm-.73,16.14.32-1,.32,1h1l-.84.61.32,1-.84-.61-.84.61.32-1-.84-.61ZM99.45,111l.24-.74.24.74h.79l-.64.46.25.75-.64-.46-.63.46.24-.75-.63-.46Zm-.78,2.81.22.69h.72l-.58.42.22.69-.58-.43-.59.43.23-.69-.59-.42h.73Z" transform="translate(0 0)"/><path class="cls-4" d="M186.12,60.93C173.33,42,161.25,24.17,143.76,15.76A60.38,60.38,0,0,0,117.69,10h-1.16a60.38,60.38,0,0,0-26.07,5.76C73,24.17,60.89,42,48.1,60.93,38.69,74.83,29,89.1,16.69,100c12.35,10.9,22,25.17,31.41,39.07C60.89,158,73,175.83,90.46,184.24A60.38,60.38,0,0,0,116.53,190h1.16a60.38,60.38,0,0,0,26.07-5.76c17.49-8.41,29.57-26.27,42.36-45.17,9.41-13.9,19.06-28.17,31.41-39.07C205.18,89.1,195.53,74.83,186.12,60.93Zm-69,89.59L38,100l79.13-50.53L196.24,100ZM128.05,94a1.51,1.51,0,0,1,2-.75,1.42,1.42,0,0,1,.73,1.41l-.17-.08c-.13-.07-.28-.09-.42-.15a.72.72,0,0,0-.32-.57c-.9-.61-2,1-1.1,1.6a.79.79,0,0,0,1-.1l-.45-.19.18-.42.56.24h0l.26.09.31.14a.42.42,0,0,1,0,.1l-.07.11-.1.22h0l-.45,1-.42-.18.18-.4a1.34,1.34,0,0,1-1.14,0A1.51,1.51,0,0,1,128.05,94Zm14.06,8.42.59.41c-.19.26,0,.57.34.83s.63.27.75.11c.38-.53-1.59-1.43-.92-2.35s1.46-.11,1.79.13a1,1,0,0,1,.39,1.47l-.56-.41c.19-.27,0-.56-.29-.77s-.52-.3-.71,0c-.32.43,1.6,1.37.95,2.29-.48.67-1.24.33-1.74,0S141.65,103,142.11,102.37Zm-2.83-1.85c-.17.27,0,.57.39.82s.64.23.75.06c.35-.55-1.66-1.34-1-2.3.54-.81,1.45-.18,1.8,0a1,1,0,0,1,.46,1.45l-.58-.38c.18-.28,0-.56-.33-.76s-.53-.27-.71,0c-.3.44,1.67,1.28,1.07,2.23-.45.7-1.22.39-1.74.06s-1.1-.94-.67-1.61ZM134.64,99l1.57-2.77,2.37,1.34-.29.51L136.39,97l-.31.55,1.58.9-.27.47L135.81,98l-.4.71,2,1.14-.29.52ZM88.09,87.08a1.52,1.52,0,0,0-1.22,1.76,1.44,1.44,0,1,0,2.84-.35A1.53,1.53,0,0,0,88.09,87.08Zm.2,2.55c-1.08,0-1.08-1.94,0-1.94S89.37,89.63,88.29,89.63Zm43.93,6.65,1,.35.23.08a2.79,2.79,0,0,1,0,.91,3.47,3.47,0,0,1-.13.33l.53.23a2.47,2.47,0,0,0,.23-.89,1.57,1.57,0,0,0-.08-.53,1.44,1.44,0,0,0,.66-.46.94.94,0,0,0,.09-.87,1,1,0,0,0-.47-.54l-1.84-.68-1.13,3,.56.2ZM132.7,95l.89.32.32.12a.4.4,0,0,1,.19.21.35.35,0,0,1,0,.3.47.47,0,0,1-.27.25,1.07,1.07,0,0,1-.48-.1l-.93-.34Zm13.64,11.73a1.6,1.6,0,1,0-.54-2.07A1.52,1.52,0,0,0,146.34,106.69Zm1.28-2.21c.89.61-.2,2.21-1.1,1.6S146.73,103.87,147.62,104.48Zm-54.27-16a1.34,1.34,0,0,0,.42-.69,1,1,0,0,0-.92-1.13c-.33,0-1.95.13-1.95.13L91.07,90l.59,0-.08-1.18,1-.07h.24a2.64,2.64,0,0,1,.35.83c0,.19,0,.35,0,.35h.57a2.29,2.29,0,0,0-.15-.9A1.59,1.59,0,0,0,93.35,88.47ZM93,88a1,1,0,0,1-.48.11l-1,.07s0-.56-.06-.82c.15,0,.94-.07,1-.07l.33,0a.5.5,0,0,1,.26.12.33.33,0,0,1,.13.27A.47.47,0,0,1,93,88Zm19.13,3-2.35-.4.48-2.82,2.3.39-.09.54-1.76-.3-.09.49,1.48.25-.09.54-1.48-.25-.12.71,1.81.32ZM102,89.76l-2.86-.1.11-3.18,2.73.1,0,.59-2.19-.08,0,.64,1.82.06,0,.55-1.82-.07,0,.82,2.32.08ZM96.64,86.5l-1.59,0,.06,3.18s1.26,0,1.6,0a1.45,1.45,0,0,0,1-.56,1.48,1.48,0,0,0,.25-1,1.64,1.64,0,0,0-.24-1A1.38,1.38,0,0,0,96.64,86.5Zm.47,2.38a1.05,1.05,0,0,1-.71.22h-.71s0-1.6,0-2h.94a.85.85,0,0,1,.77.59,4.26,4.26,0,0,1,0,.58A1,1,0,0,1,97.11,88.88Zm6.62,1-.54,0,.27-3.17.8.06L104.7,89l.82-2.11.8.07L106,90.09l-.54,0,.19-2.18L104.86,90l-.5,0-.44-2.23Zm21.6,4.81a1.6,1.6,0,1,0-1.2-1.78A1.53,1.53,0,0,0,125.33,94.69Zm.47-2.52c1,.28.54,2.16-.5,1.88S124.75,91.9,125.8,92.17Zm-9.09-1.44,1,.24.24.06.54,0a1.44,1.44,0,0,0,.61-.53.92.92,0,0,0,0-.86.89.89,0,0,0-.53-.49l-1.9-.48-.8,3.08.58.14Zm.33-1.37.92.22a2.55,2.55,0,0,0,.33.08.52.52,0,0,1,.21.19.35.35,0,0,1,0,.3.47.47,0,0,1-.25.28,1,1,0,0,1-.48,0l-1-.24Zm3.59,2.39,1,.26.24.07a2.63,2.63,0,0,1,0,.9,3.44,3.44,0,0,1-.09.34l.54.19a2.4,2.4,0,0,0,.15-.91,1.72,1.72,0,0,0-.12-.53,1.4,1.4,0,0,0,.62-.51.91.91,0,0,0,0-.87,1,1,0,0,0-.52-.5c-.32-.1-1.89-.52-1.89-.52l-.87,3.06.57.16Zm.37-1.37c.14.05.9.25.91.25l.33.09a.45.45,0,0,1,.2.2.32.32,0,0,1,0,.3.44.44,0,0,1-.25.27,1.1,1.1,0,0,1-.48-.06l-1-.26Z" transform="translate(0 0)"/><path class="cls-5" d="M86.41,86.51h0c-.35.8-.67,1.61-1,2.44,0,.07,0,.14-.07.2-.28.81-.54,1.64-.75,2.48h0a77.11,77.11,0,0,1,13.26-1.17,76.06,76.06,0,0,1,51,19.53h0c.25-.8.46-1.62.65-2.45l.06-.27c.19-.85.35-1.7.47-2.57h0a80.79,80.79,0,0,0-52.17-19A82,82,0,0,0,86.41,86.51Zm2.07,3.73a1.51,1.51,0,0,1-1.61-1.4,1.44,1.44,0,1,1,2.84-.35A1.51,1.51,0,0,1,88.48,90.24Zm4.74-.41s0-.16,0-.35a2.64,2.64,0,0,0-.35-.83h-.24l-1,.07.08,1.18-.59,0-.17-3.17s1.62-.12,1.95-.13a1,1,0,0,1,.92,1.13,1.34,1.34,0,0,1-.42.69,1.59,1.59,0,0,1,.29.46,2.29,2.29,0,0,1,.15.9Zm52.58,14.79a1.52,1.52,0,0,1,2-.76,1.6,1.6,0,0,1-1.46,2.83A1.52,1.52,0,0,1,145.8,104.62Zm-3.69-2.25.59.41c-.19.26,0,.57.34.83s.63.27.75.11c.38-.53-1.59-1.43-.92-2.35s1.46-.11,1.79.13a1,1,0,0,1,.39,1.47l-.56-.41c.19-.27,0-.56-.29-.77s-.52-.3-.71,0c-.32.43,1.6,1.37.95,2.29-.48.67-1.24.33-1.74,0S141.65,103,142.11,102.37Zm-2.44-1c.38.24.64.23.75.06.35-.55-1.66-1.34-1-2.3.54-.81,1.45-.18,1.8,0a1,1,0,0,1,.46,1.45l-.58-.38c.18-.28,0-.56-.33-.76s-.53-.27-.71,0c-.3.44,1.67,1.28,1.07,2.23-.45.7-1.22.39-1.74.06s-1.1-.94-.67-1.61l.6.38C139.11,100.79,139.29,101.09,139.67,101.34Zm-1.09-3.8-.29.51L136.39,97l-.31.55,1.58.9-.27.47L135.81,98l-.4.71,2,1.14-.29.52L134.64,99l1.57-2.77Zm-6.19-3.33,1.84.68a1,1,0,0,1,.47.54.94.94,0,0,1-.09.87,1.44,1.44,0,0,1-.66.46,1.57,1.57,0,0,1,.08.53,2.47,2.47,0,0,1-.23.89l-.53-.23a3.47,3.47,0,0,0,.13-.33,2.79,2.79,0,0,0,0-.91l-.23-.08-1-.35-.4,1.11-.56-.2ZM128.05,94a1.51,1.51,0,0,1,2-.75,1.42,1.42,0,0,1,.73,1.41l-.17-.08c-.13-.07-.28-.09-.42-.15a.72.72,0,0,0-.32-.57c-.9-.61-2,1-1.1,1.6a.79.79,0,0,0,1-.1l-.45-.19.18-.42.56.24h0l.26.09.31.14a.42.42,0,0,1,0,.1l-.07.11-.1.22h0l-.45,1-.42-.18.18-.4a1.34,1.34,0,0,1-1.14,0A1.51,1.51,0,0,1,128.05,94Zm-3.92-1a1.44,1.44,0,1,1,1.2,1.78A1.52,1.52,0,0,1,124.13,92.91Zm-3.51-3.24s1.57.42,1.89.52a1,1,0,0,1,.52.5.91.91,0,0,1,0,.87,1.4,1.4,0,0,1-.62.51,1.72,1.72,0,0,1,.12.53,2.4,2.4,0,0,1-.15.91l-.54-.19a3.44,3.44,0,0,0,.09-.34,2.63,2.63,0,0,0,0-.9l-.24-.07-1-.26-.31,1.14-.57-.16Zm-4-1,1.9.48a.89.89,0,0,1,.53.49.92.92,0,0,1,0,.86,1.44,1.44,0,0,1-.61.53l-.54,0L117.7,91l-1-.24-.28,1.14-.58-.14Zm-6.39-.89,2.3.39-.09.54-1.76-.3-.09.49,1.48.25-.09.54-1.48-.25-.12.71,1.81.32-.09.53-2.35-.4Zm-6.8-1.09.8.06L104.7,89l.82-2.11.8.07L106,90.09l-.54,0,.19-2.18L104.86,90l-.5,0-.44-2.23-.19,2.17-.54,0Zm-4.2-.19,2.73.1,0,.59-2.19-.08,0,.64,1.82.06,0,.55-1.82-.07,0,.82,2.32.08,0,.59-2.86-.1Zm-1.32,1.64a1.48,1.48,0,0,1-.25,1,1.45,1.45,0,0,1-1,.56c-.34,0-1.6,0-1.6,0l-.06-3.18,1.59,0a1.38,1.38,0,0,1,1.06.59A1.64,1.64,0,0,1,97.94,88.12Zm35.41,7.94-.93-.34.28-.76.89.32.32.12a.4.4,0,0,1,.19.21.35.35,0,0,1,0,.3.47.47,0,0,1-.27.25A1.07,1.07,0,0,1,133.35,96.06Zm-7.55-3.89c1,.28.54,2.16-.5,1.88S124.75,91.9,125.8,92.17Zm-4.06-.74-1-.26.22-.79c.14.05.9.25.91.25l.33.09a.45.45,0,0,1,.2.2.32.32,0,0,1,0,.3.44.44,0,0,1-.25.27A1.1,1.1,0,0,1,121.74,91.43Zm-3.93-1-1-.24.19-.79.92.22a2.55,2.55,0,0,0,.33.08.52.52,0,0,1,.21.19.35.35,0,0,1,0,.3.47.47,0,0,1-.25.28A1,1,0,0,1,117.81,90.39Zm-29.52-.76c-1.08,0-1.08-1.94,0-1.94S89.37,89.63,88.29,89.63Zm9.07-1.95a4.26,4.26,0,0,1,0,.58,1,1,0,0,1-.3.62,1.05,1.05,0,0,1-.71.22h-.71s0-1.6,0-2h.94A.85.85,0,0,1,97.36,87.68ZM93,87.36a.33.33,0,0,1,.13.27A.47.47,0,0,1,93,88a1,1,0,0,1-.48.11l-1,.07s0-.56-.06-.82c.15,0,.94-.07,1-.07l.33,0A.5.5,0,0,1,93,87.36Zm53.5,18.72c-.89-.61.21-2.21,1.1-1.6S147.42,106.69,146.52,106.08Zm-26.11,2.48-.71-.52h.88l.26-.83.27.83H122l-.71.52.27.83-.71-.51-.71.51Zm-2.07,6.16-.84.61.32,1-.84-.61-.84.61.32-1-.84-.61h1l.32-1,.32,1Zm11.16,4.92-.58-.42h.72l.22-.69.22.69h.72l-.58.42.22.69-.58-.43-.58.43ZM127,121.3l.27.83h.87l-.71.51.28.83L127,123l-.71.51.27-.83-.71-.51h.88Zm-3-2.42-.59-.42h.73l.22-.69.22.69h.72l-.58.42.22.69-.58-.43-.59.43Zm-7.44-13.24-.7-.52h.87l.27-.83.27.83h.87l-.7.52.27.83L117,106l-.71.51Zm9.23-7.18-.58-.43h.72l.22-.68.22.68h.72l-.58.43.22.68-.58-.42-.58.42Zm-28,16h.73l.22-.69.22.69h.72l-.58.42.22.69-.58-.43-.59.43.23-.69Zm17.34-3.76-.36-.26h.44l.14-.42.13.42h.44l-.36.26.14.41-.35-.26-.36.26Zm12-21-.71-.51h.87l.27-.83.27.83h.88l-.71.51.27.83-.71-.51-.7.51ZM99.3,111.42l-.63-.46h.78l.24-.74.24.74h.79l-.64.46.25.75-.64-.46-.63.46Zm13.94-2.86-.58-.43h.72l.22-.68.23.68h.72l-.59.43.23.68-.59-.42-.58.42Zm-10.16,9.17-.84-.61h1l.32-1,.32,1h1l-.84.61.32,1-.84-.61-.84.61Zm.77-16.25-.69-.5H104l.26-.81.26.81h.85l-.68.5.26.81-.69-.5-.69.5Zm-7.37,4.39-.36.26.14.42-.36-.26-.35.26.14-.43-.36-.25h.44l.13-.42.14.42ZM117.4,126l-.27.19.1.32-.27-.2-.27.2.1-.32-.27-.19h.34l.1-.32.1.32ZM94,107.61l-.84.62.32,1-.84-.61-.84.61.32-1-.84-.62h1l.31-1h0l.32,1Zm40.66,17.15-.58.42.22.69-.58-.43-.58.43.22-.69-.58-.42h.72l.22-.69.22.69Zm-1.46-3-.7-.51h.87l.27-.83.27.83h.88l-.71.51.27.83-.71-.51-.71.51ZM89.7,110.69l-.7.51.27.82-.7-.51-.71.51.27-.82-.7-.51h.87l.27-.83.26.83Zm1.37-17.12-.85.61.33,1-.85-.61-.84.61.32-1-.84-.61h1l.32-1,.32,1Zm45.64,25.56-.59-.42h.72l.23-.69.22.69H138l-.58.42.22.69-.58-.43-.58.43Zm-3.49-.6-.59-.42h.72l.23-.69.22.69h.72l-.58.42.22.69-.58-.43-.59.43Zm11.49-6.33-.59-.42h.73l.22-.69.22.69H146l-.58.42.22.68-.58-.42-.59.42Zm-5.41,5.29-.7-.51h.88l.26-.83.27.83h.88l-.71.51.27.83-.71-.51-.71.51Zm.57-5.61-.84-.61h1l.32-1,.32,1h1l-.84.61.32,1-.84-.61-.84.61Zm1.88,1.66.27.83h.87l-.7.51.27.83-.71-.51-.71.51.27-.83-.7-.51h.87Z" transform="translate(0 0)"/></g></svg>