<svg id="FBWC2023_Flags_Digital_Americas_CAN_RGB" xmlns="http://www.w3.org/2000/svg" viewBox="0 0 234.22 200"><defs><style>.cls-1{fill:#c3c3c3;}.cls-2{fill:#fff;}.cls-3{fill:#ec2224;}</style></defs><path id="Background" class="cls-1" d="M117.11,0a70.17,70.17,0,0,1,31,6.75c37.72,18.14,51.45,72.06,86.12,93.25h0c-34.67,21.19-48.4,75.11-86.12,93.25a70.17,70.17,0,0,1-31,6.75,70.17,70.17,0,0,1-31-6.75C48.4,175.11,34.67,121.19,0,100H0C34.67,78.81,48.4,24.89,86.12,6.75A70.17,70.17,0,0,1,117.11,0Z" transform="translate(0 0)"/><g id="Flag_CAN"><path class="cls-2" d="M167,165.22V34.78c-6.89-8-14.37-14.75-23.25-19A60.38,60.38,0,0,0,117.69,10h-1.16a60.38,60.38,0,0,0-26.07,5.76c-8.88,4.27-16.36,11-23.25,19V165.22c6.89,8,14.37,14.75,23.25,19A60.38,60.38,0,0,0,116.53,190h1.16a60.38,60.38,0,0,0,26.07-5.76C152.64,180,160.12,173.26,167,165.22Zm-47.53-42.61c-.58,0-1.44.54-1.43,1.23l.49,20.55h-3.13l.85-20.59c0-.69-.94-1.2-1.52-1.19l-18.66,2.24,1.64-5.61a2.64,2.64,0,0,0-.86-2.67L78.15,100.68,82,98.77c1.71-.63,1.23-1.63.62-4L79.79,83.87l10.87,2.39a1.67,1.67,0,0,0,1.93-1.21L94,79.94,102.58,90c1.22,1.61,3.7,1.61,2.93-2.11L101.84,67.5l4.92,2.67c1.39.81,2.77.94,3.54-.5l6.81-13.27,6.81,13.27c.77,1.44,2.15,1.31,3.54.5l4.92-2.67-3.67,20.39c-.77,3.72,1.71,3.72,2.93,2.11l8.6-10.06,1.39,5.11a1.67,1.67,0,0,0,1.93,1.21l10.88-2.39-2.86,10.85c-.61,2.42-1.09,3.42.62,4l3.87,1.91-18.71,15.89a2.63,2.63,0,0,0-.85,2.67l1.63,5.61Z" transform="translate(0 0)"/><path class="cls-3" d="M67.21,34.78V165.22c-6.68-7.8-12.81-16.84-19.11-26.15C38.69,125.17,29,110.9,16.69,100,29,89.1,38.69,74.83,48.1,60.93,54.4,51.62,60.53,42.58,67.21,34.78ZM186.12,139.07c9.41-13.9,19.06-28.17,31.41-39.07-12.35-10.9-22-25.17-31.41-39.07-6.3-9.31-12.43-18.35-19.11-26.15V165.22C173.69,157.42,179.82,148.38,186.12,139.07Zm-48.76-22.5,18.71-15.89-3.87-1.91c-1.71-.63-1.23-1.63-.62-4l2.86-10.85-10.88,2.39a1.67,1.67,0,0,1-1.93-1.21l-1.39-5.11L131.64,90c-1.22,1.61-3.7,1.61-2.93-2.11l3.67-20.39-4.92,2.67c-1.39.81-2.77.94-3.54-.5L117.11,56.4,110.3,69.67c-.77,1.44-2.15,1.31-3.54.5l-4.92-2.67,3.67,20.39c.77,3.72-1.71,3.72-2.93,2.11L94,79.94l-1.4,5.11a1.67,1.67,0,0,1-1.93,1.21L79.79,83.87l2.85,10.85c.61,2.42,1.09,3.42-.62,4l-3.87,1.91,18.71,15.89a2.64,2.64,0,0,1,.86,2.67l-1.64,5.61,18.66-2.24c.58,0,1.52.5,1.52,1.19l-.85,20.59h3.13l-.49-20.55c0-.69.85-1.24,1.43-1.23l18.66,2.24-1.63-5.61A2.63,2.63,0,0,1,137.36,116.57Z" transform="translate(0 0)"/></g></svg>