<svg id="FBWC2023_Flags_Digital_Europe_ESP_RGB" xmlns="http://www.w3.org/2000/svg" viewBox="0 0 234.22 200"><defs><style>.cls-1{fill:#c3c3c3;}.cls-2{fill:#ffc128;}.cls-3{fill:none;stroke:#a91e27;stroke-linecap:round;stroke-linejoin:round;stroke-width:0;}.cls-4{fill:#fff;}.cls-5{fill:#ffd18d;}.cls-6{fill:#0e9175;}.cls-7{fill:#285aa8;}.cls-8{fill:#c1c2c2;}.cls-9{fill:#ed76ad;}.cls-10{fill:#dd4e50;}.cls-11{fill:#a91e27;}.cls-12{fill:#1b64af;}.cls-13{fill:#bfac2b;}</style></defs><path id="Background" class="cls-1" d="M117.11,0a70.17,70.17,0,0,1,31,6.75c37.72,18.14,51.45,72.06,86.12,93.25h0c-34.67,21.19-48.4,75.11-86.12,93.25a70.17,70.17,0,0,1-31,6.75,70.17,70.17,0,0,1-31-6.75C48.4,175.11,34.67,121.19,0,100H0C34.67,78.81,48.4,24.89,86.12,6.75A70.17,70.17,0,0,1,117.11,0Z" transform="translate(0 0)"/><g id="Flag_ESP"><path class="cls-2" d="M51.28,132.19a3.11,3.11,0,0,0-1.36-.28,3.11,3.11,0,0,1,1.36.28,2.3,2.3,0,0,0,.64.23A2.3,2.3,0,0,1,51.28,132.19Zm4.24-.28a3.1,3.1,0,0,0-1.41.3,2.67,2.67,0,0,1-.64.22,2.67,2.67,0,0,0,.64-.22A3.1,3.1,0,0,1,55.52,131.91Zm1.43.31-.05,0a2.65,2.65,0,0,0-.62-.21,2.65,2.65,0,0,1,.62.21Zm-6.81-2.9-.22,0a3,3,0,0,0-1.39.3,3,3,0,0,1,1.39-.3ZM89.82,77.55v0c.31,0,.63,0,.91,0a9.78,9.78,0,0,1,3.82.89,11.7,11.7,0,0,1,1.84,1,2.66,2.66,0,0,0,.49-1.5,2.6,2.6,0,0,0-.27-1.15c-.63-1.38-2.82-2.4-5.44-2.4a8.86,8.86,0,0,0-1.48.13.41.41,0,0,1-.19,0l-.08,0h-.06a3.68,3.68,0,0,1,.23.44.4.4,0,0,1,.15,0,.39.39,0,0,1,.4.38.38.38,0,0,1-.33.36,1.93,1.93,0,0,1,0,.42.37.37,0,0,1,.33.36.37.37,0,0,1-.39.37h0a2.6,2.6,0,0,1-.13.36A.38.38,0,0,1,89.82,77.55Zm-2-.15a2.67,2.67,0,0,0,.61-1.66,1.67,1.67,0,0,0,0-.32c-.07-1.57-2-2.86-4.39-2.86a5.63,5.63,0,0,0-3.17.89c0,.28,0,.56,0,.85v.19a1.64,1.64,0,0,0,0,.22c0,.4,0,.77.06,1.13a15,15,0,0,1,4.23.84A10.4,10.4,0,0,0,87.86,77.4Zm.83-3.28c.07.13.13.27.19.4C88.82,74.39,88.76,74.25,88.69,74.12Zm16.93,58.3a2.3,2.3,0,0,1-.64-.23,3.11,3.11,0,0,0-1.36-.28,3.11,3.11,0,0,1,1.36.28A2.3,2.3,0,0,0,105.62,132.42ZM88.21,73.52a2.86,2.86,0,0,1,.38.48A2.86,2.86,0,0,0,88.21,73.52Zm15.63,55.8-.22,0a3,3,0,0,0-1.39.3,3,3,0,0,1,1.39-.3Zm6.14.06a3.69,3.69,0,0,0-.76-.08,3.23,3.23,0,0,0-1.41.3,3.23,3.23,0,0,1,1.41-.3A3.69,3.69,0,0,1,110,129.38Zm-2.17.22a3.34,3.34,0,0,1-2.83,0,3.34,3.34,0,0,0,2.83,0Zm2.84,2.62,0,0A2.74,2.74,0,0,0,110,132a2.74,2.74,0,0,1,.63.21ZM106.4,129a3.12,3.12,0,0,0,1.37-.29h-2.71A3.16,3.16,0,0,0,106.4,129Zm2.82,2.87a3.1,3.1,0,0,0-1.41.3,2.67,2.67,0,0,1-.64.22,2.67,2.67,0,0,0,.64-.22A3.1,3.1,0,0,1,109.22,131.91ZM97.48,78.57a3.55,3.55,0,0,1-.56,1.27h0A3.55,3.55,0,0,0,97.48,78.57Zm-.71-2.68a3.3,3.3,0,0,0-.37-.38A3.3,3.3,0,0,1,96.77,75.89Zm8.85,14c.22,0,.45,0,.69,0C106.07,89.82,105.84,89.82,105.62,89.84Zm.78,0h0c.28,0,.54,0,.8,0C106.94,89.82,106.68,89.81,106.4,89.81Zm-1.28.07-.22,0Zm2.25,0c.19,0,.39,0,.57.06C107.76,89.88,107.56,89.87,107.37,89.85ZM89,74.77a3.44,3.44,0,0,1,.12.64A2.78,2.78,0,0,0,89,74.77ZM96.87,76a3,3,0,0,1,.34.53,3.64,3.64,0,0,1,.24.68,3.64,3.64,0,0,0-.24-.68A3,3,0,0,0,96.87,76Zm.58,1.21a3.57,3.57,0,0,1,.08.74h0A3.57,3.57,0,0,0,97.45,77.22ZM52.7,129a3.12,3.12,0,0,0,1.37-.29H51.36A3.16,3.16,0,0,0,52.7,129Zm9.82-53.52a3.91,3.91,0,0,0-.35.36A3.91,3.91,0,0,1,62.52,75.52ZM61.4,78a3.15,3.15,0,0,0,.23,1.19A3.15,3.15,0,0,1,61.4,78a3.22,3.22,0,0,1,.33-1.42,2.8,2.8,0,0,1,.32-.52,2.8,2.8,0,0,0-.32.52A3.22,3.22,0,0,0,61.4,78ZM54.11,129.6a3.34,3.34,0,0,1-2.83,0,3.34,3.34,0,0,0,2.83,0Zm2.17-.22a3.69,3.69,0,0,0-.76-.08,3.23,3.23,0,0,0-1.41.3,3.23,3.23,0,0,1,1.41-.3A3.69,3.69,0,0,1,56.28,129.38Zm-.65-18.51q.55-.33,1-.63Q56.19,110.54,55.63,110.87Zm22.28-35A10,10,0,0,0,78,74.71c0-.07,0-.15,0-.22s0-.12,0-.19c0-.29,0-.58.05-.85a5.65,5.65,0,0,0-3.17-.89c-2.41,0-4.31,1.29-4.39,2.86,0,.1,0,.21,0,.32a2.6,2.6,0,0,0,.6,1.64,9.91,9.91,0,0,0,2.48-.7A15,15,0,0,1,77.91,75.83ZM54.47,89.94l.43.07Zm53.7,0,.43.07Zm-60,17.5-.09,0Zm63.71.72-.09-.1Zm-.84-.67-.09,0Zm1.39,11a0,0,0,0,1,0,0A0,0,0,0,0,112.43,118.53Zm-1.15-10.89.1.07ZM70.34,74a3.26,3.26,0,0,1,.38-.47A4.12,4.12,0,0,0,70.34,74Zm41.92,44.31,0,0ZM76,87.92l.24,0Zm26.48,22.32c.29.2.61.41,1,.62h0C103.11,110.65,102.79,110.44,102.5,110.24Zm-1.13-1a3.12,3.12,0,0,0,.71.73A3.12,3.12,0,0,1,101.37,109.2Zm-53.91-1.26.11-.09Zm64.15,9.83-.09,0ZM47.74,107.71l.11-.07Zm-1,10.79a0,0,0,0,0,0,0A0,0,0,0,1,46.71,118.5ZM57.83,109a1.31,1.31,0,0,1,0,.15A1.31,1.31,0,0,0,57.83,109Zm0,0a.22.22,0,0,0,0-.14A.22.22,0,0,1,57.84,109Zm-1.21,1.25L57,110Zm.41-.3a2.93,2.93,0,0,0,.71-.73A2.93,2.93,0,0,1,57,109.93ZM182.09,145h-130q-2-2.94-4-5.93C38.69,125.17,29,110.9,16.69,100,29,89.1,38.69,74.83,48.1,60.93q2-3,4-5.93h130q2,2.94,4,5.93c9.41,13.9,19.06,28.17,31.41,39.07-12.35,10.9-22,25.17-31.41,39.07Q184.1,142.06,182.09,145ZM102.24,89.18a.72.72,0,0,1,.24.12,1.83,1.83,0,0,1,.22.25.2.2,0,0,0,.07.1.12.12,0,0,0,.18,0,1.51,1.51,0,0,0,.33.34.46.46,0,0,0,.34.09l0,0,0,.06-.1,0a.11.11,0,0,0-.07.12.1.1,0,0,0,.12.06,2.58,2.58,0,0,1,.14.23h0l-.11.18.21.07h0a1.36,1.36,0,0,1,.06.16h0a.21.21,0,0,0-.13.13c0,.13.11.23.35.31s.56.1,1,.15h-2.78v2.1h1c-.2,0-.37.11-.37.24s.17.24.37.24a.47.47,0,0,1-.17,0h0a.46.46,0,0,1,.34.46.5.5,0,0,1-.35.47.29.29,0,0,0-.22.26c0,.16.17.28.37.28h6a.32.32,0,0,0,.36-.28.29.29,0,0,0-.21-.26h0a.5.5,0,0,1-.35-.48.52.52,0,0,1,.37-.48h0c.13,0,.21-.12.21-.22s-.16-.24-.37-.24h1v-2.1h-2.82c.43,0,.8-.11,1-.15s.38-.18.35-.31a.21.21,0,0,0-.13-.13,9,9,0,0,0-2.42-.29,9.35,9.35,0,0,0-2.28.25,9.17,9.17,0,0,1,2.28-.25,8.69,8.69,0,0,1,2.45.29.62.62,0,0,1,.07-.16l.21,0-.09-.19.13-.23h0a.1.1,0,0,0,.11-.06.09.09,0,0,0-.06-.12l-.32-.08.24.06,0,0h0a.46.46,0,0,0,.34-.09.94.94,0,0,0,.3-.33.16.16,0,0,0,.16,0,.13.13,0,0,0,.05-.11,2.19,2.19,0,0,1,.22-.24.72.72,0,0,1,.24-.12s-.1-.1-.21-.1a.16.16,0,0,0-.11,0v0l0-.2c0-.24-.32-.51-.83-.62a1.69,1.69,0,0,0-.58,0,.18.18,0,0,0,0-.09.17.17,0,0,0-.17-.16.16.16,0,0,0-.16.16s0,0,0,0a2.05,2.05,0,0,0-1-.23,3.1,3.1,0,0,0-.64.06.64.64,0,0,0,0-.2.78.78,0,0,0-.25-.6.22.22,0,0,0,0-.11h.18v-.21h-.18a.29.29,0,0,0-.18-.16v-.31h.22v-.21h-.22V86h-.22v.21h-.22v.21h.22v.31a.27.27,0,0,0-.17.16H106v.21h.16a.22.22,0,0,0,0,.11.74.74,0,0,0-.26.6.64.64,0,0,0,0,.2,3,3,0,0,0-.62-.06,2.09,2.09,0,0,0-1.09.25.1.1,0,0,0,0-.07.17.17,0,0,0-.17-.16.16.16,0,0,0-.16.16.18.18,0,0,0,0,.09,1.51,1.51,0,0,0-.55,0c-.52.11-.88.38-.83.62l0,.2h0v.06a.21.21,0,0,0-.17-.07C102.34,89.08,102.24,89.15,102.24,89.18ZM98.8,77.9a.37.37,0,1,0,0,.74.37.37,0,1,0,0-.74Zm-.41,3a.38.38,0,1,0-.39-.37A.39.39,0,0,0,98.39,80.94Zm-.54.21a.38.38,0,0,0-.39.37.4.4,0,0,0,.79,0A.38.38,0,0,0,97.85,81.15Zm1.3-1.69a.4.4,0,0,0-.79,0,.4.4,0,0,0,.79,0Zm-.64-2.73a.38.38,0,1,0,0,.75.38.38,0,1,0,0-.75Zm-1-.69a.39.39,0,0,0,.4.38.38.38,0,1,0,0-.75A.39.39,0,0,0,97.5,76Zm-.81-.87a.39.39,0,0,0,.4.37.38.38,0,1,0,0-.75A.39.39,0,0,0,96.69,75.17Zm-.94-.73a.39.39,0,0,0,.4.38.38.38,0,1,0,0-.75A.39.39,0,0,0,95.75,74.44Zm-1.12-.59a.4.4,0,1,0,.4-.37A.38.38,0,0,0,94.63,73.85Zm-1.17-.42a.4.4,0,0,0,.8,0,.4.4,0,0,0-.8,0Zm-1.3-.24a.4.4,0,0,0,.79,0,.4.4,0,0,0-.79,0Zm-1.24-.06a.38.38,0,0,0,.4.37.37.37,0,1,0,0-.74A.38.38,0,0,0,90.92,73.13Zm-1.21,0a.4.4,0,1,0,.39-.37A.39.39,0,0,0,89.71,73.17Zm-1.22,0a.39.39,0,0,0,.4.38.38.38,0,1,0,0-.75A.39.39,0,0,0,88.49,73.17Zm-.92-.72a.4.4,0,0,0,.8,0,.4.4,0,0,0-.8,0Zm-1.08-.6a.4.4,0,0,0,.8,0,.4.4,0,0,0-.8,0Zm-1.18-.35a.38.38,0,0,0,.39.37.38.38,0,1,0,0-.75A.38.38,0,0,0,85.31,71.5Zm-1.24-.22a.38.38,0,0,0,.39.38.38.38,0,1,0,0-.75A.38.38,0,0,0,84.07,71.28Zm-1.21,0a.38.38,0,0,0,.39.38.39.39,0,0,0,.4-.38.38.38,0,0,0-.4-.37A.37.37,0,0,0,82.86,71.3Zm-1.26.21a.38.38,0,0,0,.39.38.38.38,0,1,0,0-.75A.38.38,0,0,0,81.6,71.51Zm-5.06,0a.4.4,0,0,0,.79,0,.4.4,0,0,0-.79,0Zm-1.26-.21a.39.39,0,0,0,.4.38.38.38,0,0,0,.39-.38.37.37,0,0,0-.39-.37A.38.38,0,0,0,75.28,71.3Zm-1.21,0a.4.4,0,0,0,.79,0,.4.4,0,0,0-.79,0Zm-1.24.22a.4.4,0,1,0,.4-.38A.39.39,0,0,0,72.83,71.5Zm-1.19.35a.4.4,0,0,0,.8,0,.4.4,0,0,0-.8,0Zm-1.07.6a.37.37,0,0,0,.39.37.38.38,0,0,0,.4-.37.39.39,0,0,0-.4-.38A.38.38,0,0,0,70.57,72.45Zm-.92.72a.38.38,0,0,0,.39.38.38.38,0,1,0,0-.75A.38.38,0,0,0,69.65,73.17Zm-1.22,0a.39.39,0,0,0,.4.38.38.38,0,1,0,0-.75A.39.39,0,0,0,68.43,73.17Zm-1.21,0a.4.4,0,1,0,.39-.37A.38.38,0,0,0,67.22,73.13ZM66,73.19a.39.39,0,0,0,.4.38.38.38,0,1,0,0-.75A.39.39,0,0,0,66,73.19Zm-1.3.24a.37.37,0,0,0,.39.37.38.38,0,0,0,.4-.37.39.39,0,0,0-.4-.38A.38.38,0,0,0,64.68,73.43Zm-1.17.42a.38.38,0,0,0,.4.37.37.37,0,1,0,0-.74A.38.38,0,0,0,63.51,73.85Zm-1.12.59a.4.4,0,1,0,.39-.37A.39.39,0,0,0,62.39,74.44Zm-1,.73a.4.4,0,1,0,.4-.38A.39.39,0,0,0,61.44,75.17Zm-.81.87a.4.4,0,1,0,.4-.37A.39.39,0,0,0,60.63,76ZM60,77.1a.38.38,0,0,0,.39.38.38.38,0,1,0,0-.75A.38.38,0,0,0,60,77.1Zm.9,3.47a.38.38,0,0,0-.39-.38.38.38,0,1,0,0,.75A.38.38,0,0,0,60.93,80.57Zm-.25,1a.39.39,0,0,0,.4.38.38.38,0,0,0,.39-.38.37.37,0,0,0-.39-.37A.38.38,0,0,0,60.68,81.52Zm-.5-1.69a.37.37,0,0,0,.39-.37.38.38,0,0,0-.39-.38.39.39,0,0,0-.4.38A.38.38,0,0,0,60.18,79.83Zm-.45-1.56a.4.4,0,1,0,.4-.37A.38.38,0,0,0,59.73,78.27Zm-11,10.81h0c-.1,0-.21.07-.21.1a.74.74,0,0,1,.25.12,1.83,1.83,0,0,1,.22.25.27.27,0,0,0,.06.1.13.13,0,0,0,.19,0,1.32,1.32,0,0,0,.33.34.46.46,0,0,0,.34.09l0,0,0,.06-.11,0a.11.11,0,0,0-.06.12.1.1,0,0,0,.12.06,2.58,2.58,0,0,1,.14.23h0l-.11.18.21.07h0l.06.16h.05a.21.21,0,0,0-.13.13c0,.13.11.23.35.31s.56.1,1,.15H48.71v2.1h1c-.2,0-.37.11-.37.24s.17.24.37.24a.47.47,0,0,1-.17,0h0a.46.46,0,0,1,.34.46.5.5,0,0,1-.35.47.29.29,0,0,0-.22.26c0,.16.17.28.37.28h6a.32.32,0,0,0,.36-.28.29.29,0,0,0-.21-.26h0a.5.5,0,0,1-.35-.48.52.52,0,0,1,.37-.48h0c.12,0,.21-.12.21-.22s-.17-.24-.37-.24h1v-2.1H53.9c.44,0,.81-.11,1-.15s.37-.18.35-.31a.27.27,0,0,0-.13-.13,9,9,0,0,0-2.42-.29,9.35,9.35,0,0,0-2.28.25,9.17,9.17,0,0,1,2.28-.25,8.61,8.61,0,0,1,2.44.29s0-.08.07-.16l.22,0-.09-.19.13-.23h0a.1.1,0,0,0,.11-.06.09.09,0,0,0-.06-.12l-.32-.08.24.06,0,0h0a.46.46,0,0,0,.34-.09.94.94,0,0,0,.3-.33.15.15,0,0,0,.21-.14,2.19,2.19,0,0,1,.22-.24.72.72,0,0,1,.24-.12s-.1-.1-.21-.1-.05,0-.08,0a1.06,1.06,0,0,0,.1-.17.68.68,0,0,0,0-.4,1.37,1.37,0,0,0-.16-.37,1.19,1.19,0,0,0-.43-.4,3.37,3.37,0,0,0-.5-.15c.08,0,.15-.07.19,0a.35.35,0,0,0-.17-.26.77.77,0,0,0-.71.1l-.4-.15a2.45,2.45,0,0,0-.53-.15,2.67,2.67,0,0,0-.4,0l-.41,0a.61.61,0,0,0-.14-.25.18.18,0,0,0,0-.09h.17v-.21H53a.28.28,0,0,0-.18-.17v-.31H53v-.2h-.22V85.7h-.22v.21h-.22v.2h.22v.31a.31.31,0,0,0-.17.17h-.17v.21h.16s0,.06,0,.08a.81.81,0,0,0-.15.26h-.19c-.1,0-.4,0-.59,0a3,3,0,0,0-.4.09,2.1,2.1,0,0,0-.33.06l-.2.1-.09,0a.69.69,0,0,0-.63-.05.41.41,0,0,0-.17.26.12.12,0,0,1,.08,0l-.07,0a4.07,4.07,0,0,0-.57.21.94.94,0,0,0-.51.54A.92.92,0,0,0,48.76,89.08Zm9.56,40h0a3,3,0,0,1-1.42-.31l-.07,0v-2.06h0a1,1,0,0,1-1-1,1.92,1.92,0,0,1,0-.22.36.36,0,0,1-.15,0,.33.33,0,0,0,.36-.28.32.32,0,0,0-.36-.28h-6c-.2,0-.37.12-.37.28s.17.28.37.28a.36.36,0,0,1-.15,0,.87.87,0,0,1,.05.22,1,1,0,0,1-1,1h0v2l-.07,0a3.17,3.17,0,0,1-1.42.31v.87a3.17,3.17,0,0,0,1.42-.31,3.17,3.17,0,0,1-1.42.31v1.73a3.13,3.13,0,0,0,1.41-.31,3.12,3.12,0,0,1-1.41.32v.87a3.17,3.17,0,0,0,1.42-.32,3,3,0,0,1,1.39-.29,3,3,0,0,0-1.39.29,3.17,3.17,0,0,1-1.42.32v.86a3.17,3.17,0,0,0,1.42-.31,3,3,0,0,1,1.39-.3,3.1,3.1,0,0,1,1.36.29,3.34,3.34,0,0,0,2.83,0,3.23,3.23,0,0,1,1.41-.3,3.13,3.13,0,0,1,1.38.3,3.13,3.13,0,0,0,1.41.31h0v-.86h0v-.87h0v-.86h0v-.87h0V129Zm53.7,0h0a3,3,0,0,1-1.41-.31l-.08,0v-2.06h0a1,1,0,0,1-1-1,.93.93,0,0,1,0-.22.44.44,0,0,1-.16,0,.33.33,0,0,0,.36-.28.32.32,0,0,0-.36-.28h-6c-.2,0-.37.12-.37.28s.17.28.37.28a.36.36,0,0,1-.15,0,.87.87,0,0,1,0,.22,1,1,0,0,1-1,1h0v2l-.07,0a3.17,3.17,0,0,1-1.42.31v.87a3.17,3.17,0,0,0,1.42-.31,3.17,3.17,0,0,1-1.42.31v1.73a3.17,3.17,0,0,0,1.42-.31,3.17,3.17,0,0,1-1.42.32v.87a3.17,3.17,0,0,0,1.42-.32,3,3,0,0,1,1.39-.29,3,3,0,0,0-1.39.29,3.17,3.17,0,0,1-1.42.32v.86a3.17,3.17,0,0,0,1.42-.31,3,3,0,0,1,1.39-.3,3.1,3.1,0,0,1,1.36.29,3.34,3.34,0,0,0,2.83,0,3.23,3.23,0,0,1,1.41-.3,3.17,3.17,0,0,1,1.39.3,3.05,3.05,0,0,0,1.4.31v-.86h0v-.87h0v-.86h0v-.87h0V129Zm.2-20a.3.3,0,0,0,0,.1s1.31-3,1.33-3.07c.18-1-1.58-2.15-4.2-2.92v-7.2h-5.85v6.38a19,19,0,0,0-5.81.76V91.19H84.42a34.07,34.07,0,0,0,6.29-1.14A.44.44,0,0,0,91,89.6a.4.4,0,0,0-.26-.4l.12,0c-.19-.09-.21-.32,0-.8l0,0,.68-.29-.39-.51a.91.91,0,0,1,.66-.46h0a.4.4,0,0,0,.5-.21.38.38,0,0,0-.25-.49l-.61-.17,0-.07a1.32,1.32,0,0,0,.44.18A2.57,2.57,0,0,0,93.45,86a4.84,4.84,0,0,0,1.3-1.3.67.67,0,0,0,.74-.15c.29-.24.37-.6.19-.79a.47.47,0,0,1,.06.09,2.87,2.87,0,0,1,.87-1,2.75,2.75,0,0,1,1.26-.18,1.05,1.05,0,0,0-1.08-1l-.1,0,0-.26.1.17.51-.4-.07-.11a3.9,3.9,0,0,0,.86-2.41A4.47,4.47,0,0,0,95.71,75a7,7,0,0,1,.59.44,8.07,8.07,0,0,0-5.13-1.6,11.34,11.34,0,0,0-1.44.11.36.36,0,0,0-.23-.08.39.39,0,0,0-.33.18l-.21,0,.05.07a5,5,0,0,0-1.16-1c.11.09.21.2.31.3a5.82,5.82,0,0,0-4.1-1.5,6.56,6.56,0,0,0-3.26.82.77.77,0,0,0,0-.15,1.07,1.07,0,0,0-.23-.45.45.45,0,0,0,.28.1.38.38,0,1,0,0-.75.39.39,0,0,0-.4.38.36.36,0,0,0,.11.25,1.3,1.3,0,0,0-.75-.46,1.59,1.59,0,0,0,1.15-.88h0a0,0,0,0,0,0,0,1.45,1.45,0,0,0,.13-.59s0,0,0,0a1.52,1.52,0,0,0-1.14-1.41h0V67.64h.88v-.83h-.88V66h-.87v.82h-.87v.83h.87v1.13h0a1.51,1.51,0,0,0-1.18,1.45,1.39,1.39,0,0,0,.12.57v0h0a1.58,1.58,0,0,0,1.14.89,1.29,1.29,0,0,0-.76.47.41.41,0,0,0,.11-.26.39.39,0,0,0-.4-.38.38.38,0,1,0,0,.75.39.39,0,0,0,.28-.11,1.2,1.2,0,0,0-.24.46s0,.1,0,.14A6.6,6.6,0,0,0,74.87,72a5.85,5.85,0,0,0-4.1,1.5,3.06,3.06,0,0,1,.32-.3,4.79,4.79,0,0,0-1.21,1l.09-.12-.2,0a.4.4,0,0,0-.33-.18.41.41,0,0,0-.24.08,11.2,11.2,0,0,0-1.44-.11,8.12,8.12,0,0,0-5.12,1.59,6.71,6.71,0,0,1,.58-.43,4.47,4.47,0,0,0-2.41,3.71,4,4,0,0,0,.86,2.41l-.07.11.49.38v.11a1,1,0,0,0-.92,1,2.71,2.71,0,0,1,1.25.18,2.87,2.87,0,0,1,.87,1l.06-.09c-.18.19-.1.55.19.79a.67.67,0,0,0,.74.15,4.84,4.84,0,0,0,1.3,1.3,2.57,2.57,0,0,0,1.52.41.83.83,0,0,0,.22-.08v0l-.38.11a.38.38,0,0,0-.25.49.39.39,0,0,0,.49.21h0a.88.88,0,0,1,.66.44l-.4.53.68.29.06,0c.17.49.16.72,0,.81l.1,0a.4.4,0,0,0-.26.39.45.45,0,0,0,.3.45,34,34,0,0,0,6.28,1.14H61.5v11.9a18.77,18.77,0,0,0-5.86-.78h0V95.93H49.78v7.21c-2.62.77-4.37,1.93-4.19,2.91,0,.11,1.34,3.07,1.34,3.07a.44.44,0,0,1,0-.1c.13.68,1.23,1.11,2.86,1.23v3.33c-2.23.81-3.8,1.74-3.65,2.2h0l.54,2.91c0,.22.31.39.68.63.58.41.93,1.14.66,1.47A2.08,2.08,0,0,0,48,117.5a10.58,10.58,0,0,1,1.83-.83v7.93h5.85V114.08c1.71-1,2.79-2,2.59-2.34a19.94,19.94,0,0,0-.43-3l0,0,0,0a4.8,4.8,0,0,0-2.15-.71h0v2.82h0v-5.23h0a19.12,19.12,0,0,1,5.83,1v4.31h0l0,12.16c0,.35,0,.68.08,1a8,8,0,0,0,.7,2.56,3.37,3.37,0,0,0,.19.38l.06.12c0,.09.1.19.16.28a5.09,5.09,0,0,0,.3.5,9,9,0,0,0,.57.79v0a8.71,8.71,0,0,0,2.8,2.18A30.63,30.63,0,0,0,79.64,134a30.28,30.28,0,0,0,13.23-3.08,8.59,8.59,0,0,0,3.71-3.52l.06-.1c.11-.22.23-.43.33-.65s.25-.62.35-.93a.44.44,0,0,0,0-.1,7.92,7.92,0,0,0,.35-2.33v-12h0v-4.65a19.52,19.52,0,0,1,5.79-.94h0v2.41a4.8,4.8,0,0,0-2.15.71v0a19.94,19.94,0,0,0-.43,3c-.2.39.87,1.32,2.58,2.33V124.6h5.85v-7.94h0a11,11,0,0,1,1.83.84,2.08,2.08,0,0,0-.84,1.67,2.06,2.06,0,0,0,.79,1.62c-.28-.33.07-1.06.66-1.47.37-.24.63-.41.67-.63l.54-2.91h0c.16-.46-1.43-1.39-3.66-2.21v-6.88a10.44,10.44,0,0,1,1.45.65,12.67,12.67,0,0,1-1.43.1v2.81C111,110.13,112.09,109.7,112.22,109Zm-64.62,8.7-.09,0Zm-.72.56,0,0Zm65.24-9.78a.93.93,0,0,0,0,.1A.93.93,0,0,1,112.12,108.5Zm.08.23a.24.24,0,0,1,0,.08A.24.24,0,0,0,112.2,108.73Zm-.15-.35-.07-.1Zm-10.77.6a.22.22,0,0,1,0-.14A.22.22,0,0,0,101.28,109Zm-52.94-1.64a12.69,12.69,0,0,0,1.44.1v-.74A9.81,9.81,0,0,0,48.34,107.34Zm63.32.6-.11-.09Zm-64.51.34a.39.39,0,0,0-.08.1A.39.39,0,0,1,47.15,108.28ZM70,74.77a2.35,2.35,0,0,0-.13.64A2.8,2.8,0,0,1,70,74.77ZM47.34,108.06a.94.94,0,0,0-.1.1A.94.94,0,0,1,47.34,108.06Zm22-30.82a2.6,2.6,0,0,1-.13-.36h0a.38.38,0,0,1-.39-.37.37.37,0,0,1,.33-.36,1.93,1.93,0,0,1,0-.42.38.38,0,0,1-.33-.36.39.39,0,0,1,.4-.38.4.4,0,0,1,.15,0,3.75,3.75,0,0,1,.24-.44h-.07l-.07,0a.38.38,0,0,1-.19,0,9,9,0,0,0-1.49-.13c-2.62,0-4.81,1-5.44,2.4A2.6,2.6,0,0,0,62.05,78a2.65,2.65,0,0,0,.44,1.43,12.82,12.82,0,0,1,1.74-1,9.78,9.78,0,0,1,3.82-.89c.33,0,.69,0,1.06,0v0A.35.35,0,0,1,69.3,77.24Zm1-3.12a2.42,2.42,0,0,0-.19.4A2.42,2.42,0,0,1,70.25,74.12ZM47,108.5a.31.31,0,0,0,0,.1A.31.31,0,0,1,47,108.5Zm-.11.31s0,0,0-.08S46.9,108.78,46.9,108.81Zm54.39.21a.58.58,0,0,0,.06.15A.58.58,0,0,1,101.29,109Zm1.2,1.21-.37-.28ZM76.71,87.88c.91,0,1.84-.08,2.8-.08.63,0,1.25,0,1.85,0-.62,0-1.24,0-1.88,0C78.53,87.79,77.61,87.83,76.71,87.88Z" transform="translate(0 0)"/><path class="cls-3" d="M46.13,115.78h0m66.86,0h0" transform="translate(0 0)"/><path class="cls-4" d="M52,90.39a.16.16,0,0,1-.16.15.15.15,0,1,1,0-.3A.16.16,0,0,1,52,90.39Zm1.63-.15a.15.15,0,1,0,0,.3.15.15,0,1,0,0-.3Zm50.49-1.94a.13.13,0,0,0,.13-.08.1.1,0,0,0,0-.07.17.17,0,0,0-.17-.16.16.16,0,0,0-.16.16.18.18,0,0,0,0,.09A.17.17,0,0,0,104.09,88.3Zm4.59,0a.15.15,0,0,0,.13-.06.18.18,0,0,0,0-.09.17.17,0,0,0-.17-.16.16.16,0,0,0-.16.16s0,0,0,0A.15.15,0,0,0,108.68,88.3Zm-3.17,1.94a.15.15,0,1,0,.16.15A.16.16,0,0,0,105.51,90.24Zm1.79,0a.15.15,0,1,0,0,.3.15.15,0,1,0,0-.3ZM79.5,77.81a2.15,2.15,0,0,1,.48.63.75.75,0,0,0,.18-.42.66.66,0,0,0-.63-.64h-.11a.66.66,0,0,0-.63.64.78.78,0,0,0,0,.21.68.68,0,0,0,.18.26A2.12,2.12,0,0,1,79.5,77.81Zm.66-1.07a.67.67,0,0,0-.69-.64.64.64,0,1,0,0,1.28h.11A.66.66,0,0,0,80.16,76.74ZM80,75.38a.55.55,0,1,0-.55.51A.53.53,0,0,0,80,75.38Zm-.55-.86a.38.38,0,1,0,0-.75.38.38,0,1,0,0,.75Zm0-1.16a.3.3,0,1,0,0-.59.3.3,0,1,0,0,.59ZM60.68,81.52a.39.39,0,0,0,.4.38.38.38,0,0,0,.39-.38.37.37,0,0,0-.39-.37A.38.38,0,0,0,60.68,81.52Zm-.14-1.33a.38.38,0,1,0,0,.75.38.38,0,1,0,0-.75Zm0-.73a.38.38,0,0,0-.39-.38.39.39,0,0,0-.4.38.38.38,0,0,0,.4.37A.37.37,0,0,0,60.57,79.46Zm-.44-.82a.37.37,0,1,0-.4-.37A.38.38,0,0,0,60.13,78.64Zm.29-1.16a.38.38,0,1,0,0-.75.38.38,0,1,0,0,.75ZM61,76.42a.38.38,0,1,0-.4-.38A.39.39,0,0,0,61,76.42Zm.81-.88a.38.38,0,1,0-.4-.37A.39.39,0,0,0,61.84,75.54Zm.94-.72a.38.38,0,1,0,0-.75.38.38,0,1,0,0,.75Zm1.13-.6a.37.37,0,1,0,0-.74.37.37,0,1,0,0,.74Zm1.16-.42a.38.38,0,0,0,.4-.37.39.39,0,0,0-.4-.38.38.38,0,0,0-.39.38A.37.37,0,0,0,65.07,73.8Zm1.31-.23a.38.38,0,1,0,0-.75.38.38,0,1,0,0,.75Zm1.23-.07a.37.37,0,1,0-.39-.37A.38.38,0,0,0,67.61,73.5Zm1.22,0a.38.38,0,1,0,0-.75.38.38,0,1,0,0,.75Zm1.74,5a.39.39,0,0,0-.4-.38.39.39,0,0,0-.27.11.34.34,0,0,0-.12.27.39.39,0,0,0,.39.37.39.39,0,0,0,.28-.11A.34.34,0,0,0,70.57,78.52Zm-.67-1a.39.39,0,0,0-.4-.37.47.47,0,0,0-.2.06.35.35,0,0,0-.19.31v0a.39.39,0,0,0,.39.36.32.32,0,0,0,.14,0A.38.38,0,0,0,69.9,77.55Zm-1.15-1a.38.38,0,0,0,.39.37h0a.38.38,0,0,0,.37-.37.38.38,0,0,0-.4-.37h-.06A.37.37,0,0,0,68.75,76.51Zm0-1.14a.38.38,0,0,0,.33.36h.07a.37.37,0,0,0,.15-.72.4.4,0,0,0-.15,0A.39.39,0,0,0,68.79,75.37ZM69,74.21a.39.39,0,0,0,.21.33.38.38,0,0,0,.19,0l.07,0,.1,0a.37.37,0,0,0,.21-.3s0,0,0,0a.39.39,0,0,0-.06-.19.4.4,0,0,0-.33-.18.41.41,0,0,0-.24.08A.35.35,0,0,0,69,74.21Zm1-.66a.38.38,0,1,0,0-.75.38.38,0,1,0,0,.75Zm.92-.73a.38.38,0,0,0,.4-.37.39.39,0,0,0-.4-.38.38.38,0,0,0-.39.38A.37.37,0,0,0,71,72.82ZM72,72.23a.39.39,0,0,0,.4-.38.4.4,0,0,0-.8,0A.39.39,0,0,0,72,72.23Zm1.19-.36a.38.38,0,1,0-.4-.37A.39.39,0,0,0,73.23,71.87Zm1.24-.21a.38.38,0,1,0-.4-.38A.39.39,0,0,0,74.47,71.66Zm1.21,0a.38.38,0,0,0,.39-.38.37.37,0,0,0-.39-.37.38.38,0,0,0-.4.37A.39.39,0,0,0,75.68,71.68Zm1.26.21a.38.38,0,1,0-.4-.38A.39.39,0,0,0,76.94,71.89Zm1.45.29a.41.41,0,0,0,.11-.26.39.39,0,0,0-.4-.38.38.38,0,1,0,0,.75.39.39,0,0,0,.28-.11Zm2.16,0a.45.45,0,0,0,.28.1.38.38,0,1,0,0-.75.39.39,0,0,0-.4.38.36.36,0,0,0,.11.25Zm1.44-.3a.38.38,0,1,0,0-.75.38.38,0,1,0,0,.75Zm1.26-.21a.39.39,0,0,0,.4-.38.38.38,0,0,0-.4-.37.37.37,0,0,0-.39.37A.38.38,0,0,0,83.25,71.68Zm1.21,0a.38.38,0,1,0,0-.75.38.38,0,1,0,0,.75Zm1.24.21a.38.38,0,1,0,0-.75.38.38,0,1,0,0,.75Zm1.19.36a.39.39,0,0,0,.4-.38.4.4,0,0,0-.8,0A.39.39,0,0,0,86.89,72.23Zm1.08.59a.38.38,0,0,0,.4-.37.4.4,0,0,0-.8,0A.38.38,0,0,0,88,72.82Zm.92.73a.38.38,0,1,0,0-.75.38.38,0,1,0,0,.75Zm.22.7a.39.39,0,0,0,.21.3l.1,0,.08,0a.41.41,0,0,0,.19,0,.38.38,0,0,0,.2-.33.35.35,0,0,0-.16-.29.36.36,0,0,0-.23-.08.39.39,0,0,0-.33.18.32.32,0,0,0-.07.19S89.11,74.24,89.11,74.25Zm1,1.12a.39.39,0,0,0-.4-.38.4.4,0,0,0-.15,0,.38.38,0,0,0-.24.35.39.39,0,0,0,.39.37h.07A.38.38,0,0,0,90.14,75.37Zm0,1.14a.37.37,0,0,0-.33-.36h-.06a.37.37,0,1,0,0,.74h0A.37.37,0,0,0,90.18,76.51Zm-.36,1.06v0a.38.38,0,0,0-.19-.31.47.47,0,0,0-.2-.06.39.39,0,0,0-.4.37.38.38,0,0,0,.26.35.32.32,0,0,0,.14,0A.39.39,0,0,0,89.82,77.57Zm-.67,1a.34.34,0,0,0-.12-.27.39.39,0,0,0-.27-.11.39.39,0,0,0-.4.38.37.37,0,0,0,.12.26.39.39,0,0,0,.28.11A.38.38,0,0,0,89.15,78.52Zm.95-5a.38.38,0,1,0,0-.75.38.38,0,1,0,0,.75Zm1.22,0a.37.37,0,1,0,0-.74.37.37,0,1,0,0,.74Zm1.24.07a.38.38,0,1,0-.4-.38A.39.39,0,0,0,92.56,73.57Zm1.3.23a.38.38,0,0,0,.4-.37.4.4,0,0,0-.8,0A.38.38,0,0,0,93.86,73.8Zm1.17.42a.37.37,0,1,0-.4-.37A.38.38,0,0,0,95,74.22Zm1.12.6a.38.38,0,1,0,0-.75.38.38,0,1,0,0,.75Zm.94.72a.38.38,0,1,0,0-.75.38.38,0,1,0,0,.75Zm.81.88a.38.38,0,1,0,0-.75.38.38,0,1,0,0,.75Zm.21.68a.39.39,0,0,0,.4.38.38.38,0,1,0,0-.75A.39.39,0,0,0,98.11,77.1Zm.29,1.17a.38.38,0,0,0,.4.37.37.37,0,1,0,0-.74A.38.38,0,0,0,98.4,78.27Zm.75,1.19a.4.4,0,0,0-.79,0,.4.4,0,0,0,.79,0Zm-.36,1.11a.4.4,0,0,0-.79,0,.4.4,0,0,0,.79,0Zm-1.33,1a.4.4,0,0,0,.79,0,.4.4,0,0,0-.79,0ZM68.14,83.89c-.1-.3-.36-.49-.58-.42s-.3.36-.2.66a.63.63,0,0,0,.38.41.34.34,0,0,0,.2,0,.3.3,0,0,0,.14-.11A.6.6,0,0,0,68.14,83.89ZM75.39,82c-.23,0-.38.29-.34.61a.61.61,0,0,0,.33.49.4.4,0,0,0,.15,0,.33.33,0,0,0,.16-.07.61.61,0,0,0,.18-.55C75.83,82.23,75.61,82,75.39,82Zm8.6.61c0-.32-.11-.59-.34-.61s-.44.2-.48.51a.61.61,0,0,0,.18.55.33.33,0,0,0,.16.07.4.4,0,0,0,.15,0A.59.59,0,0,0,84,82.64Zm7.69,1.49c.11-.3,0-.6-.2-.66s-.48.12-.58.42a.6.6,0,0,0,.06.55.3.3,0,0,0,.14.11.34.34,0,0,0,.2,0A.63.63,0,0,0,91.68,84.13ZM70.9,87.5a.37.37,0,0,0-.39-.37.38.38,0,0,0-.4.37.39.39,0,0,0,.4.38A.38.38,0,0,0,70.9,87.5Zm5.55-1.07a.38.38,0,1,0,.4.38A.39.39,0,0,0,76.45,86.43Zm6.52.38a.38.38,0,0,0-.39-.38.38.38,0,1,0,0,.75A.38.38,0,0,0,83,86.81Zm6,.69a.4.4,0,0,0-.8,0,.4.4,0,0,0,.8,0Z" transform="translate(0 0)"/><path class="cls-5" d="M79.82,131.58h0a1.69,1.69,0,0,0,1.82-1.5,1.46,1.46,0,0,0-1.13-1.44.91.91,0,0,1,0-.26c0-.08.08-.25.08-.25l-.31.09a1.19,1.19,0,0,0-.28.18s0-.11-.09-.21a1,1,0,0,0-.22-.23,1,1,0,0,0-.25.19,1.51,1.51,0,0,0-.19.27.72.72,0,0,0-.73-.17l.23.23a.78.78,0,0,1,.09.18,1.31,1.31,0,0,0-1.11,1.42,1.72,1.72,0,0,0,1.81,1.5h.23Zm-.7-1.5a1.81,1.81,0,0,1,.59-1.33,1.83,1.83,0,0,1,0,2.67A1.82,1.82,0,0,1,79.12,130.08Z" transform="translate(0 0)"/><path class="cls-6" d="M51.32,90.41a.12.12,0,0,1-.1.12l-.25,0h0l-.25,0a.12.12,0,0,1-.14-.09.12.12,0,0,1,.1-.13l.25,0,.25,0A.12.12,0,0,1,51.32,90.41Zm3.41,0-.26,0-.25,0a.11.11,0,1,0,0,.21l.26,0,.25,0a.11.11,0,1,0,0-.22Zm50.16-.07-.26,0-.25,0a.12.12,0,0,0-.1.13.12.12,0,0,0,.14.09l.25,0,.25,0a.11.11,0,0,0,.1-.12A.11.11,0,0,0,104.89,90.32Zm3.54.07-.25,0-.26,0a.11.11,0,0,0-.13.09.1.1,0,0,0,.09.12l.26,0,.25,0a.11.11,0,1,0,0-.22Zm-34.86-3,.87-.11a.37.37,0,0,0,.34-.41.39.39,0,0,0-.44-.33l-.87.1-.85.1a.38.38,0,0,0-.35.42.4.4,0,0,0,.45.32Zm11.89,0,.85.09a.39.39,0,0,0,.44-.32.38.38,0,0,0-.34-.42l-.86-.1-.87-.1a.39.39,0,0,0-.44.33.37.37,0,0,0,.35.41Zm-7.94,44a10,10,0,0,0-2.07,0,7.73,7.73,0,0,1,.66.53,3.86,3.86,0,0,0,1.24.69,4.33,4.33,0,0,0,2.21-.07h0A10.3,10.3,0,0,0,77.52,131.42Zm4.34.09A3.94,3.94,0,0,0,80,132.6l.36,0c.14,0,1,.07,1.79.06a2.58,2.58,0,0,0,1.49-.57c.2-.14.57-.32.56-.32A5.44,5.44,0,0,0,81.86,131.51Zm-2,.07h-.29a3.15,3.15,0,0,1,0,.78s0,.1,0,.15h0a4.14,4.14,0,0,1-.22.86l.29-.11a1.68,1.68,0,0,1,.26-.06,7.4,7.4,0,0,0,.07-.85,3,3,0,0,0-.14-.78Zm7.77-11.08a.88.88,0,0,0,.07.32l0,.08a.94.94,0,0,0,.48.44l.08,0,.27,0h0a1,1,0,0,0,.24-.05l.09,0a.94.94,0,0,0,.48-.37,1.28,1.28,0,0,0,.11-.2,1,1,0,0,0,.06-.29.94.94,0,0,0-.06-.29.76.76,0,0,0-.09-.18,1,1,0,0,0-.46-.4l-.12,0a1,1,0,0,0-.25,0h0a1,1,0,0,0-.85.55v0A.86.86,0,0,0,87.59,120.5Z" transform="translate(0 0)"/><path class="cls-7" d="M71.69,108.47H69.45V107a1,1,0,0,1,1.08-1,1,1,0,0,1,1.16,1Zm-2.57-4.74v-1.58a.75.75,0,1,0-1.5,0v1.58Zm3.66-2.41a.77.77,0,0,0-.75.83v1.58h1.5v-1.58A.77.77,0,0,0,72.78,101.32Z" transform="translate(0 0)"/><path class="cls-8" d="M56.9,129.6a3.13,3.13,0,0,0,1.41.31h0v.87a3.13,3.13,0,0,1-1.41-.31,3,3,0,0,0-1.38-.3,3.1,3.1,0,0,0-1.41.3,3.34,3.34,0,0,1-2.83,0,3.1,3.1,0,0,0-1.36-.29,3.15,3.15,0,0,0-1.39.29,3.17,3.17,0,0,1-1.42.32v-.87a3.17,3.17,0,0,0,1.42-.31,3,3,0,0,1,1.39-.3l.22,0a3.13,3.13,0,0,1,1.14.27,3.34,3.34,0,0,0,2.83,0,3.23,3.23,0,0,1,1.41-.3,3.69,3.69,0,0,1,.76.08A2.66,2.66,0,0,1,56.9,129.6ZM55.52,131a3.1,3.1,0,0,0-1.41.3,3.16,3.16,0,0,1-1.41.3,3,3,0,0,1-1.42-.32,3.26,3.26,0,0,0-1.36-.28,4.59,4.59,0,0,0-.77.07,2.66,2.66,0,0,0-.62.22h0a3.12,3.12,0,0,1-1.41.32v.87a3.17,3.17,0,0,0,1.42-.32,3,3,0,0,1,1.39-.29,3.11,3.11,0,0,1,1.36.28,2.3,2.3,0,0,0,.64.23,3.2,3.2,0,0,0,.78.1,3.78,3.78,0,0,0,.77-.09,2.67,2.67,0,0,0,.64-.22,3.53,3.53,0,0,1,2.17-.22,2.65,2.65,0,0,1,.62.21l.05,0a3.07,3.07,0,0,0,1.36.29v-.87h0a3,3,0,0,1-1.41-.31A3.13,3.13,0,0,0,55.52,131ZM49.78,106.7v6.88h0c1-.37,1.87-.75,2.92-1.21a30.28,30.28,0,0,0,2.92-1.48v-5.23a18.72,18.72,0,0,0-2.77.25A17,17,0,0,0,49.78,106.7Zm5.85-4.39V95.93H49.78v7.21a21.59,21.59,0,0,1,2.42-.56A20.21,20.21,0,0,1,55.63,102.31Zm-5.85,14.35h0v7.93h5.85V114.08c-.63.37-1.33.75-2.09,1.11C52.62,115.63,50.69,116.34,49.78,116.66ZM110,129.38a3.69,3.69,0,0,0-.76-.08,3.23,3.23,0,0,0-1.41.3,3.34,3.34,0,0,1-2.83,0,3.08,3.08,0,0,0-1.14-.27l-.22,0a3,3,0,0,0-1.39.3,3.17,3.17,0,0,1-1.42.31v.87a3.17,3.17,0,0,0,1.42-.32,3.15,3.15,0,0,1,1.39-.29,3.1,3.1,0,0,1,1.36.29,3.34,3.34,0,0,0,2.83,0,3.1,3.1,0,0,1,1.41-.3,3,3,0,0,1,1.39.3,3.05,3.05,0,0,0,1.4.31v-.87h0a3.05,3.05,0,0,1-1.4-.31A2.74,2.74,0,0,0,110,129.38Zm-.76,1.66a3.1,3.1,0,0,0-1.41.3,3.16,3.16,0,0,1-1.41.3,3,3,0,0,1-1.42-.32,3.26,3.26,0,0,0-1.36-.28,3,3,0,0,0-1.39.29,3.17,3.17,0,0,1-1.42.32v.87a3.17,3.17,0,0,0,1.42-.32,3,3,0,0,1,1.39-.29,3.11,3.11,0,0,1,1.36.28,2.3,2.3,0,0,0,.64.23,3.2,3.2,0,0,0,.78.1,3.78,3.78,0,0,0,.77-.09,2.67,2.67,0,0,0,.64-.22A3.53,3.53,0,0,1,110,132a2.74,2.74,0,0,1,.63.21l0,0a3.07,3.07,0,0,0,1.36.29v-.87h0a2.93,2.93,0,0,1-1.4-.31A3.18,3.18,0,0,0,109.22,131Zm-2.3-28.46a23.9,23.9,0,0,1,2.41.55v-7.2h-5.85v6.38h0A20.4,20.4,0,0,1,106.92,102.58Zm-3.44,8.28h0Zm0,3.21V124.6h5.85v-7.94c-.92-.32-2.84-1-3.75-1.47S104.11,114.44,103.48,114.07Zm0-8.42v2.41h0v2.82a29.15,29.15,0,0,0,2.92,1.48c1,.46,1.89.84,2.91,1.21v-6.88a18,18,0,0,0-3.07-.79A18.85,18.85,0,0,0,103.48,105.65Zm-6.9,21.71a8.59,8.59,0,0,1-3.71,3.52A30.28,30.28,0,0,1,79.64,134a30.63,30.63,0,0,1-13.31-3.08,8.71,8.71,0,0,1-2.8-2.18v0a9.13,9.13,0,0,0,6,3.1v0a9.89,9.89,0,0,0,2.11,0h0a9.74,9.74,0,0,0,2.55-.64,7.66,7.66,0,0,0,1.48-.75v0a8.67,8.67,0,0,0,2.49-2.41,6.73,6.73,0,0,0,.71-1.26c.08-.18.15-.36.22-.54l0-.08a4.68,4.68,0,0,0,.17-.53,4.41,4.41,0,0,0,.15-.55h0a8.32,8.32,0,0,0,.21-1v-.14a8.86,8.86,0,0,0,9,8A9.14,9.14,0,0,0,96.58,127.36Zm-16.62,5a3,3,0,0,0-.14-.78,1.69,1.69,0,0,0,1.82-1.5,1.46,1.46,0,0,0-1.13-1.44.91.91,0,0,1,0-.26c0-.08.08-.25.08-.25l-.31.09a1.19,1.19,0,0,0-.28.18s0-.11-.09-.21a1,1,0,0,0-.22-.23,1,1,0,0,0-.25.19,1.51,1.51,0,0,0-.19.27.72.72,0,0,0-.73-.17l.23.23a.78.78,0,0,1,.09.18,1.31,1.31,0,0,0-1.11,1.42,1.72,1.72,0,0,0,1.81,1.5h-.06a3.15,3.15,0,0,1,0,.78s0,.1,0,.15a10.3,10.3,0,0,0-2-1.09,10,10,0,0,0-2.07,0,7.73,7.73,0,0,1,.66.53,3.86,3.86,0,0,0,1.24.69,4.33,4.33,0,0,0,2.21-.07,4.14,4.14,0,0,1-.22.86l.29-.11a1.68,1.68,0,0,1,.26-.06A7.4,7.4,0,0,0,80,132.36Zm4.22-.64a5.44,5.44,0,0,0-2.32-.21A3.94,3.94,0,0,0,80,132.6l.36,0c.14,0,1,.07,1.79.06a2.58,2.58,0,0,0,1.49-.57C83.82,131.9,84.19,131.72,84.18,131.72Zm-21.93-5.07a3.37,3.37,0,0,0,.19.38s0,0,0,0A3.59,3.59,0,0,1,62.25,126.65Zm.41.78a5.09,5.09,0,0,0,.3.5c-.1-.16-.2-.32-.3-.5ZM97,126.61c-.1.22-.21.43-.33.65C96.75,127,96.87,126.83,97,126.61Zm.37-1a.44.44,0,0,1,0,.1A.44.44,0,0,0,97.34,125.58Zm-6.13-17.09Zm-.63-14,.1.06.31.26-.32-.27Zm-.39-.26-.14-.09Zm.81.6.22.21A2.23,2.23,0,0,0,91,94.8Zm6.67,8.27v8.17H85.46s0-.06,0-.09c0-3.63-2.62-6.58-5.86-6.58h0V91.19H97.67ZM82.3,97a2.28,2.28,0,0,1,.42.06,1.21,1.21,0,0,1-.08-.29,1,1,0,0,0-.12-.29.8.8,0,0,0-.43.21.78.78,0,0,0-.13.51S82.14,97,82.3,97Zm.28,3.36a1,1,0,0,1,.36,0,.48.48,0,0,1,.23.16,1.14,1.14,0,0,0,.16-.16,2.34,2.34,0,0,0,.11-.21A.47.47,0,0,0,83,100,.8.8,0,0,0,82.58,100.37Zm.58,1.37a1.67,1.67,0,0,1,0-.24.51.51,0,0,0-.07-.3.59.59,0,0,0-.41.12.68.68,0,0,0-.2.45.53.53,0,0,1,.32-.13A1.5,1.5,0,0,1,83.16,101.74Zm1.23-.15c0-.16.41-.15.68-.2a.81.81,0,0,0,.44-.31s-.06.3-.06.36,0,.31,0,.31.28-.23.53-.41a1.33,1.33,0,0,0,.36-.63s0,.2,0,.31,0,.44,0,.44a3.35,3.35,0,0,1,.27-.38,1.81,1.81,0,0,1,.44-.36,1.05,1.05,0,0,1,.37-.1,3.19,3.19,0,0,0,.23.57,3.9,3.9,0,0,0,.75.78c.24.16,1.31.71,1.31.71s-.58.11-.74.12-.53,0-1,0-.66.49-.74.6,0,.48,0,.75a.58.58,0,0,0,.17.55,1.69,1.69,0,0,1,.06-.38,2.56,2.56,0,0,0,.1-.34,3,3,0,0,1,.08.34,2.74,2.74,0,0,1,0,.32,1.9,1.9,0,0,0,0,.39,2.2,2.2,0,0,0,.15-.29.91.91,0,0,1,.23-.21,2.06,2.06,0,0,0-.05.36c0,.08,0,.27,0,.37s-.11.16-.48.2a.71.71,0,0,1-.74-.3c-.23-.25,0-.41-.24-.51s-.2.16-.26.23l-.08.06c.06-.06.18-.21.18-.21a.6.6,0,0,0-.44-.22,1,1,0,0,0-.52.25s.32,0,.4.08l.16.24a1,1,0,0,0,.16-.1l-.12.09c-.17.12,0,.18.11.28s.15.15.1.28-.34,0-.56-.05,0,.19,0,.42.07.34.16.39.2-.08.28-.13a.31.31,0,0,1,.25,0c.07,0,0,.08,0,.19s-.11.12-.14.27.17.11.3.15a3,3,0,0,0,.32.08c.11,0,.27,0,.19-.25s.13-.24.23-.26.33.08.42.11a3.39,3.39,0,0,0,.5,0,.92.92,0,0,1,.45.1.53.53,0,0,0,.33,0,1.43,1.43,0,0,0,.27-.32c0-.09,0-.32-.17-.8a1.71,1.71,0,0,1-.08-1c.11-.18.3-.1.57-.1H90s-.1.26-.17.41a1.57,1.57,0,0,0,0,.57,2.39,2.39,0,0,0,.18.5,1.33,1.33,0,0,0,.36.38c.07,0,.32.36.37.31s-.1-.17-.1-.31,0-.48,0-.48a2.11,2.11,0,0,0,.23.5l.26.28a1.29,1.29,0,0,1,0-.32,3.55,3.55,0,0,0,0-.49s.08.23.13.33.2.12.34.29a.5.5,0,0,1,.08.54.53.53,0,0,1-.39.23c-.21,0-.3-.17-.51-.06s0,.23,0,.29a.28.28,0,0,1,0,.13v-.06l-.05-.16a.75.75,0,0,0-.46,0c-.16.09-.3.5-.3.5a.86.86,0,0,1,.46-.2,1.2,1.2,0,0,1,.34.11h0a.18.18,0,0,0,.26.06.2.2,0,0,1,.27,0c.09.08,0,.15-.18.18a.45.45,0,0,0-.27.35.09.09,0,0,0,0,0h0s-.22.23-.14.42a2.32,2.32,0,0,0,.22.4s0-.29.08-.37a.7.7,0,0,1,.38-.13l0,0a.18.18,0,0,0,.09,0c.09,0,.09-.22.1-.32s.06-.16.14-.16,0,.07.06.26,0,.25.14.27.16-.11.36-.16c0,0,.05,0,.09,0h-.09l-.27.11a.44.44,0,0,0,.1.47.81.81,0,0,0,.4.2s-.17-.29-.12-.44a.63.63,0,0,1,.2-.26h0c.23-.07-.1-.45-.1-.45a1,1,0,0,1-.06-.5,5,5,0,0,1,.31-.89c.1-.22.4-.52.43-.66a.31.31,0,0,0-.1-.3.59.59,0,0,1-.16-.27c-.05-.12-.29,0-.47-.19a.93.93,0,0,1-.41-.91,1.21,1.21,0,0,1,.46-1.05c.16-.09.85-.1,1.26-.44a2,2,0,0,0,.58-1.73,14.59,14.59,0,0,0-.75-2.08c0-.19-.25-1.44.13-1.75s.44-.22.64-.57.09-.38.38-.8a2.81,2.81,0,0,1,.51-.59,2.6,2.6,0,0,0-.31,0,2,2,0,0,0-.45.11s.51-.58.64-.75a2.3,2.3,0,0,0,.22-1,.58.58,0,0,1-.11.18,5.73,5.73,0,0,1-.77.52.88.88,0,0,0-.35.6,2.56,2.56,0,0,0,0-.54c-.06-.14-.27-.52-.27-.52s0,.32,0,.49a2.21,2.21,0,0,1-.17.49,5.31,5.31,0,0,0-.34.86,2.88,2.88,0,0,0,0,1.18c0,.15-.17,1-.18,1.22a6.15,6.15,0,0,0,.33,1.75c.24.71.66,2.21-.46,2.5s-1.64-.58-2-1.08a3.68,3.68,0,0,1-.69-1.69,1.34,1.34,0,0,0-.2-.41,3.13,3.13,0,0,0,.37.28,1.56,1.56,0,0,1,.28.34s.06-.6.06-.89a2.22,2.22,0,0,0-.19-.7,3.16,3.16,0,0,1,.41.33,1.62,1.62,0,0,1,.3.4,2.06,2.06,0,0,0,.11-.58,1,1,0,0,0-.28-.56,4.23,4.23,0,0,0,.45.23c.15,0,.31.32.31.32a1.59,1.59,0,0,0,0-.52,2,2,0,0,0-.38-.48,1.07,1.07,0,0,1-.18-.45c0-.11,0-.37,0-.37l.22.16.27.2a1.39,1.39,0,0,0-.08-.34,1.94,1.94,0,0,1-.11-.34c0-.13.06-.33,0-.58a4,4,0,0,1,0-.44h0a3.07,3.07,0,0,1,.43-.18,1.8,1.8,0,0,1,.49-.07s0,0,0,0,.07,0,.12,0l0,0a2.08,2.08,0,0,1,.23,0,.57.57,0,0,1,.18.09s.05-.15-.1-.28-.31.07-.31.08h0l0-.26h-.2l-.11.17.16.1c-.18,0-.44,0-.44-.16a.15.15,0,0,1,0-.07s-.07,0-.11,0-.06-.15,0-.25l.07,0v0h0l.08.23.21,0,.06-.19-.24-.09.27-.09,0-.2h0l-.21,0L92,94.3l-.08-.23-.2.05h0l-.07.18.24.1h0a.15.15,0,0,1-.06,0,.23.23,0,0,1-.31,0,.17.17,0,0,1,0-.17.18.18,0,0,1-.16,0,.2.2,0,0,1,0-.29.46.46,0,0,1,.1-.1l.1.18L91.6,94l0-.19-.25-.06.26-.13-.07-.19-.21,0-.08.26-.12-.22-.19.07,0,.2.24.06a1.2,1.2,0,0,1-.09.12.22.22,0,0,1-.31,0,.16.16,0,0,1-.05-.14.19.19,0,0,1-.19,0,.2.2,0,0,1,0-.28l0-.07v0h0l.14.2.18-.1V93.3l-.25,0,.23-.16-.1-.18h-.21l0,.28-.15-.2-.18.09v.2l.26,0h0l0,.07a.19.19,0,0,1-.25.06s-.05-.1,0-.1l-.07,0c-.15,0-.22-.2-.26-.37l.14.12L90,93l0-.19-.27,0h0s.14-.2,0-.31a.31.31,0,0,0-.32,0s.12.08.14.15a1,1,0,0,1,.08.2s0,0,0,0,0,.11,0,.12,0,0,0,0h0a1.7,1.7,0,0,1,0,.47,2.23,2.23,0,0,1-.1.43,1.6,1.6,0,0,0-.48.13c-.11.08-.13.26-.22.33a2.25,2.25,0,0,1-.71.09.78.78,0,0,0-.51.13.12.12,0,0,0,0,.12h0a.64.64,0,0,1,0,.1l0,.14a.14.14,0,0,0,0,.06v0h0a.35.35,0,0,0,.24.23l-.07,0,0,.24.26-.14L88,95.28a1.71,1.71,0,0,0,.29.08l0,.23.21-.17a.34.34,0,0,1,.27.37,3.41,3.41,0,0,1-.86,0,2.27,2.27,0,0,1-.87-.45c-.28-.25-.39-.4-.6-.43a1.35,1.35,0,0,0-.86.15,1.58,1.58,0,0,1,.64.47A1.69,1.69,0,0,0,87,96a9,9,0,0,0,1.16,0,6.14,6.14,0,0,1,.63.06.39.39,0,0,1-.41.29l-.15-.17-.13.18H88l-.12-.17-.12.19H88c-.21,0-.35,0-.39.15s.41.31.49.49-.18.33-.39.42a3.88,3.88,0,0,1-1,0,1.25,1.25,0,0,0-.41.07,2.1,2.1,0,0,0-.3-.11,7.59,7.59,0,0,1-.8-.52c-.19-.13-.5-.2-.66-.31a1.54,1.54,0,0,1-.42-.53.61.61,0,0,1,.09-.54.88.88,0,0,0,.23-.38c0-.06,0-.07-.11-.08h0a.73.73,0,0,0,0-.33.68.68,0,0,0-.47-.53s.12.27.06.39a1.18,1.18,0,0,1-.23.31.92.92,0,0,0,.3.14l.21,0h-.2c-.16,0-.24-.15-.34-.16s-.13.18-.1.29,0,.39-.09.42-.29-.35-.42-.43-.21.17-.27.26a.22.22,0,0,1-.09.07l0,0c.06-.08.14-.22.14-.22a.51.51,0,0,0-.48-.24,1,1,0,0,0-.54.29,1.35,1.35,0,0,1,.45,0,.53.53,0,0,1,.18.31l0,0c-.1.1.1.21.23.28s.34.24.31.29-.36,0-.51,0,0,.25,0,.34,0,0,0,.19.09.23.2.24.31-.13.42-.12.15.13.21.21.15.25.22.37a1.25,1.25,0,0,0,.43.21,2.23,2.23,0,0,0-.39,0,1.62,1.62,0,0,0-.5.22,2.17,2.17,0,0,1,.3,0,2.62,2.62,0,0,1,.46.19,2.21,2.21,0,0,0,.42,0c-.08,0-.24.14-.3.19a1.45,1.45,0,0,1-.29.13,4.46,4.46,0,0,0,.62.17,3.1,3.1,0,0,1,.69.23,4.52,4.52,0,0,1,.38.38,4.12,4.12,0,0,0,.37.29,6,6,0,0,1-.58.4c-.11.06-.44.3-.54.36a1.6,1.6,0,0,1-.78.08c-.2-.06-.16-.27-.35-.36s-.22.09-.27.18a.64.64,0,0,1-.19.23c-.12.11,0,.23.2.28s.32.15.3.22-.36,0-.44.07-.11.11-.06.22,0,.21,0,.38.19.12.29.07.27-.13.32-.07-.16.2-.19.3,0,.2.06.23a.64.64,0,0,0,.12.45.66.66,0,0,0,.4.21,2.15,2.15,0,0,1-.1-.29.37.37,0,0,1,.12-.27.45.45,0,0,0-.26-.13h-.21a.36.36,0,0,1,.19,0,.62.62,0,0,1,.28.14.57.57,0,0,0,.2-.2C84.46,102,84.36,101.75,84.39,101.59Zm2.14,5.61c0-.12.24-.29.24-.29l-.53-.11h0a.42.42,0,0,0,0,.42.86.86,0,0,0,.38.27A.36.36,0,0,1,86.53,107.2Zm-.89-.94s0-.19,0-.28l-.07-.25h0a.64.64,0,0,0-.5.13.79.79,0,0,0-.15.49s.2-.22.38-.2A1.65,1.65,0,0,1,85.64,106.26Zm-1.09-8h0Zm3.94-2.83-.18,0,.22.06A.05.05,0,0,0,88.49,95.4Zm2.7,13.08,0,0-.07,0,.06,0Z" transform="translate(0 0)"/><path class="cls-9" d="M85.07,101.39a.81.81,0,0,0,.44-.31s-.06.3-.06.36,0,.31,0,.31.28-.23.53-.41a1.33,1.33,0,0,0,.36-.63s0,.2,0,.31,0,.44,0,.44a3.35,3.35,0,0,1,.27-.38,1.81,1.81,0,0,1,.44-.36,1.05,1.05,0,0,1,.37-.1,3.19,3.19,0,0,0,.23.57,3.9,3.9,0,0,0,.75.78c.24.16,1.31.71,1.31.71s-.58.11-.74.12-.53,0-1,0-.66.49-.74.6,0,.48,0,.75a.58.58,0,0,0,.17.55,1.69,1.69,0,0,1,.06-.38,2.56,2.56,0,0,0,.1-.34,3,3,0,0,1,.08.34,2.74,2.74,0,0,1,0,.32,1.9,1.9,0,0,0,0,.39,2.2,2.2,0,0,0,.15-.29.91.91,0,0,1,.23-.21,2.06,2.06,0,0,0-.05.36c0,.08,0,.27,0,.37s-.11.16-.48.2a.71.71,0,0,1-.74-.3c-.23-.25,0-.41-.24-.51s-.2.16-.26.23l-.08.06h0l0,0-.12.09c-.17.12,0,.18.11.28s.15.15.1.28-.34,0-.56-.05,0,.19,0,.42.07.34.16.39.2-.08.28-.13a.31.31,0,0,1,.25,0c.07,0,0,.08,0,.19s-.11.12-.14.27.17.11.3.15a3,3,0,0,0,.32.08c.11,0,.27,0,.19-.25s.13-.24.23-.26.33.08.42.11a3.39,3.39,0,0,0,.5,0,.92.92,0,0,1,.45.1.53.53,0,0,0,.33,0,1.43,1.43,0,0,0,.27-.32c0-.09,0-.32-.17-.8a1.71,1.71,0,0,1-.08-1c.11-.18.3-.1.57-.1H90s-.1.26-.17.41a1.57,1.57,0,0,0,0,.57,2.39,2.39,0,0,0,.18.5,1.33,1.33,0,0,0,.36.38c.07,0,.32.36.37.31s-.1-.17-.1-.31,0-.48,0-.48a2.11,2.11,0,0,0,.23.5l.26.28a1.29,1.29,0,0,1,0-.32,3.55,3.55,0,0,0,0-.49s.08.23.13.33.2.12.34.29a.5.5,0,0,1,.08.54.53.53,0,0,1-.39.23c-.21,0-.3-.17-.51-.06s0,.23,0,.29a.28.28,0,0,1,0,.13,1.1,1.1,0,0,1,0,.22.18.18,0,0,0,.26.06.2.2,0,0,1,.27,0c.09.08,0,.15-.18.18a.45.45,0,0,0-.27.35.09.09,0,0,0,0,0l.21.1.07,0,0,0h0l.14.11a.18.18,0,0,0,.09,0c.09,0,.09-.22.1-.32s.06-.16.14-.16,0,.07.06.26,0,.25.14.27.16-.11.36-.16c0,0,.05,0,.09,0l.18.06h.07c.23-.07-.1-.45-.1-.45a1,1,0,0,1-.06-.5,5,5,0,0,1,.31-.89c.1-.22.4-.52.43-.66a.31.31,0,0,0-.1-.3.59.59,0,0,1-.16-.27c-.05-.12-.29,0-.47-.19a.93.93,0,0,1-.41-.91,1.21,1.21,0,0,1,.46-1.05c.16-.09.85-.1,1.26-.44a2,2,0,0,0,.58-1.73,14.59,14.59,0,0,0-.75-2.08c0-.19-.25-1.44.13-1.75s.44-.22.64-.57.09-.38.38-.8a2.81,2.81,0,0,1,.51-.59,2.6,2.6,0,0,0-.31,0,2,2,0,0,0-.45.11s.51-.58.64-.75a2.3,2.3,0,0,0,.22-1,.58.58,0,0,1-.11.18,5.73,5.73,0,0,1-.77.52.88.88,0,0,0-.35.6,2.56,2.56,0,0,0,0-.54c-.06-.14-.27-.52-.27-.52s0,.32,0,.49a2.21,2.21,0,0,1-.17.49,5.31,5.31,0,0,0-.34.86,2.88,2.88,0,0,0,0,1.18c0,.15-.17,1-.18,1.22a6.15,6.15,0,0,0,.33,1.75c.24.71.66,2.21-.46,2.5s-1.64-.58-2-1.08a3.68,3.68,0,0,1-.69-1.69,1.34,1.34,0,0,0-.2-.41,3.13,3.13,0,0,0,.37.28,1.56,1.56,0,0,1,.28.34s.06-.6.06-.89a2.22,2.22,0,0,0-.19-.7,3.16,3.16,0,0,1,.41.33,1.62,1.62,0,0,1,.3.4,2.06,2.06,0,0,0,.11-.58,1,1,0,0,0-.28-.56,4.23,4.23,0,0,0,.45.23c.15,0,.31.32.31.32a1.59,1.59,0,0,0,0-.52,2,2,0,0,0-.38-.48,1.07,1.07,0,0,1-.18-.45c0-.11,0-.37,0-.37l.22.16.27.2a1.39,1.39,0,0,0-.08-.34,1.94,1.94,0,0,1-.11-.34c0-.13.06-.33,0-.58a4,4,0,0,1,0-.44,2,2,0,0,0-.29-.37L91,94.8v0l-.31-.26-.1-.06a4.4,4.4,0,0,0-.39-.26l-.14-.09a2.2,2.2,0,0,0-.45-.19h0a1.6,1.6,0,0,0-.48.13c-.11.08-.13.26-.22.33a2.25,2.25,0,0,1-.71.09.78.78,0,0,0-.51.13.12.12,0,0,0,0,.12s.3,0,.29.1-.1.09-.12.13-.07.09-.07.1a.35.35,0,0,0,.24.23h0a1.71,1.71,0,0,0,.29.08h0l.18,0a.05.05,0,0,1,0,0h0a.34.34,0,0,1,.27.37,1.92,1.92,0,0,1,0,.3s0,0,0,0a.39.39,0,0,1-.41.29H88c-.21,0-.35,0-.39.15s.41.31.49.49-.18.33-.39.42a3.88,3.88,0,0,1-1,0,1.25,1.25,0,0,0-.41.07,2.1,2.1,0,0,0-.3-.11,7.59,7.59,0,0,1-.8-.52c-.19-.13-.5-.2-.66-.31a1.54,1.54,0,0,1-.42-.53.61.61,0,0,1,.09-.54.88.88,0,0,0,.23-.38c0-.06,0-.07-.11-.08h-.28c-.16,0-.24-.15-.34-.16s-.13.18-.1.29,0,.39-.09.42-.29-.35-.42-.43-.21.17-.27.26a.22.22,0,0,1-.09.07,1.12,1.12,0,0,1-.19.15c-.1.1.1.21.23.28s.34.24.31.29-.36,0-.51,0,0,.25,0,.34,0,0,0,.19.09.23.2.24.31-.13.42-.12.15.13.21.21.15.25.22.37a1.25,1.25,0,0,0,.43.21,2.23,2.23,0,0,0-.39,0,1.62,1.62,0,0,0-.5.22,2.17,2.17,0,0,1,.3,0,2.62,2.62,0,0,1,.46.19,2.21,2.21,0,0,0,.42,0c-.08,0-.24.14-.3.19a1.45,1.45,0,0,1-.29.13,4.46,4.46,0,0,0,.62.17,3.1,3.1,0,0,1,.69.23,4.52,4.52,0,0,1,.38.38,4.12,4.12,0,0,0,.37.29,6,6,0,0,1-.58.4c-.11.06-.44.3-.54.36a1.6,1.6,0,0,1-.78.08c-.2-.06-.16-.27-.35-.36s-.22.09-.27.18a.64.64,0,0,1-.19.23c-.12.11,0,.23.2.28s.32.15.3.22-.36,0-.44.07-.11.11-.06.22,0,.21,0,.38.19.12.29.07.27-.13.32-.07-.16.2-.19.3,0,.2.06.23h.07a.36.36,0,0,1,.19,0,.62.62,0,0,1,.28.14.57.57,0,0,0,.2-.2c.06-.11,0-.34,0-.5S84.8,101.44,85.07,101.39Zm4.52-6.91a1,1,0,0,1,.32.38s-.19-.09-.3-.13l-.17,0a.12.12,0,0,1-.13-.08.28.28,0,0,1,0-.11H89.2l0-.16A.92.92,0,0,1,89.59,94.48Zm-5.06,3.75h0ZM87.73,95l0,.08v0A.14.14,0,0,1,87.73,95Z" transform="translate(0 0)"/><path class="cls-10" d="M88.78,96.09s0,0,0,0a6.14,6.14,0,0,0-.63-.06A9,9,0,0,1,87,96a1.69,1.69,0,0,1-.7-.55,1.58,1.58,0,0,0-.64-.47,1.35,1.35,0,0,1,.86-.15c.21,0,.32.18.6.43a2.27,2.27,0,0,0,.87.45,3.41,3.41,0,0,0,.86,0A1.92,1.92,0,0,1,88.78,96.09Zm-4.44-.94a.73.73,0,0,0,0-.33.68.68,0,0,0-.47-.53s.12.27.06.39a1.18,1.18,0,0,1-.23.31.92.92,0,0,0,.3.14l.21,0h.09Zm-1.57.43c.06-.08.14-.22.14-.22a.51.51,0,0,0-.48-.24,1,1,0,0,0-.54.29,1.35,1.35,0,0,1,.45,0,.53.53,0,0,1,.18.31l0,0a1.12,1.12,0,0,0,.19-.15Zm-.13,1.2a1,1,0,0,0-.12-.29.8.8,0,0,0-.43.21.78.78,0,0,0-.13.51s.18-.2.34-.2a2.28,2.28,0,0,1,.42.06A1.21,1.21,0,0,1,82.64,96.78Zm.3,3.56a.48.48,0,0,1,.23.16,1.14,1.14,0,0,0,.16-.16,2.34,2.34,0,0,0,.11-.21A.47.47,0,0,0,83,100a.8.8,0,0,0-.44.35A1,1,0,0,1,82.94,100.34Zm.19.86a.59.59,0,0,0-.41.12.68.68,0,0,0-.2.45.53.53,0,0,1,.32-.13,1.5,1.5,0,0,1,.32.1,1.67,1.67,0,0,1,0-.24A.51.51,0,0,0,83.13,101.2Zm.53,1a.64.64,0,0,0,.12.45.66.66,0,0,0,.4.21,2.15,2.15,0,0,1-.1-.29.37.37,0,0,1,.12-.27.45.45,0,0,0-.26-.13h-.28Zm2.46,2.73c.06-.06.18-.21.18-.21a.6.6,0,0,0-.44-.22,1,1,0,0,0-.52.25s.32,0,.4.08l.16.24a1,1,0,0,0,.16-.1l0,0Zm-.53,1-.07-.25h0a.64.64,0,0,0-.5.13.79.79,0,0,0-.15.49s.2-.22.38-.2a1.65,1.65,0,0,1,.39.11S85.61,106.07,85.59,106Zm1.18.93-.53-.11h0a.42.42,0,0,0,0,.42.86.86,0,0,0,.38.27.36.36,0,0,1,0-.29C86.56,107.08,86.77,106.91,86.77,106.91Zm4,.55v-.06l-.05-.16a.75.75,0,0,0-.46,0c-.16.09-.3.5-.3.5a.86.86,0,0,1,.46-.2,1.2,1.2,0,0,1,.34.11h0A1.1,1.1,0,0,0,90.76,107.46Zm.45,1h0l-.06,0-.06,0-.21-.1h0s-.22.23-.14.42a2.32,2.32,0,0,0,.22.4s0-.29.08-.37a.7.7,0,0,1,.38-.13l0,0-.14-.11Zm1,.05-.27.11a.44.44,0,0,0,.1.47.81.81,0,0,0,.4.2s-.17-.29-.12-.44a.63.63,0,0,1,.2-.26h0l-.18-.06Z" transform="translate(0 0)"/><path d="M87.83,95s-.07.09-.07.1h0l0-.08,0-.14a.64.64,0,0,0,0-.1h0s.3,0,.29.1S87.85,94.91,87.83,95Zm1.49-.39a.28.28,0,0,0,0,.11.12.12,0,0,0,.13.08l.17,0c.11,0,.27.17.3.13a1,1,0,0,0-.32-.38.92.92,0,0,0-.41-.09l0,.16ZM88,96.43l-.12-.17-.12.19H88Zm.35,0h0l-.15-.17-.13.18h.29Zm-.43-1.17,0,.24.26-.14L88,95.28h0Zm.6.16-.22-.06h0l0,.23.21-.17h0Zm2.06-1.32a.07.07,0,0,0,0-.08s-.07,0-.08,0a.06.06,0,0,0,0,.08S90.57,94.12,90.59,94.1Zm.24.21.12.09s0,0,.06,0,0,0,0-.06l-.12-.09-.12-.09h-.07s0,0,0,.06Zm-.63-.43.09.05a.06.06,0,0,0,.07,0,.07.07,0,0,0,0-.06l-.09-.05-.1-.06a0,0,0,0,0-.06,0,.06.06,0,0,0,0,.07Zm-.27-.18s0,0,0-.08-.07,0-.08,0a.05.05,0,0,0,0,.08A.06.06,0,0,0,89.93,93.7Zm1.28.87a.05.05,0,0,0,0-.07.06.06,0,0,0-.09,0,.05.05,0,0,0,0,.07A.07.07,0,0,0,91.21,94.57Zm.2.24.08.07s.05,0,.06,0a0,0,0,0,0,0-.06l-.07-.08-.08-.07a0,0,0,0,0-.07,0s0,0,0,0Zm.34.29s0,0,0-.08a.07.07,0,0,0-.09,0,.06.06,0,0,0,0,.08S91.74,95.12,91.75,95.1Z" transform="translate(0 0)"/><path class="cls-11" d="M182.09,55h-130C63.5,38.37,74.81,23.28,90.46,15.76A60.38,60.38,0,0,1,116.53,10h1.16a60.38,60.38,0,0,1,26.07,5.76C159.41,23.28,170.72,38.37,182.09,55Zm0,90h-130c11.37,16.63,22.68,31.72,38.33,39.24A60.38,60.38,0,0,0,116.53,190h1.16a60.38,60.38,0,0,0,26.07-5.76C159.41,176.72,170.72,161.63,182.09,145ZM48.92,89.08a.2.2,0,0,1,.13.11.57.57,0,0,1,0,.26h0l.38-.31.22.15,0,.24-.33,0a2.2,2.2,0,0,0,.21.19.55.55,0,0,0,.33.13c.12,0,.17-.13.17-.25v0a.13.13,0,0,1-.08-.08c0-.07,0-.14,0-.15s.11,0,.14.09a.12.12,0,0,1,0,.12h0a.39.39,0,0,0,.32.16.37.37,0,0,0,.38-.36.29.29,0,0,0,0-.16h0l-.06,0-.36.2-.18-.18.09-.24.43,0a.06.06,0,0,1,0,0l-.26-.35.22-.21c-.38-.48-.72-.8-.89-.82l-.07,0a4.07,4.07,0,0,0-.57.21.94.94,0,0,0-.51.54.92.92,0,0,0,.13.71.3.3,0,0,1,.15.07ZM53,88.35h0l-.2.43,0,0,.4-.12.14.23h0c0-.09.11-.18.17-.27a3.77,3.77,0,0,1,1.24-1.25l-.4-.15a2.45,2.45,0,0,0-.53-.15,2.67,2.67,0,0,0-.4,0l-.41,0a1.27,1.27,0,0,1,.1.5A1.2,1.2,0,0,1,53,88.35Zm1.75.07.22.2L54.7,89s0,0,0,0l.43,0,.08.24-.18.18-.35-.19-.06,0h0a.29.29,0,0,0,0,.16.39.39,0,0,0,.7.2h0a.16.16,0,0,1,0-.12c0-.06.08-.11.13-.09s.07.08.05.15a.14.14,0,0,1-.09.08v0a.23.23,0,0,0,.18.25.55.55,0,0,0,.33-.13,2,2,0,0,0,.2-.18l-.4,0,0-.24.22-.15.38.31h0s0,0,0,0h0a.57.57,0,0,1,0-.26.2.2,0,0,1,.13-.11v.07s0,0,.08,0a1.06,1.06,0,0,0,.1-.17.68.68,0,0,0,0-.4,1.37,1.37,0,0,0-.16-.37,1.19,1.19,0,0,0-.43-.4,3.37,3.37,0,0,0-.5-.15A3.94,3.94,0,0,0,54.74,88.42Zm-2.91.25c.06.09.11.18.16.27h0l.14-.23.4.12,0,0-.2-.43h0a1.2,1.2,0,0,1-.2-.71,1.31,1.31,0,0,1,.1-.5h-.19c-.1,0-.4,0-.59,0a3,3,0,0,0-.4.09,2.1,2.1,0,0,0-.33.06l-.2.1-.09,0A3.68,3.68,0,0,1,51.83,88.67Zm-1.75,1.9h0l-.11.18.21.07h0l.13-.2Zm3-.34h-.71a.11.11,0,0,0-.11.11.11.11,0,0,0,.12.11h.7a.12.12,0,0,0,.12-.11A.11.11,0,0,0,53.07,90.23Zm2,.36.12.21h0l.22,0-.09-.19h0Zm-.11.59a9.85,9.85,0,0,0-2.28-.25,10.19,10.19,0,0,0-2.27.25,9.18,9.18,0,0,0,2.27.24A9.38,9.38,0,0,0,55,91.18Zm-7.47,26.59a4.06,4.06,0,0,0-.63.51l0,0a.8.8,0,0,0-.15.2,0,0,0,0,0,0,0,.25.25,0,0,0,0,.16c0,.22.31.39.68.63.58.41.93,1.14.66,1.47A2.08,2.08,0,0,0,48,117.5l-.35.22Zm14-14.68v3.52a19.12,19.12,0,0,0-5.83-1h0a18.72,18.72,0,0,0-2.77.25,17,17,0,0,0-3.08.8,9.81,9.81,0,0,0-1.44.64h0l-.17.1-.09,0-.23.15-.11.07-.17.14-.11.09-.12.12a1,1,0,0,0-.19.22.39.39,0,0,0-.08.1.67.67,0,0,0-.06.12.31.31,0,0,0,0,.1.5.5,0,0,0,0,.13s0,0,0,.08a.5.5,0,0,0,0,.21.44.44,0,0,0,0,.1s-1.31-3-1.34-3.07c-.18-1,1.57-2.14,4.19-2.91a21.59,21.59,0,0,1,2.42-.56,20.21,20.21,0,0,1,3.43-.27h0A18.77,18.77,0,0,1,61.5,103.09Zm-11.17,1c-.15-.36-.52-.42-1.07-.22l-1,.35.88,2.17.29-.12.31-.09-.39-1h0C50.09,105,50.55,104.71,50.33,104.14Zm2.79,1.25a.48.48,0,0,1,0-.14s0-.1,0-.15c-.27.08-.58.17-.94.24l-.45-2-.31.08-.32,0,.51,2.26Zm2.71-2.52-.19,0h-.2c-.19.58-.42,1.16-.67,1.73-.3-.54-.62-1.08-.87-1.62l-.38,0h-.37c.45.74.89,1.48,1.31,2.24l.18,0h.18C55.12,104.45,55.48,103.66,55.83,102.87Zm2.43,1.87c.08-.78-1.21-.82-1.16-1.28,0-.19.16-.31.5-.28a.48.48,0,0,1,.45.34h.07a3.24,3.24,0,0,1,.17-.32,1.32,1.32,0,0,0-.65-.23c-.65-.06-1,.22-1.06.61-.09.81,1.2.74,1.14,1.28,0,.23-.28.33-.54.3a.55.55,0,0,1-.54-.43h-.08a3.56,3.56,0,0,1-.17.41,1.51,1.51,0,0,0,.66.21C57.71,105.43,58.21,105.17,58.26,104.74Zm-9.07-.6-.25.09.36.87a1,1,0,0,0,.25-.12.46.46,0,0,0-.36-.84Zm-.85,3.2-.17.1-.09,0-.23.15-.11.07-.17.14-.11.09-.12.12a1,1,0,0,0-.19.22.39.39,0,0,0-.08.1.67.67,0,0,0-.06.12.31.31,0,0,0,0,.1.5.5,0,0,0,0,.13s0,0,0,.08a.5.5,0,0,0,0,.21c.13.68,1.23,1.11,2.86,1.23v-2.81a12.69,12.69,0,0,1-1.44-.1Zm8.28,2.9h0L57,110l0,0a2.93,2.93,0,0,0,.71-.73l0,0a1.31,1.31,0,0,0,0-.15.06.06,0,0,0,0,0,.22.22,0,0,0,0-.14h0l0,0,0,0a4.8,4.8,0,0,0-2.15-.71h0v2.82h0Q56.19,110.54,56.62,110.24Zm-6.83,3.33h0c-2.23.81-3.8,1.74-3.65,2.2h0l.54,2.91a.25.25,0,0,1,0-.16,0,0,0,0,1,0,0,.8.8,0,0,1,.15-.2l0,0a4.06,4.06,0,0,1,.63-.51l.09,0,.35-.22a10.58,10.58,0,0,1,1.83-.83h0c.91-.32,2.84-1,3.76-1.47.76-.36,1.46-.74,2.09-1.11,1.71-1,2.79-2,2.59-2.34a19.94,19.94,0,0,0-.43-3l0,0,0,0h0a.22.22,0,0,1,0,.14.06.06,0,0,1,0,0,1.31,1.31,0,0,1,0,.15l0,0a2.93,2.93,0,0,1-.71.73l0,0-.38.28h0q-.43.3-1,.63h0a30.28,30.28,0,0,1-2.92,1.48C51.66,112.82,50.82,113.2,49.79,113.57Zm53-24.38a.65.65,0,0,1,0,.26h0l.38-.31.23.15,0,.24-.34,0a2.2,2.2,0,0,0,.21.19.55.55,0,0,0,.33.13c.12,0,.17-.13.17-.25v0a.15.15,0,0,1-.08-.08c0-.07,0-.14,0-.15s.11,0,.14.09a.16.16,0,0,1,0,.12h0a.39.39,0,0,0,.32.16.37.37,0,0,0,.38-.36.41.41,0,0,0,0-.16h0s0,0-.06,0l-.35.2-.19-.18L104,89l.43,0a.06.06,0,0,1,0,0l-.26-.35.24-.23.32.12-.09.42,0,0,.36-.19.19.19-.09.22-.43,0s0,0,0,0h0v0a.38.38,0,0,0,.4.38.4.4,0,0,0,.4-.32v0a.13.13,0,0,1,0-.24s.1,0,.11.12a.13.13,0,0,1,0,.11v0a.39.39,0,0,0,.38.26.39.39,0,0,0,.4-.38.23.23,0,0,0,0-.12.08.08,0,0,0,0,0l-.4.12-.14-.2.14-.23.41.12,0,0-.19-.41a.72.72,0,0,1-.17-.35,3,3,0,0,0-.62-.06,2.09,2.09,0,0,0-1.09.25.13.13,0,0,1-.13.08.17.17,0,0,1-.12-.06,1.51,1.51,0,0,0-.55,0c-.52.11-.88.38-.83.62l0,.2h0A.2.2,0,0,1,102.75,89.19Zm4-.82-.19.42,0,0,.4-.12.14.23-.14.2-.4-.12,0,0a.27.27,0,0,0,0,.13.39.39,0,0,0,.4.38.39.39,0,0,0,.38-.26v0a.13.13,0,0,1,0-.11c0-.07.06-.13.11-.12a.13.13,0,0,1,0,.24v0a.4.4,0,0,0,.8-.06v0h0a.11.11,0,0,1,0,0l-.43,0L107.6,89h0l.18-.19.37.19,0,0-.09-.42.32-.12.24.23-.26.35s0,0,0,0l.43,0,.08.24-.18.18-.35-.19-.06,0h0a.42.42,0,0,0,0,.16.39.39,0,0,0,.7.2h0a.16.16,0,0,1,0-.12c0-.06.09-.11.14-.09s.06.08,0,.15a.15.15,0,0,1-.08.08v0c0,.12,0,.24.17.25a.55.55,0,0,0,.33-.13,2,2,0,0,0,.2-.18l-.4,0,0-.24.23-.15.37.31h0s0,0,0,0h0a.57.57,0,0,1,0-.26.2.2,0,0,1,.13-.11v.07l.05,0v0l0-.2c0-.24-.32-.51-.83-.62a1.69,1.69,0,0,0-.58,0,.15.15,0,0,1-.13.06.15.15,0,0,1-.14-.1,2.05,2.05,0,0,0-1-.23,3.1,3.1,0,0,0-.64.06A.72.72,0,0,1,106.7,88.37Zm-2.92,2.2h0l-.11.18.21.07h0l.13-.2Zm3-.34h-.71a.11.11,0,0,0-.11.11.11.11,0,0,0,.12.11h.7a.12.12,0,0,0,.12-.11A.11.11,0,0,0,106.77,90.23Zm2,.36.11.21h0l.21,0-.09-.19h0Zm-.12.59a9.79,9.79,0,0,0-2.28-.25,10.19,10.19,0,0,0-2.27.25,9.18,9.18,0,0,0,2.27.24A9.32,9.32,0,0,0,108.68,91.18Zm3.74,27.32a1.27,1.27,0,0,0-.16-.2l0,0a4.06,4.06,0,0,0-.63-.51l-.09,0-.35-.22a2.08,2.08,0,0,0-.84,1.67,2.06,2.06,0,0,0,.79,1.62c-.28-.33.07-1.06.66-1.47.37-.24.63-.41.67-.63a.24.24,0,0,0,0-.16A0,0,0,0,1,112.42,118.5ZM111,106.06l.09-.87-.77.5Zm1.19,3.06a.3.3,0,0,1,0-.1.74.74,0,0,0,0-.21.24.24,0,0,0,0-.08l0-.13a.93.93,0,0,1,0-.1.75.75,0,0,0-.07-.12l-.07-.1-.1-.12-.09-.1-.13-.12-.11-.09-.17-.14-.1-.07-.24-.15-.09,0-.16-.1h0a10.44,10.44,0,0,0-1.45-.65,18,18,0,0,0-3.07-.79,18.85,18.85,0,0,0-2.78-.25h0a19.52,19.52,0,0,0-5.79.94v-3.52a19,19,0,0,1,5.81-.76h0a20.4,20.4,0,0,1,3.44.27,23.9,23.9,0,0,1,2.41.55c2.62.77,4.38,1.93,4.2,2.92C113.51,106.16,112.2,109.12,112.2,109.12ZM102,102.92l-.2,0-.19,0c-.13.59-.32,1.18-.51,1.78-.35-.52-.72-1-1-1.55l-.37.07-.37,0c.52.7,1,1.4,1.51,2.13l.18,0h.18C101.39,104.55,101.67,103.74,102,102.92Zm2.35,2.2a.77.77,0,0,1,0-.15,9.64,9.64,0,0,1-1,0l0-2.06h-.32l-.32,0,0,2.3,1.62,0A.68.68,0,0,1,104.31,105.12Zm2.36-1.84s0-.09,0-.14l-2.18-.18a.65.65,0,0,1,0,.14.8.8,0,0,1,0,.15,5.46,5.46,0,0,1,.79,0l-.19,2.07h.32l.32,0,.19-2.07a6.16,6.16,0,0,1,.75.11C106.68,103.38,106.67,103.33,106.67,103.28Zm1.7,1.46c.4,0,.71-.13.79-.46a.51.51,0,0,0-.25-.55,2,2,0,0,0-.65-.21l-.88-.19-.56,2.26.32,0,.3.09.26-1.06h0l.18.43.32.8.38.07a2.66,2.66,0,0,1,.38.1l-.12-.25C108.7,105.46,108.52,105.1,108.37,104.74Zm3.35,0-.15-.06-.13-.09-2.3,1.46.19.09.17.1c.19-.16.39-.3.62-.47l.86.47h0a5.23,5.23,0,0,1-.11.75l.33.16.31.19ZM108,103.64l-.21.89c.43.12.68,0,.76-.33,0,0,0-.1,0-.18C108.53,103.74,108.21,103.7,108,103.64Zm4.27,5.17a.24.24,0,0,0,0-.08l0-.13a.93.93,0,0,1,0-.1.75.75,0,0,0-.07-.12l-.07-.1-.1-.12-.09-.1-.13-.12-.11-.09-.17-.14-.1-.07-.24-.15-.09,0-.16-.1h0a12.67,12.67,0,0,1-1.43.1v2.81c1.62-.12,2.73-.55,2.86-1.23A.74.74,0,0,0,112.22,108.81Zm-10.92,0a.22.22,0,0,0,0,.14v0a.58.58,0,0,0,.06.15s0,0,0,0a3.12,3.12,0,0,0,.71.73l0,0,.37.28h0c.29.2.61.41,1,.62h0v-2.82h0a4.8,4.8,0,0,0-2.15.71v0l0,0Zm2.2,2h0c-.37-.21-.69-.42-1-.62h0l-.37-.28,0,0a3.12,3.12,0,0,1-.71-.73s0,0,0,0a.58.58,0,0,1-.06-.15v0a.22.22,0,0,1,0-.14h0l0,0v0a19.94,19.94,0,0,0-.43,3c-.2.39.87,1.32,2.58,2.33.63.37,1.33.75,2.1,1.12s2.83,1.15,3.75,1.47h0a11,11,0,0,1,1.83.84l.35.22.09,0a4.06,4.06,0,0,1,.63.51l0,0a1.27,1.27,0,0,1,.16.2,0,0,0,0,0,0,0,.24.24,0,0,1,0,.16l.54-2.91h0c.16-.46-1.43-1.39-3.66-2.21-1-.37-1.87-.75-2.91-1.21A29.15,29.15,0,0,1,103.5,110.88ZM75.63,84.31a2.61,2.61,0,0,1-2,.92,2.48,2.48,0,0,1-1.87-.81,2.44,2.44,0,0,1-2.27,1.39,2.48,2.48,0,0,1-1.28-.35,1.56,1.56,0,0,1-.87.91v0a44,44,0,0,1,10-1.42A2.57,2.57,0,0,1,75.63,84.31Zm21.29-4.47a3.81,3.81,0,0,1-.24.32,3.81,3.81,0,0,0,.24-.32ZM63.15,82.06l.08-.38a1.06,1.06,0,0,1,.71.65,2.44,2.44,0,0,1,0,1.37,2.35,2.35,0,0,1,.31-.58,2.88,2.88,0,0,1,.89-.59c.24-.12.5-.29.5-.29a1.76,1.76,0,0,1,0,.22,1.2,1.2,0,0,1,0,.3,2.93,2.93,0,0,1,1.38.17,1.84,1.84,0,0,1-.94.83s.16.13.3.27a.85.85,0,0,1,.15.18l-.45.07a6.25,6.25,0,0,1-1,.07l-.49,0c.22.21.52.48.9.79A2.36,2.36,0,0,0,67,85.7a1,1,0,0,0,.78-1.15h0a.63.63,0,0,1-.38-.41c-.1-.3,0-.6.2-.66s.48.12.58.42a.6.6,0,0,1-.06.55h0a1.7,1.7,0,0,0,1.4.71,1.64,1.64,0,0,0,1.69-1.6,1.43,1.43,0,0,0-.16-.71.92.92,0,0,1-.21-.13,3.42,3.42,0,0,1-.48.4,4.75,4.75,0,0,1-.77.35l-.39.14a1.89,1.89,0,0,1,0-.22,2.13,2.13,0,0,1,.07-.31A2,2,0,0,1,68,82.73,1.88,1.88,0,0,1,69.06,82a2.51,2.51,0,0,1-.18-.27,1.08,1.08,0,0,1-.1-.19h.41a4,4,0,0,1,.85.07,4,4,0,0,1,.6.22h0a3,3,0,0,1-.38-.45,8.46,8.46,0,0,1-.41-.75c-.07-.1-.26-.41-.26-.41a.76.76,0,0,1,.41,0,.62.62,0,0,1,.32.12A1.84,1.84,0,0,1,70.7,79l-.12-.09h0l-.14-.12a.39.39,0,0,1-.28.11.39.39,0,0,1-.39-.37.34.34,0,0,1,.12-.27,2.88,2.88,0,0,1-.26-.35.32.32,0,0,1-.14,0,.39.39,0,0,1-.39-.36c-.37,0-.73,0-1.06,0a9.78,9.78,0,0,0-3.82.89,12.82,12.82,0,0,0-1.74,1,2.77,2.77,0,0,0,.57.66l-1,1.55,0,0v.11l.15,0A1.15,1.15,0,0,1,63.15,82.06Zm15.58-.6a.86.86,0,0,0,0,.27A.86.86,0,0,1,78.73,81.46Zm17.66-2a11.7,11.7,0,0,0-1.84-1,9.78,9.78,0,0,0-3.82-.89c-.28,0-.6,0-.91,0a.39.39,0,0,1-.39.36.32.32,0,0,1-.14,0,2.88,2.88,0,0,1-.26.35.34.34,0,0,1,.12.27.38.38,0,0,1-.39.37.39.39,0,0,1-.28-.11l-.14.12h0l-.5.4-.75-1.22a3.13,3.13,0,0,0,.76-.69,10.4,10.4,0,0,1-2.62-.72A15,15,0,0,0,81,75.84a8.55,8.55,0,0,0,.39,1.94L80.16,79a1.55,1.55,0,0,1,0,.21.81.81,0,0,1,.33-.19,1,1,0,0,1,.46,0s-.14.37-.2.51-.14.55-.3.91a3.22,3.22,0,0,1-.35.6,4,4,0,0,1,.64-.38,5.64,5.64,0,0,1,.94-.24l.45-.09a.76.76,0,0,1-.07.25,2.52,2.52,0,0,1-.14.33,2.17,2.17,0,0,1,1.37.63,2.17,2.17,0,0,1-1.37.63,2.36,2.36,0,0,1,.14.34,1.21,1.21,0,0,1,.07.24l-.45-.09a4.79,4.79,0,0,1-.94-.24,4.36,4.36,0,0,1-.69-.4h0a.69.69,0,0,1-.13.11,1.9,1.9,0,0,0-.07.54,1.72,1.72,0,0,0,1.77,1.67,1.77,1.77,0,0,0,1.68-1.15v0a.61.61,0,0,1-.18-.55c0-.31.26-.54.48-.51s.38.29.34.61a.59.59,0,0,1-.33.49h0a1.78,1.78,0,0,0,3.52-.25,1.48,1.48,0,0,0,0-.21h0a.71.71,0,0,1-.1-.14,4.87,4.87,0,0,1-.58.21,4.06,4.06,0,0,1-.85.07h-.41a1.32,1.32,0,0,1,.1-.2,1.88,1.88,0,0,1,.17-.27,1.89,1.89,0,0,1-1.09-.75,2,2,0,0,1,1.3-.35,2.13,2.13,0,0,1-.07-.31.74.74,0,0,1,0-.22l.38.14a4.44,4.44,0,0,1,.78.35,3,3,0,0,1,.46.38h0a2.24,2.24,0,0,1-.19-.52c-.08-.34-.08-.72-.12-.84s-.09-.47-.09-.47a.78.78,0,0,1,.39.11c.22.12.26.21.26.21A2,2,0,0,1,88.34,79a1.87,1.87,0,0,1,.37,1.3.62.62,0,0,1,.32-.12.76.76,0,0,1,.41,0s-.19.31-.26.41-.21.46-.4.75a3.68,3.68,0,0,1-.38.45h0a4.51,4.51,0,0,1,.6-.22,4.06,4.06,0,0,1,.85-.07h.41a1.08,1.08,0,0,1-.1.19A1.88,1.88,0,0,1,90,82a2,2,0,0,1,1.09.76,2.09,2.09,0,0,1-1.3.35,2.13,2.13,0,0,1,.07.31,1.89,1.89,0,0,1,0,.22l-.38-.14a4.44,4.44,0,0,1-.78-.35,4.14,4.14,0,0,1-.48-.4.74.74,0,0,1-.21.13,1.43,1.43,0,0,0-.16.71,1.64,1.64,0,0,0,1.69,1.6,1.7,1.7,0,0,0,1.4-.71h0a.6.6,0,0,1-.06-.55c.1-.3.36-.49.58-.42s.31.36.2.66a.63.63,0,0,1-.38.41h0a1,1,0,0,0,.78,1.15,2.44,2.44,0,0,0,1.45-.61c.39-.31.68-.58.9-.79l-.49,0a6,6,0,0,1-1-.07l-.46-.07a1.74,1.74,0,0,1,.15-.18l.3-.27a1.84,1.84,0,0,1-.94-.83,2.93,2.93,0,0,1,1.38-.17,2.4,2.4,0,0,1,0-.3c0-.15,0-.22,0-.22a5,5,0,0,0,.49.29,3,3,0,0,1,.9.59,2.55,2.55,0,0,1,.3.58,2.54,2.54,0,0,1,0-1.37,1.06,1.06,0,0,1,.71-.65l.09.38a1.08,1.08,0,0,1,.79-.37l0-.26-.85-1.38A2.66,2.66,0,0,0,96.39,79.46ZM79.15,80.81l0,0Zm-.24.18a.41.41,0,0,0-.07.11.94.94,0,0,1,.09-.12Zm.61,2.9A2.6,2.6,0,0,1,77.45,85c.68,0,1.36,0,2,0s1.42,0,2.11,0A2.61,2.61,0,0,1,79.52,83.89Zm.34-3.08h0Zm11,4.65a2.53,2.53,0,0,1-1.28.35,2.45,2.45,0,0,1-2.28-1.39,2.47,2.47,0,0,1-1.87.81,2.59,2.59,0,0,1-2-.92,2.6,2.6,0,0,1-1.74.67,44.44,44.44,0,0,1,9.78,1.36l0-.07A1.71,1.71,0,0,1,90.85,85.46ZM80.1,81h0l0,0s0,0,0,0ZM64.22,83.9h0Zm14.57-2.71a.6.6,0,0,0-.06.27A.6.6,0,0,1,78.79,81.19Zm16,2.71h0Zm-15.95-2,0,.07h0a4.36,4.36,0,0,1-.69.4,4.73,4.73,0,0,1-.93.24l-.47.09a2.51,2.51,0,0,1,.08-.24,2.36,2.36,0,0,1,.14-.34,2.17,2.17,0,0,1-1.37-.63,2.17,2.17,0,0,1,1.37-.63,2.52,2.52,0,0,1-.14-.33c-.06-.17-.08-.25-.08-.25l.47.09a5.56,5.56,0,0,1,.93.24,3.77,3.77,0,0,1,.66.39,3,3,0,0,1-.36-.61c-.16-.36-.24-.78-.3-.91s-.2-.51-.2-.51a1,1,0,0,1,.46,0,.81.81,0,0,1,.33.19.8.8,0,0,1,0-.15l-1.33-1.25a8.23,8.23,0,0,0,.39-2,15,15,0,0,0-4.37.85,9.91,9.91,0,0,1-2.48.7,2.91,2.91,0,0,0,.77.71l-.75,1.22h0a1.71,1.71,0,0,1,.46.77.7.7,0,0,1,.26-.21.78.78,0,0,1,.39-.11s-.06.35-.09.47a8.15,8.15,0,0,1-.12.84,2.32,2.32,0,0,1-.18.52h0a3,3,0,0,1,.46-.38,4.09,4.09,0,0,1,.77-.35l.39-.14a1.42,1.42,0,0,1,0,.22,2.13,2.13,0,0,1-.07.31,2,2,0,0,1,1.3.35,1.89,1.89,0,0,1-1.09.75,2.51,2.51,0,0,1,.18.27l.1.2H73.4a4.06,4.06,0,0,1-.85-.07,3.56,3.56,0,0,1-.58-.21.71.71,0,0,1-.1.14h0a1.48,1.48,0,0,0,0,.21,1.78,1.78,0,0,0,3.52.25h0a.61.61,0,0,1-.33-.49c0-.32.11-.59.34-.61s.44.2.48.51a.61.61,0,0,1-.18.55v0a1.78,1.78,0,0,0,1.69,1.15,1.72,1.72,0,0,0,1.76-1.67,1.46,1.46,0,0,0-.07-.52A1,1,0,0,1,78.87,81.87ZM64.43,84.18s0-.07-.05-.1a1.14,1.14,0,0,0-.15-.17h0a.9.9,0,0,0-.22-.14.56.56,0,0,0-.63,0c-.18.19-.1.55.19.79a.67.67,0,0,0,.74.15.39.39,0,0,0,.11-.06A.46.46,0,0,0,64.43,84.18Zm7.66-2a.72.72,0,0,0-.28-.56h0a.82.82,0,0,0-.48-.17.76.76,0,0,0-.66.38h0a.69.69,0,0,0-.11.35.72.72,0,0,0,.28.56.92.92,0,0,0,.21.13.93.93,0,0,0,.29.05.79.79,0,0,0,.56-.22.91.91,0,0,0,.22-.52Zm8-.22a.7.7,0,0,0,.2-.48.69.69,0,0,0-.17-.44l0,0a.66.66,0,0,0-.23-.17h0a.73.73,0,0,0-.33-.08.88.88,0,0,0-.33.07l0,0a.76.76,0,0,0-.22.17.94.94,0,0,0-.09.12.26.26,0,0,0,0,.09.6.6,0,0,0-.06.27.86.86,0,0,0,0,.27l.09.14a1,1,0,0,0,.21.2.9.9,0,0,0,.43.13.78.78,0,0,0,.45-.15A.69.69,0,0,0,80.09,81.94Zm8.42.22a.61.61,0,0,0-.11-.35h0a.79.79,0,0,0-.67-.38.77.77,0,0,0-.47.17h0a.73.73,0,0,0-.29.56.91.91,0,0,0,.22.52.8.8,0,0,0,.56.22.93.93,0,0,0,.29-.05.74.74,0,0,0,.21-.13A.72.72,0,0,0,88.51,82.16Zm6.54,1.59a.9.9,0,0,0-.22.14h0a1.14,1.14,0,0,0-.15.17.36.36,0,0,0,0,.09.45.45,0,0,0,0,.51.39.39,0,0,0,.11.06.67.67,0,0,0,.74-.15c.29-.24.37-.6.19-.79A.56.56,0,0,0,95.05,83.75ZM79.5,88.52a43,43,0,0,0-10.32,1.15,45.85,45.85,0,0,0,20.67,0A43.21,43.21,0,0,0,79.5,88.52Zm-11.58-.91,0,0-.4.53.68.29.06,0,.91-.66Zm10.41-.51h2.38a.38.38,0,1,0,0-.75h-2.4a.38.38,0,1,0,0,.75Zm11.57.66.91.67,0,0,.68-.29-.39-.51,0-.06Zm-10.19,41a1.81,1.81,0,0,0,0,2.67,1.83,1.83,0,0,0,0-2.67Zm-10.23-17.5H67.57l.05,20.07a9.34,9.34,0,0,1-2.17-1V111.25H63.53v17.4a9.13,9.13,0,0,0,6,3.1Zm-7,15.9c0,.09.1.19.16.28h0C62.61,127.34,62.55,127.25,62.5,127.15Zm15.06-9.82A5.9,5.9,0,0,1,75.62,116v14.36a8.67,8.67,0,0,0,2.49-2.41,3.94,3.94,0,0,1-.52.6Zm-16,6.76a8,8,0,0,0,.7,2.56,3.59,3.59,0,0,0,.17.34A9,9,0,0,1,61.55,124.09Zm11.9,7.23.06-20.07H71.59v20.51a9.74,9.74,0,0,0,2.55-.64,6,6,0,0,1-.69.2ZM79.39,125Zm-.15.55c0,.18-.11.36-.17.53A4.68,4.68,0,0,0,79.24,125.52Zm-.2.61c-.07.19-.14.37-.22.54C78.9,126.49,79,126.31,79,126.13Zm6.42-14.88a6.77,6.77,0,0,1-.22,1.7h1.21l.19.6h1a1,1,0,0,1,.92-.64l0,1.53v-1.53a1,1,0,0,1,.92.64h1l.18-.6h1.69l.19.6h1.11a1,1,0,0,1,.94-.64,1,1,0,0,1,1,.93.93.93,0,0,1-.66.88v1.46l.63.18V118l-.63.18v1.45a.92.92,0,0,1,0,1.79v.94l.63.21-.09,1.6-.64.14h0a1.1,1.1,0,0,0,0-.18,5.64,5.64,0,0,1-.42,1.47l.05.06a.89.89,0,0,1-.1,1.31,1,1,0,0,1-.94.18,6.52,6.52,0,0,1-1,.92l.14-.09.13.64a6.47,6.47,0,0,1-1.48.76l-.47-.44h0l.21-.09a6.58,6.58,0,0,1-1.42.37,1,1,0,0,1-.91.73V126l0,3.9a1,1,0,0,1-.9-.73,6.83,6.83,0,0,1-1.43-.37l.21.09-.47.44a6.47,6.47,0,0,1-1.48-.76l.14-.64a.67.67,0,0,0,.14.09,6.6,6.6,0,0,1-1-.92,1,1,0,0,1-.93-.18.88.88,0,0,1-.11-1.31l0-.06a5.64,5.64,0,0,1-.42-1.47c0,.06,0,.12,0,.18h0l-.64-.14-.08-1.6.62-.21v-.94a.93.93,0,0,1,0-1.79v-1.45l-.63-.18v-.59a5.34,5.34,0,0,1-2,.38h0v5.5c0,.18,0,.36,0,.54a8.86,8.86,0,0,0,9,8,9.14,9.14,0,0,0,8-4.46l.06-.1c.12-.22.23-.43.33-.65s.25-.62.35-.93a.44.44,0,0,0,0-.1,7.92,7.92,0,0,0,.35-2.33v-12H85.46Zm3.36,12.87.63.17v1.6l-.63.18v2a1,1,0,0,1,.57.51,6.23,6.23,0,0,0,1-.23l-.13-.6a5.15,5.15,0,0,0,1.5-.75l.45.39a5.48,5.48,0,0,0,.71-.65.89.89,0,0,1,0-1l-1.19-1.32-.6.26L90,123.44l.36-.52-1.41-1.56-.09,0Zm3.36,3.3h0l-.07,0Zm-1.39-4.87.6-.26,1.1,1.22-.36.52,1.2,1.33a1.15,1.15,0,0,1,.52-.06,4.64,4.64,0,0,0,.31-1.06l-.62-.2s0-.64.07-.8,0-.8,0-.8l.63-.15v1a5.63,5.63,0,0,1,0,.58.15.15,0,0,0,0-.07h.59a4.4,4.4,0,0,0,0-.51v-.43h-.62v-1.45a1,1,0,0,1-.61-.58H92.48l-.18.6H90.6l-.18-.6H89.5a1.28,1.28,0,0,1-.11.2Zm.07,5.65.29.5a7.82,7.82,0,0,0,.86-.46l-.29-.49a4,4,0,0,0,.39-.29,6,6,0,0,1-1.56.85Zm-.49.18.18-.07-.19.06Zm-1.54-11.52v-.94h-.59v.94h.59ZM90.44,118l-.36-.53,1.1-1.22.6.26,1.94-2.15a.91.91,0,0,1-.11-.22H92.5l-.19.6H90.62l-.18-.6h-1a1,1,0,0,1-.64.6v.69l.64.18v1.61l-.64.17v2.23l.12,0Zm0,2.22.18-.6h1.7l.18.6h1.16a.91.91,0,0,1,.63-.6v-1.47l-.64-.18v-1.6l.64-.18v-1.45h-.1l-1.92,2.15.36.53-1.11,1.22-.6-.26L89.41,120a.76.76,0,0,1,.09.18Zm-4.52-4,1.1,1.22-.36.53,1.5,1.67.1,0v-2.23l-.63-.17V115.6l.63-.18v-.69a1,1,0,0,1-.65-.6h-1l-.19.6H84.76l-.08-.27a8.3,8.3,0,0,1-.49.81l1.1,1.23Zm-3.41,4.64a.4.4,0,0,0,.42-.39.42.42,0,0,0-.84,0A.4.4,0,0,0,82.49,120.88Zm8.31-3.29.46.38.64-.72-.47-.37Zm-7.35.37-.63.18v1.47a.91.91,0,0,1,.62.6h1.16l.18-.6h1.7l.18.6h1l0-.07v0a.17.17,0,0,1,0-.05l-1.53-1.71-.6.26-1.1-1.22.36-.53-1-1.13c-.18.2-.36.39-.55.57l.18,0Zm2.94,5.36-.46-.38-.64.72.46.37Zm-3.58-5.7v-.94c-.2.14-.4.27-.61.39v.55ZM91,120.79h1v-.58H91Zm-4.87-.58h-1v.58h1Zm-.92-3,.63.72.47-.38-.64-.71Zm5.5,6.07.64.71.47-.37-.65-.72Zm-4.56-9.77h-1v.58h1Zm5.83,0H91v.58h1Zm2.21,6.94a.42.42,0,0,0,.84,0,.42.42,0,0,0-.84,0Zm-5.9,5.08h.56v-.94h-.56Zm6-7.95h.61v-.94h-.6Zm-9.38,9.8.07,0-.06,0Zm.46.33-.29.49a8.84,8.84,0,0,0,.86.46l.3-.5.31.11a6.25,6.25,0,0,1-1.57-.85C85.09,127.56,85.21,127.66,85.35,127.75Zm2.3-7h-1l-.18.6h-1.7l-.18-.6H83.42a.93.93,0,0,1-.61.58v1.45h-.62v.43c0,.17,0,.34,0,.51h.59s0,0,0,.07a5.63,5.63,0,0,1,0-.58v-1l.63.15s0,.66,0,.8.06.8.06.8l-.62.2a5.2,5.2,0,0,0,.31,1.06,1.19,1.19,0,0,1,.53.06L84.94,124l-.36-.52,1.1-1.22.6.26,1.44-1.6s0,0,0,0l0-.08Zm-.94,7.59h0l-.18-.06Zm0-5.46.36.52L86,124.67l-.6-.26-1.19,1.32a.87.87,0,0,1,0,1,5.56,5.56,0,0,0,.72.65l.44-.39a5.08,5.08,0,0,0,1.51.75l-.14.6a6.51,6.51,0,0,0,1,.23,1,1,0,0,1,.57-.51v-2l-.64-.18v-1.6l.64-.17v-2.75l-.08,0ZM61.5,111.25H73.76v-.09a7.44,7.44,0,0,1,.51-2.69H65.45v-2.74h1.34V100.4h-.67V97.74h1.25v-.92h-.58V95.5h.58v.33h.33V95.5h.67v.33h.33V95.5h.58v1.32H68.7v.92H70V94.83h-.67V93.5H70v.33h.33V93.5h.58v.33h.34V93.5h.66v1.33H71.2v2.91h1.24v-.66h0v-.26h-.58V95.5h.58v.33h.42V95.5h.58v.33h.33V95.5h.59v1.32h-.59v.92H75v2.66h-.66v5.33h1.33v.56a5.44,5.44,0,0,1,3.87-1.71V91.19H61.5v20Zm18.06-6.67h0c3.24,0,5.86,3,5.86,6.58,0,0,0,.06,0,.09a6.77,6.77,0,0,1-.22,1.7,7,7,0,0,1-.56,1.51,8.3,8.3,0,0,1-.49.81c-.12.16-.24.32-.37.47s-.36.39-.55.57l-.46.37c-.2.14-.4.27-.61.39s-.42.21-.63.3a5.34,5.34,0,0,1-2,.38h0a5.43,5.43,0,0,1-2-.42A5.9,5.9,0,0,1,75.62,116a7,7,0,0,1-1.86-4.73v-.09a7.44,7.44,0,0,1,.51-2.69,6.74,6.74,0,0,1,1.42-2.18A5.44,5.44,0,0,1,79.56,104.58Zm-4.06,6.57c0,2.67,1.84,4.83,4.12,4.83s4.12-2.16,4.12-4.83-1.85-4.83-4.12-4.83S75.5,108.48,75.5,111.15Z" transform="translate(0 0)"/><path class="cls-12" d="M58.32,129Zm-1.49-.33v0H54.07a3.12,3.12,0,0,1-1.37.29,3.16,3.16,0,0,1-1.34-.29H48.6v-.05l-.07,0a3.17,3.17,0,0,1-1.42.31v.87a3.17,3.17,0,0,0,1.42-.31,3,3,0,0,1,1.39-.3l.22,0a3.13,3.13,0,0,1,1.14.27,3.34,3.34,0,0,0,2.83,0,3.23,3.23,0,0,1,1.41-.3,3.69,3.69,0,0,1,.76.08,2.66,2.66,0,0,1,.62.22,3.13,3.13,0,0,0,1.41.31V129a3,3,0,0,1-1.42-.31Zm-1.31,1.46a3.1,3.1,0,0,0-1.41.3,3.34,3.34,0,0,1-2.83,0,3.1,3.1,0,0,0-1.36-.29,3.15,3.15,0,0,0-1.39.29,3.17,3.17,0,0,1-1.42.32v.86a3.13,3.13,0,0,0,1.41-.31h0a2.66,2.66,0,0,1,.62-.22,4.59,4.59,0,0,1,.77-.07,3.26,3.26,0,0,1,1.36.28,3,3,0,0,0,1.42.32,3.16,3.16,0,0,0,1.41-.3,3.1,3.1,0,0,1,1.41-.3,3.13,3.13,0,0,1,1.38.29,3,3,0,0,0,1.41.31v-.86h0a3.13,3.13,0,0,1-1.41-.31A3,3,0,0,0,55.52,130.17Zm2.79,3.21ZM56.9,132.2a2.65,2.65,0,0,0-.62-.21,3.53,3.53,0,0,0-2.17.22,2.67,2.67,0,0,1-.64.22,3.78,3.78,0,0,1-.77.09,3.2,3.2,0,0,1-.78-.1,2.3,2.3,0,0,1-.64-.23,3.11,3.11,0,0,0-1.36-.28,3,3,0,0,0-1.39.29,3.17,3.17,0,0,1-1.42.32v.86a3.17,3.17,0,0,0,1.42-.31,3,3,0,0,1,1.39-.3,3.1,3.1,0,0,1,1.36.29,3.34,3.34,0,0,0,2.83,0,3.23,3.23,0,0,1,1.41-.3,3.13,3.13,0,0,1,1.38.3,3.13,3.13,0,0,0,1.41.31v-.86h0a3.07,3.07,0,0,1-1.36-.29ZM112,129Zm-1.49-.33v0h-2.76a3.12,3.12,0,0,1-1.37.29,3.16,3.16,0,0,1-1.34-.29H102.3v-.05l-.07,0a3.17,3.17,0,0,1-1.42.31v.87a3.17,3.17,0,0,0,1.42-.31,3,3,0,0,1,1.39-.3l.22,0a3.08,3.08,0,0,1,1.14.27,3.34,3.34,0,0,0,2.83,0,3.23,3.23,0,0,1,1.41-.3,3.69,3.69,0,0,1,.76.08,2.74,2.74,0,0,1,.63.22,3.05,3.05,0,0,0,1.4.31V129a3,3,0,0,1-1.41-.31Zm-1.31,1.46a3.1,3.1,0,0,0-1.41.3,3.34,3.34,0,0,1-2.83,0,3.1,3.1,0,0,0-1.36-.29,3.15,3.15,0,0,0-1.39.29,3.17,3.17,0,0,1-1.42.32v.86a3.17,3.17,0,0,0,1.42-.31,3,3,0,0,1,1.39-.29,3.26,3.26,0,0,1,1.36.28,3,3,0,0,0,1.42.32,3.16,3.16,0,0,0,1.41-.3,3.1,3.1,0,0,1,1.41-.3,3.18,3.18,0,0,1,1.39.29,2.93,2.93,0,0,0,1.4.31v-.86h0a3.05,3.05,0,0,1-1.4-.31A3,3,0,0,0,109.22,130.17Zm1.39,2A2.74,2.74,0,0,0,110,132a3.53,3.53,0,0,0-2.17.22,2.67,2.67,0,0,1-.64.22,3.78,3.78,0,0,1-.77.09,3.2,3.2,0,0,1-.78-.1,2.3,2.3,0,0,1-.64-.23,3.11,3.11,0,0,0-1.36-.28,3,3,0,0,0-1.39.29,3.17,3.17,0,0,1-1.42.32v.86a3.17,3.17,0,0,0,1.42-.31,3,3,0,0,1,1.39-.3,3.1,3.1,0,0,1,1.36.29,3.34,3.34,0,0,0,2.83,0,3.23,3.23,0,0,1,1.41-.3,3.17,3.17,0,0,1,1.39.3,3.05,3.05,0,0,0,1.4.31v-.86h0a3.07,3.07,0,0,1-1.36-.29ZM79.06,70V68.78a1.51,1.51,0,0,0-1.18,1.45c0-.08.07-.14.08-.21ZM81,70c0,.06,0,.11.07.18a1.52,1.52,0,0,0-1.14-1.41V70Zm-3,.78v0Zm1.79.91a1.59,1.59,0,0,0,1.15-.88H78a1.58,1.58,0,0,0,1.14.89,1.84,1.84,0,0,0,.33,0A1.55,1.55,0,0,0,79.79,71.71Zm-.17,34.61c2.27,0,4.12,2.16,4.12,4.83S81.89,116,79.62,116s-4.12-2.16-4.12-4.83S77.34,106.32,79.62,106.32Zm1.3,6.91a.54.54,0,0,0-1-.17,2.31,2.31,0,0,0,.2-.91,1.88,1.88,0,0,0-.5-1,1.9,1.9,0,0,0-.48,1,2.31,2.31,0,0,0,.2.91.54.54,0,0,0-.51-.34.53.53,0,0,0-.54.51.71.71,0,0,0,.09.28l.18.36a.35.35,0,0,1,.35-.21.38.38,0,0,1,.39.37.29.29,0,0,1,0,.09H78.8v.37h.4l-.3.58.39-.15.29.33.3-.33.39.15-.29-.58h.39v-.37h-.44a.28.28,0,0,1,0-.09.39.39,0,0,1,.74-.16l.17-.36A.71.71,0,0,0,80.92,113.23Zm-.75-3.29a.9.9,0,0,0,.08.28l.18.36a.36.36,0,0,1,.35-.21.37.37,0,0,1,.39.37.28.28,0,0,1,0,.09h-.44v.37h.39l-.29.58.38-.15.3.33.3-.33.38.15-.28-.58h.39v-.37h-.44a.28.28,0,0,1,0-.09.37.37,0,0,1,.38-.37.35.35,0,0,1,.35.21l.18-.36a.71.71,0,0,0,.09-.28.55.55,0,0,0-1-.17,2.22,2.22,0,0,0,.21-.91,1.88,1.88,0,0,0-.5-1,1.89,1.89,0,0,0-.49,1,2.22,2.22,0,0,0,.21.91.55.55,0,0,0-.51-.34A.53.53,0,0,0,80.17,109.94Zm-3.83,0a.71.71,0,0,0,.09.28l.17.36a.37.37,0,0,1,.36-.21.38.38,0,0,1,.39.37.29.29,0,0,1,0,.09h-.44v.37h.39l-.29.58.39-.15.29.33.3-.33.39.15-.29-.58h.39v-.37H78a.28.28,0,0,1,0-.09.39.39,0,0,1,.74-.16l.17-.36a.71.71,0,0,0,.09-.28.54.54,0,0,0-1-.17,2.31,2.31,0,0,0,.2-.91,1.88,1.88,0,0,0-.5-1,1.89,1.89,0,0,0-.49,1,2.22,2.22,0,0,0,.21.91.54.54,0,0,0-.51-.34A.53.53,0,0,0,76.34,109.94Z" transform="translate(0 0)"/><path class="cls-13" d="M53,86.89a.61.61,0,0,1,.14.25,1.27,1.27,0,0,1,.1.5,1.2,1.2,0,0,1-.2.71l-.14-.08a2.1,2.1,0,0,0,.08-.63,2,2,0,0,0-.1-.68A.29.29,0,0,0,53,86.89Zm-.55,1.46.15-.09a2.46,2.46,0,0,1-.08-.62,1.92,1.92,0,0,1,.11-.68.35.35,0,0,1-.13-.08.81.81,0,0,0-.15.26,1.31,1.31,0,0,0-.1.5A1.2,1.2,0,0,0,52.4,88.35Zm.45-.08a2.1,2.1,0,0,0,.08-.63,2,2,0,0,0-.1-.68s-.08.05-.13.05a.31.31,0,0,1-.12-.05,1.92,1.92,0,0,0-.11.68,2.46,2.46,0,0,0,.08.62l.15-.09Zm-.26-1.85a.31.31,0,0,0-.17.17h.17Zm.4.17a.28.28,0,0,0-.18-.17v.17Zm-.41.37a.31.31,0,0,0,.12.05s.08,0,.13-.05a.29.29,0,0,0,.12-.07.18.18,0,0,0,0-.09h-.58s0,.06,0,.08A.35.35,0,0,0,52.58,87ZM53,86.8h.17v-.21h-.35v-.48H53v-.2h-.22V85.7h-.22v.21h-.22v.2h.22v.48h-.34v.21H53Zm-1.08,3c.23,0,.46,0,.7,0C52.37,89.82,52.14,89.82,51.91,89.84Zm.79,0h0c.28,0,.54,0,.8,0C53.24,89.82,53,89.81,52.7,89.81Zm-1.5.09.22,0Zm2.46-.05c.2,0,.4,0,.58.06C54.06,89.88,53.86,89.87,53.66,89.85Zm-.07-1.18c-.06.09-.12.18-.17.27h-.05l-.13.19-.4-.12,0,0a.27.27,0,0,0,0,.13.39.39,0,0,0,.4.38.39.39,0,0,0,.38-.26v0a.13.13,0,0,1,0-.11c0-.07.06-.13.11-.12a.13.13,0,0,1,0,.24v0a.4.4,0,0,0,.8-.06v0h0s0,0,0,0l-.42,0L53.9,89l.18-.19.37.19,0,0-.09-.42.32-.12,0,0a3.94,3.94,0,0,1,.78-.8c.08,0,.15-.07.19,0a.35.35,0,0,0-.17-.26.77.77,0,0,0-.71.1A3.77,3.77,0,0,0,53.59,88.67Zm-2.92-.26,0,0,.32.12-.09.42,0,0,.36-.19.19.19-.1.22-.42,0s0,0,0,0h0v0a.4.4,0,0,0,.79.06v0a.13.13,0,0,1-.07-.1.12.12,0,0,1,.08-.14s.1,0,.11.12a.13.13,0,0,1-.05.11v0a.39.39,0,0,0,.38.26.39.39,0,0,0,.4-.38.43.43,0,0,0,0-.12l0,0-.4.12L52,88.94h0c-.05-.09-.1-.18-.16-.27a3.68,3.68,0,0,0-1.33-1.3.69.69,0,0,0-.63-.05.41.41,0,0,0-.17.26.12.12,0,0,1,.08,0C50,87.61,50.29,87.93,50.67,88.41Zm4.8,1.93h0l-.13.23h0l-.25,0,.12.21h0c0,.08-.07.16-.07.16a8.61,8.61,0,0,0-2.44-.29,9.17,9.17,0,0,0-2.28.25l-.14,0h-.05l-.06-.16.13-.2-.22,0a2.58,2.58,0,0,0-.14-.23A10.91,10.91,0,0,1,52.7,90,11.06,11.06,0,0,1,55.47,90.34Zm-4.15.07a.12.12,0,0,0-.14-.09l-.25,0-.25,0a.12.12,0,0,0-.1.13.12.12,0,0,0,.14.09l.25,0h0l.25,0A.12.12,0,0,0,51.32,90.41Zm.65,0a.16.16,0,0,0-.16-.15.15.15,0,1,0,0,.3A.16.16,0,0,0,52,90.39Zm1.22,0a.11.11,0,0,0-.12-.11h-.71a.11.11,0,0,0-.11.11.11.11,0,0,0,.12.11h.7A.12.12,0,0,0,53.19,90.34Zm.57,0a.16.16,0,0,0-.16-.15.15.15,0,1,0,0,.3A.16.16,0,0,0,53.76,90.39Zm1.06.13a.11.11,0,0,0-.09-.13l-.26,0-.25,0a.11.11,0,1,0,0,.21l.26,0,.25,0A.11.11,0,0,0,54.82,90.52ZM50.28,91l.14,0a9.35,9.35,0,0,1,2.28-.25,9,9,0,0,1,2.42.29.27.27,0,0,1,.13.13c0,.13-.12.23-.35.31s-.56.1-1,.15H51.49c-.43,0-.8-.11-1-.15s-.38-.18-.35-.31a.21.21,0,0,1,.13-.13Zm.15.22a9.18,9.18,0,0,0,2.27.24A9.38,9.38,0,0,0,55,91.18a9.85,9.85,0,0,0-2.28-.25A10.19,10.19,0,0,0,50.43,91.18Zm4.82-1.3A.6.6,0,0,1,55,90a.54.54,0,0,1-.51-.31.54.54,0,0,1-.42.18.59.59,0,0,1-.46-.21.55.55,0,0,1-.39.16.58.58,0,0,1-.48-.25.58.58,0,0,1-.48.25.55.55,0,0,1-.39-.16.59.59,0,0,1-.45.21.53.53,0,0,1-.42-.18.57.57,0,0,1-.8.23.34.34,0,0,1-.19.2l0,.06a8.35,8.35,0,0,1,1.21-.24l.22,0,.49,0c.23,0,.46,0,.7,0h.09c.28,0,.54,0,.8,0h.16c.2,0,.4,0,.58.06l.23,0,.43.07.3.07.24.06,0,0A.32.32,0,0,1,55.25,89.88Zm.84-.21s0-.07,0-.11h0a2,2,0,0,1-.2.18.55.55,0,0,1-.33.13.23.23,0,0,1-.18-.25v0s0,0,0,0,0,0,0,0h0a.39.39,0,0,1-.7-.2.29.29,0,0,1,0-.16h0l-.06,0a.17.17,0,0,1-.13,0h0v0a.4.4,0,0,1-.8.06v0l0,0s0,0,0,0v0a.39.39,0,0,1-.38.26.39.39,0,0,1-.4-.38.27.27,0,0,1,0-.13.15.15,0,0,1-.11,0,.17.17,0,0,1-.1,0,.43.43,0,0,1,0,.12.39.39,0,0,1-.4.38.39.39,0,0,1-.38-.26v0s0,0,0,0l0,0v0a.4.4,0,0,1-.79-.06v0h0a.19.19,0,0,1-.13,0l-.06,0h0a.29.29,0,0,1,0,.16.37.37,0,0,1-.38.36.39.39,0,0,1-.32-.16h0s0,0,0,0,0,0,0,0v0c0,.12-.05.24-.17.25a.55.55,0,0,1-.33-.13,2.2,2.2,0,0,1-.21-.19h-.06a.11.11,0,0,1,0,.11h0a1.32,1.32,0,0,0,.33.34.46.46,0,0,0,.34.09l0,0a.34.34,0,0,0,.19-.2.57.57,0,0,0,.8-.23.53.53,0,0,0,.42.18.59.59,0,0,0,.45-.21.55.55,0,0,0,.39.16.58.58,0,0,0,.48-.25.58.58,0,0,0,.48.25.55.55,0,0,0,.39-.16.59.59,0,0,0,.46.21.54.54,0,0,0,.42-.18A.54.54,0,0,0,55,90a.6.6,0,0,0,.29-.08.32.32,0,0,0,.21.21h0a.46.46,0,0,0,.34-.09.94.94,0,0,0,.3-.33Zm-1.62.27-.23,0c-.18,0-.38,0-.58-.06H53.5c-.26,0-.52,0-.8,0h-.09c-.24,0-.47,0-.7,0l-.49,0-.22,0a8.35,8.35,0,0,0-1.21.24l-.11,0a.11.11,0,0,0-.06.12.1.1,0,0,0,.12.06A10.91,10.91,0,0,1,52.7,90a11.06,11.06,0,0,1,2.77.34h0a.1.1,0,0,0,.11-.06.09.09,0,0,0-.06-.12l-.32-.08L54.9,90Zm-5.94-.76a.74.74,0,0,1,.25.12,1.83,1.83,0,0,1,.22.25.11.11,0,0,1,0-.08h0a.57.57,0,0,0,0-.26.2.2,0,0,0-.13-.11v.07a.3.3,0,0,0-.15-.07h0C48.64,89.08,48.53,89.15,48.53,89.18Zm.68.31a.15.15,0,0,1,0,.07h.06l.33,0,0-.24-.22-.15-.38.31h0A.19.19,0,0,1,49.21,89.49Zm0,.07a.15.15,0,0,0,0-.07.19.19,0,0,0-.12,0H49a.11.11,0,0,0,0,.08.27.27,0,0,0,.06.1.13.13,0,0,0,.19,0h0A.11.11,0,0,0,49.26,89.56Zm.84,0a.12.12,0,0,0,0-.12c0-.06-.09-.11-.14-.09s-.07.08,0,.15a.13.13,0,0,0,.08.08s0,0,0,0S50.1,89.59,50.1,89.58Zm.57-.51a.09.09,0,0,1,0-.06l-.43,0-.09.24.18.18.36-.2A.17.17,0,0,1,50.67,89.07Zm.17-.17s0,0,.08,0l.09-.42-.32-.12,0,0-.22.21.26.35A.17.17,0,0,1,50.84,88.9Zm.18.17s0,0,0,.07l.42,0,.1-.22-.19-.19L51,89A.17.17,0,0,1,51,89.07Zm-.05.12s0,0,0,0,0,0,0-.07A.17.17,0,0,0,51,89l0,0s-.05,0-.08,0a.17.17,0,0,0-.13.07.06.06,0,0,0,0,0,.09.09,0,0,0,0,.06.17.17,0,0,0,0,.12l.06,0,.06,0A.19.19,0,0,0,51,89.19Zm.86.08a.13.13,0,0,0,.05-.11c0-.07-.06-.13-.11-.12a.12.12,0,0,0-.08.14.13.13,0,0,0,.07.1l0,0S51.82,89.28,51.83,89.27Zm.69-.35a.18.18,0,0,1,0-.1l-.4-.12-.14.23h0l.13.19.4-.12A.18.18,0,0,1,52.52,88.92Zm.29-.13.2-.43h0l-.14-.08-.15-.1-.15.09-.15.09h0l.2.43a.17.17,0,0,1,.22,0Zm0,.22.4.12.13-.19h0l-.14-.23-.4.12a.18.18,0,0,1,0,.1A.18.18,0,0,1,52.84,89Zm0,0,0,0a.18.18,0,0,0,0-.09.18.18,0,0,0,0-.1l0,0a.17.17,0,0,0-.22,0l0,0a.18.18,0,0,0,0,.1.18.18,0,0,0,0,.09l0,0a.17.17,0,0,0,.1,0A.15.15,0,0,0,52.81,89Zm.83.24a.13.13,0,0,0,0-.24s-.1,0-.11.12a.13.13,0,0,0,0,.11s0,0,0,0Zm.81-.33-.37-.19L53.9,89l.09.22.42,0s0,0,0-.07A.14.14,0,0,1,54.45,89Zm.25,0,.26-.35-.22-.2,0,0-.32.12.09.42a.19.19,0,0,1,.08,0A.19.19,0,0,1,54.7,89Zm0,.23.35.19.18-.18L55.14,89l-.43,0s0,0,0,.06A.21.21,0,0,1,54.69,89.2Zm-.12,0,.06,0,.06,0a.21.21,0,0,0,.05-.13s0,0,0-.06,0,0,0,0a.19.19,0,0,0-.13-.07.19.19,0,0,0-.08,0l0,0a.14.14,0,0,0-.06.12s0,0,0,.07,0,0,0,0A.17.17,0,0,0,54.57,89.24Zm.8.36a.14.14,0,0,0,.09-.08c0-.07,0-.14-.05-.15s-.1,0-.13.09a.16.16,0,0,0,0,.12s0,0,0,0S55.36,89.61,55.37,89.6Zm1.05-.52a.2.2,0,0,0-.13.11.57.57,0,0,0,0,.26h0a.15.15,0,0,1,0,.07,2.19,2.19,0,0,1,.22-.24.72.72,0,0,1,.24-.12s-.1-.1-.21-.1-.05,0-.08,0-.06,0-.08,0Zm-.29.41a.19.19,0,0,1,.11,0h0l-.38-.31-.22.15,0,.24.4,0h0A.25.25,0,0,1,56.13,89.49Zm.15,0s0,0,0,0a.19.19,0,0,0-.11,0,.25.25,0,0,0,0,.07s0,.08,0,.11h0a.15.15,0,0,0,.21-.14.15.15,0,0,0,0-.07Zm.56,37.19a1,1,0,0,1-1-1,1.92,1.92,0,0,1,0-.22.36.36,0,0,1-.15,0h-6a.36.36,0,0,1-.15,0,.87.87,0,0,1,.05.22,1,1,0,0,1-1,1h8.25Zm-.77-1.43a.32.32,0,0,0-.36-.28h-6c-.2,0-.37.12-.37.28s.17.28.37.28h6A.33.33,0,0,0,56.07,125.22Zm-4.71,3.53h5.47v-2.1H48.6v2.1Zm-2.65-37.2v2.1h8v-2.1h-8Zm1,2.58a.47.47,0,0,1-.17,0h0a.46.46,0,0,1,.34.46.5.5,0,0,1-.35.47l.15,0h6l.15,0h0a.5.5,0,0,1-.35-.48.52.52,0,0,1,.37-.48h0l-.16,0Zm0,.9-.15,0a.29.29,0,0,0-.22.26c0,.16.17.28.37.28h6a.32.32,0,0,0,.36-.28.29.29,0,0,0-.21-.26l-.15,0Zm-.37-1.14c0,.13.17.24.37.24h6l.16,0c.12,0,.21-.12.21-.22s-.17-.24-.37-.24h-6C49.5,93.65,49.33,93.76,49.33,93.89Zm57.19-6.6a1.12,1.12,0,0,1,.11.54,1.44,1.44,0,0,1-.06.45l.14.08h0a.72.72,0,0,0,.16-.34.64.64,0,0,0,0-.2.78.78,0,0,0-.25-.6S106.57,87.27,106.52,87.29Zm-.42,1.09v0l.15-.09a1.42,1.42,0,0,1-.06-.44,1.27,1.27,0,0,1,.1-.54.45.45,0,0,1-.12-.06.74.74,0,0,0-.26.6.64.64,0,0,0,0,.2A.72.72,0,0,0,106.1,88.38Zm.3-.21.17.11a1.44,1.44,0,0,0,.06-.45,1.12,1.12,0,0,0-.11-.54.26.26,0,0,1-.12,0,.31.31,0,0,1-.12,0,1.27,1.27,0,0,0-.1.54,1.42,1.42,0,0,0,.06.44Zm-.11-1.42a.27.27,0,0,0-.17.16h.17Zm.4.16a.29.29,0,0,0-.18-.16v.16Zm-.41.38a.31.31,0,0,0,.12,0,.26.26,0,0,0,.12,0s.09,0,.12-.06a.22.22,0,0,0,0-.11h-.58a.22.22,0,0,0,0,.11A.45.45,0,0,0,106.28,87.29Zm.59-.17v-.21h-.36v-.47h.22v-.21h-.22V86h-.22v.21h-.22v.21h.22v.47H106v.21h.92Zm2.3,3.22h0l-.13.23h0l-.24,0,.11.21h0a.62.62,0,0,0-.07.16,8.69,8.69,0,0,0-2.45-.29,9.17,9.17,0,0,0-2.28.25L104,91h0a1.36,1.36,0,0,0-.06-.16l.13-.2-.22,0a2.58,2.58,0,0,0-.14-.23,11.41,11.41,0,0,1,5.53,0Zm-4.15.07a.11.11,0,0,0-.13-.09l-.26,0-.25,0a.12.12,0,0,0-.1.13.12.12,0,0,0,.14.09l.25,0,.25,0A.11.11,0,0,0,105,90.41Zm.65,0a.16.16,0,1,0-.16.15A.16.16,0,0,0,105.67,90.39Zm1.22,0a.11.11,0,0,0-.12-.11h-.71a.11.11,0,0,0-.11.11.11.11,0,0,0,.12.11h.7A.12.12,0,0,0,106.89,90.34Zm.57,0a.16.16,0,0,0-.16-.15.15.15,0,1,0,0,.3A.16.16,0,0,0,107.46,90.39Zm1.07.13a.13.13,0,0,0-.1-.13l-.25,0-.26,0a.11.11,0,0,0-.13.09.1.1,0,0,0,.09.12l.26,0,.25,0A.13.13,0,0,0,108.53,90.52ZM104,91l.14,0a9.35,9.35,0,0,1,2.28-.25,9,9,0,0,1,2.42.29.21.21,0,0,1,.13.13c0,.13-.12.23-.35.31s-.56.1-1,.15h-2.42c-.43,0-.8-.11-1-.15s-.38-.18-.35-.31A.21.21,0,0,1,104,91Zm.15.22a9.18,9.18,0,0,0,2.27.24,9.32,9.32,0,0,0,2.28-.24,9.79,9.79,0,0,0-2.28-.25A10.19,10.19,0,0,0,104.13,91.18Zm4.82-1.3a.6.6,0,0,1-.29.08.54.54,0,0,1-.51-.31.54.54,0,0,1-.42.18.57.57,0,0,1-.45-.21.58.58,0,0,1-.4.16.61.61,0,0,1-.48-.25.58.58,0,0,1-.48.25.55.55,0,0,1-.39-.16.57.57,0,0,1-.45.21.53.53,0,0,1-.42-.18.55.55,0,0,1-.51.31.57.57,0,0,1-.29-.08.34.34,0,0,1-.19.2l0,.06a8.35,8.35,0,0,1,1.21-.24l.22,0,.5,0c.22,0,.45,0,.69,0h.09c.28,0,.54,0,.8,0h.17c.19,0,.39,0,.57.06l.23,0,.43.07.3.07.24.06,0,0A.34.34,0,0,1,109,89.88Zm.84-.32h0a2,2,0,0,1-.2.18.55.55,0,0,1-.33.13c-.12,0-.17-.13-.17-.25v0s0,0,0,0,0,0,0,0h0a.39.39,0,0,1-.7-.2.42.42,0,0,1,0-.16h0l-.06,0a.19.19,0,0,1-.13,0h0v0a.4.4,0,0,1-.8.06v0l0,0s0,0,0,0v0a.39.39,0,0,1-.38.26.39.39,0,0,1-.4-.38.27.27,0,0,1,0-.13.15.15,0,0,1-.11,0,.17.17,0,0,1-.1,0,.23.23,0,0,1,0,.12.39.39,0,0,1-.4.38.39.39,0,0,1-.38-.26v0s0,0,0,0l0,0v0a.4.4,0,0,1-.4.32.38.38,0,0,1-.4-.38v0h0a.19.19,0,0,1-.13,0l-.06,0h0a.41.41,0,0,1,0,.16.37.37,0,0,1-.38.36.39.39,0,0,1-.32-.16h0s0,0,0,0,0,0,0,0v0c0,.12,0,.24-.17.25a.55.55,0,0,1-.33-.13,2.2,2.2,0,0,1-.21-.19H103a.11.11,0,0,1,0,.11h0a1.51,1.51,0,0,0,.33.34.46.46,0,0,0,.34.09l0,0a.34.34,0,0,0,.19-.2.57.57,0,0,0,.29.08.55.55,0,0,0,.51-.31.53.53,0,0,0,.42.18.57.57,0,0,0,.45-.21.55.55,0,0,0,.39.16.58.58,0,0,0,.48-.25.61.61,0,0,0,.48.25.58.58,0,0,0,.4-.16.57.57,0,0,0,.45.21.54.54,0,0,0,.42-.18.54.54,0,0,0,.51.31.6.6,0,0,0,.29-.08.34.34,0,0,0,.21.21h0a.46.46,0,0,0,.34-.09.94.94,0,0,0,.3-.33h0A.11.11,0,0,1,109.79,89.56Zm-1.62.38-.23,0c-.18,0-.38,0-.57-.06h-.17c-.26,0-.52,0-.8,0h-.09c-.24,0-.47,0-.69,0l-.5,0-.22,0a8.35,8.35,0,0,0-1.21.24l-.1,0a.11.11,0,0,0-.07.12.1.1,0,0,0,.12.06,11.41,11.41,0,0,1,5.53,0h0a.1.1,0,0,0,.11-.06.09.09,0,0,0-.06-.12l-.32-.08-.3-.07Zm-5.47-.39a.11.11,0,0,1,0-.08h0a.65.65,0,0,0,0-.26.2.2,0,0,0-.13-.11h0v.06a.21.21,0,0,0-.17-.07c-.1,0-.2.07-.2.1a.72.72,0,0,1,.24.12A1.83,1.83,0,0,1,102.7,89.55Zm.21-.06a.15.15,0,0,1,0,.07H103l.34,0,0-.24-.23-.15-.38.31h0A.19.19,0,0,1,102.91,89.49Zm0,.07a.15.15,0,0,0,0-.07.19.19,0,0,0-.12,0h-.07a.11.11,0,0,0,0,.08.2.2,0,0,0,.07.1.12.12,0,0,0,.18,0h0A.11.11,0,0,0,103,89.56Zm.85,0a.16.16,0,0,0,0-.12c0-.06-.09-.11-.14-.09s-.06.08,0,.15a.15.15,0,0,0,.08.08s0,0,0,0S103.8,89.59,103.81,89.58Zm.56-.51s0,0,0-.06L104,89l-.09.24.19.18.35-.2A.17.17,0,0,1,104.37,89.07Zm.17-.17s0,0,.08,0l.09-.42-.32-.12-.24.23.26.35A.17.17,0,0,1,104.54,88.9Zm.18.17s0,0,0,.07l.43,0,.09-.22-.19-.19-.36.19A.14.14,0,0,1,104.72,89.07Zm0,.12s0,0,0,0,0,0,0-.07a.14.14,0,0,0-.06-.12l0,0s-.05,0-.08,0a.17.17,0,0,0-.13.07.06.06,0,0,0,0,0s0,0,0,.06a.17.17,0,0,0,0,.12s0,0,.06,0l.06,0A.19.19,0,0,0,104.67,89.19Zm.86.08a.13.13,0,0,0,0-.11c0-.07-.06-.13-.11-.12a.13.13,0,0,0,0,.24l0,0S105.52,89.28,105.53,89.27Zm.74-.45-.41-.12-.14.23.14.2.4-.12a.18.18,0,0,1,0-.09A.14.14,0,0,1,106.27,88.82Zm.24,0,.19-.42h0l-.14-.08-.17-.11-.16.1-.15.09v0l.19.41a.17.17,0,0,1,.22,0Zm0,.22.4.12.14-.2-.14-.23-.4.12a.18.18,0,0,1,0,.1A.18.18,0,0,1,106.54,89Zm0,0,0,0a.18.18,0,0,0,0-.09.18.18,0,0,0,0-.1l0,0a.17.17,0,0,0-.22,0l0,0a.14.14,0,0,0,0,.1.18.18,0,0,0,0,.09.08.08,0,0,1,0,0,.17.17,0,0,0,.1,0A.15.15,0,0,0,106.51,89Zm.83.24a.13.13,0,0,0,0-.24s-.1,0-.11.12a.13.13,0,0,0,0,.11s0,0,0,0Zm.81-.33-.37-.19-.18.19h0l.09.22.43,0s0,0,0-.07A.14.14,0,0,1,108.15,89Zm.25,0,.26-.35-.24-.23-.32.12.09.42a.19.19,0,0,1,.08,0A.19.19,0,0,1,108.4,89Zm0,.23.35.19.18-.18-.08-.24-.43,0s0,0,0,.06A.21.21,0,0,1,108.39,89.2Zm-.12,0,.06,0,.06,0a.21.21,0,0,0,0-.13s0,0,0-.06,0,0,0,0a.19.19,0,0,0-.13-.07.19.19,0,0,0-.08,0l0,0a.14.14,0,0,0-.06.12s0,0,0,.07a.11.11,0,0,0,0,0A.19.19,0,0,0,108.27,89.24Zm.81.36a.15.15,0,0,0,.08-.08c0-.07,0-.14,0-.15s-.11,0-.14.09a.16.16,0,0,0,0,.12s0,0,0,0S109.06,89.61,109.08,89.6Zm1-.52a.2.2,0,0,0-.13.11.57.57,0,0,0,0,.26h0a.15.15,0,0,1,0,.07,2.19,2.19,0,0,1,.22-.24.72.72,0,0,1,.24-.12s-.1-.1-.21-.1a.16.16,0,0,0-.11,0l-.05,0Zm-.28.41a.14.14,0,0,1,.1,0h0l-.37-.31-.23.15,0,.24.4,0h0A.15.15,0,0,1,109.84,89.49Zm.19,0h0s0,0,0,0a.14.14,0,0,0-.1,0,.15.15,0,0,0,0,.07.11.11,0,0,0,0,.11h0a.16.16,0,0,0,.16,0,.13.13,0,0,0,.05-.11A.15.15,0,0,0,110,89.47Zm.51,37.18a1,1,0,0,1-1-1,.93.93,0,0,1,0-.22.44.44,0,0,1-.16,0h-6a.36.36,0,0,1-.15,0,.87.87,0,0,1,0,.22,1,1,0,0,1-1,1h8.25Zm-.77-1.43a.32.32,0,0,0-.36-.28h-6c-.2,0-.37.12-.37.28s.17.28.37.28h6A.33.33,0,0,0,109.77,125.22Zm-4.71,3.53h5.47v-2.1H102.3v2.1Zm-2.65-37.2v2.1h8v-2.1h-8Zm1,2.58a.47.47,0,0,1-.17,0h0a.46.46,0,0,1,.34.46.5.5,0,0,1-.35.47l.15,0h6l.15,0h0a.5.5,0,0,1-.35-.48.52.52,0,0,1,.37-.48h0l-.16,0Zm0,.9-.15,0a.29.29,0,0,0-.22.26c0,.16.17.28.37.28h6a.32.32,0,0,0,.36-.28.29.29,0,0,0-.21-.26l-.15,0ZM103,93.89c0,.13.17.24.37.24h6l.16,0c.13,0,.21-.12.21-.22s-.16-.24-.37-.24h-6C103.2,93.65,103,93.76,103,93.89Zm-52.7,10.25c.22.57-.24.87-1,1.13h0l.39,1-.31.09-.29.12-.88-2.17,1-.35C49.81,103.72,50.18,103.78,50.33,104.14Zm-.6.28a.42.42,0,0,0-.54-.28l-.25.09.36.87a1,1,0,0,0,.25-.12A.42.42,0,0,0,49.73,104.42Zm3.32.68c-.27.08-.58.17-.94.24l-.45-2-.31.08-.32,0,.51,2.26,1.58-.31a.48.48,0,0,1,0-.14S53.06,105.15,53.05,105.1Zm2.39-2.21c-.19.58-.42,1.16-.67,1.73-.3-.54-.62-1.08-.87-1.62l-.38,0h-.37c.45.74.89,1.48,1.31,2.24l.18,0h.18c.3-.82.66-1.61,1-2.4l-.19,0Zm1.66.57c0-.19.16-.31.5-.28a.48.48,0,0,1,.45.34h.07a3.24,3.24,0,0,1,.17-.32,1.32,1.32,0,0,0-.65-.23c-.65-.06-1,.22-1.06.61-.09.81,1.2.74,1.14,1.28,0,.23-.28.33-.54.3a.55.55,0,0,1-.54-.43h-.08a3.56,3.56,0,0,1-.17.41,1.51,1.51,0,0,0,.66.21c.66.07,1.16-.19,1.21-.62C58.34,104,57.05,103.92,57.1,103.46Zm44.47-.48c-.13.59-.32,1.18-.51,1.78-.35-.52-.72-1-1-1.55l-.37.07-.37,0c.52.7,1,1.4,1.51,2.13l.18,0h.18c.22-.84.5-1.65.79-2.47l-.2,0Zm1.79,2,0-2.06h-.32l-.32,0,0,2.3,1.62,0a.68.68,0,0,1,0-.14.77.77,0,0,1,0-.15A9.64,9.64,0,0,1,103.36,105Zm1.17-2a.65.65,0,0,1,0,.14.8.8,0,0,1,0,.15,5.46,5.46,0,0,1,.79,0l-.19,2.07h.32l.32,0,.19-2.07a6.16,6.16,0,0,1,.75.11c0-.05,0-.1,0-.15s0-.09,0-.14Zm3.84,1.78c.15.36.33.72.5,1.08l.12.25a2.66,2.66,0,0,0-.38-.1l-.38-.07-.32-.8-.18-.43h0l-.26,1.06-.3-.09-.32,0,.56-2.26.88.19a2,2,0,0,1,.65.21.51.51,0,0,1,.25.55C109.08,104.61,108.77,104.75,108.37,104.74Zm.16-.72c0-.28-.32-.32-.58-.38l-.21.89c.43.12.68,0,.76-.33C108.51,104.15,108.52,104.1,108.53,104Zm3,.7.15.06-.21,2.61-.31-.19-.33-.16a5.23,5.23,0,0,0,.11-.75h0l-.86-.47c-.23.17-.43.31-.62.47l-.17-.1-.19-.09,2.3-1.46Zm-.47.47-.77.5.68.37ZM70.34,74c0,.05-.07.09-.09.13a2.42,2.42,0,0,0-.19.4,1.12,1.12,0,0,0-.11.25,2.35,2.35,0,0,0-.13.64c0,.11,0,.22,0,.33a3.3,3.3,0,0,0,.32,1.4A3.36,3.36,0,0,0,71,78.26l-.37.67,0,0h0l.12.09h0a1.89,1.89,0,0,1,.37.32h0l.75-1.22a2.91,2.91,0,0,1-.77-.71,2.6,2.6,0,0,1-.6-1.64c0-.11,0-.22,0-.32.08-1.57,2-2.86,4.39-2.86a5.65,5.65,0,0,1,3.17.89c0-.23,0-.45.08-.67A6.6,6.6,0,0,0,74.87,72a5.85,5.85,0,0,0-4.1,1.5l0,0A3.26,3.26,0,0,0,70.34,74Zm-.73.56,0,0h0a3.75,3.75,0,0,0-.24.44.37.37,0,0,1-.15.72h-.07a1.93,1.93,0,0,0,0,.42h.06a.38.38,0,0,1,.4.37.38.38,0,0,1-.37.37,2.6,2.6,0,0,0,.13.36.47.47,0,0,1,.2-.06.39.39,0,0,1,.4.37.38.38,0,0,1-.26.35,2.88,2.88,0,0,0,.26.35.39.39,0,0,1,.27-.11.39.39,0,0,1,.4.38.34.34,0,0,1-.12.26l.14.12,0,0,.37-.67a3.36,3.36,0,0,1-.86-1.12,3.3,3.3,0,0,1-.32-1.4c0-.11,0-.22,0-.33a2.8,2.8,0,0,1,.13-.64,1.12,1.12,0,0,1,.11-.25,2.42,2.42,0,0,1,.19-.4s.06-.08.09-.13a4.12,4.12,0,0,1,.38-.47l0,0a3.06,3.06,0,0,1,.32-.3,4.79,4.79,0,0,0-1.21,1l-.06.08A.37.37,0,0,1,69.61,74.55Zm.21-.3.06-.08.09-.12-.2,0a.39.39,0,0,1,.06.19S69.83,74.24,69.82,74.25Zm-6.76,5.8a2.77,2.77,0,0,1-.57-.66A2.65,2.65,0,0,1,62.05,78a2.6,2.6,0,0,1,.27-1.15c.63-1.38,2.82-2.4,5.44-2.4a9,9,0,0,1,1.49.13.39.39,0,0,1-.21-.33.35.35,0,0,1,.16-.29,11.2,11.2,0,0,0-1.44-.11,8.12,8.12,0,0,0-5.12,1.59l-.12.12a3.91,3.91,0,0,0-.35.36l-.12.14a2.8,2.8,0,0,0-.32.52A3.22,3.22,0,0,0,61.4,78a3.15,3.15,0,0,0,.23,1.19,3.4,3.4,0,0,0,.62,1l-.57.93h0l-.07.11.49.38,0,0Zm6.52-5.47,0,0-.1,0Zm-7.33,5.58a3.4,3.4,0,0,1-.62-1A3.15,3.15,0,0,1,61.4,78a3.22,3.22,0,0,1,.33-1.42,2.8,2.8,0,0,1,.32-.52l.12-.14a3.91,3.91,0,0,1,.35-.36l.12-.12a6.71,6.71,0,0,1,.58-.43,4.47,4.47,0,0,0-2.41,3.71,4,4,0,0,0,.86,2.41h0ZM78,74.3c0,.07,0,.13,0,.19s0,.15,0,.22a10,10,0,0,1-.07,1.12,8.23,8.23,0,0,1-.39,2L78.85,79a1.76,1.76,0,0,1,.16-.54.68.68,0,0,1-.18-.26l-.64-.61a9.5,9.5,0,0,0,.43-2.9c0-.07,0-.14,0-.21s0-.12,0-.17a12.13,12.13,0,0,1,.15-1.58.7.7,0,0,1,.69-.5.68.68,0,0,1,.68.5,10.67,10.67,0,0,1,.14,1.58v.17c0,.07,0,.14,0,.21a9.16,9.16,0,0,0,.44,2.9l-.62.58a.58.58,0,0,1-.14.24,2.07,2.07,0,0,1,.18.53l1.24-1.19A8.55,8.55,0,0,1,81,75.84c0-.36-.06-.73-.06-1.13a1.64,1.64,0,0,1,0-.22V74.3c0-.29,0-.57,0-.85h0c0-.24,0-.45-.08-.67h0a.77.77,0,0,0,0-.15,1.07,1.07,0,0,0-.23-.45v0a1.3,1.3,0,0,0-.75-.46,1.55,1.55,0,0,1-.31,0,1.84,1.84,0,0,1-.33,0,1.29,1.29,0,0,0-.76.47h0a1.2,1.2,0,0,0-.24.46s0,.1,0,.14c0,.22-.06.44-.08.67S78,74,78,74.3Zm.8,3.72a.78.78,0,0,0,0,.21l-.64-.61a9.5,9.5,0,0,0,.43-2.9c0-.07,0-.14,0-.21s0-.12,0-.17a12.13,12.13,0,0,1,.15-1.58.7.7,0,0,1,.69-.5.68.68,0,0,1,.68.5,10.67,10.67,0,0,1,.14,1.58v.17c0,.07,0,.14,0,.21a9.16,9.16,0,0,0,.44,2.9l-.62.58a.58.58,0,0,0,0-.18.66.66,0,0,0-.63-.64.64.64,0,1,0-.74-.64.66.66,0,0,0,.63.64A.66.66,0,0,0,78.79,78Zm.37-5a.32.32,0,1,0,.31-.29A.3.3,0,0,0,79.16,73.06Zm-.08,1.08a.38.38,0,0,0,.39.38.38.38,0,1,0,0-.75A.38.38,0,0,0,79.08,74.14Zm.39,1.75a.52.52,0,1,0-.54-.51A.53.53,0,0,0,79.47,75.89Zm1.41-2.43h0a5.63,5.63,0,0,1,3.17-.89c2.41,0,4.32,1.29,4.39,2.86a1.67,1.67,0,0,1,0,.32,2.67,2.67,0,0,1-.61,1.66,3.13,3.13,0,0,1-.76.69l.75,1.22.5-.4h0l0,0L88,78.26a3.36,3.36,0,0,0,.86-1.12,3.3,3.3,0,0,0,.32-1.4c0-.11,0-.22,0-.33a2.78,2.78,0,0,0-.12-.64c0-.09-.08-.17-.11-.25s-.12-.27-.19-.4l-.1-.12a2.86,2.86,0,0,0-.38-.48s0,0,0,0a5.82,5.82,0,0,0-4.1-1.5,6.56,6.56,0,0,0-3.26.82h0C80.83,73,80.86,73.22,80.88,73.46Zm7.71.54.1.12c.07.13.13.27.19.4s.08.16.11.25a3.44,3.44,0,0,1,.12.64c0,.11,0,.22,0,.33a3.3,3.3,0,0,1-.32,1.4A3.36,3.36,0,0,1,88,78.26l.37.67,0,0,.14-.12a.37.37,0,0,1-.12-.26.39.39,0,0,1,.4-.38.39.39,0,0,1,.27.11,2.88,2.88,0,0,0,.26-.35.38.38,0,0,1-.26-.35.39.39,0,0,1,.4-.37.47.47,0,0,1,.2.06,2.6,2.6,0,0,0,.13-.36.37.37,0,1,1,0-.74h.06a1.93,1.93,0,0,0,0-.42h-.07a.39.39,0,0,1-.39-.37.38.38,0,0,1,.24-.35,3.68,3.68,0,0,0-.23-.44h0l0,0a.39.39,0,0,1-.21-.3,1.13,1.13,0,0,0-.1-.13,5,5,0,0,0-1.16-1c.11.09.21.2.31.3s0,0,0,0A2.86,2.86,0,0,1,88.59,74Zm1.3.21a.38.38,0,0,1-.2.33,8.86,8.86,0,0,1,1.48-.13c2.62,0,4.81,1,5.44,2.4A2.6,2.6,0,0,1,96.88,78a2.93,2.93,0,0,1-1,2.09l.85,1.38.1.17.51-.4-.07-.11h0l-.57-.93a3.81,3.81,0,0,0,.24-.32,3.55,3.55,0,0,0,.56-1.27,4.07,4.07,0,0,0,0-.61,3.57,3.57,0,0,0-.08-.74,3.64,3.64,0,0,0-.24-.68,3,3,0,0,0-.34-.53l-.1-.12a3.3,3.3,0,0,0-.37-.38.94.94,0,0,0-.1-.1,8.07,8.07,0,0,0-5.13-1.6,11.34,11.34,0,0,0-1.44.11A.35.35,0,0,1,89.89,74.21Zm-.57.34,0,0h.07Zm-.22-.34a.32.32,0,0,1,.07-.19l-.21,0,.05.07a1.13,1.13,0,0,1,.1.13S89.1,74.23,89.1,74.21Zm7.67,1.68.1.12a3,3,0,0,1,.34.53,3.64,3.64,0,0,1,.24.68,3.57,3.57,0,0,1,.08.74h0a4.07,4.07,0,0,1,0,.61,3.55,3.55,0,0,1-.56,1.27,3.81,3.81,0,0,1-.24.32l.57.93h0a3.9,3.9,0,0,0,.86-2.41A4.47,4.47,0,0,0,95.71,75a7,7,0,0,1,.59.44.94.94,0,0,1,.1.1A3.3,3.3,0,0,1,96.77,75.89ZM80.94,70.83h0a0,0,0,0,0,0,0,1.45,1.45,0,0,0,.13-.59s0,0,0,0S81,70.08,81,70H79.93V68.79h0V67.64h.88v-.83h-.88V66h-.87v.82h-.87v.83h.87v1.13h0V70H78c0,.07-.08.13-.08.21a1.39,1.39,0,0,0,.12.57v0h2.93ZM79.56,91.19h-5a34,34,0,0,1-6.28-1.14.45.45,0,0,1-.3-.45.4.4,0,0,1,.26-.39A35.13,35.13,0,0,1,76,87.92l.24,0,.45,0c.91,0,1.84-.08,2.8-.08.63,0,1.25,0,1.85,0a38.92,38.92,0,0,1,9.38,1.37.4.4,0,0,1,.26.4.44.44,0,0,1-.29.45,34.07,34.07,0,0,1-6.29,1.14H79.56Zm-.06-.34a43.07,43.07,0,0,0,10.35-1.18A43.21,43.21,0,0,0,79.5,88.52a43,43,0,0,0-10.32,1.15A42.86,42.86,0,0,0,79.5,90.85ZM76,87.92a35.13,35.13,0,0,0-7.74,1.29l-.1,0c.2-.09.21-.32,0-.81l.91-.66-1.21-.15,0,0a.88.88,0,0,0-.66-.44,45.67,45.67,0,0,1,12.28-1.5,45.91,45.91,0,0,1,12.31,1.5.91.91,0,0,0-.66.46l0-.06-1.21.15.91.67c-.16.48-.14.71,0,.8l-.12,0a38.92,38.92,0,0,0-9.38-1.37c-.62,0-1.24,0-1.88,0-1,0-1.87,0-2.77.09l-.45,0Zm-5.51,0a.38.38,0,0,0,.39-.38.37.37,0,0,0-.39-.37.38.38,0,0,0-.4.37A.39.39,0,0,0,70.51,87.88Zm2.21-.36.85-.09.87-.11a.37.37,0,0,0,.34-.41.39.39,0,0,0-.44-.33l-.87.1-.85.1a.38.38,0,0,0-.35.42A.4.4,0,0,0,72.72,87.52Zm4.13-.71a.4.4,0,1,0-.4.37A.39.39,0,0,0,76.85,86.81Zm5.73.37a.38.38,0,1,0,0-.75.38.38,0,1,0,0,.75Zm2,.14.87.11.85.09a.39.39,0,0,0,.44-.32.38.38,0,0,0-.34-.42l-.86-.1-.87-.1a.39.39,0,0,0-.44.33A.37.37,0,0,0,84.59,87.32Zm3.93.56a.39.39,0,0,0,.4-.38.4.4,0,0,0-.8,0A.39.39,0,0,0,88.52,87.88ZM77.93,86.73a.39.39,0,0,0,.4.37h2.38a.38.38,0,1,0,0-.75h-2.4A.39.39,0,0,0,77.93,86.73Zm1.57-1a45.91,45.91,0,0,1,12.31,1.5h0a.4.4,0,0,0,.5-.21.38.38,0,0,0-.25-.49l-.61-.17A44.44,44.44,0,0,0,81.68,85h-.07c-.69,0-1.39,0-2.11,0s-1.37,0-2,0h-.11a44,44,0,0,0-10,1.42l-.38.11a.38.38,0,0,0-.25.49.39.39,0,0,0,.49.21h0A45.67,45.67,0,0,1,79.5,85.71Zm-11.3-.25a2.48,2.48,0,0,0,1.28.35,2.44,2.44,0,0,0,2.27-1.39,2.48,2.48,0,0,0,1.87.81,2.61,2.61,0,0,0,2-.92,2.57,2.57,0,0,0,1.71.67h.11a2.6,2.6,0,0,0,2.07-1.09A2.61,2.61,0,0,0,81.61,85h.07a2.6,2.6,0,0,0,1.74-.67,2.59,2.59,0,0,0,2,.92,2.47,2.47,0,0,0,1.87-.81,2.45,2.45,0,0,0,2.28,1.39,2.53,2.53,0,0,0,1.28-.35,1.71,1.71,0,0,0,.64.81,1.32,1.32,0,0,0,.44.18A2.57,2.57,0,0,0,93.45,86a4.84,4.84,0,0,0,1.3-1.3.39.39,0,0,1-.11-.06.45.45,0,0,1,0-.51.37.37,0,0,0-.05.11l-.14,0c-.22.21-.51.48-.9.79a2.44,2.44,0,0,1-1.45.61,1,1,0,0,1-.78-1.15h0a.34.34,0,0,1-.2,0,.3.3,0,0,1-.14-.11h0a1.7,1.7,0,0,1-1.4.71,1.64,1.64,0,0,1-1.69-1.6,1.43,1.43,0,0,1,.16-.71.93.93,0,0,1-.29.05.8.8,0,0,1-.56-.22h0a1.48,1.48,0,0,1,0,.21,1.78,1.78,0,0,1-3.52.25h0a.4.4,0,0,1-.15,0,.33.33,0,0,1-.16-.07v0a1.77,1.77,0,0,1-1.68,1.15,1.72,1.72,0,0,1-1.77-1.67,1.9,1.9,0,0,1,.07-.54.78.78,0,0,1-.45.15.9.9,0,0,1-.43-.13,1.46,1.46,0,0,1,.07.52,1.72,1.72,0,0,1-1.76,1.67,1.78,1.78,0,0,1-1.69-1.15v0a.33.33,0,0,1-.16.07.4.4,0,0,1-.15,0h0a1.78,1.78,0,0,1-3.52-.25,1.48,1.48,0,0,1,0-.21h0a.79.79,0,0,1-.56.22.93.93,0,0,1-.29-.05,1.43,1.43,0,0,1,.16.71,1.64,1.64,0,0,1-1.69,1.6,1.7,1.7,0,0,1-1.4-.71h0a.3.3,0,0,1-.14.11.34.34,0,0,1-.2,0h0A1,1,0,0,1,67,85.7a2.36,2.36,0,0,1-1.45-.61c-.38-.31-.68-.58-.9-.79l-.14,0a1,1,0,0,0,0-.1.46.46,0,0,1,0,.5.39.39,0,0,1-.11.06,4.84,4.84,0,0,0,1.3,1.3,2.57,2.57,0,0,0,1.52.41.83.83,0,0,0,.22-.08A1.56,1.56,0,0,0,68.2,85.46Zm26.61-1.55a1.14,1.14,0,0,0-.15.17,1.14,1.14,0,0,1,.15-.17Zm-30.58,0a1.14,1.14,0,0,1,.15.17.8.8,0,0,0-.15-.17ZM64,83.75a.9.9,0,0,1,.22.14h0a.8.8,0,0,1,.15.17s0,.07.05.1a1,1,0,0,1,0,.1l.14,0,.49,0a6.25,6.25,0,0,0,1-.07l.45-.07a.85.85,0,0,0-.15-.18c-.14-.14-.3-.27-.3-.27a1.84,1.84,0,0,0,.94-.83,2.93,2.93,0,0,0-1.38-.17,1.2,1.2,0,0,0,0-.3,1.76,1.76,0,0,0,0-.22s-.26.17-.5.29a2.88,2.88,0,0,0-.89.59,2.35,2.35,0,0,0-.31.58,2.44,2.44,0,0,0,0-1.37,1.06,1.06,0,0,0-.71-.65l-.08.38a1.15,1.15,0,0,0-.9-.39l-.15,0a1,1,0,0,0-.92,1,2.71,2.71,0,0,1,1.25.18,2.87,2.87,0,0,1,.87,1l.06-.09A.56.56,0,0,1,64,83.75Zm6.54-1.59a.69.69,0,0,1,.11-.35,4,4,0,0,0-.6-.22,4,4,0,0,0-.85-.07h-.41a1.08,1.08,0,0,0,.1.19,2.51,2.51,0,0,0,.18.27,1.88,1.88,0,0,0-1.09.76,2,2,0,0,0,1.29.35,2.13,2.13,0,0,0-.07.31,1.89,1.89,0,0,0,0,.22l.39-.14a4.75,4.75,0,0,0,.77-.35,3.42,3.42,0,0,0,.48-.4A.72.72,0,0,1,70.53,82.16Zm.78-.74a.82.82,0,0,1,.48.17,2.32,2.32,0,0,0,.18-.52,8.15,8.15,0,0,0,.12-.84c0-.12.09-.47.09-.47a.78.78,0,0,0-.39.11.7.7,0,0,0-.26.21,1.71,1.71,0,0,0-.46-.77A1.89,1.89,0,0,0,70.7,79h0a1.84,1.84,0,0,0-.37,1.29.62.62,0,0,0-.32-.12.76.76,0,0,0-.41,0s.19.31.26.41a8.46,8.46,0,0,0,.41.75,3,3,0,0,0,.38.45A.76.76,0,0,1,71.31,81.42Zm.78.74a.71.71,0,0,1-.12.38,3.56,3.56,0,0,0,.58.21,4.06,4.06,0,0,0,.85.07h.42l-.1-.2a2.51,2.51,0,0,0-.18-.27,1.89,1.89,0,0,0,1.09-.75,2,2,0,0,0-1.3-.35A2.13,2.13,0,0,0,73.4,81a1.42,1.42,0,0,0,0-.22l-.39.14a4.09,4.09,0,0,0-.77.35,3,3,0,0,0-.46.38A.72.72,0,0,1,72.09,82.16ZM78.89,81a3.77,3.77,0,0,0-.66-.39,5.56,5.56,0,0,0-.93-.24l-.47-.09s0,.08.08.25a2.52,2.52,0,0,0,.14.33,2.17,2.17,0,0,0-1.37.63,2.17,2.17,0,0,0,1.37.63,2.36,2.36,0,0,0-.14.34,2.51,2.51,0,0,0-.08.24l.47-.09a4.73,4.73,0,0,0,.93-.24,4.36,4.36,0,0,0,.69-.4h0l0-.07-.09-.14a.86.86,0,0,1,0-.27.6.6,0,0,1,.06-.27.26.26,0,0,1,0-.09.41.41,0,0,1,.07-.11Zm-.4-2a1,1,0,0,0-.46,0s.14.37.2.51.14.55.3.91a3,3,0,0,0,.36.61l0,0h0a.76.76,0,0,1,.22-.17l0,0a.88.88,0,0,1,.33-.07.73.73,0,0,1,.33.08h0a.66.66,0,0,1,.23.17h0l0,0a3.22,3.22,0,0,0,.35-.6c.16-.36.24-.78.3-.91s.2-.51.2-.51a1,1,0,0,0-.46,0,.81.81,0,0,0-.33.19,1.55,1.55,0,0,0,0-.21,2.07,2.07,0,0,0-.18-.53,2.15,2.15,0,0,0-.48-.63,2.12,2.12,0,0,0-.49.68,1.76,1.76,0,0,0-.16.54.8.8,0,0,0,0,.15A.81.81,0,0,0,78.49,79Zm1.61,2s0,0,0,0a.69.69,0,0,1,.17.44.7.7,0,0,1-.2.48h0a4.36,4.36,0,0,0,.69.4,4.79,4.79,0,0,0,.94.24l.45.09a1.21,1.21,0,0,0-.07-.24,2.36,2.36,0,0,0-.14-.34,2.17,2.17,0,0,0,1.37-.63A2.17,2.17,0,0,0,82,80.83a2.52,2.52,0,0,0,.14-.33.76.76,0,0,0,.07-.25l-.45.09a5.64,5.64,0,0,0-.94.24,4,4,0,0,0-.64.38l0,0Zm7.14.62a3,3,0,0,0-.46-.38,4.44,4.44,0,0,0-.78-.35l-.38-.14a.74.74,0,0,0,0,.22,2.13,2.13,0,0,0,.07.31,2,2,0,0,0-1.3.35,1.89,1.89,0,0,0,1.09.75,1.88,1.88,0,0,0-.17.27,1.32,1.32,0,0,0-.1.2h.41a4.06,4.06,0,0,0,.85-.07,4.87,4.87,0,0,0,.58-.21.71.71,0,0,1-.12-.38A.73.73,0,0,1,87.24,81.6Zm1.16.2a3.68,3.68,0,0,0,.38-.45c.19-.29.33-.64.4-.75s.26-.41.26-.41a.76.76,0,0,0-.41,0,.62.62,0,0,0-.32.12,1.87,1.87,0,0,0-.37-1.3,2,2,0,0,0-.83,1.09s0-.09-.26-.21a.78.78,0,0,0-.39-.11s.06.35.09.47,0,.5.12.84a2.24,2.24,0,0,0,.19.52.77.77,0,0,1,.47-.17A.79.79,0,0,1,88.4,81.8Zm-.17.92a4.14,4.14,0,0,0,.48.4,4.44,4.44,0,0,0,.78.35l.38.14a1.89,1.89,0,0,0,0-.22,2.13,2.13,0,0,0-.07-.31,2.09,2.09,0,0,0,1.3-.35A2,2,0,0,0,90,82a1.88,1.88,0,0,0,.17-.27,1.08,1.08,0,0,0,.1-.19h-.41a4.06,4.06,0,0,0-.85.07,4.51,4.51,0,0,0-.6.22.61.61,0,0,1,.11.35A.72.72,0,0,1,88.23,82.72Zm7.58-1a1.06,1.06,0,0,0-.71.65,2.54,2.54,0,0,0,0,1.37,2.55,2.55,0,0,0-.3-.58,3,3,0,0,0-.9-.59,5,5,0,0,1-.49-.29s0,.07,0,.22a2.4,2.4,0,0,0,0,.3,2.93,2.93,0,0,0-1.38.17,1.84,1.84,0,0,0,.94.83l-.3.27a1.74,1.74,0,0,0-.15.18l.46.07a6,6,0,0,0,1,.07l.49,0,.14,0a.37.37,0,0,1,.05-.11.36.36,0,0,1,0-.09,1.14,1.14,0,0,1,.15-.17h0a.9.9,0,0,1,.22-.14.56.56,0,0,1,.63,0,.47.47,0,0,1,.06.09,2.87,2.87,0,0,1,.87-1,2.75,2.75,0,0,1,1.26-.18,1.05,1.05,0,0,0-1.08-1l-.1,0a1.08,1.08,0,0,0-.79.37ZM63.53,111.25h-2v-.32h0l0,12.16c0,.35,0,.68.08,1a9,9,0,0,0,.87,2.9s0,0,0,0l.06.12c0,.1.11.19.16.28s.2.34.3.5a9,9,0,0,0,.57.79V111.25Zm1.92,19.07a9.34,9.34,0,0,0,2.17,1l-.05-20.07H65.45Zm6.14-19.07H69.48v20.52a9.89,9.89,0,0,0,2.11,0h0Zm2.17,0h-.25l-.06,20.07h0a6,6,0,0,0,.69-.2,7.66,7.66,0,0,0,1.48-.75V116A7,7,0,0,1,73.76,111.25Zm3.83,17.28a3.94,3.94,0,0,0,.52-.6,6.73,6.73,0,0,0,.71-1.26c.08-.17.15-.35.22-.54l0-.08c.06-.17.12-.35.17-.53a4.41,4.41,0,0,0,.15-.55h0a8.32,8.32,0,0,0,.21-1v-.14c0-.18,0-.36,0-.54v-5.5a5.43,5.43,0,0,1-2-.42Zm7.09-14.07a7,7,0,0,0,.56-1.51h1.21l.19.6h1a1,1,0,0,1,.92-.64l0,1.53,0,1.48h-.28v.94h.29v2.71a1,1,0,0,0-.85.55.17.17,0,0,1,0-.05l-1.53-1.71-.6.26-1.1-1.22.36-.53-1-1.13c.13-.15.25-.31.37-.47l1.1,1.23.61-.26,1.1,1.22-.36.53,1.5,1.67.1,0v-2.23l-.63-.17V115.6l.63-.18v-.69a1,1,0,0,1-.65-.6h-1l-.19.6H84.76Zm1.6,3.13-.64-.71-.46.37.63.72Zm-1.16-3.46h1v-.58h-1Zm3.41,11.44V126l0,3.9a1,1,0,0,1-.9-.73,6.83,6.83,0,0,1-1.43-.37l.21.09-.47.44a6.47,6.47,0,0,1-1.48-.76l.14-.64a.67.67,0,0,0,.14.09,6.6,6.6,0,0,1-1-.92,1,1,0,0,1-.93-.18.88.88,0,0,1-.11-1.31l0-.06a5.64,5.64,0,0,1-.42-1.47c0,.06,0,.12,0,.18h0l-.64-.14-.08-1.6.62-.21v-.94a.93.93,0,0,1,0-1.79v-1.45l-.63-.18v-.59q.32-.14.63-.3v.55h.62v-.94l.46-.37.18,0V118l-.63.18v1.47a.91.91,0,0,1,.62.6h1.16l.18-.6h1.7l.18.6h1l0-.07a.86.86,0,0,0-.08.36.88.88,0,0,0,.07.32v0h-1l-.18.6h-1.7l-.18-.6H83.42a.93.93,0,0,1-.61.58v1.45h-.62v.43c0,.17,0,.34,0,.51h.59s0,0,0,.07a5.63,5.63,0,0,1,0-.58v-1l.63.15s0,.66,0,.8.06.8.06.8l-.62.2a5.2,5.2,0,0,0,.31,1.06,1.19,1.19,0,0,1,.53.06L84.94,124l-.36-.52,1.1-1.22.6.26,1.44-1.6s0,0,0,0a.94.94,0,0,0,.48.44l-1.43,1.58.36.52L86,124.67l-.6-.26-1.19,1.32a.87.87,0,0,1,0,1,5.56,5.56,0,0,0,.72.65h0l.07,0c.13.1.25.2.39.29l-.29.49a8.84,8.84,0,0,0,.86.46l.3-.5.31.11.18.07h0a6.51,6.51,0,0,0,1,.23,1,1,0,0,1,.57-.51v-2l-.64-.18v-1.6l.64-.17v-2.75l.27,0v3.21h-.27v.94Zm-3.24-1.91.46.37.64-.71-.46-.38Zm-.21-2.87h1v-.58h-1Zm-2.59.09a.4.4,0,0,0,.42-.39.42.42,0,0,0-.84,0A.4.4,0,0,0,82.49,120.88ZM85.34,127l-.44.39.06,0a6.25,6.25,0,0,0,1.57.85l.18.06.14-.6A5.08,5.08,0,0,1,85.34,127Zm4.89.75.13.6.19-.06a6,6,0,0,0,1.56-.85l.07,0-.45-.39A5.15,5.15,0,0,1,90.23,127.77Zm-1.71-11.85,0-1.48v-1.53a1,1,0,0,1,.92.64h1l.18-.6h1.69l.19.6h1.11a1,1,0,0,1,.94-.64,1,1,0,0,1,1,.93.93.93,0,0,1-.66.88v1.46l.63.18V118l-.63.18v1.45a.92.92,0,0,1,0,1.79v.94l.63.21-.09,1.6-.64.14h0a1.1,1.1,0,0,0,0-.18,5.64,5.64,0,0,1-.42,1.47l.05.06a.89.89,0,0,1-.1,1.31,1,1,0,0,1-.94.18,6.52,6.52,0,0,1-1,.92l.14-.09.13.64a6.47,6.47,0,0,1-1.48.76l-.47-.44h0l.21-.09a6.58,6.58,0,0,1-1.42.37,1,1,0,0,1-.91.73v-4.34h.29v-.94h-.29v-3.21h0a1,1,0,0,0,.24-.05v2.74l.63.17v1.6l-.63.18v2a1,1,0,0,1,.57.51,6.23,6.23,0,0,0,1-.23h0l.18-.07.31-.11.29.5a7.82,7.82,0,0,0,.86-.46l-.29-.49a4,4,0,0,0,.39-.29l.07,0h0a5.48,5.48,0,0,0,.71-.65.89.89,0,0,1,0-1l-1.19-1.32-.6.26L90,123.44l.36-.52-1.41-1.56a.94.94,0,0,0,.48-.37l1.4,1.56.6-.26,1.1,1.22-.36.52,1.2,1.33a1.15,1.15,0,0,1,.52-.06,4.64,4.64,0,0,0,.31-1.06l-.62-.2s0-.64.07-.8,0-.8,0-.8l.63-.15v1a5.63,5.63,0,0,1,0,.58.15.15,0,0,0,0-.07h.59a4.4,4.4,0,0,0,0-.51v-.43h-.62v-1.45a1,1,0,0,1-.61-.58H92.48l-.18.6H90.6l-.18-.6H89.5a1,1,0,0,0,.06-.29.94.94,0,0,0-.06-.29h.92l.18-.6h1.7l.18.6h1.16a.91.91,0,0,1,.63-.6v-1.47l-.64-.18v-1.6l.64-.18v-1.45h-.1l-1.92,2.15.36.53-1.11,1.22-.6-.26L89.41,120a1,1,0,0,0-.46-.4L90.44,118l-.36-.53,1.1-1.22.6.26,1.94-2.15a.91.91,0,0,1-.11-.22H92.5l-.19.6H90.62l-.18-.6h-1a1,1,0,0,1-.64.6v.69l.64.18v1.61l-.64.17v2.23a1,1,0,0,0-.25,0h0v-2.71h.3v-.94h-.31Zm3.38,1.33-.47-.37-.63.71.46.38Zm.09,3H91v.58h1Zm-.2,3.45-.65-.72-.46.38.64.71Zm2.79-3.57a.41.41,0,0,0-.42.4.42.42,0,0,0,.84,0A.41.41,0,0,0,94.58,120.09Zm-.31-3.41v.94h.61v-.94ZM91,114.13h1v-.58H91Zm-16.69-5.66h-2v-1.72l.25,0c0-.33-.09-.83-.34-1l-.22.18a1.46,1.46,0,0,0-.82-.45l.13-.23a1.56,1.56,0,0,0-1.42,0l.13.22a1.37,1.37,0,0,0-.82.45l-.22-.17c-.25.16-.33.66-.33,1l.25,0v1.72H65.45v-2.74h1.34V100.4h-.67V97.74H67.2l.17,1.67H68.7l.08-1.67h1l.08,1.67H71.2l.16-1.67h.92l.16,1.67h1.33l.17-1.67H75v2.66h-.66v5.33h1.33v.56A6.74,6.74,0,0,0,74.27,108.47Zm-1.49-7.32a.88.88,0,0,0-.92.92v1.83h1.83v-1.83A.87.87,0,0,0,72.78,101.15Zm-5.33,2.75h1.83v-1.83a.92.92,0,1,0-1.83,0Zm6.32-6.16v-.92h.59V95.5h-.59v.33h-.33V95.5h-.58v.33h-.42V95.5h-.58v1.32h.58v.92Zm-5.07,0v-.92h.58V95.5H68.7v.33h-.33V95.5H67.7v.33h-.33V95.5h-.58v1.32h.58v.92Zm2.5-2.91h.66V93.5H71.2v.33h-.34V93.5h-.58v.33H70V93.5h-.67v1.33H70v2.91H71.2ZM69.45,107a1,1,0,0,1,1.08-1h-.25l-.29-.53a1.37,1.37,0,0,0-.82.45l.53.41a1,1,0,0,0-.25.5l-.58-.06v1.72h.58Zm2.83-.23-.59.06a.88.88,0,0,0-.25-.5l.53-.4a1.46,1.46,0,0,0-.82-.45l-.29.52h-.33a1,1,0,0,1,1.16,1v1.49h.59Zm-2.58-.44-.53-.41-.22-.17c-.25.16-.33.66-.33,1l.25,0,.58.06A1,1,0,0,1,69.7,106.31Zm.58-.33h.58l.29-.52.13-.23a1.56,1.56,0,0,0-1.42,0l.13.22Zm1.41.83.59-.06.25,0c0-.33-.09-.83-.34-1l-.22.18-.53.4A.88.88,0,0,1,71.69,106.81Zm-4.24-2.91v-1.83a.92.92,0,1,1,1.83,0v1.83Zm.17-.17h1.5v-1.58a.75.75,0,1,0-1.5,0Zm6.07-1.66v1.83H71.86v-1.83a.92.92,0,1,1,1.83,0Zm-.91-.75a.77.77,0,0,0-.75.83v1.58h1.5v-1.58A.77.77,0,0,0,72.78,101.32Zm-5.41-1.91H68.7l.08-1.67H67.2Zm2.49,0H71.2l.16-1.67H69.78Zm2.58,0h1.33l.17-1.67H72.28ZM89.6,93.92h0a2.23,2.23,0,0,0,.1-.43,1.7,1.7,0,0,0,0-.47h0l0,0c0,.17.11.41.26.37l.07,0s0,.07,0,.1a.19.19,0,0,0,.25-.06l0-.07h0a.08.08,0,0,0,0,0h.06v0l0,.07a.2.2,0,0,0,0,.28.19.19,0,0,0,.19,0,.16.16,0,0,0,.05.14.22.22,0,0,0,.31,0,1.2,1.2,0,0,0,.09-.12h0a.08.08,0,0,0,0,.06.08.08,0,0,0,.07,0v0a.46.46,0,0,0-.1.1.2.2,0,0,0,0,.29.18.18,0,0,0,.16,0,.17.17,0,0,0,0,.17.23.23,0,0,0,.31,0,.15.15,0,0,0,.06,0h0s0,0,0,0l.06,0v0l-.07,0c-.07.1-.07.21,0,.25s.11,0,.11,0a.15.15,0,0,0,0,.07c0,.15.26.17.44.16l0,0s0,0,0,0a1.8,1.8,0,0,0-.49.07,3.07,3.07,0,0,0-.43.18h0a2,2,0,0,0-.29-.37A2.23,2.23,0,0,0,91,94.8v0l-.32-.27-.09-.05a4.4,4.4,0,0,0-.39-.26l-.14-.09A2.2,2.2,0,0,0,89.6,93.92ZM91.65,95a.06.06,0,0,0,0,.08s.07,0,.08,0,0,0,0-.08A.07.07,0,0,0,91.65,95Zm-.32-.34s0,0,0,0l.07.08.08.07s.05,0,.06,0a0,0,0,0,0,0-.06l-.07-.08-.08-.07A0,0,0,0,0,91.33,94.68Zm-.23-.18a.05.05,0,0,0,0,.07.07.07,0,0,0,.09,0,.05.05,0,0,0,0-.07A.06.06,0,0,0,91.1,94.5Zm-.41-.34s0,0,0,.06l.12.09.12.09s0,0,.06,0,0,0,0-.06l-.12-.09-.12-.09Zm-.2-.14h0a.06.06,0,0,0,0,.08s.07,0,.09,0a.07.07,0,0,0,0-.08s-.07,0-.08,0Zm-.41-.26a.06.06,0,0,0,0,.07l.09,0,.09.05a.06.06,0,0,0,.07,0,.07.07,0,0,0,0-.06l-.09-.05-.1-.06A0,0,0,0,0,90.08,93.76Zm-.25-.14a.05.05,0,0,0,0,.08.06.06,0,0,0,.08,0s0,0,0-.08S89.84,93.6,89.83,93.62Zm.75-.4a.1.1,0,0,1,0,0h0l.23-.16-.1-.18h-.21l0,.28h0A.07.07,0,0,1,90.58,93.22Zm-.14,0a.09.09,0,0,1,.08,0h0l-.15-.2-.18.09v.2l.26,0A.11.11,0,0,1,90.44,93.25Zm.18.1a.08.08,0,0,1-.07,0l.14.2.18-.1V93.3l-.25,0h0A.08.08,0,0,1,90.62,93.35Zm-.08,0h0a.08.08,0,0,0,.07-.12.1.1,0,0,0,0,0,.07.07,0,0,0-.06,0,.09.09,0,0,0-.08,0,.11.11,0,0,0,0,.08h0a.08.08,0,0,0,0,0Zm-.81-.56s0,0,0,0h0s.14-.2,0-.31a.31.31,0,0,0-.32,0s.12.08.14.15a1,1,0,0,1,.08.2A.07.07,0,0,1,89.73,92.83Zm0,.18,0,0,.14.12L90,93l0-.19-.27,0a.1.1,0,0,1,0,.08A.1.1,0,0,1,89.71,93Zm.05-.06a.1.1,0,0,0,0-.08h0s0,0,0,0a.07.07,0,0,0-.08,0s0,0,0,0,0,.11,0,.12,0,0,0,0h0A.1.1,0,0,0,89.76,93Zm1.6.75a.06.06,0,0,1,0,.06h0l.26-.13-.07-.19-.21,0-.08.26h0Zm-.15,0a.12.12,0,0,1,.09,0h0l-.12-.22-.19.07,0,.2.24.06h0A.12.12,0,0,1,91.21,93.71Zm.16.13a.08.08,0,0,1-.07,0v0l.1.18L91.6,94l0-.19-.25-.06h0A.07.07,0,0,1,91.37,93.84Zm0,0a.07.07,0,0,0,0-.08.06.06,0,0,0,0-.06l-.06,0a.12.12,0,0,0-.09,0,.12.12,0,0,0,0,.08.08.08,0,0,0,0,.06.08.08,0,0,0,.07,0A.08.08,0,0,0,91.37,93.84Zm.66.49s0,0,0,.06h0l.27-.09,0-.2h0l-.21,0L92,94.3h0A.07.07,0,0,1,92,94.33Zm0,.14a.11.11,0,0,1-.08,0l.08.23.21,0,.06-.19-.24-.09h0A.16.16,0,0,1,92,94.47Zm-.14-.15a.11.11,0,0,1,.08,0h0l-.08-.23-.2.05h0l-.07.18.24.1A.08.08,0,0,1,91.89,94.32Zm0,.16h0a.11.11,0,0,0,.08,0,.16.16,0,0,0,0-.08s0,0,0-.06a.07.07,0,0,0-.06,0,.11.11,0,0,0-.08,0,.08.08,0,0,0,0,.08h0s0,0,0,0Zm.64.64a2.08,2.08,0,0,1,.23,0,.57.57,0,0,1,.18.09s.05-.15-.1-.28-.31.07-.31.08,0,0,0,0S92.61,95.09,92.58,95.12Zm-.1-.09s.06,0,.09,0l0-.26h-.2l-.11.17.16.1,0,0A.17.17,0,0,1,92.48,95Zm-.06.06s0,0,0,0,0,0,0,0,.07,0,.12,0l0,0s0-.06,0-.08,0,0,0,0h0s-.06,0-.09,0A.17.17,0,0,0,92.42,95.09ZM76.6,110.58a.37.37,0,0,1,.36-.21.38.38,0,0,1,.39.37.29.29,0,0,1,0,.09H78a.28.28,0,0,1,0-.09.39.39,0,0,1,.74-.16l.17-.36a.71.71,0,0,0,.09-.28.54.54,0,0,0-1-.17,2.31,2.31,0,0,0,.2-.91,1.88,1.88,0,0,0-.5-1,1.89,1.89,0,0,0-.49,1,2.22,2.22,0,0,0,.21.91.54.54,0,0,0-.51-.34.53.53,0,0,0-.54.51.71.71,0,0,0,.09.28Zm.68.62-.29.58.39-.15.29.33.3-.33.39.15-.29-.58Zm-.39-.37v.37h1.57v-.37H76.89Zm3.93,1,.38-.15.3.33.3-.33.38.15-.28-.58h-.79Zm-.39-1.2a.36.36,0,0,1,.35-.21.37.37,0,0,1,.39.37.28.28,0,0,1,0,.09h.69a.28.28,0,0,1,0-.09.37.37,0,0,1,.38-.37.35.35,0,0,1,.35.21l.18-.36a.71.71,0,0,0,.09-.28.55.55,0,0,0-1-.17,2.22,2.22,0,0,0,.21-.91,1.88,1.88,0,0,0-.5-1,1.89,1.89,0,0,0-.49,1,2.22,2.22,0,0,0,.21.91.55.55,0,0,0-.51-.34.53.53,0,0,0-.54.51.9.9,0,0,0,.08.28Zm.29.62h1.57v-.37H80.72Zm-.34,1.52a.52.52,0,0,0-.5.34,2.31,2.31,0,0,0,.2-.91,1.88,1.88,0,0,0-.5-1,1.9,1.9,0,0,0-.48,1,2.31,2.31,0,0,0,.2.91.54.54,0,0,0-.51-.34.53.53,0,0,0-.54.51.71.71,0,0,0,.09.28l.18.36a.35.35,0,0,1,.35-.21.38.38,0,0,1,.39.37.29.29,0,0,1,0,.09h.69a.28.28,0,0,1,0-.09.39.39,0,0,1,.74-.16l.17-.36a.71.71,0,0,0,.09-.28A.53.53,0,0,0,80.38,112.72Zm-1.18,1.77-.3.58.39-.15.29.33.3-.33.39.15-.29-.58Zm-.4-.37v.37h1.57v-.37H78.8Z" transform="translate(0 0)"/></g></svg>