<svg id="FBWC2023_Flags_Digital_Europe_FIN_RGB" xmlns="http://www.w3.org/2000/svg" viewBox="0 0 234.22 200"><defs><style>.cls-1{fill:#c3c3c3;}.cls-2{fill:#fff;}.cls-3{fill:#233c7b;}</style></defs><path id="Background" class="cls-1" d="M117.11,0a70.17,70.17,0,0,1,31,6.75c37.72,18.14,51.45,72.06,86.12,93.25h0c-34.67,21.19-48.4,75.11-86.12,93.25a70.17,70.17,0,0,1-31,6.75,70.17,70.17,0,0,1-31-6.75C48.4,175.11,34.67,121.19,0,100H0C34.67,78.81,48.4,24.89,86.12,6.75A70.17,70.17,0,0,1,117.11,0Z" transform="translate(0 0)"/><g id="Flag_FIN"><path class="cls-2" d="M48.1,139.07c-4-6-8.14-12-12.47-17.84H60.48v35.54C56.29,151.16,52.23,145.17,48.1,139.07ZM60.48,43.23c-4.19,5.61-8.25,11.6-12.38,17.7S40,73,35.64,78.76H60.48Zm138.1,35.53c-4.33-5.81-8.42-11.85-12.46-17.83C173.33,42,161.25,24.17,143.76,15.76A60.38,60.38,0,0,0,117.69,10h-1.16A63.06,63.06,0,0,0,103,11.47V78.76ZM103,188.53A63.06,63.06,0,0,0,116.53,190h1.16a60.38,60.38,0,0,0,26.07-5.76c17.49-8.41,29.57-26.27,42.36-45.17,4-6,8.14-12,12.47-17.84H103Z" transform="translate(0 0)"/><path class="cls-3" d="M60.48,156.77c8.78,11.75,18.14,21.78,30,27.47A57.56,57.56,0,0,0,103,188.53v-67.3h95.64A137.42,137.42,0,0,1,217.53,100a137.61,137.61,0,0,1-18.95-21.24H103V11.47a57.56,57.56,0,0,0-12.49,4.29c-11.84,5.69-21.2,15.72-30,27.47V78.76H35.64A137.61,137.61,0,0,1,16.69,100a137.42,137.42,0,0,1,18.94,21.23H60.48Z" transform="translate(0 0)"/></g></svg>