<svg id="FBWC2023_Flags_Digital_Europe_GEO_RGB" xmlns="http://www.w3.org/2000/svg" viewBox="0 0 234.22 200"><defs><style>.cls-1{fill:#c3c3c3;}.cls-2{fill:#fff;}.cls-3{fill:#e61d2f;}</style></defs><path id="Background" class="cls-1" d="M117.11,0a70.17,70.17,0,0,1,31,6.75c37.72,18.14,51.45,72.06,86.12,93.25h0c-34.67,21.19-48.4,75.11-86.12,93.25a70.17,70.17,0,0,1-31,6.75,70.17,70.17,0,0,1-31-6.75C48.4,175.11,34.67,121.19,0,100H0C34.67,78.81,48.4,24.89,86.12,6.75A70.17,70.17,0,0,1,117.11,0Z" transform="translate(0 0)"/><g id="Flag_GEO"><path class="cls-2" d="M204.78,86.68c-6.72-8.11-12.74-17-18.66-25.75C173.33,42,161.25,24.17,143.76,15.76a57.71,57.71,0,0,0-13.33-4.45V86.68ZM156.06,54.26a66.92,66.92,0,0,0,9.14,1.09,67.26,67.26,0,0,0-1.09-9.15,35.42,35.42,0,0,0,8.73,0,67.26,67.26,0,0,0-1.09,9.15,67.26,67.26,0,0,0,9.15-1.09,35.42,35.42,0,0,0,0,8.73,67.26,67.26,0,0,0-9.15-1.09,67.07,67.07,0,0,0,1.09,9.15,35.42,35.42,0,0,0-8.73,0,67.07,67.07,0,0,0,1.09-9.15A66.92,66.92,0,0,0,156.06,63a36.77,36.77,0,0,0,0-8.73ZM130.43,188.69a57.71,57.71,0,0,0,13.33-4.45c17.49-8.41,29.57-26.27,42.36-45.17,5.92-8.75,11.94-17.64,18.66-25.75H130.43ZM156.06,137a66.92,66.92,0,0,0,9.14,1.08,66.92,66.92,0,0,0-1.09-9.14,36.77,36.77,0,0,0,8.73,0,66.92,66.92,0,0,0-1.09,9.14A67.25,67.25,0,0,0,180.9,137a35.34,35.34,0,0,0,0,8.72,65.71,65.71,0,0,0-9.15-1.08,67.11,67.11,0,0,0,1.09,9.14,35.42,35.42,0,0,0-8.73,0,67.11,67.11,0,0,0,1.09-9.14,65.38,65.38,0,0,0-9.14,1.08,36.69,36.69,0,0,0,0-8.72ZM29.44,113.32c6.72,8.11,12.74,17,18.66,25.75C60.89,158,73,175.83,90.46,184.24a57.71,57.71,0,0,0,13.33,4.45V113.32Zm48.72,32.42A65.38,65.38,0,0,0,69,144.66a67.11,67.11,0,0,0,1.09,9.14,35.42,35.42,0,0,0-8.73,0,67.11,67.11,0,0,0,1.09-9.14,65.71,65.71,0,0,0-9.15,1.08,35.34,35.34,0,0,0,0-8.72,67.25,67.25,0,0,0,9.15,1.08A66.92,66.92,0,0,0,61.38,129a36.77,36.77,0,0,0,8.73,0A66.92,66.92,0,0,0,69,138.1,66.92,66.92,0,0,0,78.16,137a36.69,36.69,0,0,0,0,8.72ZM103.79,11.31a57.71,57.71,0,0,0-13.33,4.45C73,24.17,60.89,42,48.1,60.93c-5.92,8.75-11.94,17.64-18.66,25.75h74.35ZM78.16,63A66.92,66.92,0,0,0,69,61.9a67.07,67.07,0,0,0,1.09,9.15,35.42,35.42,0,0,0-8.73,0,67.07,67.07,0,0,0,1.09-9.15A67.26,67.26,0,0,0,53.32,63a35.42,35.42,0,0,0,0-8.73,67.26,67.26,0,0,0,9.15,1.09,67.26,67.26,0,0,0-1.09-9.15,35.42,35.42,0,0,0,8.73,0A67.26,67.26,0,0,0,69,55.35a66.92,66.92,0,0,0,9.14-1.09,36.77,36.77,0,0,0,0,8.73Z" transform="translate(0 0)"/><path class="cls-3" d="M217.53,100a120,120,0,0,0-12.75,13.32H130.43v75.37A62.58,62.58,0,0,1,117.69,190h-1.16a62.58,62.58,0,0,1-12.74-1.31V113.32H29.44A120,120,0,0,0,16.69,100,120,120,0,0,0,29.44,86.68h74.35V11.31A62.58,62.58,0,0,1,116.53,10h1.16a62.58,62.58,0,0,1,12.74,1.31V86.68h74.35A120,120,0,0,0,217.53,100ZM165.2,144.66a67.11,67.11,0,0,1-1.09,9.14,35.42,35.42,0,0,1,8.73,0,67.11,67.11,0,0,1-1.09-9.14,65.71,65.71,0,0,1,9.15,1.08,35.34,35.34,0,0,1,0-8.72,67.25,67.25,0,0,1-9.15,1.08,66.92,66.92,0,0,1,1.09-9.14,36.77,36.77,0,0,1-8.73,0,66.92,66.92,0,0,1,1.09,9.14,66.92,66.92,0,0,1-9.14-1.08,36.69,36.69,0,0,1,0,8.72A65.38,65.38,0,0,1,165.2,144.66ZM69,138.1A66.92,66.92,0,0,1,70.11,129a36.77,36.77,0,0,1-8.73,0,66.92,66.92,0,0,1,1.09,9.14A67.25,67.25,0,0,1,53.32,137a35.34,35.34,0,0,1,0,8.72,65.71,65.71,0,0,1,9.15-1.08,67.11,67.11,0,0,1-1.09,9.14,35.42,35.42,0,0,1,8.73,0A67.11,67.11,0,0,1,69,144.66a65.38,65.38,0,0,1,9.14,1.08,36.69,36.69,0,0,1,0-8.72A66.92,66.92,0,0,1,69,138.1ZM165.2,61.9a67.07,67.07,0,0,1-1.09,9.15,35.42,35.42,0,0,1,8.73,0,67.07,67.07,0,0,1-1.09-9.15A67.26,67.26,0,0,1,180.9,63a35.42,35.42,0,0,1,0-8.73,67.26,67.26,0,0,1-9.15,1.09,67.26,67.26,0,0,1,1.09-9.15,35.42,35.42,0,0,1-8.73,0,67.26,67.26,0,0,1,1.09,9.15,66.92,66.92,0,0,1-9.14-1.09,36.77,36.77,0,0,1,0,8.73A66.92,66.92,0,0,1,165.2,61.9ZM69,55.35a67.26,67.26,0,0,1,1.09-9.15,35.42,35.42,0,0,1-8.73,0,67.26,67.26,0,0,1,1.09,9.15,67.26,67.26,0,0,1-9.15-1.09,35.42,35.42,0,0,1,0,8.73,67.26,67.26,0,0,1,9.15-1.09,67.07,67.07,0,0,1-1.09,9.15,35.42,35.42,0,0,1,8.73,0A67.07,67.07,0,0,1,69,61.9,66.92,66.92,0,0,1,78.16,63a36.77,36.77,0,0,1,0-8.73A66.92,66.92,0,0,1,69,55.35Z" transform="translate(0 0)"/></g></svg>