<svg id="FBWC2023_Flags_Digital_Europe_GRE_RGB" xmlns="http://www.w3.org/2000/svg" viewBox="0 0 234.22 200"><defs><style>.cls-1{fill:#c3c3c3;}.cls-2{fill:#282a73;}.cls-3{fill:#fff;}</style></defs><path id="Background" class="cls-1" d="M117.11,0a70.17,70.17,0,0,1,31,6.75c37.72,18.14,51.45,72.06,86.12,93.25h0c-34.67,21.19-48.4,75.11-86.12,93.25a70.17,70.17,0,0,1-31,6.75,70.17,70.17,0,0,1-31-6.75C48.4,175.11,34.67,121.19,0,100H0C34.67,78.81,48.4,24.89,86.12,6.75A70.17,70.17,0,0,1,117.11,0Z" transform="translate(0 0)"/><g id="Flag_GRE"><path class="cls-2" d="M42,130.07H192.26c-2.07,3-4.11,6-6.14,9-2.53,3.74-5,7.44-7.56,11H55.66c-2.52-3.6-5-7.3-7.56-11C46.07,136.07,44,133.06,42,130.07ZM68.46,69.93H42C34.4,80.83,26.38,91.45,16.69,100a113.09,113.09,0,0,1,9.92,10H68.46Zm60.13,0h63.68c-2.08-3-4.12-6-6.15-9-2.53-3.75-5-7.44-7.57-11h-50ZM90.46,184.24A60.38,60.38,0,0,0,116.53,190h1.16a60.38,60.38,0,0,0,26.07-5.76,66.33,66.33,0,0,0,18.76-14.09H71.7A66.33,66.33,0,0,0,90.46,184.24ZM128.59,69.93H88.51V110h119.1a113.09,113.09,0,0,1,9.92-10,114.46,114.46,0,0,1-9.92-10h-79Zm0-20v-20h33.93a66.29,66.29,0,0,0-18.76-14.08A60.38,60.38,0,0,0,117.69,10h-1.16a60.38,60.38,0,0,0-26.07,5.76c-.67.32-1.31.67-1.95,1V49.89ZM68.46,33.35A189,189,0,0,0,55.67,49.89H68.46Z" transform="translate(0 0)"/><path class="cls-3" d="M128.59,69.93h63.68a218,218,0,0,0,15.34,20h-79Zm0-40.09V49.89h50a166.05,166.05,0,0,0-16-20ZM88.51,69.93h40.08v-20H88.51V16.78c-7.51,4-14,9.76-20.05,16.57V49.89H55.67c-2.53,3.6-5,7.29-7.57,11-2,3-4.07,6-6.15,9H68.46V110H26.61a218,218,0,0,1,15.34,20H192.26a219.9,219.9,0,0,1,15.35-20H88.51ZM71.7,170.15h90.82a165.2,165.2,0,0,0,16-20H55.66A165.2,165.2,0,0,0,71.7,170.15Z" transform="translate(0 0)"/></g></svg>