<svg id="FBWC2023_Flags_Digital_Asia_IRI_RGB" xmlns="http://www.w3.org/2000/svg" viewBox="0 0 234.22 200"><defs><style>.cls-1{fill:#c3c3c3;}.cls-2{fill:#d81f26;}.cls-3{fill:#fff;}.cls-4{fill:#239f49;}</style></defs><path id="Background" class="cls-1" d="M117.11,0a70.17,70.17,0,0,1,31,6.75c37.72,18.14,51.45,72.06,86.12,93.25h0c-34.67,21.19-48.4,75.11-86.12,93.25a70.17,70.17,0,0,1-31,6.75,70.17,70.17,0,0,1-31-6.75C48.4,175.11,34.67,121.19,0,100H0C34.67,78.81,48.4,24.89,86.12,6.75A70.17,70.17,0,0,1,117.11,0Z" transform="translate(0 0)"/><g id="Flag_IRI"><path class="cls-2" d="M141.4,89.23a21.08,21.08,0,0,1-8.52,28.58c.47-.55.93-1.12,1.36-1.72a26.61,26.61,0,0,0-5.87-37.18A21.07,21.07,0,0,1,141.4,89.23ZM100,116.1a26.62,26.62,0,0,1,5.87-37.19,21.09,21.09,0,0,0-4.51,38.91C100.86,117.26,100.41,116.69,100,116.1Zm21.76,4.54a24.67,24.67,0,0,0,3.56-40.91,26.62,26.62,0,0,1-5.43,37L120.39,81l-3.28-2.67L113.83,81l.52,35.76a26.61,26.61,0,0,1-5.43-37,24.67,24.67,0,0,0,3.55,40.91,26.49,26.49,0,0,1-11.74,1.27,24.54,24.54,0,0,0,13.71,1.35v.29l2.66,3.07,2.66-3.07v-.29a24.54,24.54,0,0,0,13.71-1.35A26.54,26.54,0,0,1,121.74,120.64Zm-8.38-42.12a3.87,3.87,0,0,0,3.75-1,3.89,3.89,0,0,0,6.55-3.68,4.51,4.51,0,0,1-6.2,1.47l-.35-.24a4.5,4.5,0,0,1-6.31-.88l-.25-.35A3.89,3.89,0,0,0,113.36,78.52Zm76.14,52.81h1.89l-1,1.43h-.91v1.33l-1.43,2.1v-3.43h-1.44v5.55l-.12.19H185.2v-5.74h-1.43v5.74h-1.44v-5.74H180.9v2.87h-5.73v4.3h4.3V138.5H176.6v-1.44h4.3v2.87h4.64C173,158.52,161,176,143.76,184.24A60.38,60.38,0,0,1,117.69,190h-1.16a60.38,60.38,0,0,1-26.07-5.76C73,175.83,60.89,158,48.1,139.07c-.17-.25-.34-.51-.52-.76v-1.25h4.3v2.87h7.17v-4.3h-4.3v1.43h2.87v1.44h-4.3v-2.87H46.15v.56l-1.43-2.1v-1.33h-.91l-1-1.43h1.89V129.9h1.43v1.43h12.9V129.9h1.44v1.43h12.9V129.9h1.43v1.43h12.9V129.9h1.44v1.43h12.9V129.9h1.43v1.43h12.9V129.9h1.44v1.43h12.9V129.9h1.43v1.43h12.9V129.9h1.43v1.43H159.4V129.9h1.43v1.43h12.91V129.9h1.43v1.43h12.9V129.9h1.43Zm-139,7.17H49v1.43h1.43Zm14.34-4.3v-1.44H46.15v1.44Zm8.6-1.44H72v5.74H70.52v-5.74H69.09v5.74H67.65v-5.74H66.22v2.87H60.49v4.3h4.3V138.5H61.92v-1.44h4.3v2.87h7.17Zm1.43,1.44H93.46v-1.44H74.82Zm4.3,4.3H77.69v1.43h1.43Zm8.6-2.87h-4.3v1.43h2.87v1.44H82v-2.87H74.82v4.3h1.44v-2.87h4.3v2.87h7.16Zm14.34-2.87h-1.44v5.74H99.19v-5.74H97.76v5.74H96.32v-5.74H94.89v2.87H89.16v4.3h4.3V138.5H90.59v-1.44h4.3v2.87h7.17Zm5.73,5.74h-1.43v1.43h1.43Zm8.6-2.87h-4.3v1.43H115v1.44h-4.3v-2.87h-7.17v4.3h1.43v-2.87h4.31v2.87h7.16Zm5.74-1.43v-1.44H103.49v1.44Zm8.6-1.44H129.3v5.74h-1.44v-5.74h-1.43v5.74H125v-5.74h-1.43v2.87h-5.73v4.3h4.3V138.5h-2.87v-1.44h4.3v2.87h7.17Zm1.43,1.44H150.8v-1.44H132.16Zm4.3,4.3H135v1.43h1.43Zm8.6-2.87h-4.3v1.43h2.87v1.44h-4.3v-2.87h-7.17v4.3h1.44v-2.87h4.29v2.87h7.17Zm14.34-2.87H158v5.74h-1.44v-5.74H155.1v5.74h-1.44v-5.74h-1.43v2.87h-5.74v4.3h4.31V138.5h-2.87v-1.44h4.3v2.87h7.17Zm5.73,5.74H163.7v1.43h1.43Zm8.61-2.87h-4.31v1.43h2.87v1.44H168v-2.87h-7.17v4.3h1.44v-2.87h4.3v2.87h7.17Zm5.73-2.87H160.83v1.44h18.64Z" transform="translate(0 0)"/><path class="cls-3" d="M72,132.76h1.43v7.17H66.22v-2.87h-4.3v1.44h2.87v1.43h-4.3v-4.3h5.73v-2.87h1.43v5.74h1.44v-5.74h1.43v5.74H72Zm11.46,4.3h2.87v1.44H82v-2.87H74.82v4.3h1.44v-2.87h4.3v2.87h7.16v-4.3h-4.3Zm10-4.3H74.82v1.44H93.46Zm-15.77,7.17h1.43V138.5H77.69Zm22.93-1.43H99.19v-5.74H97.76v5.74H96.32v-5.74H94.89v2.87H89.16v4.3h4.3V138.5H90.59v-1.44h4.3v2.87h7.17v-7.17h-1.44Zm5.74,1.43h1.43V138.5h-1.43Zm-41.57-7.17H46.15v1.44H64.79Zm47.3,4.3H115v1.44h-4.3v-2.87h-7.17v4.3h1.43v-2.87h4.31v2.87h7.16v-4.3h-4.3Zm73.11-4.3h-1.43v5.74h-1.44v-5.74H180.9v2.87h-5.73v4.3h4.3V138.5H176.6v-1.44h4.3v2.87h4.64l.58-.86.39-.57H185.2Zm1.43,0v5.55l1.44-2.12v-3.43ZM49,139.93h1.43V138.5H49Zm2.86-2.87v2.87h7.17v-4.3h-4.3v1.43h2.87v1.44h-4.3v-2.87H46.15v.56c.48.71,1,1.41,1.43,2.12v-1.25Zm137.62-3,.91-1.33h-.91Zm-20.07,3h2.87v1.44H168v-2.87h-7.17v4.3h1.44v-2.87h4.3v2.87h7.17v-4.3h-4.31Zm-8.6-2.86h18.64v-1.44H160.83Zm2.87,5.73h1.43V138.5H163.7Zm25.8-71.26h1.89C199.19,80,207.47,91.12,217.53,100c-10.06,8.88-18.34,20-26.14,31.33H189.5V129.9h-1.43v1.43h-12.9V129.9h-1.43v1.43H160.83V129.9H159.4v1.43H146.49V129.9h-1.43v1.43h-12.9V129.9h-1.43v1.43h-12.9V129.9h-1.44v1.43h-12.9V129.9h-1.43v1.43H89.16V129.9H87.72v1.43H74.82V129.9H73.39v1.43H60.49V129.9H59.05v1.43H46.15V129.9H44.72v1.43H42.83C35,120,26.75,108.88,16.69,100,26.75,91.12,35,80,42.83,68.67h1.89V70.1h1.43V68.67h12.9V70.1h1.44V68.67h12.9V70.1h1.43V68.67h12.9V70.1h1.44V68.67h12.9V70.1h1.43V68.67h12.9V70.1h1.44V68.67h12.9V70.1h1.43V68.67h12.9V70.1h1.43V68.67H159.4V70.1h1.43V68.67h12.91V70.1h1.43V68.67h12.9V70.1h1.43Zm-76.14,9.85a3.87,3.87,0,0,0,3.75-1,3.89,3.89,0,0,0,6.55-3.68,4.51,4.51,0,0,1-6.2,1.47l-.35-.24a4.5,4.5,0,0,1-6.31-.88l-.25-.35A3.89,3.89,0,0,0,113.36,78.52Zm-12,39.3c-.48-.56-.93-1.13-1.36-1.72a26.62,26.62,0,0,1,5.87-37.19,21.09,21.09,0,0,0-4.51,38.91Zm32.15,4.09a26.54,26.54,0,0,1-11.75-1.27,24.67,24.67,0,0,0,3.56-40.91,26.62,26.62,0,0,1-5.43,37L120.39,81l-3.28-2.67L113.83,81l.52,35.76a26.61,26.61,0,0,1-5.43-37,24.67,24.67,0,0,0,3.55,40.91,26.49,26.49,0,0,1-11.74,1.27,24.54,24.54,0,0,0,13.71,1.35v.29l2.66,3.07,2.66-3.07v-.29A24.54,24.54,0,0,0,133.49,121.91Zm7.91-32.68a21.07,21.07,0,0,0-13-10.32,26.61,26.61,0,0,1,5.87,37.18c-.43.6-.89,1.17-1.36,1.72A21.08,21.08,0,0,0,141.4,89.23ZM43.81,132.76l.91,1.33v-1.33Zm78.32,0H103.49v1.44h18.64ZM158,138.5h-1.44v-5.74H155.1v5.74h-1.44v-5.74h-1.43v2.87h-5.74v4.3h4.31V138.5h-2.87v-1.44h4.3v2.87h7.17v-7.17H158Zm-28.67,0h-1.44v-5.74h-1.43v5.74H125v-5.74h-1.43v2.87h-5.73v4.3h4.3V138.5h-2.87v-1.44h4.3v2.87h7.17v-7.17H129.3Zm21.5-5.74H132.16v1.44H150.8ZM135,139.93h1.43V138.5H135Zm5.73-2.87h2.87v1.44h-4.3v-2.87h-7.17v4.3h1.44v-2.87h4.29v2.87h7.17v-4.3h-4.3Zm-96-71.14-.9,1.31h.9Zm20.07-5.85H48.68l-.58.86-.39.57H64.79Zm0,5.73H61.92V64.37h4.3v2.86h7.17V60.07H72V65.8H70.52V60.07H69.09V65.8H67.66V60.07H66.22v2.86H60.49v4.3h4.3Zm-14.34,0H49v1.43h1.43Zm-2.87,1.43V64.37h4.3v2.86h7.17v-4.3h-4.3v1.44h2.87V65.8h-4.3V62.93H46.74l-.59.87v3.43Zm41.58,0h4.3V65.8H90.59V64.37h4.3v2.86h7.17V60.07h-1.43V65.8H99.19V60.07H97.76V65.8H96.33V60.07H94.89v2.86H89.16Zm-12.9-2.86h4.3v2.86h7.16v-4.3h-4.3v1.44h2.87V65.8H82V62.93H74.82v4.3h1.44Zm17.2-4.3H74.82V61.5H93.46ZM77.69,67.23h1.43V65.8H77.69Zm27.23-2.86h4.31v2.86h7.16v-4.3h-4.3v1.44H115V65.8h-4.3V62.93h-7.17v4.3h1.43Zm17.21-4.3H103.49V61.5h18.64Zm-4.3,7.16h4.3V65.8h-2.87V64.37h4.3v2.86h7.17V60.07H129.3V65.8h-1.44V60.07h-1.43V65.8H125V60.07h-1.43v2.86h-5.73Zm-11.47,0h1.43V65.8h-1.43Zm27.24-2.86h4.3v2.86h7.16v-4.3h-4.3v1.44h2.87V65.8h-4.3V62.93h-7.17v4.3h1.44Zm12.9,2.86h4.3V65.8h-2.87V64.37h4.3v2.86h7.17V60.07H158V65.8h-1.44V60.07H155.1V65.8h-1.43V60.07h-1.44v2.86H146.5Zm-11.47,0h1.43V65.8H135Zm15.77-7.16H132.16V61.5H150.8Zm28.67,0H160.83V61.5h18.64Zm5.73,5.73V60.07h-1.43V65.8h-1.43V60.07H180.9v2.86h-5.73v4.3h4.3V65.8H176.6V64.37h4.3v2.86h7.17V63.81c-.48-.71-1-1.41-1.43-2.12V65.8Zm-22.94-1.43h4.31v2.86h7.17v-4.3h-4.31v1.44h2.87V65.8H168V62.93h-7.17v4.3h1.43Zm1.44,2.86h1.43V65.8H163.7Zm26.7,0-.9-1.31v1.31Z" transform="translate(0 0)"/><path class="cls-4" d="M44.72,67.23h-.9l-1,1.44h1.89V70.1h1.43V68.67h12.9V70.1h1.44V68.67h12.9V70.1h1.43V68.67h12.9V70.1h1.44V68.67h12.9V70.1h1.43V68.67h12.9V70.1h1.44V68.67h12.9V70.1h1.43V68.67h12.9V70.1h1.43V68.67H159.4V70.1h1.43V68.67h12.91V70.1h1.43V68.67h12.9V70.1h1.43V68.67h1.89l-1-1.44h-.9V65.92l-1.43-2.11v3.42H180.9V64.37h-4.3V65.8h2.87v1.43h-4.3v-4.3h5.73V60.07h1.44V65.8h1.43V60.07h1.43V65.8h1.44V61.69c-.18-.25-.35-.51-.52-.76C173.33,42,161.25,24.17,143.76,15.76A60.38,60.38,0,0,0,117.69,10h-1.16a60.38,60.38,0,0,0-26.07,5.76C73.24,24,61.26,41.49,48.68,60.07H64.79V61.5H47.71c-.32.48-.64,1-1,1.43h6.58V65.8h4.3V64.37H54.75V62.93h4.3v4.3H51.88V64.37h-4.3v2.86H46.15V63.8c-.47.71-.95,1.41-1.43,2.12Zm120.41,0H163.7V65.8h1.43Zm-4.3-7.16h18.64V61.5H160.83Zm0,2.86H168V65.8h4.3V64.37h-2.87V62.93h4.31v4.3h-7.17V64.37h-4.31v2.86h-1.43Zm-24.37,4.3H135V65.8h1.43Zm15.77-7.16h1.44V65.8h1.43V60.07h1.43V65.8H158V60.07h1.43v7.16h-7.17V64.37h-4.3V65.8h2.87v1.43h-4.3v-4.3h5.73Zm-20.07,0H150.8V61.5H132.16Zm0,2.86h7.17V65.8h4.3V64.37h-2.87V62.93h4.3v4.3H137.9V64.37h-4.3v2.86h-1.44Zm-24.37,4.3h-1.43V65.8h1.43Zm15.77-7.16H125V65.8h1.44V60.07h1.43V65.8h1.44V60.07h1.43v7.16h-7.17V64.37h-4.3V65.8h2.87v1.43h-4.3v-4.3h5.73Zm-20.07,0h18.64V61.5H103.49Zm0,2.86h7.17V65.8H115V64.37h-2.87V62.93h4.3v4.3h-7.16V64.37h-4.31v2.86h-1.43Zm-24.37,4.3H77.69V65.8h1.43Zm15.77-7.16h1.44V65.8h1.43V60.07h1.43V65.8h1.44V60.07h1.43v7.16H94.89V64.37h-4.3V65.8h2.87v1.43h-4.3v-4.3h5.73Zm-20.07,0H93.46V61.5H74.82Zm0,2.86H82V65.8h4.3V64.37H83.42V62.93h4.3v4.3H80.56V64.37h-4.3v2.86H74.82Zm-14.33,0h5.73V60.07h1.44V65.8h1.43V60.07h1.43V65.8H72V60.07h1.43v7.16H66.22V64.37h-4.3V65.8h2.87v1.43h-4.3ZM49,65.8h1.43v1.43H49Z" transform="translate(0 0)"/></g></svg>