<svg id="FBWC2023_Flags_Digital_Asia_JOR_RGB" xmlns="http://www.w3.org/2000/svg" viewBox="0 0 234.22 200"><defs><style>.cls-1{fill:#c3c3c3;}.cls-2{fill:#cd2028;}.cls-3{fill:#017b3f;}.cls-4{fill:#fff;}</style></defs><path id="Background" class="cls-1" d="M117.11,0a70.17,70.17,0,0,1,31,6.75c37.72,18.14,51.45,72.06,86.12,93.25h0c-34.67,21.19-48.4,75.11-86.12,93.25a70.17,70.17,0,0,1-31,6.75,70.17,70.17,0,0,1-31-6.75C48.4,175.11,34.67,121.19,0,100H0C34.67,78.81,48.4,24.89,86.12,6.75A70.17,70.17,0,0,1,117.11,0Z" transform="translate(0 0)"/><g id="Flag_JOR"><path class="cls-2" d="M106.69,130h0L151.63,100l.05,0L62.47,40.6c-4.9,6.34-9.59,13.26-14.37,20.33C38.69,74.83,29,89.1,16.69,100h0c12.35,10.9,22,25.17,31.41,39.07,4.78,7.07,9.47,14,14.37,20.33l40.79-27.16ZM72.24,110.09l-8.47,7.83.84-11.51-11.4-1.74,9.51-6.51L57,88.16l11,3.37,4.23-10.72,4.23,10.72,11-3.37-5.75,10,9.52,6.51-11.4,1.74.84,11.51Z" transform="translate(0 0)"/><path class="cls-3" d="M143.76,184.24c17.49-8.41,29.57-26.27,42.36-45.17,2-3,4.12-6.08,6.22-9.11H106.69l-3.43,2.28L62.47,159.4c8.21,10.61,17,19.58,28,24.84a59.68,59.68,0,0,0,22.39,5.65h8.52A59.68,59.68,0,0,0,143.76,184.24Z" transform="translate(0 0)"/><path d="M106.69,70h85.65c-2.1-3-4.17-6.08-6.22-9.11C173.33,42,161.25,24.17,143.76,15.76a59.68,59.68,0,0,0-22.39-5.65h-8.52a59.68,59.68,0,0,0-22.39,5.65C79.51,21,70.68,30,62.47,40.6L106.69,70Z" transform="translate(0 0)"/><path class="cls-4" d="M106.69,70h85.65c7.53,10.85,15.53,21.44,25.19,30-9.66,8.52-17.66,19.11-25.19,30H106.69L151.63,100l.05,0h0ZM91.27,104.67l-9.52-6.51,5.75-10-11,3.37L72.24,80.81,68,91.53,57,88.16l5.74,10-9.51,6.51,11.4,1.74-.84,11.51,8.47-7.83,8.47,7.83-.84-11.51Z" transform="translate(0 0)"/></g></svg>