<svg id="FBWC2023_Flags_Digital_Asia_JPN_RGB" xmlns="http://www.w3.org/2000/svg" viewBox="0 0 234.22 200"><defs><style>.cls-1{fill:#c3c3c3;}.cls-2{fill:#fff;}.cls-3{fill:#be2029;}</style></defs><path id="Background" class="cls-1" d="M117.11,0a70.17,70.17,0,0,1,31,6.75c37.72,18.14,51.45,72.06,86.12,93.25h0c-34.67,21.19-48.4,75.11-86.12,93.25a70.17,70.17,0,0,1-31,6.75,70.17,70.17,0,0,1-31-6.75C48.4,175.11,34.67,121.19,0,100H0C34.67,78.81,48.4,24.89,86.12,6.75A70.17,70.17,0,0,1,117.11,0Z" transform="translate(0 0)"/><g id="Flag_JPN"><path class="cls-2" d="M186.12,60.93C173.33,42,161.25,24.17,143.76,15.76A60.38,60.38,0,0,0,117.69,10h-1.16a60.38,60.38,0,0,0-26.07,5.76C73,24.17,60.89,42,48.1,60.93,38.69,74.83,29,89.1,16.69,100c12.35,10.9,22,25.17,31.41,39.07C60.89,158,73,175.83,90.46,184.24A60.38,60.38,0,0,0,116.53,190h1.16a60.38,60.38,0,0,0,26.07-5.76c17.49-8.41,29.57-26.27,42.36-45.17,9.41-13.9,19.06-28.17,31.41-39.07C205.18,89.1,195.53,74.83,186.12,60.93Zm-69,85.07a46,46,0,1,1,46-46A46,46,0,0,1,117.11,146Z" transform="translate(0 0)"/><path class="cls-3" d="M117.11,54a46,46,0,1,0,46,46A46,46,0,0,0,117.11,54Z" transform="translate(0 0)"/></g></svg>