<svg id="FBWC2023_Flags_Digital_Americas_PUR_RGB" xmlns="http://www.w3.org/2000/svg" viewBox="0 0 234.22 200"><defs><style>.cls-1{fill:#c3c3c3;}.cls-2{fill:#ec1c24;}.cls-3{fill:#3c5eaa;}.cls-4{fill:#fff;}</style></defs><path id="Background" class="cls-1" d="M117.11,0a70.17,70.17,0,0,1,31,6.75c37.72,18.14,51.45,72.06,86.12,93.25h0c-34.67,21.19-48.4,75.11-86.12,93.25a70.17,70.17,0,0,1-31,6.75,70.17,70.17,0,0,1-31-6.75C48.4,175.11,34.67,121.19,0,100H0C34.67,78.81,48.4,24.89,86.12,6.75A70.17,70.17,0,0,1,117.11,0Z" transform="translate(0 0)"/><g id="Flag_PUR"><path class="cls-2" d="M125.3,82h75.77a130.4,130.4,0,0,0,16.46,18,129.61,129.61,0,0,0-16.65,18.21H125.31l31.32-18.09ZM59.88,156c9,12.09,18.47,22.44,30.58,28.26A60.38,60.38,0,0,0,116.53,190h1.16a60.38,60.38,0,0,0,26.07-5.76c12.64-6.08,22.45-17.09,31.74-29.87H62.66ZM175.68,45.87c-9.35-12.87-19.2-24-31.92-30.11A60.38,60.38,0,0,0,117.69,10h-1.16a60.38,60.38,0,0,0-26.07,5.76C78.29,21.61,68.75,32,59.76,44.2l2.9,1.67Z" transform="translate(0 0)"/><path class="cls-3" d="M125.3,118.21h0l31.32-18.09L125.3,82,62.66,45.87l-2.9-1.67c-3.94,5.32-7.77,11-11.66,16.73C38.69,74.83,29,89.1,16.69,100c12.35,10.9,22,25.17,31.41,39.07C52,144.89,55.9,150.6,59.88,156l2.78-1.61Zm-89,3.86,6.08-18.74L26.42,91.74H46.13L52.22,73l6.09,18.74H78L62.07,103.33l6.09,18.74L52.22,110.49Z" transform="translate(0 0)"/><path class="cls-4" d="M62.66,45.87h113c3.5,4.83,6.94,9.9,10.43,15.06C190.93,68,195.81,75.24,201.07,82H125.3Zm0,108.5H175.5c3.57-4.9,7.07-10.05,10.62-15.3,4.75-7,9.57-14.14,14.76-20.86H125.3Zm-.59-51L78,91.74H58.31L52.22,73,46.13,91.74H26.42l15.94,11.59-6.08,18.74,15.94-11.58,15.94,11.58Z" transform="translate(0 0)"/></g></svg>