<svg id="FBWC2023_Flags_Digital_Americas_VEN_RGB" xmlns="http://www.w3.org/2000/svg" viewBox="0 0 234.22 200"><defs><style>.cls-1{fill:#c3c3c3;}.cls-2{fill:#cf2138;}.cls-3{fill:#213b71;}.cls-4{fill:#ffc829;}.cls-5{fill:#fff;}</style></defs><path id="Background" class="cls-1" d="M117.11,0a70.17,70.17,0,0,1,31,6.75c37.72,18.14,51.45,72.06,86.12,93.25h0c-34.67,21.19-48.4,75.11-86.12,93.25a70.17,70.17,0,0,1-31,6.75,70.17,70.17,0,0,1-31-6.75C48.4,175.11,34.67,121.19,0,100H0C34.67,78.81,48.4,24.89,86.12,6.75A70.17,70.17,0,0,1,117.11,0Z" transform="translate(0 0)"/><g id="Flag_VEN"><path class="cls-2" d="M186.12,139.07q3.06-4.53,6.19-9.07H41.91q3.14,4.53,6.19,9.07C60.89,158,73,175.83,90.46,184.24A60.38,60.38,0,0,0,116.53,190h1.16a60.38,60.38,0,0,0,26.07-5.76C161.25,175.83,173.33,158,186.12,139.07Z" transform="translate(0 0)"/><path class="cls-3" d="M217.53,100c-9.67-8.53-17.68-19.13-25.22-30H41.91c-7.54,10.87-15.55,21.47-25.22,30,9.67,8.53,17.68,19.13,25.22,30h150.4C199.85,119.13,207.86,108.53,217.53,100ZM72,125l-5.24-3.85L61.34,125l2.1-6.24-5.2-3.81h6.48l2-6.06,1.95,6.06h6.66L70,118.78Zm6.49-21.11L78,110.31l-3.42-5.53-6.42,1.55,4.29-5L69,95.86l6,2.43,4.16-4.85-.46,6.35,6.17,2.5ZM92,92.5l-2.69,6L88,92.09l-6.4-.66,5.59-3.27-1.3-6.26,4.74,4.24,5.75-3.36-2.71,6.07,4.83,4.32Zm22.24-3.09-5.83-2.88-4.62,4.72,1-6.51L99,81.89l6.37-1.12,1-6.32,3,5.63,6.55-1.16-4.65,4.75Zm16.29,1.84-4.62-4.72-5.83,2.88,3-5.74-4.66-4.75L125,80.08l3-5.63,1,6.32,6.37,1.12-5.77,2.85ZM145,98.54l-2.69-6-6.47.67,4.84-4.32L138,82.78l5.75,3.36,4.74-4.24-1.3,6.26,5.59,3.27-6.41.66Zm10.85,5.3-6.46-1.55,6.17-2.5-.46-6.35,4.16,4.85,6-2.43-3.38,5.47,4.28,5-6.42-1.55-3.41,5.53Zm11.74,17.26L162.35,125l2-6.17-5.41-3.88h6.66l1.95-6.06,2,6.06h6.47l-5.19,3.81L173,125Z" transform="translate(0 0)"/><path class="cls-4" d="M186.12,60.93C173.33,42,161.25,24.17,143.76,15.76A60.38,60.38,0,0,0,117.69,10h-1.16a60.38,60.38,0,0,0-26.07,5.76C73,24.17,60.89,42,48.1,60.93Q45,65.46,41.91,70h150.4Q189.18,65.47,186.12,60.93Z" transform="translate(0 0)"/><path class="cls-5" d="M159.74,104.78l-3.41,5.53-.48-6.47-6.46-1.55,6.17-2.5-.46-6.35,4.16,4.85,6-2.43-3.38,5.47,4.28,5Zm-63.41-22-5.75,3.36L85.84,81.9l1.3,6.26-5.59,3.27,6.4.66,1.35,6.45,2.69-6,6.46.67-4.83-4.32Zm79.72,32.12h-6.47l-2-6.06-1.95,6.06h-6.66l5.41,3.88-2,6.17,5.24-3.85L173,125l-2.1-6.24Zm-107.34,0-1.95-6.06-2,6.06H58.24l5.2,3.81L61.34,125l5.37-3.85L72,125l-2-6.17,5.41-3.88ZM79.2,93.44,75,98.29l-6-2.43,3.38,5.47-4.29,5,6.42-1.55L78,110.31l.47-6.47,6.47-1.55-6.17-2.5Zm68-5.28,1.3-6.26-4.74,4.24L138,82.78l2.71,6.07-4.84,4.32,6.47-.67,2.69,6,1.34-6.45,6.41-.66ZM109.3,80.08l-3-5.63-1,6.32L99,81.89l5.77,2.85-1,6.51,4.62-4.72,5.83,2.88-3-5.74,4.65-4.75Zm19.64.69-1-6.32-3,5.63-6.56-1.16,4.66,4.75-3,5.74,5.83-2.88,4.62,4.72-1-6.51,5.77-2.85Z" transform="translate(0 0)"/></g></svg>