<svg id="FBWC2023_Flags_Digital_Asia_AUS_RGB" xmlns="http://www.w3.org/2000/svg" viewBox="0 0 234.22 200"><defs><style>.cls-1{fill:#c3c3c3;}.cls-2{fill:#273376;}.cls-3{fill:#fff;}.cls-4{fill:#ec1c24;}</style></defs><path id="Background" class="cls-1" d="M117.11,0a70.17,70.17,0,0,1,31,6.75c37.72,18.14,51.45,72.06,86.12,93.25h0c-34.67,21.19-48.4,75.11-86.12,93.25a70.17,70.17,0,0,1-31,6.75,70.17,70.17,0,0,1-31-6.75C48.4,175.11,34.67,121.19,0,100H0C34.67,78.81,48.4,24.89,86.12,6.75A70.17,70.17,0,0,1,117.11,0Z" transform="translate(0 0)"/><g id="Flag_AUS"><path class="cls-2" d="M108.36,20v80.27H17c8.43,7.5,15.6,16.56,22.31,26l1.43-4.45L44.63,134,46,136l13.49-5.11-8.37,12.59,13,7.71-7.26.63c9.85,13.86,20.11,25.95,33.59,32.43A60.38,60.38,0,0,0,116.53,190h1.16a60.38,60.38,0,0,0,26.07-5.76c10.76-5.17,19.47-13.93,27.56-24.3l.52-3.76-7.11-.62,6.14-3.64-4-5.94,6.67,2.52,2.19-6.79L178,148.5l2.33-.88q2.91-4.22,5.83-8.55c9.41-13.9,19.06-28.17,31.41-39.07a113.3,113.3,0,0,1-10.68-10.89l-.75.79.2-1.43c-1.71-2-3.37-4-5-6.14L200,82.22l.85-.51c-5.17-6.7-10-13.79-14.7-20.78q-3.12-4.62-6.22-9.11l.79,5.71-4.91-5.17-4.92,5.17,1-7.07-7.11-.62,6.14-3.64-4-5.94,6.41,2.43c-8.66-11.51-17.91-21.33-29.57-26.93A60.38,60.38,0,0,0,117.69,10h-1.16a63.34,63.34,0,0,0-8.17.55Zm81.55,84.39,1.72-4.23,1.73,4.23,4.56.33-3.49,3,1.09,4.44-3.89-2.41-3.88,2.41,1.09-4.44-3.49-3Zm-62.63-21.2L134,85.73l2.18-6.79,2.18,6.79L145,83.21l-4,5.94,6.13,3.64-7.1.62,1,7.06-4.91-5.17-4.91,5.17,1-7.06-7.1-.62,6.13-3.64ZM29.55,100.29H17l-.31-.29A119.71,119.71,0,0,0,29.55,86.54ZM78.48,70h29.88v20Zm.12-30L108.36,20V39.91ZM51.92,72.56l41.49,27.73H51.92Z" transform="translate(0 0)"/><path class="cls-3" d="M166.92,40.26l6.41,2.43c2.22,2.94,4.4,6,6.57,9.13l.79,5.71-4.91-5.17-4.92,5.17,1-7.07-7.11-.62,6.14-3.64Zm20.83,71.87,3.88-2.41,3.89,2.41-1.09-4.44,3.49-3-4.56-.33-1.73-4.23-1.72,4.23-4.56.33,3.49,3ZM132.19,93.41l-1,7.06,4.91-5.17,4.91,5.17-1-7.06,7.1-.62L141,89.15l4-5.94-6.68,2.52-2.18-6.79L134,85.73l-6.67-2.52,3.94,5.94-6.13,3.64ZM201.3,82.33l-.48-.62-.85.51Zm-162,44Q42,130.1,44.63,134l-3.89-12.12ZM206.85,89.11c-.19-.21-.37-.42-.55-.64l-.2,1.43Zm-31.07,52.6-2.19,6.79L166.92,146l4,5.94-6.14,3.64,7.11.62-.52,3.76c3.05-3.91,6-8.05,9-12.32l-2.33.88ZM51.13,143.47l8.37-12.59L46,136c.7,1,1.4,2,2.09,3.08,2.94,4.34,5.84,8.62,8.77,12.74l7.26-.63ZM63.9,63.8H47.42v36.49h4.5V72.56l41.49,27.73h15L63,70H73.11l35.25,23.57V89.93L78.48,70h29.88V63.8H63.9ZM34.06,100.29V80.85c-1.47,1.93-3,3.84-4.51,5.69v13.75Zm74.3-54.22V39.91H78.6L108.36,20V10.55c-.41,0-.83.1-1.24.17L63.44,39.91H63c-1.57,2-3.1,4.06-4.63,6.16h50Z" transform="translate(0 0)"/><path class="cls-4" d="M63.44,39.91H63c8-10.3,16.73-19,27.44-24.15a58.39,58.39,0,0,1,16.66-5Zm-16,60.38V63.8h60.94V46.07h-50c-3.46,4.77-6.85,9.77-10.29,14.86-4.53,6.7-9.12,13.47-14,19.92v19.44ZM63,70l45.38,30.34V93.52L73.11,70Z" transform="translate(0 0)"/></g></svg>