<svg id="FBWC2023_Flags_Digital_Asia_CHN_RGB" xmlns="http://www.w3.org/2000/svg" viewBox="0 0 234.22 200"><defs><style>.cls-1{fill:#c3c3c3;}.cls-2{fill:#dc2d26;}.cls-3{fill:#fd0;}</style></defs><path id="Background" class="cls-1" d="M117.11,0a70.17,70.17,0,0,1,31,6.75c37.72,18.14,51.45,72.06,86.12,93.25h0c-34.67,21.19-48.4,75.11-86.12,93.25a70.17,70.17,0,0,1-31,6.75,70.17,70.17,0,0,1-31-6.75C48.4,175.11,34.67,121.19,0,100H0C34.67,78.81,48.4,24.89,86.12,6.75A70.17,70.17,0,0,1,117.11,0Z" transform="translate(0 0)"/><g id="Flag_CHN"><path class="cls-2" d="M186.12,60.93C173.33,42,161.25,24.17,143.76,15.76A60.38,60.38,0,0,0,117.69,10h-1.16a60.38,60.38,0,0,0-26.07,5.76C76.51,22.47,66,35.19,55.84,49.65l18.61,0,5.81-17.74,5.81,17.75,18.66.05-15.08,11,5.72,17.77L80.25,67.5,65.12,78.43l5.73-17.77-15-11c-2.58,3.66-5.14,7.43-7.72,11.25C38.69,74.83,29,89.1,16.69,100c12.35,10.9,22,25.17,31.41,39.07C60.89,158,73,175.83,90.46,184.24A60.38,60.38,0,0,0,116.53,190h1.16a60.38,60.38,0,0,0,26.07-5.76c17.49-8.41,29.57-26.27,42.36-45.17,9.41-13.9,19.06-28.17,31.41-39.07C205.18,89.1,195.53,74.83,186.12,60.93ZM137.81,41.26l4.58,4.56,5.75-2.92-2.92,5.76,4.56,4.58-6.38-1-3,5.74-1-6.37-6.37-1,5.74-2.94Zm-11.33,60.57-4-5.34-6.28,2.14L120,93.17l-4-5.36,6.37,2,3.82-5.45.14,6.67,6.36,2-6.28,2.17Zm-.26-67.47L125.93,41l-3.72-5.55-6.45,1.78L119.91,32l-3.69-5.56,6.27,2.31,4.17-5.21-.26,6.66,6.26,2.34Zm20.5,49.05-5.34-3.87-5.33,3.87,2-6.29-5.32-3.89,6.59,0,2-6.27,2,6.28H150l-5.32,3.9Z" transform="translate(0 0)"/><path class="cls-3" d="M133.06,50.58l5.74-2.94-1-6.38,4.58,4.56,5.75-2.92-2.92,5.76,4.56,4.58-6.38-1-3,5.74-1-6.37Zm10.37,22.64-2-6.28-2,6.27-6.59,0,5.32,3.89-2,6.29,5.33-3.87,5.34,3.87-2-6.28,5.32-3.9ZM65.12,78.43,80.25,67.5,95.37,78.44,89.65,60.67l15.08-11-18.66-.05L80.26,31.87,74.45,49.61l-18.61,0,0,0,15,11Zm61.54-54.87-4.17,5.21-6.27-2.31L119.91,32l-4.15,5.23,6.45-1.78L125.93,41l.29-6.66,6.44-1.8-6.26-2.34ZM126.28,91l-.14-6.67-3.82,5.45-6.37-2,4,5.36-3.79,5.46,6.28-2.14,4,5.34-.12-6.68L132.64,93Z" transform="translate(0 0)"/></g></svg>