<svg id="FBWC2023_Flags_Digital_Africa_CPV_RGB" xmlns="http://www.w3.org/2000/svg" viewBox="0 0 234.22 200"><defs><style>.cls-1{fill:#c3c3c3;}.cls-2{fill:#164991;}.cls-3{fill:#fff;}.cls-4{fill:#cf1f33;}.cls-5{fill:#fbcf31;}</style></defs><path id="Background" class="cls-1" d="M117.11,0a70.17,70.17,0,0,1,31,6.75c37.72,18.14,51.45,72.06,86.12,93.25h0c-34.67,21.19-48.4,75.11-86.12,93.25a70.17,70.17,0,0,1-31,6.75,70.17,70.17,0,0,1-31-6.75C48.4,175.11,34.67,121.19,0,100H0C34.67,78.81,48.4,24.89,86.12,6.75A70.17,70.17,0,0,1,117.11,0Z" transform="translate(0 0)"/><g id="Flag_CPV"><path class="cls-2" d="M186.12,60.93C173.33,42,161.25,24.17,143.76,15.76A60.38,60.38,0,0,0,117.69,10h-1.16a60.38,60.38,0,0,0-26.07,5.76C73,24.17,60.89,42,48.1,60.93,38.9,74.52,29.46,88.46,17.5,99.26H54.4l.13-.38.12.38H133.4l.12-.38.12.38h83.08C204.76,88.46,195.32,74.52,186.12,60.93ZM74.49,93.14l-4.88-3.55-4.88,3.55L66.6,87.4l-4.88-3.54h6l1.86-5.74,1.87,5.74h6L72.63,87.4ZM98.9,85.21,94,81.66l-4.88,3.55L91,79.47l-4.89-3.54h6L94,70.19l1.87,5.74h6L97,79.47Zm24.41,7.93-4.88-3.55-4.88,3.55,1.86-5.74-4.88-3.54h6l1.87-5.74,1.86,5.74h6l-4.88,3.54Zm-32.85,91.1A60.38,60.38,0,0,0,116.53,190h1.16a60.38,60.38,0,0,0,26.07-5.76c17-8.15,28.83-25.19,41.2-43.45H49.26C61.63,159.05,73.5,176.09,90.46,184.24Zm26.1-33.18,1.87-5.74,1.86,5.74h6l-4.88,3.54,1.86,5.74-4.88-3.55-4.88,3.55,1.86-5.74-4.88-3.54ZM92.16,159,94,153.25,95.89,159h6L97,162.53l1.86,5.74L94,164.72l-4.88,3.55L91,162.53,86.12,159ZM69.61,145.32l1.87,5.74h6l-4.88,3.54,1.86,5.74-4.88-3.55-4.88,3.55,1.87-5.74-4.88-3.54h6Z" transform="translate(0 0)"/><path class="cls-3" d="M49.9,113.1H29.25A119.86,119.86,0,0,0,16.69,100l.81-.74H54.4l-1.74,5.36h-6l4.88,3.55Zm85.48-8.48h6l-4.88,3.55,1.6,4.93H205A119.86,119.86,0,0,1,217.53,100l-.81-.74H133.64Zm0,25.67h6l-4.88,3.55,1.86,5.74L133.52,136l-4.88,3.55,1.86-5.74-4.88-3.55h6l1.09-3.34H55.3l1.09,3.34h6l-4.88,3.55,1.86,5.74L54.53,136l-4.89,3.55,1.87-5.74-4.88-3.55h6L53.75,127h-14c2.84,4,5.6,8.08,8.33,12.12l1.16,1.72H185l1.16-1.72c2.73-4,5.49-8.11,8.33-12.12H134.3Zm-73-25.67-4.88,3.55,1.6,4.93H128.9l1.6-4.93-4.88-3.55h6l1.75-5.36H54.65l1.74,5.36ZM50.75,113.1H58.3l-3.77-2.74Zm79,0h7.55l-3.77-2.74Z" transform="translate(0 0)"/><path class="cls-4" d="M138.4,113.9l-1.11-.8h-7.55l-1.1.8.26-.8H59.14l.26.8-1.1-.8H50.75l-1.11.8.26-.8H29.25c3.69,4.43,7.16,9.09,10.52,13.85h14l.78-2.4.77,2.4h77.44l.78-2.4.78,2.4h60.15c3.36-4.76,6.83-9.42,10.52-13.85H138.14Z" transform="translate(0 0)"/><path class="cls-5" d="M126.33,83.86l-4.88,3.54,1.86,5.74-4.88-3.55-4.88,3.55,1.86-5.74-4.88-3.54h6l1.87-5.74,1.86,5.74ZM95.89,75.93,94,70.19l-1.86,5.74h-6L91,79.47l-1.87,5.74L94,81.66l4.88,3.55L97,79.47l4.88-3.54ZM71.48,83.86l-1.87-5.74-1.86,5.74h-6L66.6,87.4l-1.87,5.74,4.88-3.55,4.88,3.55L72.63,87.4l4.88-3.54Zm42.07,76.48,4.88-3.55,4.88,3.55-1.86-5.74,4.88-3.54h-6l-1.86-5.74-1.87,5.74h-6l4.88,3.54Zm-24.41,7.93L94,164.72l4.88,3.55L97,162.53l4.88-3.55h-6L94,153.25,92.16,159h-6L91,162.53ZM66.6,154.6l-1.87,5.74,4.88-3.55,4.88,3.55-1.86-5.74,4.88-3.54h-6l-1.87-5.74-1.86,5.74h-6Zm59-50,4.88,3.55-1.6,4.93-.26.8,1.1-.8,3.78-2.74,3.77,2.74,1.11.8-.26-.8-1.6-4.93,4.88-3.55h-6l-1.74-5.36-.12-.38-.12.38-1.75,5.36Zm0,25.67,4.88,3.55-1.86,5.74,4.88-3.55,4.88,3.55-1.86-5.74,4.88-3.55h-6L134.3,127l-.78-2.4-.78,2.4-1.09,3.34Zm-79-25.67,4.88,3.55L49.9,113.1l-.26.8,1.11-.8,3.78-2.74,3.77,2.74,1.1.8-.26-.8-1.6-4.93,4.88-3.55h-6l-1.74-5.36-.12-.38-.13.38-1.74,5.36Zm0,25.67,4.88,3.55-1.87,5.74L54.53,136l4.87,3.55-1.86-5.74,4.88-3.55h-6L55.3,127l-.77-2.4-.78,2.4-1.09,3.34Z" transform="translate(0 0)"/></g></svg>