<svg id="FBWC2023_Flags_Digital_Americas_DOM_RGB" xmlns="http://www.w3.org/2000/svg" viewBox="0 0 234.22 200"><defs><style>.cls-1{fill:#c3c3c3;}.cls-2{fill:#1e4383;}.cls-3{fill:#fff;}.cls-4{fill:#9b9597;}.cls-5{fill:#1c3e1c;}.cls-6{fill:#cd2028;}.cls-7{fill:#017b64;}.cls-8{fill:#d31f36;}.cls-9{fill:#1b3d1c;}.cls-10{fill:#fdce07;}.cls-11{fill:#241c11;}</style></defs><path id="Background" class="cls-1" d="M117.11,0a70.17,70.17,0,0,1,31,6.75c37.72,18.14,51.45,72.06,86.12,93.25h0c-34.67,21.19-48.4,75.11-86.12,93.25a70.17,70.17,0,0,1-31,6.75,70.17,70.17,0,0,1-31-6.75C48.4,175.11,34.67,121.19,0,100H0C34.67,78.81,48.4,24.89,86.12,6.75A70.17,70.17,0,0,1,117.11,0Z" transform="translate(0 0)"/><g id="Flag_DOM"><path class="cls-2" d="M99.19,83.2H32.24C37.85,76.06,43,68.44,48.1,60.93,60.89,42,73,24.17,90.46,15.76a55.76,55.76,0,0,1,8.73-3.32ZM135,187.56a55.76,55.76,0,0,0,8.73-3.32c17.49-8.41,29.57-26.27,42.36-45.17,5.08-7.52,10.25-15.13,15.86-22.27H135ZM118.2,78.65l.1-.1,0-.15-.07-.19-.23-.08h-.43v.55H118ZM132,87.91l.78-.31.6-.08h.32c-.4-1.09-.74-1.9-1-2.51h0a6.38,6.38,0,0,0-2.6-.6H130a3.16,3.16,0,0,1,.92,1,13.41,13.41,0,0,1,.76,2.61l.27-.75Zm-16.56-9.49-.13-.33,0,.32-.12.49.47,0Zm-12.07,3.32c0-.23.39-.66,1.16-1.06a12.24,12.24,0,0,1,3.35-1,20,20,0,0,1,3.68-.3h.07a10.7,10.7,0,0,0,.46,1.81l0,.2,0,.08v0h0l.33.12h.16c.56,0,.84-.38,1.21-.37H114l.38.17,0,.08h0l-.3.17-.78.18h-.28c-.66,0-2.13-.06-3-.06h-.48a43.8,43.8,0,0,0-4.94,1.31,1,1,0,0,0-.67.52l0,.14-.24-.5a3.91,3.91,0,0,1-.26-1.39Zm5.68-1.43.06.2.17.14.27.08.25.06.14.09,0,.13,0,.14-.11.12-.19,0-.22,0-.14-.12-.08-.19-.17,0,.1.29.22.18.32,0,.26-.09.17-.2,0-.25-.08-.23-.2-.16-.31-.08-.29-.09-.07-.14.06-.18.24-.1.25.06.11.23.18,0L110,80l-.2-.16-.28,0-.25.08-.16.18Zm-1.59.62.14.4.28.28.36.06.33-.15.19-.33,0-.46-.15-.43L108.4,80,108,80l-.44.3Zm-.57-.65.24,1.64.19,0-.25-1.64Zm-1.58.47.51,1.58.48-.15.2-.09.13-.12.08-.19,0-.26-.07-.32-.18-.36-.24-.23-.23,0-.25,0Zm2.91.73.31-.22.06-.51-.11-.34-.2-.21-.26,0-.31.2-.06.55.2.45Zm12.08-2.83,0-.35-.13.3-.24.45.46.08Zm-6.16.25.24-.12,0-.24-.08-.16-.13-.08-.17,0-.34.06.1.58ZM106.26,82l.19-.1.1-.12,0-.23-.07-.31-.19-.36-.22-.13-.24,0-.28.08.39,1.21Zm24-.39-.24-.09-.44,1.2.25.08.19,0,.13,0,.16-.16.14-.3.08-.39-.09-.23Zm.79,1.06a3.54,3.54,0,0,1-.57,1.4l0,0a6.86,6.86,0,0,1,2,.46L132,83.43A1.39,1.39,0,0,0,131,82.68ZM101.79,84.5a6.86,6.86,0,0,1,2-.46l0,0-.1-.14-.23-.47-.23-.78a1.33,1.33,0,0,0-.92.74Zm28.77-1.13-.2.43a1,1,0,0,0-.74-.66,41.1,41.1,0,0,0-4.93-1.31h-.49c-.91,0-2.38.06-3,.06h-.29l-.77-.18-.31-.17h0c0-.07.11-.21.43-.25h.08c.37,0,.65.33,1.22.38h.15l.4-.22,0-.25,0-.06s.28-.94.42-1.7h.06a20.18,20.18,0,0,1,3.7.3,11.9,11.9,0,0,1,3.35,1c.78.4,1.17.83,1.16,1.05v.12A3.93,3.93,0,0,1,130.56,83.37Zm-7.21-2.14-.61,0,.14-1.46-.16,0-.16,1.66.77.06Zm.52-1.42-.16,0-.16,1.66h.16Zm.9.86.14-.14.06-.2,0-.22-.11-.17-.23-.07-.45,0L124,81.49l.47,0h.2l.14-.07.1-.15.06-.21,0-.26Zm.63,0,.08-.5.72.11,0-.19-.88-.14-.27,1.64.91.14,0-.19-.74-.12.09-.55.67.1,0-.19Zm2.13,0-.09-.18-.22-.11-.53-.15-.46,1.6.15,0,.21-.71.18.05.09,0,0,.07.06.13,0,.25,0,.37.2.06-.08-.5-.07-.24-.07-.11.3-.08.16-.26Zm.27,1.63.51-1.38.38.14.06-.18-.91-.32-.07.18.38.13-.5,1.38Zm1.51-1.2-.17-.06-1,1.41.16,0,.3-.43.49.17,0,.52.17.07Zm1.13,1.7.14-.31.1-.39,0-.31-.13-.17-.2-.1-.4-.14-.57,1.57.41.15.2,0,.17,0,.16-.1Zm-1.74-.88.39.14,0-.48,0-.35-.18.28Zm.86,1.55c-.41-.12-1.7-.52-2.87-.85l-.13.26.25,0,.38.06c.52.13,2.29,1.16,2.91,1.15h0l-.07-.2A.78.78,0,0,0,129.56,83.38ZM126.81,83l-.33.08a2.35,2.35,0,0,0,1,.51c.54.18,1.17.35,1.56.45l.51,0h0c-.85-.28-2.06-1-2.43-1Zm-19.11-.28-.13-.26c-1.18.33-2.45.73-2.86.85a.71.71,0,0,0-.58.58h0c.62,0,2.39-1,2.9-1.14l.39-.06Zm16.81-2-.29,0,0,.57.3,0h.12l.1,0,.06-.09,0-.13,0-.17-.09-.1Zm-12.12.42v0l0,0,.19.08h.12c.45,0,.71-.36,1.23-.37h.11l.56.28a4.64,4.64,0,0,0-.26-1A3.24,3.24,0,0,0,112.39,81.18Zm14.78-.72-.37-.1-.16.53L127,81l.18,0,.12-.07.07-.13v-.21Zm-14.86.45a8,8,0,0,1-.42-1.93l0-.24c.12-.56,1.12-1.17,5.12-1.21h.08a16,16,0,0,1,4,.4c.87.23,1.24.56,1.23.75v.06a10.58,10.58,0,0,1-.43,2.1c-.4-.31-1.63-1-4.89-1h-.2C113.81,79.8,112.67,80.54,112.31,80.91Zm7.12-1.25.19,0,.24-.47.56.1.07.52.2,0-.25-1.73-.19,0Zm-.54-.06h.18l.07-1.66H119Zm-1.46,0h.18v-.74h.31l.08,0,.09.12.14.22.18.35h.23l-.24-.45-.15-.23-.11-.08.29-.15.09-.3,0-.25-.15-.16L118,78h-.61Zm-1.28-1.47h.45v1.47h.19V78.14h.45V78h-1.09Zm-1.3,1.47H115l.11-.52.57,0,.2.49h.21l-.69-1.62-.19,0Zm-1.34-1.39.31,1.63.18,0-.13-.67.35-.06.37-.21,0-.37-.08-.22-.14-.14-.18,0-.21,0ZM120.32,81c.52,0,.78.35,1.24.37h.11l.19-.08,0-.2-.13-.1a3,3,0,0,0-.7-.37,6.69,6.69,0,0,0-1.15-.32,4.39,4.39,0,0,0-.26,1l.55-.27Zm4.4-.91-.19,0-.24,0-.05.5.27,0h.15l.1-.07,0-.15,0-.14ZM107.13,83c-.36.07-1.56.77-2.42,1h0l.5-.05c.4-.1,1-.26,1.56-.45a2.42,2.42,0,0,0,1-.51l-.34-.08Zm-4.52,5a13.47,13.47,0,0,1,.78-2.66,3.14,3.14,0,0,1,.92-1h-.17a6.32,6.32,0,0,0-2.6.59h0c-.28.61-.61,1.42-1,2.51h.23l.69.08Zm7.08,6.65h-1.86v-7.5l-1.93-1.88h9.45v5.37l-3.12-4.11-.25.15-.14.1,3.51,4.64V92l-4.44-4.43.08-.07-1.24-.77.76,1.16.17-.14h0l-.13.13.28.27,0,1.42-1-.79-.21.21-.11.14.22.17Zm1.51-9.11.59,1.25.54-.32Zm-1.77,3.57.43-.43-1.32-.63Zm15.36,9.12v1.17A3.75,3.75,0,0,1,121.3,103h-.15a16.13,16.13,0,0,1-1.73-.26v0l-.15.07h0l-.23-.12V103c.14.63.26,1.15.26,1.15l0,.16H119v2.18a4.26,4.26,0,0,1,.54-.15l.06,0h.09a3.68,3.68,0,0,1,.58,0h.57c0-.11,0-.23,0-.36v-.13H121c.32,0,.48.24.62.5h.16l0,0,.23-.57.15-.11.13.11v.09h0c0,.14,0,.33,0,.53h.31c.19-.4.36-.78.36-.78l.24.07-.11.72h.37l.18-.25.23-.31v.56a2.2,2.2,0,0,0,.36,0,3.32,3.32,0,0,0,.14-.49l0-.06,0,0,.08,0,.22.16.14.23a2.71,2.71,0,0,0,.37-.21l.19-.72.28-.29.1,0,.2.22h0c0-.56,0-1.35,0-2.07a8.75,8.75,0,0,1,.11-1.81l.15-.11h0l.24.07V98.25h-1.75Zm-13.72-9.87,0,1.37,2.22,1.76.06-.9Zm12.39,1.25,0-1.37-2.23,2.23.06.9ZM112,91.13l-2.07-1.61v6.64a7.2,7.2,0,0,0,2,.63Zm10.56,5.54a7.37,7.37,0,0,0,2-.63V89.4L122.48,91Zm-7,2.35a2.25,2.25,0,0,0-1.69-.25,7,7,0,0,0,0,1.11c0,.4.67.61.88.61l.29,0c0-.16.1-.32.16-.48l0-.06c.06-.15.12-.31.19-.46l0-.06C115.43,99.27,115.49,99.15,115.54,99Zm4.25,1.34c.21,0,.84-.2.88-.61a6.8,6.8,0,0,0,0-1.1,4.07,4.07,0,0,0-.88,0,6.39,6.39,0,0,0-1.25.49c.13.41.27.8.36,1.17Zm-2.48-3.11h0l0,.11h0Zm-1.2,6.87a23.36,23.36,0,0,1-.08-2.87,7.77,7.77,0,0,1,1.21-3.83l0-.16-.5.15,0,0c-.52.89-1.63,2.89-1.62,4A4.36,4.36,0,0,0,116.11,104.12Z" transform="translate(0 0)"/><path class="cls-3" d="M112.11,109l-.67.07Zm-9.79-16.15v.06h0l.48.53-.26.48.33.64L103,95.6l.14.13.29.14h0l.39-.51v-.06l-.39-.52-.42-.64,0-.38c0-.68.08-2,.08-2v-.05l-.56.41ZM132.43,89c0-.09,0-.18.08-.26a1.64,1.64,0,0,0-.42-.54h0l.06.3A2.12,2.12,0,0,1,132.43,89Zm-2.79,21.28-.37-.14.18.13.6.5,0,.08-.09-.2Zm.51.71-1.11-.13.62.36.1.16-.07.12-.08,0-1-.07,0,.12v0l0,.29a4.78,4.78,0,0,1,1.51-.33,1.17,1.17,0,0,1,.27,0l-.19-.43Zm-24-3.82.37.41.11-.14-.12-.29a4.2,4.2,0,0,1-.33-1.31v0l0,.2-.07.75Zm-3.81-19-.16-.07-.25.25-.09.14.11.18A1.7,1.7,0,0,1,102.33,88.17Zm3.18-2.92-.23-.22h23.8l-2.29,2.23V97.73l.1-.29a5.83,5.83,0,0,1,.42-1l.21-.13.36.33-.32-1.81.23-.08.5.9v-.29l-.06-.42a5.08,5.08,0,0,1-.26-1.1l-.06-.46.28.37.16.2v-.09c0-.44,0-1,0-1l.24,0,.43.93.16.26v-.42l.19.15-.25-.47a3,3,0,0,0-.76-1h0l-.54.3-.3.31-.21-.14a9.46,9.46,0,0,1,.76-1.12l.36-.25h.18l-.22-1.24.22-.1s.73,1,1.2,1.57a14.38,14.38,0,0,1-.67-2c-.08-.56-.33-1.53-.33-1.53l.22-.11L129.8,89l.34.59.09.15c0-.6-.07-1.64-.07-1.64l.24,0,.71,1.51.4-1.12h0l0-.15a14.88,14.88,0,0,0-.79-2.75,3.48,3.48,0,0,0-1.1-1.11l-.58-.06c-.4-.1-1-.26-1.59-.46s-1-.37-1.2-.69l0-.13.23-.62a10.31,10.31,0,0,0-1.7-.37h-.48c-.9,0-2.37.06-3,.06h-.31a3.33,3.33,0,0,1-.84-.2c-.3-.12-.6-.29-.62-.62a4.15,4.15,0,0,1,.27-1,15.58,15.58,0,0,0-2.59-.21h-.2a13.71,13.71,0,0,0-2.28.17,4.54,4.54,0,0,1,.26,1c0,.33-.32.5-.61.62a3.49,3.49,0,0,1-.85.2h-.3c-.67,0-2.14-.06-3-.06h-.47a10.1,10.1,0,0,0-1.7.37l.23.62,0,.13c-.17.32-.64.49-1.2.7s-1.2.35-1.6.45l-.57.07a3.41,3.41,0,0,0-1.11,1.1,15.11,15.11,0,0,0-.79,2.75l0,.15-.14-.06-.06,0,0,0-.25.25a2.43,2.43,0,0,0-.21.37l.22.35,1-1.46.07.09.45.9v.72l.67.06.49.26.11.08L105,90l-.66.35-.27.54-.33.52-.54.32,1,.54.63-.78.31-1.15.06-.27.48,1.39.58-.57a9.32,9.32,0,0,0,.92-.48l.18-.11-.06.2-.25.83c0,.06,0,.63,0,1.21a5.72,5.72,0,0,1-.09,1.33l-1.89,1.91-.09.52v.29l1.15-1,0,.13s.13.55.19.85l.06.52.7-.26.17-.05.31.11V87.26Zm7.18,23.67.68,0Zm-7.54-4.86.16-.58v0l-.45.27h0l-.13.27-.08.39.1.27Zm28-14.85,0,.65,0,.22.3-.61h-.21A2.19,2.19,0,0,0,133.12,89.21Zm1.08-.71a1.78,1.78,0,0,0-.48-.75h-.1a2,2,0,0,1,.46.8Zm-23.66,20.66.55-.08ZM133.87,88.7a1.76,1.76,0,0,0-.57-.9h-.09a2.09,2.09,0,0,1,.52,1A.86.86,0,0,1,133.87,88.7ZM102,97.31l.45,1.25-.13,2.39a6.49,6.49,0,0,0,.37.82l.23.44v-1.15c0-.3-.38-1-.38-1.39v-.08c.06-.3.12-.79.12-.79l0-.24.12.21.2.34.26.36.33.42.14.22.34-.61a5.06,5.06,0,0,1-1.17-1.22,9.77,9.77,0,0,1-.24-1.13l-.81-.46,0,.09ZM132.83,88l.11-.06a.12.12,0,0,0-.05,0l-.12,0Zm-25.38,9.69a4.68,4.68,0,0,0-.34.69,3.49,3.49,0,0,1-.42.78,4.74,4.74,0,0,1-.76.41,3.4,3.4,0,0,0-.67.37c-.13.2-1.07,1.23-1.31,1.59l-.18.48a2.56,2.56,0,0,1,.5-.83,13.61,13.61,0,0,0,1.06-1.09l.1-.12.2,1,.87-.49,1.08-.25V97.39Zm25.15-9.29a.66.66,0,0,1,.08-.21,1.83,1.83,0,0,0-.17-.15l-.16.06A2.82,2.82,0,0,1,132.6,88.35Zm-22.36,20.86-.55.09Zm3-2.35a1.5,1.5,0,0,1,.12-.36h-.63A4,4,0,0,0,113.21,106.86Zm-3.74,2.49-.61.13Zm1.1-.75h.19l0-.43-1.19.37C109.86,108.56,110.3,108.6,110.57,108.6Zm5.93,3h.08q-.7,0-1.35,0h0C115.64,111.63,116.06,111.61,116.5,111.61ZM123,107l.3-.43h-.24C123,106.69,123,106.84,123,107Zm-12.78-.5a2.13,2.13,0,0,1-.71.89l-.52.29.28.09.64.14.66.2.17.08-.15-.65a2.74,2.74,0,0,1-.26-.82l0-.12.12,0,.31.09.48.09h.61l-.12-.29h-1.19C110.41,106.5,110.31,106.48,110.21,106.47Zm-2.63-5.78-.27.27,0,.05c0,.2-.11,1.16-.47,1.46-.19.15-.82.55-1.32.85l.6.78a8.76,8.76,0,0,1,.09,1.38v.15a6.18,6.18,0,0,1,.75-1.6,4,4,0,0,0,.16-.71l0-.18.12.13s.17.21.34.44v-3Zm11,13.77h0l.69-.09-.69.09Zm2.34-7.18c0-.24,0-.48,0-.77h-.58a3.2,3.2,0,0,0-1.16.22l-.27.13v0a4.26,4.26,0,0,0-.82.51,3.66,3.66,0,0,0-.75.82l-.11.18-.1-.18a4.54,4.54,0,0,0-.76-.82,3.7,3.7,0,0,0-.81-.49h0l-.22-.11a3.61,3.61,0,0,0-.63-.17l0,.1a4.74,4.74,0,0,1,.08,1.11,2.25,2.25,0,0,1-.42,1h-.08l-.45,0c.68,0,1.41,0,2.19,0l1.3,0c1.13,0,2.15.07,3.1.14a2.81,2.81,0,0,0,.18-.35A3.18,3.18,0,0,0,120.92,107.28Zm1.37-.53v.19l.2-.41h-.2ZM135,187.56A62.41,62.41,0,0,1,117.69,190h-1.16a62.41,62.41,0,0,1-17.34-2.44V116.8H32.24A127.46,127.46,0,0,0,16.69,100,127.46,127.46,0,0,0,32.24,83.2H99.19V12.44A62.2,62.2,0,0,1,116.5,10h1.22A62.2,62.2,0,0,1,135,12.44V83.2H202A127.46,127.46,0,0,0,217.53,100,127.46,127.46,0,0,0,202,116.8H135ZM134.79,115a3.11,3.11,0,0,0-.55-.72l0,0,.46.6.21-.13a3.15,3.15,0,0,0-.66-.81,3.42,3.42,0,0,0-2.38-.81h-.4l.15-.44v-.06a1.21,1.21,0,0,0-1-1l.1-.1a3.73,3.73,0,0,0,.27-1.13l-.09-.24.95.31-.71-1,1.34.26-.77-.82.52.16a6,6,0,0,0,1,.34l.26.07-.12-.25-.35-.58-.65-.61c.19,0,.51.08.83.15l.78.16.11-.22-1.07-.8,1.59.16-.26-.25a1.67,1.67,0,0,0-.55-.36l-.57-.34-.05,0,.86.06-.09-.19a.74.74,0,0,0-.44-.37l-.25-.1h.16a11.84,11.84,0,0,1,1.31.2c.53.1,1,.21,1,.21l.1-.23-1-.61-.87-.3,1-.17v-.25l-1.86-.2.18,0,2.36-.33v-.24s-1.58-.25-1.94-.25l-1.27.05.68-.32c.53-.2,2.71-.88,2.72-.88l0-.24-.88-.09.74-.38c.49-.4,1.45-1,1.45-1l-.11-.23s-.91.33-1.27.5a10.44,10.44,0,0,1-1.56.15l-1.15.21.38-.22.71-.39.25-.13.08,0h0l.48.19.6.22.13-.09,0-.09a2.57,2.57,0,0,0-.29-.87l-.27-.44-.34-.23a5.93,5.93,0,0,0-1.59.67c.2-.29.53-.73.86-1.14s.49-.61.69-.83l.24-.26.07-.06,1.6.71.15-.19s-.3-.33-.63-.67a4.19,4.19,0,0,0-.85-.76h-.07a2.36,2.36,0,0,0-.84.43L136,95.67l-.15-.19-1.45.87.28-.72-.2-.13-.38.38-.33.3.41-.62.35-.48.13-.15,0,0h0a5,5,0,0,1,.73-.1l.65,0,0-.24a4.27,4.27,0,0,0-1.09-.28,2.53,2.53,0,0,0-.84.33l.81-1-.15-.19-.53.24-.42.16.65-.64c.39-.37.77-.7.77-.7l-.15-.2-1.23.71.1-.29.14-.37-.21-.13s-.29.31-.62.63l-.44.4.64-.74.63-.63.23-.2.08,0h0l.46.16.57.18.11,0,.09-.17-.4-.71-.75-.51a1.51,1.51,0,0,0-.81.53l-.26.27.31-.73c.2-.47.41-.91.46-1.05l.12-.28h.22c0-.14,0-.27,0-.39l.12-.28.13-.28-.29.11-.07,0a2,2,0,0,0-.45-.74l0-.06v0c-.44-1.18-.8-2-1.1-2.7v-.06l-.69-1.49a1.64,1.64,0,0,0-1.16-.93l0-.46v-.12c0-.43-.5-.85-1.29-1.27a12,12,0,0,0-3.42-1.06,20.9,20.9,0,0,0-3.75-.31h0l0-.41v-.08c0-.42-.53-.72-1.42-1a16.12,16.12,0,0,0-4.11-.41H117c-4,.06-5.13.59-5.37,1.4l0,.3v.12h0a20.85,20.85,0,0,0-3.75.3,12.52,12.52,0,0,0-3.41,1.06c-.8.42-1.27.84-1.3,1.27v.12l0,.47a1.67,1.67,0,0,0-1.16.92l-.69,1.49v.06c-.3.65-.66,1.52-1.09,2.7v0l0,.06a2.24,2.24,0,0,0-.61,1.56h.25a2,2,0,0,1,.41-1.24l.21-.22h.1a2.26,2.26,0,0,0-.59,1.52l.25,0h0a2.21,2.21,0,0,1,.41-1.24l.25-.26H101a2.31,2.31,0,0,0-.57,1.52l.24,0h0a2.21,2.21,0,0,1,.42-1.24l.24-.25.12,0a2.25,2.25,0,0,0-.64,1.58h.25a2.25,2.25,0,0,1,.41-1.25l.24-.24.16.06a2.22,2.22,0,0,0-.6,1.21,3.12,3.12,0,0,0-.57,1.37,6.48,6.48,0,0,0,.56,1.89l-.09.27-.14-.06-.46-.45-.11-.1v.15s-.07.74-.07,1.11a3.6,3.6,0,0,0,.34,1.08h-.39l.06.12.09.14h0a21.5,21.5,0,0,0,1.18,1.82l.18.14-.09,0-.46.26-.17.49,0,.16-.75-1-.07.45-.57-.33-.38-.34-.24-.35L99,95.94,99,96.1a2.82,2.82,0,0,0-.14.77v.18l.17.89h-.91l0,.14a1,1,0,0,1,.46.51,13.8,13.8,0,0,0,.89,2.34,2.68,2.68,0,0,0,1.2.58l.64.2,0,.15.48.53.34-.16.19.45.13.41-.3-.17-.59-.28-.09,0,0,.08.16.56.2.51-.93-.28H99.39l0,.1.31.87.6.6-.34.61-.26,1.06,0,.1.53,0-.14.25v.15a3.8,3.8,0,0,0,.14.8l0,.14.09-.1.36-.33.65-.32a9,9,0,0,0,1.77-.24l.65-.61.25-.34,0,0,.28.46v.09l0,.18-.62.11-1,.37-.14.07.71.35-.68.19a2.16,2.16,0,0,0-1,.82c-.25.33-.35.76-.46.77l-.07.08.05.08.32,0,1,0-.18.46.13.87,0,.14.11-.1a6.4,6.4,0,0,1,.86-.72c.27-.17,1.66-.29,2-.42a5.11,5.11,0,0,0,1.08-1l1.59-.06a4.1,4.1,0,0,0-.88.85l-.18.36.05,0c-.92.42-1.38.89-1.42,1.38v.07l0,.27a4.93,4.93,0,0,0-1.4-.29c-.94,0-1.54.55-1.55,1.09v.06l.14.44h-.39a3.4,3.4,0,0,0-2.38.81,3.15,3.15,0,0,0-.67.81l.22.13h0l.45-.6.06,0a3.38,3.38,0,0,0-.56.72l.22.13a3.24,3.24,0,0,1,.53-.69l.08.07a3.5,3.5,0,0,0-.58.73l.22.13a2.91,2.91,0,0,1,.54-.69l0,.06a3,3,0,0,0-.64.79l.21.13h0a2.89,2.89,0,0,1,.59-.73h0l0,0a3.34,3.34,0,0,0-.61.76l.22.13h0a2.9,2.9,0,0,1,.56-.71l0,.06a3.15,3.15,0,0,0-.66.81l.21.13a3.09,3.09,0,0,1,.59-.73l0,0,0,0a3.39,3.39,0,0,0-.62.77l.22.13h0a3.16,3.16,0,0,1,.56-.71l0,.06a3.15,3.15,0,0,0-.66.81l.21.13a2.89,2.89,0,0,1,.59-.73h0l0,0a3.08,3.08,0,0,0-.63.78l.22.13a2.71,2.71,0,0,1,.57-.71l0,0,.09-.12,0,0h0v0l.28-.28.59-.35c.4,0,1.66,0,2.22-.08l.86-.24.47-.58-.12-.5a6.8,6.8,0,0,0,1.45.38h.07a2.64,2.64,0,0,0,1.27-.43c.39-.24.71-.52.72-.84l-.32-.46-.2-.13v0l-.06,0-.13-.12,0,0h0a32.19,32.19,0,0,1,6-.63H115l.7.7.11,0a2,2,0,0,0-.48-.06h-.13a1.15,1.15,0,0,0-.68.3,3.3,3.3,0,0,0-1.32.3l-.1,0,0,.11.33,1.46.14-.07.84-.41.09,0v.06l.15.12a19.54,19.54,0,0,1-1.66,1l-.22.11.22.12,1,.52,0,0a5.57,5.57,0,0,1,1.14-.4,3.2,3.2,0,0,0,1.16-.83l.48-.44.27,0,.63-.13h0l0,0a12.93,12.93,0,0,0,2.55,1.8l.06,0,0-.06.75-1-.09,0c-.64-.34-.72-.35-1.41-.76l-.11.08-.21.08.42-.33v-.11l.18,0,.84.41.14.06.36-1.56-.1,0a3.33,3.33,0,0,0-1.32-.3h-.15a1.23,1.23,0,0,0-.58-.24.94.94,0,0,1,.1-.1l.59-.57c1.47,0,2.69.14,3.61.24.69.08,1.22.16,1.58.23l.4.1,0,0,0,0-.33.24-.19.12-.33.46c0,.32.34.6.73.84a2.64,2.64,0,0,0,1.27.43h.06a6.51,6.51,0,0,0,1.45-.38l-.11.5.47.58.86.24c.55,0,1.81,0,2.22.08l.59.35.28.28v0h0l0,0,.1.12,0,0a2.93,2.93,0,0,1,.57.71l.22-.13a3.06,3.06,0,0,0-.64-.78l0,0a3.14,3.14,0,0,1,.6.75l.21-.13a3,3,0,0,0-.66-.81l0-.06a3.12,3.12,0,0,1,.57.71l.21-.13a3.42,3.42,0,0,0-.61-.77l0,0a2.93,2.93,0,0,1,.61.75L134,116a3.18,3.18,0,0,0-.65-.81l0-.06a3.12,3.12,0,0,1,.57.71l.21-.13a2.87,2.87,0,0,0-.61-.76l.05,0a3,3,0,0,1,.6.74l.22-.13h0a3.22,3.22,0,0,0-.63-.79l0-.06a3.19,3.19,0,0,1,.54.69l.21-.13a2.94,2.94,0,0,0-.58-.73l.08-.07a3.19,3.19,0,0,1,.54.69Zm-10.92-8c.07-.14.16-.31.23-.48h-.23Zm-16.32,2.83c.18-.07.37-.13.58-.19l.65-.18c-.23.06-.45.11-.65.18S107.73,109.8,107.55,109.87Zm25.6-21.44a2.25,2.25,0,0,1,.25,1,1.71,1.71,0,0,0,.12-.23,2.11,2.11,0,0,0-.35-1ZM116.7,111.61l.41.44.41-.45h-.82ZM127,101.3V99.67l.25,0,.46,1.47a7.8,7.8,0,0,0-.2-1.23,13.9,13.9,0,0,1-.34-1.48l.23-.1s.33.46.61.88l-.15-.47a7.88,7.88,0,0,0-.42-1.09l-.07,0-.23.23-.2.22-.12.19v3Zm-1.88,5.11,0-.14-.09,0Zm-9-13.33-.11,0h0Zm2.22,11.18a.14.14,0,0,0,0,.06c0,.05,0,.11,0,.17l-.06.16-.09.23,0,.12-.13.3v0c-.27.6-.56,1.14-.56,1.15l-.11.21h0l-.07-.16,0-.07s-.76-1.56-1.06-2c-.07-.12-.19-.26-.31-.44s-.13-.19-.2-.29v2.86a4.19,4.19,0,0,1,1.67,1.31,4.23,4.23,0,0,1,1.68-1.32v-2.26Zm6.52-6.18h1.75V94.82h-1.75Zm-15.1-3.26h-1.86v3.26h1.86ZM116.52,93l-1-1.33v.5l.85.85-.25.06.58-.08Zm.19-.53V90.76H116v-.93h.71v-.69h1v.69h.7v.93h-.7v1.72l1.2-1.59V85.28h-3.35v5.59Zm1,.11v0l.13-.09Zm1-.27.16-.16v-.46l-.51.68.34-.06Zm-5.4-1.69-.06.9L115,92.93l0-.64Zm1.57,10.32a3.24,3.24,0,0,1,.09-.4l0,0h0l-.29,0c-.21,0-.84-.21-.88-.61a7,7,0,0,1,0-1.11,2.25,2.25,0,0,1,1.69.25q.15-.31.3-.6l0,0c.11-.22.23-.43.33-.62l-.93-.37a2.68,2.68,0,0,0-1.33-.24V92.66l-.92-.73-1-.8-.08,5.66a7.2,7.2,0,0,1-2-.63v1.43a2.7,2.7,0,0,0,2,.57c0,3.6,1.52,4,3,4a4.92,4.92,0,0,1-.06-.69,3.15,3.15,0,0,1,0-.41S114.86,101,114.87,100.92Zm6.37-9.54-.06-.9-1.69,1.69,0,.63Zm-.7,1.15V97a2.82,2.82,0,0,0-1.34.25l-.37.15a1.54,1.54,0,0,1-.44.74l0,0-.06.22a7.35,7.35,0,0,0,.2.71,6.39,6.39,0,0,1,1.25-.49,4.07,4.07,0,0,1,.88,0,6.8,6.8,0,0,1,0,1.1c0,.41-.67.61-.88.61l-.93-.09s0,0,0,0c.11.45.36,1.15.5,1.69,1.5,0,3.18-.17,3.18-4a2.72,2.72,0,0,0,2-.57V96a7.37,7.37,0,0,1-2,.63L122.48,91l-.83.65Zm-3.26,4.83,0,.08,0-.08ZM116,101.25a23.36,23.36,0,0,0,.08,2.87l.12.17c.25.39.74,1.38,1,1.84l0-.06a18.13,18.13,0,0,0,0-2.28c-.08-1.46-.38-3.24-.38-4a8.92,8.92,0,0,1,.39-2.29v-.07A7.77,7.77,0,0,0,116,101.25Zm1.27-7.81.1.29a2.25,2.25,0,0,1,1.43-.56l0,.15a2.16,2.16,0,0,0-1.42.57l.06.17A2.31,2.31,0,0,1,119,93.5l-.24-.67A2.21,2.21,0,0,0,117.3,93.44Zm-.06-.15a2.36,2.36,0,0,1,1.42-.61l0-.12-.39.09-.33.07-.28.19-.4.29Zm.08,1.24.21,0-.11-.28h-.23a2.33,2.33,0,0,0-1.33.41l.1.27A2.56,2.56,0,0,1,117.32,94.53Zm-1.85-.86,0,.09a2.5,2.5,0,0,1,1.44-.46h.14l0-.07h-.35l-.31,0-.22,0a3.7,3.7,0,0,0-.48.22Zm2.38,2.15H118l-.09-.25-.23,0a2.35,2.35,0,0,0-1.3.4l-.06-.13.16.41A2.53,2.53,0,0,1,117.85,95.82Zm-.3-.84h.13l-.1-.28-.26,0a2.33,2.33,0,0,0-1.3.4l.06.17.06.15A2.58,2.58,0,0,1,117.55,95Zm.11.43h.17l-.09-.27-.19,0a2.41,2.41,0,0,0-1.35.43l.1.25A2.5,2.5,0,0,1,117.66,95.41Zm-.59-1.73h.15l-.08-.22-.2,0a2.33,2.33,0,0,0-1.38.46l.08.22A2.46,2.46,0,0,1,117.07,93.68Zm.12.42h.18l-.09-.26h-.21a2.36,2.36,0,0,0-1.37.44h0l.1.26A2.41,2.41,0,0,1,117.19,94.1Zm.39.12.11.31a2.33,2.33,0,0,1,1.42-.58l0,.15a2.1,2.1,0,0,0-1.41.6l.07.23a2.46,2.46,0,0,1,1.44-.55l0,.16a2.14,2.14,0,0,0-1.42.55l.09.27a2.28,2.28,0,0,1,1.42-.59l0,.15a2.15,2.15,0,0,0-1.41.6l.09.26a2.32,2.32,0,0,1,1.41-.6l.06.16a2.15,2.15,0,0,0-1.41.6l.09.26-.1,0h-.05L118,96l-.19,0a2.34,2.34,0,0,0-1.33.42l.09.22.54-.2.24-.1.5-.08.29,0,.82-.41.16,0,.58-.08-.45-1.27-.29-.83A2.21,2.21,0,0,0,117.58,94.22Z" transform="translate(0 0)"/><path class="cls-4" d="M117.06,93.24h.08l0,0h0l0,.09a2.36,2.36,0,0,1,1.42-.61l0,.15a2.21,2.21,0,0,0-1.41.61l.1.29a2.25,2.25,0,0,1,1.43-.56l0,.15a2.16,2.16,0,0,0-1.42.57l.06.17A2.31,2.31,0,0,1,119,93.5l0,.15a2.21,2.21,0,0,0-1.42.57l.11.31a2.33,2.33,0,0,1,1.42-.58l0,.15a2.1,2.1,0,0,0-1.41.6l.07.23a2.46,2.46,0,0,1,1.44-.55l0,.16a2.14,2.14,0,0,0-1.42.55l.09.27a2.28,2.28,0,0,1,1.42-.59l0,.15a2.15,2.15,0,0,0-1.41.6l.09.26a2.32,2.32,0,0,1,1.41-.6l.06.16a2.15,2.15,0,0,0-1.41.6l.09.26-.1,0h-.05L118,96l-.19,0a2.34,2.34,0,0,0-1.33.42l-.06-.15a2.53,2.53,0,0,1,1.39-.42H118l-.09-.25-.23,0a2.35,2.35,0,0,0-1.3.4l-.06-.13v0a2.5,2.5,0,0,1,1.36-.4h.17l-.09-.27-.19,0a2.41,2.41,0,0,0-1.35.43l-.06-.15a2.58,2.58,0,0,1,1.41-.43h.13l-.1-.28-.26,0a2.33,2.33,0,0,0-1.3.4h0l-.06-.15h0a2.56,2.56,0,0,1,1.36-.41l.21,0-.11-.28h-.23a2.33,2.33,0,0,0-1.33.41h0l-.06-.14h0a2.41,2.41,0,0,1,1.39-.43h.18l-.09-.26h-.21a2.36,2.36,0,0,0-1.37.44h0l-.06-.14h0a2.46,2.46,0,0,1,1.43-.45h.15l-.08-.22-.2,0a2.33,2.33,0,0,0-1.38.46h0l-.06-.15h0a2.5,2.5,0,0,1,1.44-.46h.14Z" transform="translate(0 0)"/><path class="cls-5" d="M121.53,107.63l.12-.84v-.25h.25v.21a2.7,2.7,0,0,1-.14,1,2.51,2.51,0,0,1-.26.56l-.21-.14.06-.1Z" transform="translate(0 0)"/><path class="cls-6" d="M135,83.2V12.44a55.76,55.76,0,0,1,8.73,3.32c17.49,8.41,29.57,26.27,42.36,45.17C191.2,68.44,196.37,76.06,202,83.2ZM32.24,116.8c5.61,7.14,10.78,14.75,15.86,22.27C60.89,158,73,175.83,90.46,184.24a55.76,55.76,0,0,0,8.73,3.32V116.8Zm90-30.38-.1-.06,1.12-.93-.58,1.24-.32-.18.13.08.14.1L119,91.46V92l4.55-4.54.16.12-.25-.19,1.25-.78L124,87.75l-.16-.13.11.12-.27.27,0,1.42,1-.79-.08-.08,1.33-.63L125.05,89l-.15-.14L125,89l-.22.17v5.5h1.75v-7.5l1.92-1.88H119v5.4Zm-7.51,19.88.12.06a3.5,3.5,0,0,1,.49.14v-3.07a4.31,4.31,0,0,1-.28-.61,16.68,16.68,0,0,1-1.74.26h-.16a3.77,3.77,0,0,1-3.48-3.56V98.24h-1.86v1.83l.23,0,.07.13-.3.3v3.19a2.18,2.18,0,0,0,0,.43l.52-.45,0,0,0,0a8.73,8.73,0,0,1,.59,1.46,5.38,5.38,0,0,1,.65-.79l.07-.07,0,.08a3.48,3.48,0,0,1,.52,1.56l0,.19-.06.17.21,0h1.09l-.18-.51.1-.11.34.21.52.41h1.07c.2-.43.46-.88.46-.89l.07-.13.07.13.47.94h.22Zm1-13.06.23-.11h0l-.08,0-.87-.87,0,.64.51.4-.16.11h0A1.17,1.17,0,0,1,115.71,93.24Zm3.36-.14.38-.3,0-.63-.55.55Zm-7.15,5.06a2.7,2.7,0,0,1-2-.57v1.94a3.23,3.23,0,0,0,1.12,2.37,3.36,3.36,0,0,0,2.12.94h.14a15.37,15.37,0,0,0,1.67-.25c0-.15-.08-.3-.11-.46C113.44,102.11,111.92,101.76,111.92,98.16Zm7.46,3.84a3.33,3.33,0,0,1,.08.45,13.79,13.79,0,0,0,1.7.26h.14a3.37,3.37,0,0,0,2.13-.93,3.25,3.25,0,0,0,1.11-2.37V97.47a2.72,2.72,0,0,1-2,.57C122.56,101.83,120.88,102,119.38,102Zm-4.27-8v0l.07-.29-1.23-1v4.48a2.68,2.68,0,0,1,1.33.24l.93.37a2.39,2.39,0,0,0,.13-.21v0a2.14,2.14,0,0,1-.12-.66l0,0Zm.06-.36Zm5.37,3.4V92.53l-1.3,1,.85,2.41h0l-.06.1-.12.18h-.07l-.83.1-.15.07c0,.08,0,.17-.08.26l0,.08.13.37v0a1.29,1.29,0,0,1,0,.21l.37-.15A2.82,2.82,0,0,1,120.54,97Zm-1.82,4.35c0,.25.08.56.14.86l.27.26.09.06h0a17,17,0,0,0-.59-2.16c-.1-.42-.3-.89-.45-1.44l0,.21v0A15.94,15.94,0,0,1,118.72,101.36Zm.28,2.69c-.11-.47-.42-1.8-.53-2.66a11.36,11.36,0,0,0-.39-1.58v.1c0,.88.15,2.2.22,3.14,0,.28,0,.53,0,.72h0V104Zm-2.15-4.27c0,.77.3,2.55.38,4a18.13,18.13,0,0,1,0,2.28h0l.32-.66a6.58,6.58,0,0,0,.53-1.41v-.24c0-.8-.26-2.7-.26-3.86l0-.51a11.47,11.47,0,0,1,.3-1.42l-.19-.3-.62-.42h0l0,.11,0,.08,0,0h0A8.92,8.92,0,0,0,116.85,99.78Zm1.28-3h0l-.29,0-.42.07c-.34.11-.88.35-.88.35h0v.06a1.41,1.41,0,0,1,.78-.24h.07a1.37,1.37,0,0,1,1,.83l.06-.08.22-.58v0c0-.13-.11-.3-.31-.45l-.15.08Zm-2.4,12.91-.06.28-.13.42h.38l-.12-.4Zm-5.94.38-.14,0-.29.06.1.48.3-.06.19-.11,0-.2-.07-.13Zm-2.14.83-.12-.13h-.19l-.32.14.18.43.29-.13.14-.08,0-.11Zm4.43-.66.08-.07,0-.12,0-.12-.08-.07h-.17l-.22,0,0,.41h.23Zm22,3.81a3.18,3.18,0,0,0-2.19-.72h-.52a4.4,4.4,0,0,1-.48.71.89.89,0,0,1-.84.44h-.18c-.64,0-1.31-.25-1.42-.24l-.19.11-.1.1.33.35.77.21c.53,0,1.79,0,2.22.08a2,2,0,0,1,1,.67A11.79,11.79,0,0,1,134.11,114.07Zm-22-3.61H112l-.25,0,0,.47.27,0h.1l.08,0,0-.09v-.11l0-.13Zm5.67.27.08-.18,0-.27-.06-.34-.14-.15-.19,0h-.24v1.07h.24l.18,0ZM130.11,113a.82.82,0,0,1,.77.7l.18-.28.36-.78v0l-.33-.55a1.58,1.58,0,0,0-1-.29,4.63,4.63,0,0,0-1.54.36h-.05a2,2,0,0,1-1.6,1.42h-.05c-.61-.07-.85-.66-1.74-.65h-.25l-.1.15c0,.11.24.41.61.63a2.5,2.5,0,0,0,1.14.39h0A29.12,29.12,0,0,0,130,113Zm-12.74-1.66a54.85,54.85,0,0,0-6.07.31c-.71.08-1.26.17-1.65.24a3.7,3.7,0,0,0-.68.16l-.15.24.17.28h0a3.44,3.44,0,0,1-1.71.8,1.43,1.43,0,0,1-.89-.53,2,2,0,0,1-.54-1.32v-.06c0-.42.7-1.07,2.36-1.57a28.57,28.57,0,0,1,7.83-.86l1.3,0a38.7,38.7,0,0,1,8.45.91c1.84.47,2.65,1.1,2.61,1.55v0a1.86,1.86,0,0,1-1.46,1.76h0c-.39,0-.72-.6-1.65-.65l.14-.09.29-.37v-.06l-.11-.12a10.16,10.16,0,0,0-2.42-.41C121.75,111.47,119.81,111.35,117.37,111.35Zm-9.1.42-.33-.28-.18-.13-.11,0,.17-.22,0-.27-.12-.17-.17-.08-.22.06-.45.19.54,1.31.13-.06-.24-.58.16-.07.08,0h.07l.11.06.17.14.25.21Zm1-.33-.06-.15-.64.21-.16-.43.59-.2-.06-.15-.58.2-.13-.4.62-.21-.06-.15-.75.25.44,1.29Zm.9-1.19-.07-.18-.12-.11-.16,0-.17,0-.43.09.3,1.35.15,0-.12-.55.29-.06.31-.19Zm1.16.35-.07-.82-.16,0,.07.81,0,.36-.24.11-.18,0-.11-.13,0-.26-.07-.81h-.16l.07.81.08.35.17.18.28,0,.27-.1.13-.21Zm9.79.42v-1.34h-.18V111Zm6-.36-1,1.14.14.07.28-.35.41.21-.06.46.15.07.17-1.53Zm-1.66-.49-.29,1.41.14,0,.23-1.1.35,1.23.15,0,.3-1.41-.15,0-.23,1.11-.35-1.24Zm-.76-.23-.74,1.33.16,0,.22-.4.46.11,0,.46.17,0-.15-1.54Zm-1.68.54v.39l.15.29.28.12.3-.09.2-.34-.14-.06-.14.26-.22.07-.18-.09-.11-.21v-.33l.06-.27.14-.2.22-.06.18.09.09.24.14,0-.12-.32-.27-.14-.27.06-.21.24Zm-.4-.72v1.29h.17v-1.29Zm-1.16-.05v1.34h.13v-1l.53,1h.14v-1.34H122v1.05l-.53-1.05Zm-1.86-.06V111h.15v-1.12L120,111h.15l.35-1.11V111h.15v-1.32h-.21l-.29.92-.07.21,0-.2-.29-.93Zm-1.2.65.06.35.17.27.25.1.25-.09.17-.26.06-.39-.06-.38-.17-.27-.25-.09-.34.2Zm-5.89.36-.07-.21-.15-.11.1-.13,0-.17-.06-.18-.12-.12-.2,0-.41,0,.09,1.37.41,0,.17,0,.12-.08.07-.13Zm1,.18h-.55v-1.19h-.15V111h.7Zm.46-1.25h-.17V111h.17Zm1.2,1-.14,0-.1.28-.19.09-.17-.07-.12-.2,0-.32,0-.28.1-.21.2-.08.17.07.1.23.13,0-.14-.3-.26-.11-.24.08-.17.26-.06.39,0,.38.16.28.26.09.27-.12Zm1.2.43-.46-1.44h-.16l-.43,1.44h.16l.12-.44H116l.13.44Zm.86,0h.41l.18,0,.14-.07.1-.13.08-.2,0-.28,0-.34-.13-.24-.17-.1-.2,0h-.39Zm-11.29,3.26c-.11,0-.77.2-1.41.24h-.18a.87.87,0,0,1-.84-.44h0l-.1-.12-.25-.38-.12-.2h-.52a3.16,3.16,0,0,0-2.19.72,11.79,11.79,0,0,1,1.61,1.71,1.92,1.92,0,0,1,1-.67c.44,0,1.69,0,2.23-.08l.76-.21.34-.35-.11-.1Zm3.47-1.44-.12-.08-.19.18-.54.33a3.06,3.06,0,0,1-1.19.39,2.08,2.08,0,0,1-1.59-1.54,4.8,4.8,0,0,0-1.47-.33,1.58,1.58,0,0,0-1,.29l-.33.55v0l.54,1.06a.82.82,0,0,1,.76-.7h0l.14,0a29.3,29.3,0,0,0,3.38,1.06h.05a2.54,2.54,0,0,0,1.14-.39c.37-.22.62-.52.6-.63Zm20.8.44H130c-.27.06-1,.33-1.66.58l-.08.22.2-.06c.23,0,.82.2,1.44.24H130c.34,0,.52-.09.62-.24C130.66,113.51,130.37,113.26,130.11,113.26Zm-25.7,1c.62,0,1.21-.24,1.43-.24l.2.06-.07-.22c-.71-.25-1.4-.52-1.66-.58h-.1c-.26,0-.54.25-.55.75.1.15.28.23.63.24Zm20.25-3.83,0-.32-.12.26-.21.39.38.09Zm-6.12.29.24.15.25-.15.09-.43,0-.31-.12-.2-.18-.07-.24.14-.1.46Zm8.32.35-.27.34.33.17,0-.42.06-.32ZM120,113.75l.7.34.24-1a3.17,3.17,0,0,0-1.13-.24h-.06l0,.52v.35Zm-1.06,0h0a2.09,2.09,0,0,0-1,.31v0a1.07,1.07,0,0,0,.63.14,1.81,1.81,0,0,0,.82-.16l0,0V114h0Zm-4.43-.19v-.23l0-.44a3.33,3.33,0,0,0-1.08.24l.23,1.05.7-.34.18,0Zm1.77.56v0a2.12,2.12,0,0,0-1-.33h0l-.5.17V114h0l0,0,.19.08.62.08Zm1.68-1.35v1a2.2,2.2,0,0,1,1-.29h0l.5.16.07-.88-.1-.07-.42-.14h-.1A3,3,0,0,0,118,112.74Zm-1.68,0a2.76,2.76,0,0,0-.93-.22h-.1l-.42.14-.1.07.07.88.5-.16h0a2.2,2.2,0,0,1,1,.29Zm.84,1.32.47-.09.12,0v-1.2l-.13,0-.43-.06h-.1l-.52.12V114A1.14,1.14,0,0,0,117.12,114.09Z" transform="translate(0 0)"/><path class="cls-7" d="M123.3,109.25c-.41-.06-.85-.11-1.31-.15a6,6,0,0,0,.93-1.51h0l0,0a5.89,5.89,0,0,1,.48-.76l.2-.29v1c0,.1-.11.29-.21.51a2.21,2.21,0,0,1-.51.75l.14.21a3.45,3.45,0,0,0,.82-1.41,6.8,6.8,0,0,0,.71-1.53l.13.22h0v0A4.13,4.13,0,0,1,123.3,109.25Zm5.91,2-.68,0c-.29-.55-1.18-1-2.68-1.41l-.66-.16c.89-.93,1-2.91,1-3.7h.07s0-.63,0-1.43a7.47,7.47,0,0,1,.27.87,10.25,10.25,0,0,1,.31,2.36h.26a9.81,9.81,0,0,0-.64-3.39l-.2.08c0-.43,0-.9,0-1.34s0-.93,0-1.25l0-.38v0l.66.19h0l0,0h0c.05,0,.64.45.64,2.91,0,.49,0,1.07-.08,1.73a6.89,6.89,0,0,0-.77-2.89l-.21.13a5.18,5.18,0,0,1,.37.88,7.48,7.48,0,0,1,.38,2.39V107h.25v-.15l.18,0c.09-.92.13-1.69.13-2.33,0-2-.39-2.75-.63-3v-1c.2.64.46,1.45.51,1.6l0,0,.11.07,0,0a4.05,4.05,0,0,1,.33,1.84l0,.73.25,0,0-.76a3.76,3.76,0,0,0-.47-2.16,12.19,12.19,0,0,0-.27-2.06,7.53,7.53,0,0,1-.22-.88c.25.37.57.83.66,1h0a9.5,9.5,0,0,1,.38,1,6.9,6.9,0,0,1,.38,2l0,.45.25,0,0-.48a8.31,8.31,0,0,0-.74-3v-.06a8.3,8.3,0,0,0-.36-1.31l-.29-.77-.13-.26-.19-.15-.26.14,0,0,.17-.5.17-.39.06-.09.32.53.16.35,0,.1h0l0,0,0,0h0l0,0h0a6.18,6.18,0,0,1,.52,1,10.66,10.66,0,0,1,.81,3.21l.25,0a9.85,9.85,0,0,0-1.37-4.31v-.06l-.35-2,.31.56h0A9.6,9.6,0,0,1,129.39,99a9.45,9.45,0,0,1,.24,1.42l.25,0a10.71,10.71,0,0,0-1.4-4.34,3.58,3.58,0,0,0,.07-.69l-.08-.52-.16-.55.05,0,0,.07,0,0h0a8.73,8.73,0,0,1,1.48,4.35,2,2,0,0,1,0,.46l.25.06a3.07,3.07,0,0,0,0-.52,9,9,0,0,0-1.56-4.56l0-.37v-.51l.23.48.39.62h0a9.27,9.27,0,0,1,1.15,4.34,5.46,5.46,0,0,1-.15,1.38l.24.07a5.79,5.79,0,0,0,.16-1.45,9.54,9.54,0,0,0-1.15-4.39v-.31l.24.2.19-.15s-.24-.51-.53-1-.59-1-.92-1.13h-.09l-.36.11.26-.35.13-.13,0,0h.27c1.94,1.85,2.22,3.08,2.22,3.63l0,.27v.08l.23.1.06-.45c0-.63-.32-1.93-2.28-3.79l-.16-.85.43.57.54.69.2.23.08.07.12.06.11-.06,0-.08V92c-.09-.35-.76-1.91-.84-2.44,0-.28-.12-.63-.19-.94l.38.54.36.61.19.33.08.11h0s.38,1.27,1,4.35l.18,0v0l.25.06s.35-1.35.39-1.67h0l.1.06h0a15.86,15.86,0,0,0,.87-2.16c.2-.4.71-1.45.84-1.7l.43-.36.05,0-.29.69c0,.1-.25.56-.45,1a5.74,5.74,0,0,0-.4,1h0c-.33.85-.81,2-1.21,2.94s-.72,1.68-.76,1.82l0,.17.25,0,0-.18s.34-.83.74-1.76c.11-.27.24-.56.36-.85h0a3.63,3.63,0,0,0,.94-.73l.21-.21-.08.36,0,.09.13.08h.06l.44-.24-.52.51-.19.21v0c-.12.11-.78.81-2.56,4.32l.22.12a37.73,37.73,0,0,1,2-3.58c.19-.28.32-.45.4-.55h0l.82-.28-.92,1.13,0,0,0,0a40.84,40.84,0,0,1-2.43,3.64l.2.15a33.62,33.62,0,0,0,2.48-3.73l.47-.28.76-.32.4.07h0a3.08,3.08,0,0,0-.82.13l-.29.29-.59.83a2.21,2.21,0,0,0-.34.68l0,.1.12.06.08,0,.62-.48-.19.46a14.86,14.86,0,0,0-3.3,3.45l.19.15a21.13,21.13,0,0,1,2.67-2.94l.58-.45.13-.08h0v0l.83-.5L133.38,98l.16.19s.4-.31.83-.61a4.56,4.56,0,0,1,1-.6,4.55,4.55,0,0,1,.75.69l.18.18-.19-.08a4.71,4.71,0,0,0-.95-.38l-.13,0a13.33,13.33,0,0,0-1.19,1.39c-.24.3-.47.6-.64.84L133,100l0,.11-.35.24c-.4.27-1.14.77-2.46,1.63l.14.21h0c1.75-1.15,2.46-1.63,2.75-1.83h.08a9.88,9.88,0,0,1,1.8-.81l0,0a3.08,3.08,0,0,1,.6,1.17l-.38-.16-.6-.22-.46.19c-.52.28-1.37.78-1.62.93a8,8,0,0,0-2.63,1.94l.17.18a10.42,10.42,0,0,1,2.08-1.66l.38-.19h0s1.43-.24,1.85-.33a8.36,8.36,0,0,0,1.63-.17l.21-.09-.56.41-.84.4-.46.1h0c-.63,0-2,.28-4.43,2.15l.15.2c2.36-1.85,3.72-2.1,4.28-2.1h0l.31,0h0l.68.07c-.69.21-1.78.56-2.15.7s-.87.41-1.21.58l0,.07a7.91,7.91,0,0,0-2.55,1.21l.14.22a7.83,7.83,0,0,1,2.71-1.26h0c.46,0,1.31-.06,1.58-.06s.63.06,1.07.12c-.62.1-1.37.2-1.49.2a1.26,1.26,0,0,0-.62.24.48.48,0,0,0-.36-.11c-.45,0-1.36.29-3.4,1.62l.13.21c2-1.33,2.92-1.59,3.27-1.58l.13,0-.08.06,1.67.18-.6.1,0,.24,1.35.47.4.22a14.7,14.7,0,0,0-1.71-.28,7.85,7.85,0,0,0-1,.09l-.19-.05c-.52,0-1.68.3-4.24,2.05l.15.21c2.53-1.74,3.67-2,4.09-2h.09v0a3.21,3.21,0,0,1,1.05.24l.1,0-1.16-.09.34.26a6.3,6.3,0,0,0,1,.67l.09,0-1.19-.12-.11-.1a3.83,3.83,0,0,0-1.33-.15c-.3,0-.66,0-1.09,0l0,.25c.42,0,.78,0,1.07,0a4.27,4.27,0,0,1,1.18.11l1.12.84a9.79,9.79,0,0,0-1.23-.21h-.62l.29.22.4.31.5.48.18.3-.69-.24a4.49,4.49,0,0,0-1-.26h0l-.14-.2a2.71,2.71,0,0,0-1.4-.25l-.62,0,0,.25.6,0a2.51,2.51,0,0,1,1.26.22l.68.74-.93-.18h0a24.91,24.91,0,0,0-4.37-1.31V108a13.08,13.08,0,0,1,2.54.66c.91.31,1.63.59,1.79.66l.43.63-.9-.3-.11.23.28.18.25.28-.13.68-.12.35v0l-.13-.37-.22-.59-.46-.45a3.45,3.45,0,0,0-.77-.24h0a25,25,0,0,0-3.29-.46l0,.25a23.86,23.86,0,0,1,3.09.43l.53.45.26.19-1.19-.14-.07.24.64.32Zm1.46-13.39v0h.25v0a10.79,10.79,0,0,0-.93-3.65l-.23.1A10.47,10.47,0,0,1,130.67,97.81Zm-.47,3.48.18.17a36,36,0,0,1,2.53-2.68l.44-.38.09-.05h0l0,0-.07-.18C133.3,98.13,132.81,98.31,130.2,101.29Zm-2.31,5.29.23.1h0c.31-.71.54-1.24.7-1.64l-.08.6a8.57,8.57,0,0,1-.41,1.41l.24.09a8.28,8.28,0,0,0,.42-1.48c0-.39.27-1.72.27-1.72l-.25-.06s0,.08-.18.47S128.4,105.41,127.89,106.58Zm-2,2.07,0,.24.74-.06a6.45,6.45,0,0,1,2.29.48,8.64,8.64,0,0,1,1,.49l.13-.21a7.45,7.45,0,0,0-3.45-1Zm-4-.82.13-.37,0,0v-1.21l-.14.32v.19a2.7,2.7,0,0,1-.14,1,2.51,2.51,0,0,1-.26.56l-.21-.14.06-.1.18-.41.12-.84-.11-.07a1.53,1.53,0,0,0-.44-.67c0,.49.06.85.07,1.23a3.37,3.37,0,0,1-.33,1.43c0,.1-.09.19-.14.27l.27,0,.38-.41A4.69,4.69,0,0,0,122,107.83Zm-4.49,4.61-.18,0h-.14l.68.12a3.61,3.61,0,0,1,.91-.23c.22-.23.45-.45.67-.67l-1.55,0-.58.63ZM114,115.71a5,5,0,0,1,1.15-.39,3.2,3.2,0,0,0,1-.77l.34-.31h0a1.08,1.08,0,0,1-.83.25l-.69-.09,0,0c-.62.43-1.24.81-1.56,1Zm18.67-24.8h0l.17-1c0-.13,0-1.17.07-1.64l-.07.2c-.09.42-.43,1.4-.43,1.4l-.15.44-.1-.49v.38a3.55,3.55,0,0,0,.1,1v0l-.22.11a2.63,2.63,0,0,1-.15-1.17c0-.25,0-.56,0-.92h.11l-.21-1-.6,1.71a7.26,7.26,0,0,1,.77,2.73A13.87,13.87,0,0,0,132.69,90.91Zm-10,16.6c0-.14.07-.63.14-1.1-.18.38-.36.77-.47,1h0a3.59,3.59,0,0,1-.18.54,5.39,5.39,0,0,1-.66.84l-.25.27.39,0a3.85,3.85,0,0,0,.69-.94A5.82,5.82,0,0,0,122.68,107.51Zm10.46-15a9.89,9.89,0,0,1,1.11-1.09l.23-.11.56.18.4.15-.32-.48-.56-.41-1,.79-.24.14c-.12.33-.27.69-.42,1.06ZM126,105.69l0-.16,0-.07a7.09,7.09,0,0,1-1.45,4l.45.08C125.86,108.73,126,106.28,126,105.69Zm5.78-12.79v-.06a7,7,0,0,0-.81-2.92l0,0-.56-1.2c0,.56.06,1.31.06,1.42v.07h0c.09.31.44,1.59,1,4.17Zm-6.11,12.41v0l.16,0-.1-.19,0,.11-.13.46a4.77,4.77,0,0,1-.27.92l-.16.08-.19-.17a4.34,4.34,0,0,1-1.3,2.78l.56.09A6.83,6.83,0,0,0,125.66,105.31Zm-24.25-13a6.54,6.54,0,0,1-.52-1.76,4.56,4.56,0,0,1,.92-1.81l.44.69a5.37,5.37,0,0,1,.31,1v.13c0,.34-.41.66-.54,1.85l-.34-.15Zm.61-1.61a2.77,2.77,0,0,1-.2-.94V89.6l-.15,0v.2a3,3,0,0,0,.2,1Zm.12,2.21h0l0-.07Zm.57-2.56v.07a3.18,3.18,0,0,1,1-.86V88.8l-.21-.45-.1-.18a7.38,7.38,0,0,1-.7,2Zm3,1.25a3.94,3.94,0,0,1,.1.87c0,1.84-1.48,2.69-1.55,3l0,.25,0,.56.2-.68c.39-.69,1.22-1.2,1.31-1.51a4.83,4.83,0,0,0,.44-1.69,2.2,2.2,0,0,1,.68-1.41l.13-.43-.77.39-.4.36Zm.72,16.2.34.51a8,8,0,0,1-3-.47h0l-.62-.3.63,0a3,3,0,0,1,1.25.19l.17.12,0,0,.15-.05s-.19-.45-1.6-.44l-.63,0,.08,0,.51-.17.7-.13.37.21.48-.53-.48-.53-.41.26-.14-.22v-1h-.16V106l-.2.18-.81.89a8.6,8.6,0,0,1-1.73.25,1.79,1.79,0,0,0-1,.59l-.1-.63v-.11l.27-.32,0-.15-.59.06.23-.92.36-.65a2.23,2.23,0,0,1,1-.38l.68.13.23,0a2,2,0,0,0,1-.64l-.13-.09-.22.22a2,2,0,0,1-.68.37l-.19,0-.39-.09h0A4.2,4.2,0,0,0,100,104l-.26,0-.09-.27h1.21l.65.18.44.18.24.11L102,104l-.15-.26-.15-.37,0-.09a1.51,1.51,0,0,1,1,.53l.25.44.15,0a1.63,1.63,0,0,0-1.44-1.09l-.08-.26.45.25.45.27.16.1,0-.18a4.68,4.68,0,0,0-.41-1.17l0-.22-.45-.53-.19-.31-.15-.15,0-.78h-.16l0,.73-.22-.07-.6-1.07v-.39a1.22,1.22,0,0,0-.54-1.14V98l-.29-.69a2.5,2.5,0,0,0-.52-.5L99,97l.09.07.38.4.25.58v0L99.19,98c0-.16-.13-.63-.17-.92l0-.16.09-.56.16.23.5.39.36.2.21.2.11.13.06-.41.76,1h0l.25.81a1.8,1.8,0,0,1-.13.67l.14.06a1.9,1.9,0,0,0,.15-.73,1.5,1.5,0,0,0-.39-1l0-.32.11-.39.33-.19.11.47.43,1.18-.12,2.39a3.69,3.69,0,0,0,.38.89c.19.38.38.73.38.73l.15,0v-1.47c0-.37-.39-1.09-.38-1.39v0l.09-.57.09.15.33.41.27.36.2.34.07.12.54-1,0,0L103.7,99l-.62-.71a9.88,9.88,0,0,1-.24-1.15v0l0,0-1-.6a9.2,9.2,0,0,1-.71-1.05l-.26-.42a18.14,18.14,0,0,1,1.67,1.4l.11-.11a18.1,18.1,0,0,0-2-1.63h.24l.48.28.68.39a5.67,5.67,0,0,1,.86.42l.55.33h.08l.51-.67,0-.1-.42-.59-.39-.57,0-.34c0-.54.06-1.49.07-1.83l.85.46c0,.18-.09.74-.12,1.37a8.48,8.48,0,0,1-.22-.94c-.12-.5-.25-.64-.27-.65l-.11.12.06.1.17.47a6,6,0,0,0,.36,1.31h0v.43h.16v-.45h0a13.94,13.94,0,0,1,.13-1.75,4,4,0,0,0,.69-.86l.25-.91.35,1a4,4,0,0,1,.1.87c0,1.77-1.39,2.51-1.54,3l0,.29,0,.42-.26-.09-.48.53.48.53.33-.15v.1l.22.44c0,.32.07.7.09,1.19h.16c0-.44-.06-.8-.09-1.1h.09l.48-.53-.13-.38.91-.79a12.32,12.32,0,0,0-.79,2.85l.16,0a12.32,12.32,0,0,1,.78-2.83l.13.58a3.33,3.33,0,0,1,.06.59v.11l.1,0,.83-.32.09,0,.26.07.07,0-.27.52a5.41,5.41,0,0,0-.36.73,4.37,4.37,0,0,1-.39.74,4.11,4.11,0,0,1-.72.38,2.5,2.5,0,0,0-.72.42c-.12.17-1.07,1.21-1.32,1.59l-.26,1-.36.52.48.53.48-.53-.37-.52.14-.36a2.31,2.31,0,0,1,.44-.73l.81-.81a8.3,8.3,0,0,1-.67,1.49c-.31.44-.32.49-.33.54h.16a3.12,3.12,0,0,1,.29-.45,9,9,0,0,0,.74-1.65l.15.76.1-.07.91-.54,1.26-.29-.2.18-.47.59-.4,1.34c-.19.14-.84.55-1.34.86l-.1-.09,0,.14-.51.3-.3.8.12.35v.14s0,.19.06,1l.16,0c0-.51-.06-.76-.06-.88l0-.12.42-.64.22-.66.15.16.32.46a9.64,9.64,0,0,1,.08,1.34l0,.45-.07.79.08.49.42.48,0,0ZM104.57,94.2l.14.07a6,6,0,0,0,.5-2.3h-.15A6.1,6.1,0,0,1,104.57,94.2Zm-3.5,5.18a2.81,2.81,0,0,1-.33-1.23l.09-.54-.15,0h0l-.1.59a2.82,2.82,0,0,0,.36,1.31Zm2.11,6.82-.09-.13-.7.55a1.54,1.54,0,0,1-.71.23l-.56.06v.15a3.1,3.1,0,0,0,1.37-.32Zm.62-1.65-.08-.13-.62.55h0l-.28.16-1.22.63c-.33.17-.87,0-1.34.5l.11.11c.41-.46.86-.28,1.29-.47l1.14-.57a6.33,6.33,0,0,1-.77.92l-1.11.36,0,.15a6.85,6.85,0,0,0,1.15-.37C102.46,106.16,103.07,105,103.8,104.55Zm1.06-2,0,.15a6,6,0,0,0,2.36-2.11l-.13-.08A5.72,5.72,0,0,1,104.86,102.52Zm.09-.12.29-.23.11,0,0-.15s-.8.27-1.24,1.76l.15,0A3.32,3.32,0,0,1,105,102.4Zm.7,2h-.15v1.1h.15Zm-5.77-4.16c-.28-.35-.15-.73-.32-.92s-.37-.88-1.08-1.15l.22.35a13.09,13.09,0,0,0,.87,2.3,2.89,2.89,0,0,0,1.12.53l.65.2.26-.21-.16-.25c-.16-.21-.17-.08-.47-.22s-.54-1-.66-1.12l0-.2v-.28c0-.48-.07-1.1-1.16-1.19h-.47a2.57,2.57,0,0,1,1,1.16c.21.3.08.65.31.91a7.29,7.29,0,0,0,.68.67l-.1.12A6.47,6.47,0,0,1,99.88,100.26Zm3.68-9.87A4.32,4.32,0,0,0,102.47,92l1.2-.79.24-.43.29-.59h-.06Zm10.73,18.44-.45,0-.47,0-.68,0-.58,0-.67.07-.35,0-.55.08-.3,0-.55.09-.22,0-.61.13-.08,0c-.23.06-.45.11-.65.18s-.4.12-.58.19l-.46.19.08,0,.1-.18.6-.62.28-.22.14-.18,0-.07h0l-1.81.06h0l0,0-.41.47-.63.54a19.34,19.34,0,0,0-2,.44l-.79.64-.09-.7.23-.5.09-.13h-.15s-.7,0-1.1,0h-.1l.38-.69a2,2,0,0,1,1-.77l.84-.24a8.08,8.08,0,0,0,3.39.57c1,0,1.76-.08,1.76-.08v-.16s-.26,0-.67,0l.42-.53-.47-.53-.32.14a20.09,20.09,0,0,0,.19-2.16h-.16c-.07,1.19-.13,1.78-.17,2.08l-.06.24,0,.18v.06l.45.53c-.26,0-.57,0-.91,0l.35-.51-.48-.53-.15,0-.11-.27a4.11,4.11,0,0,1-.32-1.25v-.14a6.69,6.69,0,0,1,.75-1.58l.14-.57.53.77,0,.14.09-.12.51-.51.58,1.51.06.16.09-.15a5.51,5.51,0,0,1,.64-.83,3.2,3.2,0,0,1,.44,1.39V106a2.18,2.18,0,0,1-.8,1.21,3.86,3.86,0,0,1-.67.36l-.2.07.2.07,1.16.31.37.09h0l-1.17.36,0,.15s1,.1,1.43.1h.25l.43.31.48-.53-.48-.54-.36.19-.18-.72-.2-.57a12.23,12.23,0,0,1,2,1.64l.11-.11a14.4,14.4,0,0,0-1.74-1.51l.37,0,.44,0,.2,0,.07,0a6.41,6.41,0,0,1,1.23,1.16l.13-.1a6.76,6.76,0,0,0-1.31-1.22l-.2-.49-.16-.42.76.61a3.07,3.07,0,0,0,.88.58h0a1.51,1.51,0,0,1,.36,1,2.19,2.19,0,0,1-.19.86h.18a2.41,2.41,0,0,0,.16-.85,1.59,1.59,0,0,0-.41-1.11,4.77,4.77,0,0,1,.34-.79l.28-.55c.16.3.54,1,.58,1.16a4.61,4.61,0,0,1,.08,1.06,2.63,2.63,0,0,1-.42,1l0,0h.11Zm-7.07-3.23-.16,0a7,7,0,0,0-.12.92l.15,0A7.74,7.74,0,0,1,107.22,105.6Zm.19-1.24h-.16l-.06.85h.15Zm2.06,1.8-.15-.06a2,2,0,0,1-.27.52l0,0h0l0,0v.13C109.09,106.81,109.21,106.78,109.47,106.16Zm-1.28,0,.15,0,.07-.43h-.16Zm.27,1.08a2.84,2.84,0,0,0,.32-1.19h-.15a2.66,2.66,0,0,1-.31,1.12Zm-3.74,1.57,0-.15a15.12,15.12,0,0,1-2.43.48l0,.16h0A14.93,14.93,0,0,0,104.72,108.77Zm1-.08-.12-.11a4.91,4.91,0,0,1-.71.6,2.92,2.92,0,0,1-1.58.6h-.09v.15h.09A4,4,0,0,0,105.76,108.69Zm8.28-.84.19-1.46-.15,0-.19,1.46ZM103.82,89.68a3.25,3.25,0,0,0-1.12,1h0a5,5,0,0,0-.54,2v.11l.08-.3.09-.57a4.25,4.25,0,0,1,1.12-1.66l.68-.22.26,0,.39-.19-.06,0-.22-.11Zm-.63-1.4-.78,1.14.2.57A7.83,7.83,0,0,0,103.19,88.28Zm-1.74,6.48.64.38.77.35-.12-.94-.33-.62h-.06l-.47-.54,0-.17-.21.06-.46-.39-.29-.16-.22-.22c.2.9,1.07,1.28,1.35,1.67l.21.62v.11l-.15,0v-.08l-.18-.53c-.19-.3-1-.69-1.33-1.57l0,.67.36,1.09Zm17.13,19.7-.48-.07.07,0a12,12,0,0,0,2.09,1.44l.6-.79c-.59-.31-.68-.33-1.4-.77h0l-.21.08-.69.09Zm-17.09-9.84-.33-.18a3.11,3.11,0,0,0-1.2-.33l-.21,0,.13.32.57.55A2.44,2.44,0,0,1,101.49,104.62Zm15.11,7Zm-9.71-19.1c0-.51,0-1,0-1.16a1.84,1.84,0,0,0-.48,1.11A4.94,4.94,0,0,1,106,94.2c-.15.42-1,.88-1.32,1.53l-.19.7v.2l.19,0,.16,0v-.36l.14-.62,1.86-1.87A6.26,6.26,0,0,0,106.89,92.51Zm-4.9.36h0l0,0Zm15.23,19.54-.72-.8c-.44,0-.86,0-1.26,0l.76.77-.09,0,.52.16.59-.14h.2Z" transform="translate(0 0)"/><path class="cls-8" d="M101.73,102.24l-.32-.38.32-.37.32.37Zm.3-8.84.32.38.32-.38-.32-.37Zm-.06-.51,0,0v-.19l-.31-.3-.32.38.32.37Zm6,15.26.31-.38-.31-.37-.33.37Zm-4.44-11.51.32.38.32-.38-.32-.37Zm.46,6.22-.32-.38-.32.38.32.37Zm2.59,5,.32.37.32-.37-.32-.38Zm-1.76-1.45-.32.37.32.37.32-.37Zm6.74,2.14-.32-.38-.32.38.32.37ZM105,97.12l-.33-.38-.31.38.31.37Z" transform="translate(0 0)"/><path class="cls-9" d="M134.08,88.56l-.21.14a.86.86,0,0,0-.14.13.61.61,0,0,0-.12.16l-.09.18a1.71,1.71,0,0,1-.12.23l0,.07-.3.61,0-.22,0-.65,0-.78,0-.28v-.29h-.13l-.11,0-.11.06a.49.49,0,0,0-.15.19.66.66,0,0,0-.08.21v0l-.08.33c0,.08,0,.17-.08.26s-.07.23-.11.34l-.17-.84-.06-.3-.05-.25-.13-.64-.27.75-.13.39-.4,1.12L130.4,88l-.24,0s0,1,.07,1.64l-.09-.15L129.8,89,129,87.91l-.22.11s.25,1,.33,1.53a14.38,14.38,0,0,0,.67,2c-.47-.58-1.2-1.57-1.2-1.57l-.22.1.22,1.24h-.18l-.36.25a9.46,9.46,0,0,0-.76,1.12l.21.14.3-.31.54-.3h0a3,3,0,0,1,.76,1l.25.47-.19-.15v.42l-.16-.26-.43-.93-.24,0s0,.58,0,1v.09l-.16-.2-.28-.37.06.46a5.08,5.08,0,0,0,.26,1.1l.06.42v.29l-.5-.9-.23.08.32,1.81-.36-.33-.21.13a5.83,5.83,0,0,0-.42,1l-.1.29-.09.24h0l-.09.12-.07.15v.06l0,.06.1,0h.07l.06-.1.12-.19.2-.22.23-.23.07,0a7.88,7.88,0,0,1,.42,1.09l.15.47c-.28-.42-.61-.88-.61-.88l-.23.1a13.9,13.9,0,0,0,.34,1.48,7.8,7.8,0,0,1,.2,1.23l-.46-1.47-.25,0v1.63l-.18,0-.25-.08-.24-.07h0l-.15.11A8.75,8.75,0,0,0,126,103c0,.72,0,1.51,0,2.07v0h0l-.2-.22-.1,0-.28.29-.19.72,0,.05h0l-.1.36,0,.14,0-.09-.13-.22v0l0,0-.14-.23-.22-.16-.08,0,0,0,0,.06a3.32,3.32,0,0,1-.14.49l0,0c0,.09-.07.17-.11.26s-.16.34-.23.48v-.74h0v-.56l-.23.31-.18.25-.17.24-.3.43c0-.13,0-.28.06-.43a2.17,2.17,0,0,0,0-.25l.11-.72-.24-.07s-.17.38-.36.78c0,.09-.08.17-.11.25l-.2.41v-.66c0-.2,0-.39,0-.53h0v-.09l-.13-.11-.15.11-.23.57,0,0-.07.17-.09-.17c-.14-.26-.3-.48-.62-.5h-.13v.13c0,.13,0,.25,0,.36s0,.17,0,.25c0,.29,0,.53,0,.77a3.18,3.18,0,0,1-.31,1.33,2.81,2.81,0,0,1-.18.35l.27,0c0-.08.09-.17.14-.27a3.37,3.37,0,0,0,.33-1.43c0-.38-.06-.74-.07-1.23a1.53,1.53,0,0,1,.44.67l.11.07v-.25h.25v0l.14-.32v1.21l0,0,0-.14.21.06c.11-.2.29-.59.47-1-.07.47-.14,1-.14,1.1l.07-.16.24.08-.07.16h0l0,0a5.89,5.89,0,0,1,.48-.76l.2-.29v1l0-.07.23.08,0,0a6.8,6.8,0,0,0,.71-1.53l.13.22.23,0h0s0,.13,0,.25l.19.17.16-.08a4.77,4.77,0,0,0,.27-.92l.13-.46,0-.11.1.19h.09v.15l0,.07,0,.16v-.36h.26v.24s0,.15,0,.31h.07s0-.63,0-1.43l0-.07h0c0-.43,0-.9,0-1.34s0-.93,0-1.25l0-.38v0l.66.19.07-.19a.76.76,0,0,1,.18.14v-1c.2.64.46,1.45.51,1.6l0,0,.11.07,0,0a.49.49,0,0,0,0-.07l-.06-.1.2-.15h0a12.19,12.19,0,0,0-.27-2.06,7.53,7.53,0,0,1-.22-.88c.25.37.57.83.66,1l.2-.1,0,.1v-.06a8.3,8.3,0,0,0-.36-1.31l-.29-.77-.13-.26-.19-.15-.26.14,0,0,.17-.5.17-.39.06-.09.32.53.16.35,0,.1h0l.18-.13.07.11v-.06l-.35-2,.31.56.19-.12a.43.43,0,0,1,0,.07,3.58,3.58,0,0,0,.07-.69l-.08-.52-.16-.55.05,0,0,.07,0,0h0l-.06-.1.22-.13v0l0-.37v-.51l.23.48.39.62.21-.11,0,.06v-.31l.24.2.19-.15s-.24-.51-.53-1-.59-1-.92-1.13h-.09l-.36.11.26-.35.13-.13,0,0h.27l-.08-.07h0l.16-.18.1.09-.16-.85.43.57.54.69.2.23.08.07.12.06.11-.06,0-.08V92c-.09-.35-.76-1.91-.84-2.44,0-.28-.12-.63-.19-.94l.38.54.36.61.19.33.08.11h0l.22-.07,0,.09h0v-.07c0-.11,0-.86-.06-1.42l.56,1.2.18-.11a.83.83,0,0,0,.07.13l.6-1.71.21,1h.14c0,.19,0,.36,0,.52l.1.49.15-.44s.34-1,.43-1.4l.07-.2c0,.47-.07,1.51-.07,1.64l-.17,1h0c.06-.16.09-.26.09-.26l.24.07,0,.09c.2-.4.71-1.45.84-1.7l.43-.36.05,0-.29.69c0,.1-.25.56-.45,1a5.74,5.74,0,0,0-.4,1l.23.09a.36.36,0,0,1,0,.09l.24-.14,1-.79.56.41.32.48-.4-.15-.56-.18-.23.11a9.89,9.89,0,0,0-1.11,1.09l-.2.23-.39,1h0a3.63,3.63,0,0,0,.94-.73l.21-.21-.08.36,0,.09.13.08h.06l.44-.24-.52.51-.19.21v0l0,0,.16.19,0,0-.09.1,0,0h0l.82-.28-.92,1.13,0,0,.05-.1.23.09-.05.11.47-.28.76-.32.4.07h0a3.08,3.08,0,0,0-.82.13l-.29.29-.59.83a2.21,2.21,0,0,0-.34.68l0,.1.12.06.08,0,.62-.48-.19.46a1,1,0,0,1,.22-.12l.08.22.83-.5L133.38,98l.16.19s.4-.31.83-.61a4.56,4.56,0,0,1,1-.6,4.55,4.55,0,0,1,.75.69l.18.18-.19-.08a4.71,4.71,0,0,0-.95-.38l-.13,0a13.33,13.33,0,0,0-1.19,1.39c-.24.3-.47.6-.64.84L133,100l0,.11.12-.09.15.2a1.48,1.48,0,0,1-.19.14h.08a9.88,9.88,0,0,1,1.8-.81l0,0a3.08,3.08,0,0,1,.6,1.17l-.38-.16-.6-.22-.46.19c-.52.28-1.37.78-1.62.93a.73.73,0,0,1,.2-.06l0,.25-.14,0-.09,0h0s1.43-.24,1.85-.33a8.36,8.36,0,0,0,1.63-.17l.21-.09-.56.41-.84.4-.46.1.38.05-.09.24.68.07c-.69.21-1.78.56-2.15.7s-.87.41-1.21.58l0,.07a.77.77,0,0,0,.2-.07l.09.23c.46,0,1.31-.06,1.58-.06s.63.06,1.07.12c-.62.1-1.37.2-1.49.2a1.26,1.26,0,0,0-.62.24.3.3,0,0,1,.07.11l-.19,0-.05,0h0l-.05,0-.08.06,1.67.18-.6.1,0,.24,1.35.47.4.22a14.7,14.7,0,0,0-1.71-.28,7.85,7.85,0,0,0-1,.09l.21,0-.15.16,0,0h0l-.11,0v0a3.21,3.21,0,0,1,1.05.24l.1,0-1.16-.09.34.26a6.3,6.3,0,0,0,1,.67l.09,0-1.19-.12.18.19h-.25l-.13-.07-.06,0,1.12.84a9.79,9.79,0,0,0-1.23-.21h-.62l.29.22.4.31.5.48.18.3-.69-.24a4.49,4.49,0,0,0-1-.26h0l.11.15h-.25v0l-.12-.12h0l.68.74-.93-.18,0,.26h0l.43.63-.9-.3-.11.23.28.18.25.28-.13.68-.12.35v0l-.13-.37-.22-.59-.46-.45a3.45,3.45,0,0,0-.77-.24l-.06.24-.16,0,.53.45.26.19-1.19-.14-.07.24.64.32.27.15-.68,0a1.14,1.14,0,0,1,.09.26l1,.07.08,0,.07-.12-.1-.16-.62-.36,1.11.13,0,.18.19.43.32,0,.1-.1a3.73,3.73,0,0,0,.27-1.13l-.09-.24.95.31-.71-1,1.34.26-.77-.82.52.16a6,6,0,0,0,1,.34l.26.07-.12-.25-.35-.58-.65-.61c.19,0,.51.08.83.15l.78.16.11-.22-1.07-.8,1.59.16-.26-.25a1.67,1.67,0,0,0-.55-.36l-.57-.34-.05,0,.86.06-.09-.19a.74.74,0,0,0-.44-.37l-.25-.1h.16a11.84,11.84,0,0,1,1.31.2c.53.1,1,.21,1,.21l.1-.23-1-.61-.87-.3,1-.17v-.25l-1.86-.2.18,0,2.36-.33v-.24s-1.58-.25-1.94-.25l-1.27.05.68-.32c.53-.2,2.71-.88,2.72-.88l0-.24-.88-.09.74-.38c.49-.4,1.45-1,1.45-1l-.11-.23s-.91.33-1.27.5a10.44,10.44,0,0,1-1.56.15l-1.15.21.38-.22.71-.39.25-.13.08,0h0l.48.19.6.22.13-.09,0-.09a2.57,2.57,0,0,0-.29-.87l-.27-.44-.34-.23a5.93,5.93,0,0,0-1.59.67c.2-.29.53-.73.86-1.14s.49-.61.69-.83l.24-.26.07-.06,1.6.71.15-.19s-.3-.33-.63-.67a4.19,4.19,0,0,0-.85-.76h-.07a2.36,2.36,0,0,0-.84.43L136,95.67l-.15-.19-1.45.87.28-.72-.2-.13-.38.38-.33.3.41-.62.35-.48.13-.15,0,0h0a5,5,0,0,1,.73-.1l.65,0,0-.24a4.27,4.27,0,0,0-1.09-.28,2.53,2.53,0,0,0-.84.33l.81-1-.15-.19-.53.24-.42.16.65-.64c.39-.37.77-.7.77-.7l-.15-.2-1.23.71.1-.29.14-.37-.21-.13s-.29.31-.62.63l-.44.4.64-.74.63-.63.23-.2.08,0h0l.46.16.57.18.11,0,.09-.17-.4-.71-.75-.51a1.51,1.51,0,0,0-.81.53l-.26.27.31-.73c.2-.47.41-.91.46-1.05l.12-.28.17-.4.12-.28.13-.28-.29.11-.07,0-.24.11Zm-4,22.17-.6-.5-.18-.13.37.14.37.37.09.2Zm-12.94,1.32.41-.45h.34l-.58.63Zm-.26,2.24-.48.44a3.2,3.2,0,0,1-1.16.83,5.57,5.57,0,0,0-1.14.4l0,0-1-.52-.22-.12.22-.11a19.54,19.54,0,0,0,1.66-1l.21.16c-.62.43-1.24.81-1.56,1l.67.35a5,5,0,0,1,1.15-.39,3.2,3.2,0,0,0,1-.77l.34-.31Zm2.92-2.65-.59.57a.94.94,0,0,0-.1.1l-.06,0h-.13l-.15,0c.22-.23.45-.45.67-.67Zm14.77-9.3.06,0-.31,0h0Zm-6.48-4.75,0,0h0l0,0h0Zm1.17-3.18h0l.21-.11,0,.06a9.54,9.54,0,0,1,1.15,4.39,5.79,5.79,0,0,1-.16,1.45l-.24-.07a5.46,5.46,0,0,0,.15-1.38A9.27,9.27,0,0,0,129.23,94.41Zm.71,4.34a8.73,8.73,0,0,0-1.48-4.35l-.06-.1.22-.13v0a9,9,0,0,1,1.56,4.56,3.07,3.07,0,0,1,0,.52l-.25-.06A2,2,0,0,0,129.94,98.75Zm-8.4,10-.25.27-.32,0,.38-.41a4.69,4.69,0,0,0,.61-.76l.13-.37,0-.14.21.06h0a3.59,3.59,0,0,1-.18.54A5.39,5.39,0,0,1,121.54,108.76ZM128,97.55l0,0,.18-.13.07.11a9.85,9.85,0,0,1,1.37,4.31l-.25,0a10.66,10.66,0,0,0-.81-3.21,6.18,6.18,0,0,0-.52-1l0,0Zm.2-1.48h0l.19-.12a.43.43,0,0,1,0,.07,10.71,10.71,0,0,1,1.4,4.34l-.25,0a9.45,9.45,0,0,0-.24-1.42A9.6,9.6,0,0,0,128.23,96.07Zm3.71-6.84h.25c0,.19,0,.36,0,.52v.38a3.55,3.55,0,0,0,.1,1v0l-.22.11a2.63,2.63,0,0,1-.15-1.17C131.9,89.9,131.92,89.59,131.94,89.23Zm1.23,2.25h0l.23.09a.36.36,0,0,1,0,.09c-.12.33-.27.69-.42,1.06l-.39,1c-.12.29-.25.58-.36.85-.4.93-.74,1.73-.74,1.76l0,.18-.25,0,0-.17c0-.14.35-.86.76-1.82S132.84,92.33,133.17,91.48Zm-3-1.31h0l.22-.07,0,.09c.09.31.44,1.59,1,4.17l.35-1.46v-.06a7,7,0,0,0-.81-2.92l0,0,.18-.11a.83.83,0,0,0,.07.13,7.26,7.26,0,0,1,.77,2.73,13.87,13.87,0,0,0,.68-1.73c.06-.16.09-.26.09-.26l.24.07,0,.09a15.86,15.86,0,0,1-.87,2.16h0l-.1-.06h0c0,.32-.39,1.66-.39,1.67l-.25-.06v0l-.18,0C130.58,91.44,130.2,90.18,130.2,90.17Zm-2,13.84a4.05,4.05,0,0,0-.33-1.84.49.49,0,0,0,0-.07l-.06-.1.2-.15h0a3.76,3.76,0,0,1,.47,2.16l0,.76-.25,0Zm-.08-4.11h0l.2-.1,0,.1a8.31,8.31,0,0,1,.74,3l0,.48-.25,0,0-.45a6.9,6.9,0,0,0-.38-2A9.5,9.5,0,0,0,128.13,99.9Zm2.54-2.09a10.47,10.47,0,0,0-.91-3.55l.23-.1a10.79,10.79,0,0,1,.93,3.65v0h-.25Zm-3.7,3.76h0l.07-.19a.76.76,0,0,1,.18.14c.24.26.63,1,.63,3,0,.64,0,1.41-.13,2.33l-.18,0V107h-.25v-.21a7.48,7.48,0,0,0-.38-2.39,5.18,5.18,0,0,0-.37-.88l.21-.13a6.89,6.89,0,0,1,.77,2.89c.06-.66.08-1.24.08-1.73,0-2.46-.59-2.88-.64-2.91h0Zm-3.35,7.73-.32,0a4.13,4.13,0,0,0,1.38-3v0h0l.23,0s0,.13,0,.25A4.34,4.34,0,0,1,123.62,109.3Zm6.76-7.84-.18-.17c2.61-3,3.1-3.16,3.16-3.18l.07.18,0,0h0l-.09.05-.44.38A36,36,0,0,0,130.38,101.46ZM126,108.89l0-.24.79-.07a7.45,7.45,0,0,1,3.45,1l-.13.21a8.64,8.64,0,0,0-1-.49,6.45,6.45,0,0,0-2.29-.48Zm2.13-2.21-.23-.1c.51-1.17.79-1.85.94-2.23s.18-.47.18-.47l.25.06s-.24,1.33-.27,1.72a8.28,8.28,0,0,1-.42,1.48l-.24-.09a8.57,8.57,0,0,0,.41-1.41l.08-.6c-.16.4-.39.93-.7,1.64Zm2.81-11.51c0-.55-.28-1.78-2.22-3.63l-.08-.07h0l.16-.18.1.09c2,1.86,2.28,3.16,2.28,3.79l-.06.45-.23-.1v-.08Zm.39,13.16.14.2.11.15h-.25v0l-.12-.12h0a2.51,2.51,0,0,0-1.26-.22l-.6,0,0-.25.62,0A2.71,2.71,0,0,1,131.32,108.33Zm1.32-1.45.11.1.18.19h-.25l-.13-.07-.06,0a4.27,4.27,0,0,0-1.18-.11c-.29,0-.65,0-1.07,0l0-.25c.43,0,.79,0,1.09,0A3.83,3.83,0,0,1,132.64,106.88Zm-.26-1.25.19.05.21,0-.15.16,0,0h0l-.11,0h-.09c-.42,0-1.56.27-4.09,2l-.15-.21C130.7,105.93,131.86,105.63,132.38,105.63Zm-1.45,3.46h0l0,.26h0c-.16-.07-.88-.35-1.79-.66a13.08,13.08,0,0,0-2.54-.66v-.25A24.91,24.91,0,0,1,130.93,109.09ZM123.41,108c.1-.22.17-.41.21-.51l0-.07.23.08,0,0A3.45,3.45,0,0,1,123,109l-.14-.21A2.21,2.21,0,0,0,123.41,108Zm9.36-3.56a.3.3,0,0,1,.07.11l-.19,0-.05,0h0l-.05,0-.13,0c-.35,0-1.24.25-3.27,1.58L129,106c2-1.33,3-1.62,3.4-1.62A.48.48,0,0,1,132.77,104.44Zm.8-10.68,0,0,.16.19,0,0-.09.1,0,0c-.08.1-.21.27-.4.55a37.73,37.73,0,0,0-2,3.58l-.22-.12C132.79,94.57,133.45,93.87,133.57,93.76Zm-4.58,16h0l-.06.24-.16,0a23.86,23.86,0,0,0-3.09-.43l0-.25A25,25,0,0,1,129,109.77Zm5-13.19a1,1,0,0,1,.22-.12l.08.22v0h0l-.13.08-.58.45a21.13,21.13,0,0,0-2.67,2.94l-.19-.15A14.86,14.86,0,0,1,134,96.58Zm-1.44,3.78.35-.24.12-.09.15.2a1.48,1.48,0,0,1-.19.14c-.29.2-1,.68-2.75,1.83l-.14-.21C131.45,101.13,132.19,100.63,132.59,100.36Zm.95-5.36,0,0,.05-.1.23.09-.05.11a33.62,33.62,0,0,1-2.48,3.73l-.2-.15A40.84,40.84,0,0,0,133.54,95Zm.75,7.07h0l.38.05-.09.24h0l-.06,0-.25,0h0c-.56,0-1.92.25-4.28,2.1l-.15-.2C132.24,102.35,133.66,102.07,134.29,102.07Zm-4.44,1.35a8,8,0,0,1,2.63-1.94.73.73,0,0,1,.2-.06l0,.25-.14,0-.09,0-.38.19A10.42,10.42,0,0,0,130,103.6Zm-.46,1.57a7.91,7.91,0,0,1,2.55-1.21.77.77,0,0,0,.2-.07l.09.23h0a7.83,7.83,0,0,0-2.71,1.26Zm-4.93,4.45-.28,0a6.83,6.83,0,0,0,1.48-4.08v0l.16,0h.09v.15A7.09,7.09,0,0,1,124.46,109.44Zm1.8-5,0-.07h0l.2-.08a9.81,9.81,0,0,1,.64,3.39h-.26a10.25,10.25,0,0,0-.31-2.36A7.47,7.47,0,0,0,126.26,104.44Zm-1.33,1.82h0Zm0,0Zm1.3-.39c0,.79-.15,2.77-1,3.7l-.28-.06c1-.79,1.07-3.24,1.08-3.83v-.36h.26v.24S126.23,105.72,126.23,105.88Zm-3.31,1.71a6,6,0,0,1-.93,1.51l-.31,0a3.85,3.85,0,0,0,.69-.94,5.82,5.82,0,0,0,.31-.62l.07-.16.24.08Zm-18-5.19a3.32,3.32,0,0,0-.74,1.37l-.15,0c.44-1.49,1.22-1.76,1.24-1.76l0,.15-.11,0Zm2.11,3.17.16,0a7.74,7.74,0,0,0-.13.91l-.15,0A7,7,0,0,1,107.06,105.57Zm-2.2-3a5.72,5.72,0,0,0,2.28-2l.13.08a6,6,0,0,1-2.36,2.11Zm-1.77,3.55.09.13-.68.54a3.1,3.1,0,0,1-1.37.32v-.15l.56-.06a1.54,1.54,0,0,0,.71-.23Zm.63-1.65.08.13c-.73.47-1.34,1.61-1.69,1.84a6.85,6.85,0,0,1-1.15.37l0-.15,1.11-.36a6.33,6.33,0,0,0,.77-.92l-1.14.57c-.43.19-.88,0-1.29.47l-.11-.11c.47-.52,1-.33,1.34-.5l1.22-.63.28-.16h0Zm3.53-.06h.16l-.07.86h-.15Zm-1.61,4.22.12.11a4,4,0,0,1-2.41,1.24h-.09v-.15h.09a2.92,2.92,0,0,0,1.58-.6A4.91,4.91,0,0,0,105.64,108.58Zm-4.9-10.43a2.81,2.81,0,0,0,.33,1.23l-.13.08a2.82,2.82,0,0,1-.36-1.31l.1-.59h0l.15,0Zm4.76,6.27h.15v1.1h-.15Zm-.79-10.15-.14-.07a6.1,6.1,0,0,0,.49-2.23h.15A6,6,0,0,1,104.71,94.27Zm0,14.5a14.93,14.93,0,0,1-2.45.49l0-.16a15.12,15.12,0,0,0,2.43-.48Zm14.74,5.53h0l.11-.08c.69.41.77.42,1.41.76l.09,0-.75,1,0,.06-.06,0a12.93,12.93,0,0,1-2.55-1.8l0,0h0l.35.18.07,0a12,12,0,0,0,2.09,1.44l.6-.79C120.27,114.76,120.18,114.74,119.46,114.3ZM108.78,106a2.84,2.84,0,0,1-.32,1.19l-.14-.07a2.66,2.66,0,0,0,.31-1.12Zm-.44.13-.15,0,.06-.43h.16ZM102,90.72l-.15.06a3,3,0,0,1-.2-1v-.2l.15,0v.18A2.77,2.77,0,0,0,102,90.72Zm12,17.13-.15,0,.19-1.46.15,0Zm-4.57-1.69c-.26.62-.38.65-.45.66v-.13l0,0h0l0,0a2,2,0,0,0,.27-.52Zm7,5.45h.2l.41.44.17.18.19.21-.18,0h-.07ZM107.17,110l.1-.18.6-.62.28-.22.14-.18,0-.07h0l-1.81.06h0l0,0-.41.47-.63.54a19.34,19.34,0,0,0-2,.44l-.79.64-.09-.7.23-.5.09-.13h-.15s-.7,0-1.1,0h-.1l.38-.69a2,2,0,0,1,1-.77l.84-.24a8.08,8.08,0,0,0,3.39.57c1,0,1.76-.08,1.76-.08v-.16s-.26,0-.67,0l.42-.53-.47-.53-.32.14a20.09,20.09,0,0,0,.19-2.16h-.16c-.07,1.19-.13,1.78-.17,2.08l-.06.24,0,.18v.06l.45.53c-.26,0-.57,0-.91,0l.35-.51-.48-.53-.15,0-.11-.27a4.11,4.11,0,0,1-.32-1.25v-.14a6.69,6.69,0,0,1,.75-1.58l.14-.57.53.77,0,.14.09-.12.51-.51.58,1.51.06.16.09-.15a5.51,5.51,0,0,1,.64-.83,3.2,3.2,0,0,1,.44,1.39V106a2.18,2.18,0,0,1-.8,1.21,3.86,3.86,0,0,1-.67.36l-.2.07.2.07,1.16.31.37.09h0l-1.17.36,0,.15s1,.1,1.43.1h.25l.43.31.48-.53-.48-.54-.36.19-.18-.72-.2-.57a12.23,12.23,0,0,1,2,1.64l.11-.11a14.4,14.4,0,0,0-1.74-1.51l.37,0,.44,0,.2,0,.07,0a6.41,6.41,0,0,1,1.23,1.16l.13-.1a6.76,6.76,0,0,0-1.31-1.22l-.2-.49-.16-.42.76.61a3.07,3.07,0,0,0,.88.58h0a1.51,1.51,0,0,1,.36,1,2.19,2.19,0,0,1-.19.86h.18a2.41,2.41,0,0,0,.16-.85,1.59,1.59,0,0,0-.41-1.11,4.77,4.77,0,0,1,.34-.79l.28-.55c.16.3.54,1,.58,1.16a4.61,4.61,0,0,1,.08,1.06,2.63,2.63,0,0,1-.42,1l0,0h.19a2.25,2.25,0,0,0,.42-1,4.74,4.74,0,0,0-.08-1.11l0-.1-.14-.27-.47-.94-.07-.13-.07.13s-.26.46-.46.89l-.12.25a1.5,1.5,0,0,0-.12.36,4,4,0,0,1-.51-.36,3.4,3.4,0,0,1-.3-.23l0,0-.52-.41-.34-.21-.1.11.18.51,0,.08.07.17.12.29h-.61l-.48-.09-.31-.09-.12,0,0,.12a2.74,2.74,0,0,0,.26.82l.15.65,0,.43h-.19c-.27,0-.71,0-1-.07l1.19-.37-.17-.08-.66-.2-.64-.14-.28-.09.52-.29a2.13,2.13,0,0,0,.71-.89l.09-.24.06-.17,0-.19a3.48,3.48,0,0,0-.52-1.56l0-.08-.07.07a5.38,5.38,0,0,0-.65.79,8.73,8.73,0,0,0-.59-1.46l0,0,0,0-.52.45,0,0a4,4,0,0,0-.27-.39c-.17-.23-.34-.43-.34-.44l-.12-.13,0,.18a4,4,0,0,1-.16.71,6.18,6.18,0,0,0-.75,1.6v-.15a8.76,8.76,0,0,0-.09-1.38l-.6-.78c.5-.3,1.13-.7,1.32-.85.36-.3.46-1.26.47-1.46l0-.05.27-.27.25-.24.3-.3-.07-.13-.23,0-.25.06-1.08.25-.87.49-.2-1-.1.12a13.61,13.61,0,0,1-1.06,1.09,2.56,2.56,0,0,0-.5.83l.18-.48c.24-.36,1.18-1.39,1.31-1.59a3.4,3.4,0,0,1,.67-.37,4.74,4.74,0,0,0,.76-.41,3.49,3.49,0,0,0,.42-.78,4.68,4.68,0,0,1,.34-.69l.13-.25.2-.39,0,0-.06,0-.16-.06-.31-.11-.17.05-.7.26-.06-.52c-.06-.3-.19-.85-.19-.85l0-.13-1.15,1v-.29l.09-.52L107,93.84a5.72,5.72,0,0,0,.09-1.33c0-.58,0-1.15,0-1.21l.25-.83.06-.2-.18.11a9.32,9.32,0,0,1-.92.48l-.58.57L105.18,90l-.06.27-.31,1.15-.63.78-1-.54.54-.32.33-.52.27-.54L105,90l.13,0-.11-.08-.49-.26-.67-.06V88.8l-.45-.9-.07-.09-1,1.46-.22-.35-.16-.25-.11-.18h0l-.06.09s-.22.28-.45.63a3.12,3.12,0,0,0-.57,1.37,6.48,6.48,0,0,0,.56,1.89l-.09.27-.14-.06-.46-.45-.11-.1v.15s-.07.74-.07,1.11a3.6,3.6,0,0,0,.34,1.08h-.39l.06.12.09.14h0a21.5,21.5,0,0,0,1.18,1.82l.18.14-.09,0-.46.26-.17.49,0,.16-.75-1-.07.45-.57-.33-.38-.34-.24-.35L99,95.94,99,96.1a2.82,2.82,0,0,0-.14.77v.18l.17.89h-.91l0,.14a1,1,0,0,1,.46.51,13.8,13.8,0,0,0,.89,2.34,2.68,2.68,0,0,0,1.2.58l.64.2,0,.15.48.53.34-.16.19.45.13.41-.3-.17-.59-.28-.09,0,0,.08.16.56.2.51-.93-.28H99.39l0,.1.31.87.6.6-.34.61-.26,1.06,0,.1.53,0-.14.25v.15a3.8,3.8,0,0,0,.14.8l0,.14.09-.1.36-.33.65-.32a9,9,0,0,0,1.77-.24l.65-.61.25-.34,0,0,.28.46v.09l0,.18-.62.11-1,.37-.14.07.71.35-.68.19a2.16,2.16,0,0,0-1,.82c-.25.33-.35.76-.46.77l-.07.08.05.08.32,0,1,0-.18.46.13.87,0,.14.11-.1a6.4,6.4,0,0,1,.86-.72c.27-.17,1.66-.29,2-.42a5.11,5.11,0,0,0,1.08-1l1.59-.06a4.1,4.1,0,0,0-.88.85l-.18.36.05,0,.08,0Zm1.12-2.25-.31.38-.33-.38.33-.37Zm-4.5.09h0l-.62-.3.63,0a3,3,0,0,1,1.25.19l.17.12,0,0,.15-.05s-.19-.45-1.6-.44l-.63,0,.08,0,.51-.17.7-.13.37.21.48-.53-.48-.53-.41.26-.14-.22v-1h-.16V106l-.2.18-.81.89a8.6,8.6,0,0,1-1.73.25,1.79,1.79,0,0,0-1,.59l-.1-.63v-.11l.27-.32,0-.15-.59.06.23-.92.36-.65a2.23,2.23,0,0,1,1-.38l.68.13.23,0a2,2,0,0,0,1-.64l-.13-.09-.22.22a2,2,0,0,1-.68.37l-.19,0-.39-.09h0A4.2,4.2,0,0,0,100,104l-.26,0-.09-.27h1.21l.65.18.44.18.24.11L102,104l-.15-.26-.15-.37,0-.09a1.51,1.51,0,0,1,1,.53l.25.44.15,0a1.63,1.63,0,0,0-1.44-1.09l-.08-.26.45.25.45.27.16.1,0-.18a4.68,4.68,0,0,0-.41-1.17l0-.22-.45-.53-.19-.31-.15-.15,0-.78h-.16l0,.73-.22-.07-.6-1.07v-.39a1.22,1.22,0,0,0-.54-1.14V98l-.29-.69a2.5,2.5,0,0,0-.52-.5L99,97l.09.07.38.4.25.58v0L99.19,98c0-.16-.13-.63-.17-.92l0-.16.09-.56.16.23.5.39.36.2.21.2.11.13.06-.41.76,1h0l.25.81a1.8,1.8,0,0,1-.13.67l.14.06a1.9,1.9,0,0,0,.15-.73,1.5,1.5,0,0,0-.39-1l0-.32.11-.39.33-.19.11.47.43,1.18-.12,2.39a3.69,3.69,0,0,0,.38.89c.19.38.38.73.38.73l.15,0v-1.47c0-.37-.39-1.09-.38-1.39v0l.09-.57.09.15.33.41.27.36.2.34.07.12.54-1,0,0L103.7,99l-.62-.71a9.88,9.88,0,0,1-.24-1.15v0l0,0-1-.6a9.2,9.2,0,0,1-.71-1.05l-.26-.42a18.14,18.14,0,0,1,1.67,1.4l.11-.11a18.1,18.1,0,0,0-2-1.63h.24l.48.28.68.39a5.67,5.67,0,0,1,.86.42l.55.33h.08l.51-.67,0-.1-.42-.59-.39-.57,0-.34c0-.54.06-1.49.07-1.83l.85.46c0,.18-.09.74-.12,1.37a8.48,8.48,0,0,1-.22-.94c-.12-.5-.25-.64-.27-.65l-.11.12.06.1.17.47a6,6,0,0,0,.36,1.31h0v.43h.16v-.45h0a13.94,13.94,0,0,1,.13-1.75,4,4,0,0,0,.69-.86l.25-.91.35,1a4,4,0,0,1,.1.87c0,1.77-1.39,2.51-1.54,3l0,.29,0,.42-.26-.09-.48.53.48.53.33-.15v.1l.22.44c0,.32.07.7.09,1.19h.16c0-.44-.06-.8-.09-1.1h.09l.48-.53-.13-.38.91-.79a12.32,12.32,0,0,0-.79,2.85l.16,0a12.32,12.32,0,0,1,.78-2.83l.13.58a3.33,3.33,0,0,1,.06.59v.11l.1,0,.83-.32.09,0,.26.07.07,0-.27.52a5.41,5.41,0,0,0-.36.73,4.37,4.37,0,0,1-.39.74,4.11,4.11,0,0,1-.72.38,2.5,2.5,0,0,0-.72.42c-.12.17-1.07,1.21-1.32,1.59l-.26,1-.36.52.48.53.48-.53-.37-.52.14-.36a2.31,2.31,0,0,1,.44-.73l.81-.81a8.3,8.3,0,0,1-.67,1.49c-.31.44-.32.49-.33.54h.16a3.12,3.12,0,0,1,.29-.45,9,9,0,0,0,.74-1.65l.15.76.1-.07.91-.54,1.26-.29-.2.18-.47.59-.4,1.34c-.19.14-.84.55-1.34.86l-.1-.09,0,.14-.51.3-.3.8.12.35v.14s0,.19.06,1l.16,0c0-.51-.06-.76-.06-.88l0-.12.42-.64.22-.66.15.16.32.46a9.64,9.64,0,0,1,.08,1.34l0,.45-.07.79.08.49.42.48,0,0v.11l.34.51A8,8,0,0,1,103.79,107.86Zm.72-1.12.32-.37.32.37-.32.37Zm-4.63-2.29-.13-.32.21,0a3.11,3.11,0,0,1,1.2.33l.33.18a2.44,2.44,0,0,0-1,.38Zm.12-4.29c-.23-.26-.1-.61-.31-.91a2.57,2.57,0,0,0-1-1.16h.47c1.09.09,1.15.71,1.16,1.19v.28l0,.2c.12.16.35,1,.66,1.12s.31,0,.47.22l.16.25-.26.21-.65-.2a2.89,2.89,0,0,1-1.12-.53,13.09,13.09,0,0,1-.87-2.3l-.22-.35c.71.27.89.9,1.08,1.15s0,.57.32.92a6.47,6.47,0,0,0,.7.69l.1-.12A7.29,7.29,0,0,1,100,100.16Zm1.73,1.33.32.37-.32.38-.32-.38Zm1-4.34a9.77,9.77,0,0,0,.24,1.13,5.06,5.06,0,0,0,1.17,1.22l-.34.61-.14-.22-.33-.42-.26-.36-.2-.34-.12-.21,0,.24s-.06.49-.12.79v.08c0,.38.39,1.09.38,1.39v1.15l-.23-.44a6.49,6.49,0,0,1-.37-.82l.13-2.39L102,97.31l-.11-.53,0-.09Zm-2.08-4.44c.29.88,1.14,1.27,1.33,1.57l.18.53v.08l.15,0v-.11l-.21-.62c-.28-.39-1.15-.77-1.35-1.67l.22.22.29.16.46.39.21-.06,0,.17.47.54h.06l.33.62.12.94-.77-.35-.64-.38-.51-.29-.36-1.09Zm.76.05.32-.38.31.3v.19h0l0,0-.28.24Zm.44-4,.44.69a5.37,5.37,0,0,1,.31,1v.13c0,.34-.41.66-.54,1.85l-.34-.15-.28.1a6.54,6.54,0,0,1-.52-1.76A4.56,4.56,0,0,1,101.81,88.76Zm1.38-.48a7.83,7.83,0,0,1-.58,1.71l-.2-.57Zm1.6,1.6-.39.19-.26,0-.68.22a4.25,4.25,0,0,0-1.12,1.66l-.09.57-.08.3v-.11a5,5,0,0,1,.54-2h0a3.25,3.25,0,0,1,1.12-1l.69,0,.22.11Zm-.59.33-.29.59-.24.43-1.2.79a4.32,4.32,0,0,1,1.09-1.63l.58-.19h.06Zm-2.06,2.72,0-.07,0,.07Zm.53.47-.32.38L102,93.4l.32-.37Zm.45-1.61s-.08,1.28-.08,2l0,.38.42.64.39.52v.06l-.39.51h0l-.29-.14L103,95.6l-.12-1.08-.33-.64.26-.48-.48-.53h0v-.06l.24-.67.56-.41Zm.35-3.44.21.45v.78a3.18,3.18,0,0,0-1,.86v-.07l0-.17a7.38,7.38,0,0,0,.7-2Zm3.59,2.27-.13.43a2.2,2.2,0,0,0-.68,1.41,4.83,4.83,0,0,1-.44,1.69c-.09.31-.92.82-1.31,1.51l-.2.68,0-.56,0-.25c.07-.35,1.55-1.2,1.55-3a3.94,3.94,0,0,0-.1-.87l.17-.25.4-.36Zm-2.88,6-.32.38-.32-.38.32-.37Zm.47.1.33.38-.33.37-.31-.37Zm.17-.48v.36l-.16,0-.19,0v-.2l.19-.7c.36-.65,1.17-1.11,1.32-1.53a4.94,4.94,0,0,0,.44-1.74,1.84,1.84,0,0,1,.48-1.11c0,.15,0,.65,0,1.16a6.26,6.26,0,0,1-.07,1.26L105,95.64Zm-1.14,6.22.32.38-.32.37-.32-.37Zm1,1.49.13-.27h0l.45-.27v0l-.16.58-.4.57-.1-.27Zm2.18,4.22-.32-.37.32-.38.32.38Zm4.34-.06.32.38-.32.37-.32-.37Zm-5.08-2.36v0a4.2,4.2,0,0,0,.33,1.31l.12.29-.11.14-.37-.41-.06-.41.07-.75Zm9.74,6.62-.08,0-.11,0-.7-.7h.22l.76.77Z" transform="translate(0 0)"/><path class="cls-10" d="M117.41,92.75l-.35.24,0,0-.13-.18V90.51h-.7v-.43h.7v-.69h.45v.69h.7v.43h-.7Zm-.35.24Zm2.56-13.3-.19,0,.82-1.55.19,0,.25,1.73-.2,0-.07-.52-.56-.1Zm.32-.64.46.08-.06-.48,0-.35-.13.3Zm-3.34.56h.19V78.14h.45V78h-1.09v.19h.45Zm-2.78.24-.31-1.63.51-.09.21,0,.18,0,.14.14.08.22,0,.37-.37.21-.35.06.13.67Zm-.09-1.47.1.58.35-.06.24-.12,0-.24-.08-.16-.13-.08-.17,0Zm5.41-.43H119l-.07,1.66h.18Zm-1.53,1.66h-.18V78H118l.28,0,.15.16,0,.25-.09.3-.29.15.11.08.15.23.24.45h-.23l-.18-.35-.14-.22-.09-.12-.08,0h-.31Zm0-.93H118l.2,0,.1-.1,0-.15-.07-.19-.23-.08h-.43ZM115,79.6h-.19l.4-1.69.19,0,.69,1.62h-.21l-.2-.49-.57,0Zm.15-.7.47,0-.18-.45-.13-.33,0,.32Zm7.69.82-.16,0-.16,1.66.77.06,0-.19-.61,0Zm4.56.68.09.18,0,.26-.16.26-.3.08.07.11.07.24.08.5-.2-.06,0-.37,0-.25-.06-.13,0-.07-.09,0-.18-.05-.21.71-.15,0,.46-1.6.53.15Zm-.09.4v-.21l-.17-.13-.37-.1-.16.53L127,81l.18,0,.12-.07Zm-1.15-.56,0-.19-.88-.14-.27,1.64.91.14,0-.19-.74-.12.09-.55.67.1,0-.19-.68-.11.08-.5Zm-2.65,1.21h.16l.16-1.65-.16,0Zm1.36-.92-.14.14.15.16,0,.26-.06.21-.1.15-.14.07h-.2l-.47,0,.16-1.66.45,0,.23.07.11.17,0,.22Zm-.23.28-.17,0-.29,0,0,.57.3,0h.12l.1,0,.06-.09,0-.13,0-.17Zm.13-.47,0-.14-.07-.1-.19,0-.24,0-.05.5.27,0h.15l.1-.07Zm-17.45,1.55-.25-1.64-.18,0,.24,1.64Zm-1.5.44-.51-1.58.45-.14.25,0,.23,0,.24.23.18.36.07.32,0,.26-.08.19-.13.12-.2.09Zm-.28-1.45.39,1.21.29-.08.19-.1.1-.12,0-.23-.07-.31-.19-.36-.22-.13-.24,0Zm23.56.07.17.06-.1,1.73-.17-.07,0-.52-.49-.17-.3.43-.16,0Zm0,.19-.18.28-.29.41.39.14,0-.48Zm1.41,1.26-.14.31-.16.2-.16.1L130,83l-.2,0-.41-.15.57-1.57.4.14.2.1.13.17,0,.31Zm-.07-.45-.09-.23-.18-.1-.24-.09-.44,1.2.25.08.19,0,.13,0,.16-.16.14-.3Zm-21.19-1.3.27.08.25.06.14.09,0,.13,0,.14-.11.12-.19,0-.22,0-.14-.12-.08-.19-.17,0,.1.29.22.18.32,0,.26-.09.17-.2,0-.25-.08-.23-.2-.16-.31-.08-.29-.09-.07-.14.06-.18.24-.1.25.06.11.23.18,0L110,80l-.2-.16-.28,0-.25.08-.16.18,0,.24.06.2Zm-1.68.68-.14-.4.09-.66L108,80l.37.06.27.27.15.43,0,.46-.19.33-.33.15-.36-.06Zm0-.42.2.45.37.12.31-.22.06-.51-.11-.34-.2-.21-.26,0-.31.2Zm21,.06.06-.18-.91-.32-.07.18.38.13-.5,1.38.15,0,.51-1.38Zm-18.64,29.1.07.18,0,.31-.31.19-.29.06.12.55-.15,0-.3-1.35.43-.09.17,0,.16,0Zm-.08.21-.07-.13-.11-.06-.14,0-.29.06.1.48.3-.06.19-.11Zm1.08-.48.07.81,0,.36-.24.11-.18,0-.11-.13,0-.26-.07-.81h-.16l.07.81.08.35.17.18.28,0,.27-.1.13-.21v-.34l-.07-.82Zm-3.11,1.69.33.28-.17.07-.25-.21-.17-.14-.11-.06h-.07l-.08,0-.16.07.24.58-.13.06-.54-1.31.45-.19.22-.06.17.08.12.17,0,.27-.17.22.11,0Zm-.31-.33,0-.11,0-.13-.12-.13h-.19l-.32.14.18.43.29-.13Zm.89.34-.16-.43.59-.2-.06-.15-.58.2-.13-.4.62-.21-.06-.15-.75.25.44,1.29.79-.26-.06-.15Zm5.18-.5h.17v-1.41h-.17Zm-.84-1.35h-.15V111h.7v-.15h-.55Zm5.5,1-.06-.35.14-.56.34-.2.25.09.17.27.06.38-.06.39-.17.26-.25.09-.25-.1Zm.08-.35.1.41.24.15.25-.15.09-.43,0-.31-.12-.2-.18-.07-.24.14Zm-2.63-.74.46,1.44h-.17l-.13-.44h-.47l-.12.44h-.16l.43-1.44Zm.11.85-.12-.4-.07-.3-.06.28-.13.42Zm-3.58,0,.07.21,0,.18-.07.13-.12.08-.17,0-.41,0-.09-1.37.41,0,.2,0,.12.12.06.18,0,.17-.1.13Zm-.63-.15h.23l.14,0,.08-.07,0-.12,0-.12-.08-.07h-.17l-.22,0Zm.55.37,0-.13-.09-.08H112l-.25,0,0,.47.27,0h.1l.08,0,0-.09Zm5.28.33h-.41v-1.41h.39l.2,0,.17.1.13.24,0,.34,0,.28-.08.2-.1.13-.14.07Zm0-.17.18,0,.1-.07.08-.18,0-.27-.06-.34-.14-.15-.19,0h-.24v1.07Zm-2.69,0-.19.09-.17-.07-.12-.2,0-.32,0-.28.1-.21.2-.08.17.07.1.23.13,0-.14-.3-.26-.11-.24.08-.17.26-.06.39,0,.38.16.28.26.09.27-.12.15-.36-.14,0Zm6.24-1.12h-.18V111h.18ZM119.5,111h.15v-1.12L120,111h.15l.35-1.11V111h.15v-1.32h-.21l-.29.92-.07.21,0-.2-.29-.93h-.24Zm5.1-1,.16,0,.15,1.54-.17,0,0-.46-.46-.11-.22.4-.16,0Zm-.29.81.38.09,0-.42,0-.32-.12.26Zm-3,.3h.13v-1l.53,1h.14v-1.34H122v1.05l-.53-1.05h-.14Zm5.66-.39.14.07-.17,1.53-.15-.07.06-.46-.41-.21-.28.35-.14-.07Zm-.16.4-.27.34.33.17,0-.42.06-.32Zm-3.93-.19.15.29.28.12.3-.09.2-.34-.14-.06-.14.26-.22.07-.18-.09-.11-.21v-.33l.06-.27.14-.2.22-.06.18.09.09.24.14,0-.12-.32-.27-.14-.27.06-.21.24-.11.38Zm2.14.71.14,0,.23-1.1.35,1.23.15,0,.3-1.41-.15,0-.23,1.11-.35-1.24-.15,0Zm-2.55-.53h.17v-1.29h-.17Zm1.29-23.43.16.13.76-1.17-1.25.78.25.19.07.06Zm1.09,1.23h0l.15.14.89-1.07-1.33.63.08.08h0Zm-2.53-2.36.32.18.58-1.24-1.12.93.1.06h0Zm-13.83,1.57.89,1.06.43-.43Zm2.37-.51.08-.07-1.24-.77.76,1.16.17-.14.23-.18Zm1.42-1.07-1.13-.93.59,1.25Z" transform="translate(0 0)"/><path class="cls-11" d="M119,92l4.55-4.54.16.12.07.06h0l.11.12-.27.27-.24.24-2.23,2.23-1.69,1.69-.55.55h0l-.16-.44h-.08l.16-.16Zm-3.51-.32,1,1.33h.54l0,0-.13-.18-.25-.33-1.2-1.58-.16-.22-3.12-4.11-.25.15-.14.1,3.51,4.64Zm2.15.91.13-.07h0a2.91,2.91,0,0,1,.55-.13l.51-.68.16-.21,3.62-4.79-.14-.1-.13-.08-.12-.07h0L119,90.68l-.16.21-1.2,1.59-.1.13Zm-3.72.1,1.23,1v0h0l0,0,0,0,.14-.11.16-.11-.51-.4-1.78-1.43L111,89.74l-.24-.19-1-.79-.21.21-.11.14.22.17L113,91.93Zm-2.87-4.29,2.23,2.23L115,92.29l.87.87.08,0,.11,0,0,0h0l.25-.06-.85-.85-.16-.17-4.44-4.43h0l-.23.18h0l-.13.13.28.27Zm12.39,1.25-2.22,1.76-1.79,1.42-.38.3h0l.17.47h0l1.3-1,1.11-.87,3.14-2.5L125,89l-.11-.13h0l-.21-.21h0l-1,.79Z" transform="translate(0 0)"/><path d="M132.68,88.14a1.83,1.83,0,0,0-.17-.15l.26-.11.06.07A.49.49,0,0,0,132.68,88.14Zm1.12-.39h-.08a1.78,1.78,0,0,1,.48.75l.24-.11a2,2,0,0,0-.45-.74l-.08.09Zm-1.29,1,.08-.33v0a2.82,2.82,0,0,0-.25-.3l-.26.11A1.64,1.64,0,0,1,132.51,88.7Zm.54-.84h.13v.29a2.11,2.11,0,0,1,.35,1l.09-.18a.61.61,0,0,1,.12-.16,2.09,2.09,0,0,0-.52-1l-.3,0h0a.12.12,0,0,1,.05,0Zm-.73,1.44c0-.11.07-.23.11-.34a2.12,2.12,0,0,0-.28-.5Zm2.28-.1c0-.14,0-.27,0-.39l-.17.4Zm-1.48,0a2.19,2.19,0,0,1,0,.27h.21l0-.07a2.25,2.25,0,0,0-.25-1Zm.75-.51.21-.14a2,2,0,0,0-.46-.8h-.11l-.23,0h0A1.76,1.76,0,0,1,133.87,88.7Zm-33.59-1.11a2.24,2.24,0,0,0-.61,1.56h.25a2,2,0,0,1,.41-1.24l.21-.22-.19,0Zm.76.15a2.31,2.31,0,0,0-.57,1.52l.24,0h0a2.21,2.21,0,0,1,.42-1.24l.24-.25h0Zm-1,1.49.25,0h0a2.21,2.21,0,0,1,.41-1.24l.25-.26h0l-.33,0A2.26,2.26,0,0,0,100.05,89.23Zm2.51-.93,0,0-.26-.11a1.7,1.7,0,0,0-.39.5l.16.25a2.43,2.43,0,0,1,.21-.37Zm-1.71,1.11h.25a2.25,2.25,0,0,1,.41-1.25l.24-.24-.26-.1A2.25,2.25,0,0,0,100.85,89.41Zm1-.93h0l.09-.14.25-.25-.26-.11a2.22,2.22,0,0,0-.6,1.21c.23-.35.45-.63.45-.63Zm.35-.38-.26-.11-.16-.06-.26-.1-.12,0h0l-.32,0H101l-.33,0h-.1l-.19,0-.07-.09,0-.06v0c.43-1.18.79-2,1.09-2.7v-.06l.69-1.49a1.67,1.67,0,0,1,1.16-.92l0-.47v-.12c0-.43.5-.85,1.3-1.27a12.52,12.52,0,0,1,3.41-1.06,20.85,20.85,0,0,1,3.75-.3h0V79l0-.3c.24-.81,1.37-1.34,5.37-1.4h.08a16.12,16.12,0,0,1,4.11.41c.89.25,1.38.55,1.42,1v.08l0,.41h0a20.9,20.9,0,0,1,3.75.31,12,12,0,0,1,3.42,1.06c.79.42,1.26.84,1.29,1.27v.12l0,.46a1.64,1.64,0,0,1,1.16.93l.69,1.49v.06c.3.65.66,1.52,1.1,2.7v0l0,.06-.08.09h-.4l-.23,0h-.07l-.3,0h0l-.12,0-.26.11-.16.06-.26.11h0l-.05-.25.78-.31.6-.08h.32c-.4-1.09-.74-1.9-1-2.51h0a6.38,6.38,0,0,0-2.6-.6H130a3.16,3.16,0,0,1,.92,1,13.41,13.41,0,0,1,.76,2.61l-.13.39h0l0-.15a14.88,14.88,0,0,0-.79-2.75,3.48,3.48,0,0,0-1.1-1.11l-.58-.06c-.4-.1-1-.26-1.59-.46s-1-.37-1.2-.69l0-.13.23-.62a10.31,10.31,0,0,0-1.7-.37h-.48c-.9,0-2.37.06-3,.06h-.31a3.33,3.33,0,0,1-.84-.2c-.3-.12-.6-.29-.62-.62a4.15,4.15,0,0,1,.27-1,15.58,15.58,0,0,0-2.59-.21h-.2a13.71,13.71,0,0,0-2.28.17,4.54,4.54,0,0,1,.26,1c0,.33-.32.5-.61.62a3.49,3.49,0,0,1-.85.2h-.3c-.67,0-2.14-.06-3-.06h-.47a10.1,10.1,0,0,0-1.7.37l.23.62,0,.13c-.17.32-.64.49-1.2.7s-1.2.35-1.6.45l-.57.07a3.41,3.41,0,0,0-1.11,1.1,15.11,15.11,0,0,0-.79,2.75l0,.15-.14-.06-.06,0-.26-.11Zm-.73-.56,1.17.47a13.47,13.47,0,0,1,.78-2.66,3.14,3.14,0,0,1,.92-1h-.17a6.32,6.32,0,0,0-2.6.59h0c-.28.61-.61,1.42-1,2.51h.23Zm2-5.8v.11a3.91,3.91,0,0,0,.26,1.39l.24.5,0-.14a1,1,0,0,1,.67-.52,43.8,43.8,0,0,1,4.94-1.31h.48c.92,0,2.39.06,3,.06h.28l.78-.18.3-.17h0l0-.08L114,81.2h-.08c-.37,0-.65.32-1.21.37h-.16l-.33-.12h0v0l0-.08,0-.2a10.7,10.7,0,0,1-.46-1.81h-.07a20,20,0,0,0-3.68.3,12.24,12.24,0,0,0-3.35,1C103.8,81.08,103.4,81.51,103.41,81.74ZM111.89,79a8,8,0,0,0,.42,1.93c.36-.37,1.5-1.11,4.57-1.1h.2c3.26,0,4.49.72,4.89,1a10.58,10.58,0,0,0,.43-2.1v-.06c0-.19-.36-.52-1.23-.75a16,16,0,0,0-4-.4H117c-4,0-5,.65-5.12,1.21Zm7.77,2.3.55-.27h.11c.52,0,.78.35,1.24.37h.11l.19-.08,0-.2-.13-.1a3,3,0,0,0-.7-.37,6.69,6.69,0,0,0-1.15-.32A4.39,4.39,0,0,0,119.66,81.28Zm-5.31-1a3.24,3.24,0,0,0-2,.9v0l0,0,.19.08h.12c.45,0,.71-.36,1.23-.37h.11l.56.28A4.64,4.64,0,0,0,114.35,80.28ZM107.79,83l-.34-.08-.32,0c-.36.07-1.56.77-2.42,1h0l.5-.05c.4-.1,1-.26,1.56-.45A2.42,2.42,0,0,0,107.79,83Zm-.73-.27.39-.06.25,0-.13-.26c-1.18.33-2.45.73-2.86.85a.71.71,0,0,0-.58.58h0C104.78,83.91,106.55,82.88,107.06,82.76Zm-4.74.61-.53,1.13a6.86,6.86,0,0,1,2-.46l0,0-.1-.14-.23-.47-.23-.78A1.33,1.33,0,0,0,102.32,83.37Zm27.23.73c-.85-.28-2.06-1-2.43-1l-.31,0-.33.08a2.35,2.35,0,0,0,1,.51c.54.18,1.17.35,1.56.45l.51,0Zm.59-.14-.07-.2a.78.78,0,0,0-.51-.38c-.41-.12-1.7-.52-2.87-.85l-.13.26.25,0,.38.06c.52.13,2.29,1.16,2.91,1.15Zm.22-.16.2-.43a3.93,3.93,0,0,0,.29-1.46v-.12c0-.22-.38-.65-1.16-1.05a11.9,11.9,0,0,0-3.35-1,20.18,20.18,0,0,0-3.7-.3h-.06c-.14.76-.42,1.7-.42,1.7l0,.06,0,.25-.4.22h-.15c-.57,0-.85-.39-1.22-.38h-.08c-.32,0-.4.18-.43.25h0l.31.17.77.18h.29c.65,0,2.12-.06,3-.06h.49a41.1,41.1,0,0,1,4.93,1.31A1,1,0,0,1,130.36,83.8Zm2.11.76L132,83.43a1.39,1.39,0,0,0-.92-.75,3.54,3.54,0,0,1-.57,1.4l0,0A6.86,6.86,0,0,1,132.47,84.56Zm-13.61,7.11v.46L119,92v-.51Zm.16-1v-5.4h-.16v5.61Zm5.77,4.14h1.75v-.16h-1.75Zm-15.1-.16h-1.86v.16h1.86Zm5.82-2.51v-.5l-.16-.22V92Zm0-1.28V85.28h-.16v5.37Zm0,16h0l-.22-.1Zm-.16-3.42v3.07l.16.06V103.7Zm-5.66-5.35h-1.86v.16h1.86Zm4.87,8.22a1.45,1.45,0,0,1,.3.06l-.12-.06Zm4.3.55.27-.13-.27.1Zm5.93-8.61h1.75v-.16h-1.75Zm-.92,8.06h.34l0,0a2.2,2.2,0,0,1-.36,0Zm1-.22v0l.32-.2,0-.05a2.71,2.71,0,0,1-.37.21Zm-6-1.79v2.26l.16-.07V104.3Zm.7,2,.15,0h-.09ZM119,103v-.31l-.07,0C119,102.77,119,102.89,119,103Zm-8.72,3.23-.09.24c.1,0,.2,0,.3,0h1.19l-.07-.17,0-.08h-1.09Zm-2.47-5.78-.25.24v3a4,4,0,0,1,.27.39l0,0a2.18,2.18,0,0,1,0-.43Zm4.57,5.82a3.4,3.4,0,0,0,.3.23h.63l.12-.25h-1.07Zm3.11.57a3.7,3.7,0,0,1,.81.49,4.54,4.54,0,0,1,.76.82l.1.18.11-.18a3.66,3.66,0,0,1,.75-.82,4.26,4.26,0,0,1,.82-.51l.27-.1a3.2,3.2,0,0,1,1.16-.22h.58c0-.08,0-.16,0-.25h-.57a3.68,3.68,0,0,0-.58,0l-.15,0a4.26,4.26,0,0,0-.54.15l-.16.07a4.23,4.23,0,0,0-1.68,1.32,4.19,4.19,0,0,0-1.67-1.31l-.16-.06a3.5,3.5,0,0,0-.49-.14,1.45,1.45,0,0,0-.3-.06h0l.14.27a3.61,3.61,0,0,1,.63.17Zm-7.68-8.76V87.16l-1.93-1.88h22.56l-1.92,1.88V98.24h0l.07-.15.09-.12h0l.09-.24V87.26L129.08,85h-23.8l.23.22,2.07,2v9.59l.16.06.06,0,0,0-.2.39v2.74l.25-.06v-2Zm19,3.17v-3l-.06.1h-.07l-.1,0,0-.06v2.86Zm-3.74,5.29h.24l.17-.24h-.37A2.17,2.17,0,0,1,123.05,106.54Zm-1.36-.1.07-.17h-.16Zm4.34-1.33v0h0Zm-3.74,1.42h.2c0-.08.07-.16.11-.25h-.31Zm1.87-.22h-.29v.25h.23c0-.09.08-.17.11-.26h0Zm.88,0,.09,0,.1-.36h0l-.32.2ZM117,92.78V90.51h-.7v-.43h.7v-.69h.45v.69h.7v.43h-.7v2.24l.07,0,.18-.12v0l-.1,0,.1-.13V90.76h.7v-.93h-.7v-.69h-1v.69H116v.93h.71v1.69Zm0,.21h0ZM111,89.74l0-1.37-.24-.24,0,1.42Zm12.39-1.49,0,1.37.24-.19,0-1.42Zm1.38,9.83V89.16l-3.14,2.5.83-.65,2.06-1.61v10a3.25,3.25,0,0,1-1.11,2.37,3.37,3.37,0,0,1-2.13.93h-.14a13.79,13.79,0,0,1-1.7-.26s0,.06,0,.08l0,.17a16.13,16.13,0,0,0,1.73.26h.15a3.75,3.75,0,0,0,3.49-3.55V98.08Zm-9.81,4.5a15.37,15.37,0,0,1-1.67.25h-.14a3.36,3.36,0,0,1-2.12-.94,3.23,3.23,0,0,1-1.12-2.37v-10L112,91.13l1,.8-3.33-2.65V99.53a3.77,3.77,0,0,0,3.48,3.56h.16a16.68,16.68,0,0,0,1.74-.26Zm.24-9,0,0,0,0,.14-.11h0a1,1,0,0,0-.15.1Zm3,10.92c0-.06,0-.12,0-.17S118.22,104.43,118.2,104.49Zm-2.18-.06c.3.47,1.06,2,1.06,2l0,.07,0-.07S116.32,104.9,116,104.43Zm1.84.89c-.27.6-.56,1.14-.56,1.15S117.59,105.92,117.86,105.32Zm-.67,1.36.11-.21-.11.21Zm.86-1.8.09-.23Zm0,.12-.13.3Zm-2.65-1.57a4.31,4.31,0,0,1-.28-.61l-.09-.24c0-.15-.08-.3-.11-.46a4.92,4.92,0,0,1-.06-.69,4.24,4.24,0,0,0,.9,2.56c-.07-.09-.13-.19-.2-.29Zm.52-5.06c.16-.31.32-.6.46-.83h0a2.39,2.39,0,0,1-.13.21C116.1,97.94,116,98.15,115.87,98.37Zm-1.06,3.06a3.15,3.15,0,0,1,0-.41A3.15,3.15,0,0,0,114.81,101.43Zm.15-.91a3.24,3.24,0,0,0-.09.4A3.24,3.24,0,0,1,115,100.52Zm0,0a4.66,4.66,0,0,1,.16-.49c-.06.16-.11.32-.16.48Zm3.77-3.69h0l0-.08Zm-3.38,2.62c.15-.34.31-.68.47-1q-.15.28-.3.6C115.49,99.15,115.43,99.27,115.37,99.4Zm-.21.52c.06-.15.12-.31.19-.46C115.28,99.61,115.22,99.77,115.16,99.92Zm3-.76v0Zm.16,3.89c0,.28,0,.53,0,.72h0C118.33,103.58,118.32,103.33,118.3,103.05Zm-.22-3.25v0Zm-.89,6.33h0l0,0h0ZM117.06,93l.42-.29-.07,0-.35.24Zm-1.35.25a1.54,1.54,0,0,0-.48.32h0v0a1,1,0,0,1,.15-.1A1.17,1.17,0,0,1,115.71,93.24Zm3.36-.14h0l-.13-.38h0Zm1,2.89h0Zm0,0h0l-.85-2.41h0Zm-2.2-3.26.33-.07-.34.07-.27.19Zm-.83.52h0l-.36,0-.3,0,.31,0Zm-1,1.85h0l.06.17Zm3.72.66-.58.08.59-.08-.46-1.27Zm-4.28-2.08.5,1.27h0l-.1-.27h0l-.06-.14h0l-.1-.26-.06-.14h0l-.08-.22h0l-.06-.15h0l0-.09.23-.15Zm1.15,2.94h0l.54-.21Zm-15.77,19.75Zm33.4-2.07a3.11,3.11,0,0,1,.55.72l-.21.13a3.19,3.19,0,0,0-.54-.69l-.08.07a2.94,2.94,0,0,1,.58.73l-.21.13a3.19,3.19,0,0,0-.54-.69l0,.06a3.22,3.22,0,0,1,.63.79h0l-.22.13a3,3,0,0,0-.6-.74l-.05,0a2.87,2.87,0,0,1,.61.76l-.21.13a3.12,3.12,0,0,0-.57-.71l0,.06a3.18,3.18,0,0,1,.65.81l-.21.13a2.93,2.93,0,0,0-.61-.75l0,0a3.42,3.42,0,0,1,.61.77l-.21.13a3.12,3.12,0,0,0-.57-.71l0,.06a3,3,0,0,1,.66.81l-.21.13a3.14,3.14,0,0,0-.6-.75l0,0a3.06,3.06,0,0,1,.64.78l-.22.13a2.93,2.93,0,0,0-.57-.71l0,0-.1-.12,0,0h0v0l-.28-.28-.59-.35c-.41,0-1.67,0-2.22-.08l-.86-.24-.47-.58.11-.5a6.51,6.51,0,0,1-1.45.38h-.06a2.64,2.64,0,0,1-1.27-.43c-.39-.24-.71-.52-.73-.84l.33-.46.19-.12.33-.24,0,0,0,0-.4-.1c-.36-.07-.89-.15-1.58-.23-.92-.1-2.14-.19-3.61-.24h-.36l-1.55,0h-1.28q-.7,0-1.35,0h-.14a32.19,32.19,0,0,0-6,.63h0l0,0,.13.12.06,0v0l.2.13.32.46c0,.32-.33.6-.72.84a2.64,2.64,0,0,1-1.27.43h-.07a6.8,6.8,0,0,1-1.45-.38l.12.5-.47.58-.86.24c-.56,0-1.82,0-2.22.08l-.59.35L102,116v0h0l0,0-.09.12,0,0a2.71,2.71,0,0,0-.57.71l-.22-.13a3.08,3.08,0,0,1,.63-.78l0,0h0a2.89,2.89,0,0,0-.59.73l-.21-.13a3.15,3.15,0,0,1,.66-.81l0-.06a3.16,3.16,0,0,0-.56.71l-.22-.13a3.39,3.39,0,0,1,.62-.77l0,0,0,0a3.09,3.09,0,0,0-.59.73l-.21-.13a3.15,3.15,0,0,1,.66-.81l0-.06a2.9,2.9,0,0,0-.56.71h0l-.22-.13a3.34,3.34,0,0,1,.61-.76l0,0h0a2.89,2.89,0,0,0-.59.73h0l-.21-.13a3,3,0,0,1,.64-.79l0-.06a2.91,2.91,0,0,0-.54.69l-.22-.13a3.5,3.5,0,0,1,.58-.73l-.08-.07a3.24,3.24,0,0,0-.53.69l-.22-.13a3.38,3.38,0,0,1,.56-.72l-.06,0-.45.6h0l-.22-.13a3.15,3.15,0,0,1,.67-.81,3.4,3.4,0,0,1,2.38-.81h.39l-.14-.44v-.06c0-.54.61-1.09,1.55-1.09a4.93,4.93,0,0,1,1.4.29l0-.27v-.07c0-.49.5-1,1.42-1.38l.08,0,.46-.19c.18-.07.37-.13.58-.19l.65-.18.08,0,.61-.13.22,0,.55-.09.3,0,.55-.08.35,0,.67-.07.58,0,.68,0,.47,0c.68,0,1.41,0,2.19,0l1.3,0c1.13,0,2.15.07,3.1.14l.27,0,.27,0,.32,0,.39,0,.31,0c.46,0,.9.09,1.31.15l.32,0,.56.09.28,0,.45.08.28.06.66.16c1.5.4,2.39.86,2.68,1.41a1.14,1.14,0,0,1,.09.26l0,.12v0l0,.29a4.78,4.78,0,0,1,1.51-.33,1.17,1.17,0,0,1,.27,0l.32,0a1.21,1.21,0,0,1,1,1v.06l-.15.44h.4a3.42,3.42,0,0,1,2.38.81,3.15,3.15,0,0,1,.66.81l-.21.13-.46-.6Zm-1.74,1.49a11.79,11.79,0,0,1,1.61-1.71,3.18,3.18,0,0,0-2.19-.72h-.52a4.4,4.4,0,0,1-.48.71.89.89,0,0,1-.84.44h-.18c-.64,0-1.31-.25-1.42-.24l-.19.11-.1.1.33.35.77.21c.53,0,1.79,0,2.22.08A2,2,0,0,1,132.5,115.78Zm-5.91-1.69A29.12,29.12,0,0,0,130,113l.15,0a.82.82,0,0,1,.77.7l.18-.28.36-.78v0l-.33-.55a1.58,1.58,0,0,0-1-.29,4.63,4.63,0,0,0-1.54.36h-.05a2,2,0,0,1-1.6,1.42h-.05c-.61-.07-.85-.66-1.74-.65h-.25l-.1.15c0,.11.24.41.61.63a2.5,2.5,0,0,0,1.14.39Zm-17.06-1-.22-.25-.12-.08-.19.18-.54.33a3.06,3.06,0,0,1-1.19.39,2.08,2.08,0,0,1-1.59-1.54,4.8,4.8,0,0,0-1.47-.33,1.58,1.58,0,0,0-1,.29l-.33.55v0l.54,1.06a.82.82,0,0,1,.76-.7h0l.14,0a29.3,29.3,0,0,0,3.38,1.06h.05a2.54,2.54,0,0,0,1.14-.39C109.3,113.48,109.55,113.18,109.53,113.07Zm-3.39,1.4-.11-.1-.19-.11c-.11,0-.77.2-1.41.24h-.18a.87.87,0,0,1-.84-.44h0l-.1-.12-.25-.38-.12-.2h-.52a3.16,3.16,0,0,0-2.19.72,11.79,11.79,0,0,1,1.61,1.71,1.92,1.92,0,0,1,1-.67c.44,0,1.69,0,2.23-.08l.76-.21Zm-1.85-.22h.12c.62,0,1.21-.24,1.43-.24l.2.06-.07-.22c-.71-.25-1.4-.52-1.66-.58h-.1c-.26,0-.54.25-.55.75C103.76,114.16,103.94,114.24,104.29,114.25Zm7-2.59a54.85,54.85,0,0,1,6.07-.31c2.44,0,4.38.12,5.77.26a10.16,10.16,0,0,1,2.42.41l.11.12v.06l-.29.37-.14.09c.93,0,1.26.65,1.65.65h0a1.86,1.86,0,0,0,1.46-1.76v0c0-.45-.77-1.08-2.61-1.55a38.7,38.7,0,0,0-8.45-.91l-1.3,0a28.57,28.57,0,0,0-7.83.86c-1.66.5-2.36,1.15-2.36,1.57v.06a2,2,0,0,0,.54,1.32,1.43,1.43,0,0,0,.89.53,3.44,3.44,0,0,0,1.71-.8h0l-.17-.28.15-.24a3.7,3.7,0,0,1,.68-.16C110,111.83,110.59,111.74,111.3,111.66Zm18.81,1.6H130c-.27.06-1,.33-1.66.58l-.08.22.2-.06c.23,0,.82.2,1.44.24H130c.34,0,.52-.09.62-.24C130.66,113.51,130.37,113.26,130.11,113.26Zm-11.09-1,.06,0a1.23,1.23,0,0,1,.58.24h.15a3.33,3.33,0,0,1,1.32.3l.1,0-.36,1.56-.14-.06-.84-.41-.18,0V114l-.42.33-.69.09h0l-.48-.07-.35-.18h0l-.63.13-.27,0-.32-.05h0a1.08,1.08,0,0,1-.83.25l-.69-.09,0,0-.21-.16-.15-.12V114l-.09,0-.84.41-.14.07-.33-1.46,0-.11.1,0a3.3,3.3,0,0,1,1.32-.3,1.15,1.15,0,0,1,.68-.3h.13a2,2,0,0,1,.48.06l.08,0,.52.16.59-.14h.13l.68.12a3.61,3.61,0,0,1,.91-.23l.15,0Zm-1.06.45v1a2.2,2.2,0,0,1,1-.29h0l.5.16.07-.88-.1-.07-.42-.14h-.1A3,3,0,0,0,118,112.74Zm1.49,1.21h0l-.5-.23h0a2.09,2.09,0,0,0-1,.31v0a1.07,1.07,0,0,0,.63.14,1.81,1.81,0,0,0,.82-.16l0,0Zm-3.8.28.63-.14v0a2.12,2.12,0,0,0-1-.33h0l-.5.17V114h0l0,0,.19.08Zm.63-.45v-1a2.76,2.76,0,0,0-.93-.22h-.1l-.42.14-.1.07.07.88.5-.16h0A2.2,2.2,0,0,1,116.28,113.78Zm-1.94,0,.18,0v-.46l0-.44a3.33,3.33,0,0,0-1.08.24l.23,1.05Zm2.19.16a1.14,1.14,0,0,0,.59.12l.47-.09.12,0v-1.2l-.13,0-.43-.06h-.1l-.52.12Zm3.19-.46v.16l.28.08.7.34.24-1a3.17,3.17,0,0,0-1.13-.24h-.06l0,.52Zm-.3-10.81v0l-.15.07h0l-.23-.12-.07,0c0,.11,0,.23.07.34.14.63.26,1.15.26,1.15l0,.16h-.46l-.59,0a.14.14,0,0,0,0,.06c0,.05,0,.11,0,.17l-.06.16-.09.23,0,.12-.13.3v0c-.27.6-.56,1.14-.56,1.15l-.11.21h0l-.07-.16,0-.07s-.76-1.56-1.06-2c-.07-.12-.19-.26-.31-.44a4.24,4.24,0,0,1-.9-2.56,3.15,3.15,0,0,1,0-.41s0-.07,0-.1a3.24,3.24,0,0,1,.09-.4l0,0a4.66,4.66,0,0,1,.16-.49l0-.06c.06-.15.12-.31.19-.46l0-.06c.15-.34.31-.68.47-1l0,0c.16-.31.32-.6.46-.83h0v0a2.14,2.14,0,0,1-.12-.66l0,0,.16.43.12,0v.06a1.41,1.41,0,0,1,.78-.24h.07a1.37,1.37,0,0,1,1,.83l.06-.08.22-.58v0c0-.13-.11-.3-.31-.45l.53-.26c0,.08,0,.17-.08.26l0,.08h0l.13.37v0a1.29,1.29,0,0,1,0,.21,1.54,1.54,0,0,1-.44.74l0,0-.06.22a7.35,7.35,0,0,0,.2.71c.13.41.27.8.36,1.17,0,0,0,0,0,0,.11.45.36,1.15.5,1.69a3.33,3.33,0,0,1,.08.45s0,.06,0,.08Zm-1.09,1.07V104l.68,0c-.11-.47-.42-1.8-.53-2.66a11.36,11.36,0,0,0-.39-1.58h0v.11c0,.88.15,2.2.22,3.14,0,.28,0,.53,0,.72Zm-2.22.35.12.17c.25.39.74,1.38,1,1.84h0l0,0,.32-.66a6.58,6.58,0,0,0,.53-1.41v-.24c0-.8-.26-2.7-.26-3.86l0-.51a11.47,11.47,0,0,1,.3-1.42l-.19-.3-.62-.42h0l0,.11,0,.08,0,0h0v-.07l0-.16-.5.15,0,0c-.52.89-1.63,2.89-1.62,4A4.36,4.36,0,0,0,116.11,104.12Zm2-5v0h0a15.94,15.94,0,0,1,.58,2.2c0,.25.08.56.14.86l.27.26.09.06h0a17,17,0,0,0-.59-2.16c-.1-.42-.3-.89-.45-1.44Zm.86-2.77-.15.07-.53.26-.15.08,0,0h0l-.29,0-.42.07c-.34.11-.88.35-.88.35h0l-.12,0-.16-.43L115.11,94v0l.07-.29v0h0l0,0,0,0h0a1.54,1.54,0,0,1,.48-.32l.23-.11.11,0,0,0h0l.58-.08h.37l.42-.29.18-.12.13-.09h0a2.91,2.91,0,0,1,.55-.13l.34-.06h.09l.16.44.13.38.17.47.85,2.41h0l-.06.1-.12.18h-.07Zm-3.3-2.85-.24.15.5,1.27.06.15.06.17.06.15.06.15.1.25v0l.16.41.06.15.09.22h0l.54-.21.24-.1.5-.08.29,0,.82-.41.16,0,.59-.08-.46-1.27-.29-.83,0-.15-.24-.67,0-.15,0-.12-.39.09-.34.07-.27.19-.4.29h0l0,0h-.08l-.36,0-.3,0-.22,0A3.7,3.7,0,0,0,115.7,93.52Z" transform="translate(0 0)"/></g></svg>