<svg id="FBWC2023_Flags_Digital_Africa_EGY_RGB" xmlns="http://www.w3.org/2000/svg" viewBox="0 0 234.22 200"><defs><style>.cls-1{fill:#c3c3c3;}.cls-2{fill:#231f20;}.cls-3{fill:#c62f2f;}.cls-4{fill:#c69b0a;}.cls-5{fill:#fff;}</style></defs><path id="Background" class="cls-1" d="M117.11,0a70.17,70.17,0,0,1,31,6.75c37.72,18.14,51.45,72.06,86.12,93.25h0c-34.67,21.19-48.4,75.11-86.12,93.25a70.17,70.17,0,0,1-31,6.75,70.17,70.17,0,0,1-31-6.75C48.4,175.11,34.67,121.19,0,100H0C34.67,78.81,48.4,24.89,86.12,6.75A70.17,70.17,0,0,1,117.11,0Z" transform="translate(0 0)"/><g id="Flag_EGY"><path class="cls-2" d="M48.1,139.07C60.89,158,73,175.83,90.46,184.24A60.38,60.38,0,0,0,116.53,190h1.16a60.38,60.38,0,0,0,26.07-5.76c17.49-8.41,29.57-26.27,42.36-45.17q3.06-4.53,6.19-9.07H41.91Q45,134.53,48.1,139.07Z" transform="translate(0 0)"/><path class="cls-3" d="M186.12,60.93C173.33,42,161.25,24.17,143.76,15.76A60.38,60.38,0,0,0,117.69,10h-1.16a60.38,60.38,0,0,0-26.07,5.76C73,24.17,60.89,42,48.1,60.93Q45,65.46,41.91,70h150.4Q189.18,65.47,186.12,60.93Z" transform="translate(0 0)"/><path class="cls-4" d="M107.31,110l0,.18-10.81,9.8a.19.19,0,0,1-.21,0,.21.21,0,0,1-.11-.18L97.6,85.14c.07-1.77.64-3,1.69-3.55a4.39,4.39,0,0,1,3.2-.2A13.35,13.35,0,0,1,106,82.84h0a10.66,10.66,0,0,0,5.27,1.68h.53l-.27.38h-.28a11,11,0,0,1-5.45-1.74A11,11,0,0,0,101,81.57a3.17,3.17,0,0,0-1.53.36c-.89.49-1.38,1.54-1.47,3.08l-.22.14-1.46,34.64,2.41-2.15v-.3l.7-.63,0,.3,2.41-2.46h0l1-.87v.24l1.94-1.89v-.1l1-.86v.23Zm27.63-28.36a4.42,4.42,0,0,0-3.21-.2,13.35,13.35,0,0,0-3.48,1.45h0A10.65,10.65,0,0,1,123,84.52c-.2,0-.4,0-.6,0a2.27,2.27,0,0,0,.25.38H123a10.9,10.9,0,0,0,5.44-1.74c1.27-.72,4.41-2.28,6.31-1.23.9.49,1.39,1.54,1.48,3.08l.21.14,1.46,34.64-2.41-2.15,0-.36-.69-.64,0,.37-2.41-2.46v-.14l-1-.89,0,.39L129.5,112v-.29l-1-.89,0,.45-.8-.65,10,9.29a.17.17,0,0,0,.13,0H138a.21.21,0,0,0,.11-.18l-1.46-34.65C136.55,83.37,136,82.17,134.94,81.59ZM134.07,84Zm1.4,33.33,0,.36,2.41,2.15-1.46-34.64-.21-.14A6.49,6.49,0,0,0,134.07,84ZM105.66,88.51c-.26-.26-1.2-1-1.68-1.42l-1.19,26.58v.24l1.94-1.89v-.1l.94-23.41Zm22.9,0h0l.93,23.22V112l1.94,1.89,0-.39-1.18-26.43C129.76,87.56,128.82,88.25,128.56,88.51Zm2.62-2.15h0l1.2,28.05v.14L134.8,117l0-.37-1.45-32.18C132.86,84.94,131.44,86.1,131.18,86.36ZM108,91.46a16.1,16.1,0,0,1,0-1.86,14.28,14.28,0,0,1-1.38-.62l-.94,22.08v.23l1.65-1.34.28-1,.72-15A23.38,23.38,0,0,1,108,91.46Zm-5-5.1c-.26-.26-1.68-1.42-2.15-1.9l-1.45,32.25,0,.3,2.41-2.46h0L103,86.36ZM100.15,84Zm23.9,15.86,1.55,5.5-.35-8.67A23.23,23.23,0,0,1,124.05,99.81Zm-15.43,5.5,1.55-5.49a21.87,21.87,0,0,1-1.2-3.16ZM98,85l-.22.14-1.46,34.64,2.41-2.15v-.3L100.15,84A6.46,6.46,0,0,0,98,85Zm30.54,25.83L127.61,89a14.28,14.28,0,0,1-1.38.62,19.45,19.45,0,0,1-.32,4.28l.72,15.07.28,1,.85.69.8.65ZM113.1,117.7l.13-.58h0l-.46,2.09h.45l.25-1.14Zm1.41-6.38h0l-1.07,4.89h0Zm.22-1,.72-3.27h0l-.72,3.28Zm-9.35,7.86,1.6-5.68-.17-.6a.2.2,0,0,1,0-.18l.47-.49,1.42-5-.17-.41.32-.13,1.5-5.31c-.08-.17-.16-.33-.23-.49l-1.55,5.49-1,3.64-.28,1,0,.18L105,118.05Zm6.55-12.89-.35.33.35,3.22a.18.18,0,0,0,.14.16h.05a.23.23,0,0,0,.15-.07l1.2-1.57-.12-.39.37-.11,0,.12.71-.93-.27-.27-1.93,2.53Zm-.05-.48-.24-2.28c-.07-.11-.15-.2-.21-.31s-.17-.3-.26-.45l.36,3.38ZM126.63,109l-1-3.64-1.55-5.5-.23.48,1.5,5.33.32.13-.17.41,1.42,5,.47.49a.2.2,0,0,1,0,.18l-.17.6,1.6,5.68.35-.09-2.28-8.1Zm-7.14,1.33-.72-3.28h0l.72,3.28Zm1.3,5.93-1.07-4.89h0l1.27,5.79-.2-.9Zm.2.9.13.59-.37.37.25,1.14h.45l-.46-2.09Zm-10.32.09a.17.17,0,0,0-.18.09l-1,1.65.41,0,.67-1.15.41,1.26.42,0-.6-1.8A.16.16,0,0,0,110.67,117.2Zm-1.26-9.65h0a.19.19,0,0,0,.13,0l2-1.92.35-.33,1-1-.25-.29-.81.77-.35.34-2,1.92-.58-1.42h0l-.32.13.17.41.52,1.27A.24.24,0,0,0,109.41,107.55Zm14.14,9.65a.16.16,0,0,0-.16.13l-.6,1.8.42,0,.41-1.26.67,1.15.41,0-1-1.65A.17.17,0,0,0,123.55,117.2Zm1.73-11.59h0l.32.13-.17.41-.52,1.27a.24.24,0,0,1-.14.12h0a.19.19,0,0,1-.13,0l-2-1.92-.35,3.22a.18.18,0,0,1-.14.16h-.05a.23.23,0,0,1-.15-.07l-1.2-1.57-1,3.38,1.64,2.49.65-3.58a.21.21,0,0,1,.15-.15.18.18,0,0,1,.19.08l1.52,2,.67-2.36a.21.21,0,0,1,.13-.13.19.19,0,0,1,.19,0l2,2,.47.49a.2.2,0,0,1,0,.18l-.17.6-1,3.82,1.52,2.14-.4.08-1.23-1.71-.61,2-.26,0-.16,0,.73-2.43L124.31,114l-.82,2.49a.18.18,0,0,1-.16.13.19.19,0,0,1-.18-.09l-1.54-2.38-.62,3h0l-.2-.9h0l.52-2.47-1.59-2.42h0l1.27,5.79.13.59-.37.37-.74.73-1.16-.85-1.08-7.79.45,7.75-1.11,1.41L116,117.91l.46-7.75L115.37,118l-1.16.85-.74-.73-.37-.37.13-.58h0l-.62-3-1.54,2.38a.19.19,0,0,1-.18.09.18.18,0,0,1-.16-.13l-.82-2.49-1.48,2.45.73,2.43-.16,0h0l-.26,0-.61-2-1.23,1.71-.4-.08,1.52-2.14-1-3.82-.17-.6a.2.2,0,0,1,0-.18l.47-.49,2-2a.19.19,0,0,1,.19,0,.21.21,0,0,1,.13.13l.67,2.36,1.52-2a.18.18,0,0,1,.19-.08.21.21,0,0,1,.15.15l.65,3.58,1.64-2.49-1-3.38-.12-.39.37-.11,0,.12,1,3.34h0l.72-3.27c.5.45,1,.88,1.55,1.3l0,0h.11l0,0c.54-.42,1.06-.86,1.56-1.31l.72,3.28h0l1-3.34-.72-.93c.09-.1.19-.18.27-.28l1.94,2.54.33-3-1-1,.24-.3.82.78.24-2.3c.07-.1.14-.19.2-.29s.18-.31.27-.47l-.36,3.4,2,1.92Zm-12.78,8-.64-3.49-1.49,2a.2.2,0,0,1-.19.08.19.19,0,0,1-.15-.14l-.67-2.41-2.15,2.2,1.1,4,1.49-2.45a.2.2,0,0,1,.17-.09h0a.21.21,0,0,1,.16.13L111,116Zm.93,2.59h0l1.08-4.89h0l-1.59,2.42Zm8.29-2.59,1.53,2.38.82-2.5a.21.21,0,0,1,.16-.13.18.18,0,0,1,.19.09l1.49,2.45,1.1-4-2.15-2.2-.67,2.41a.19.19,0,0,1-.15.14.2.2,0,0,1-.19-.08l-1.49-2Zm11.14,7h0a.18.18,0,0,1-.17-.11c-.08-.16-.35-.27-.61-.37a1.82,1.82,0,0,1-.7-.42,1.28,1.28,0,0,1-.28.16,1.77,1.77,0,0,1,1,.27,1.2,1.2,0,0,1,.44,1,.35.35,0,0,0,.43.34c.37-.07.59.15,1,.64a3.74,3.74,0,0,0,.54.59,3.06,3.06,0,0,0-.18.56c-.12.49-.22.91-.79,1.1a.36.36,0,0,0-.24.34c0,.94,0,1.38-1.13,1.58h0c-3.17.89-8.63,1.41-15,1.41h0c-3,0-5.94-.13-8.48-.36a36.3,36.3,0,0,1-6.44-1.05h0c-.73-.13-.94-.36-1-.53a2.3,2.3,0,0,1-.14-1,.36.36,0,0,0-.24-.34c-.57-.19-.67-.61-.79-1.1a3.06,3.06,0,0,0-.18-.56,3.32,3.32,0,0,0,.54-.59c.38-.49.6-.71,1-.64a.32.32,0,0,0,.3-.07.33.33,0,0,0,.14-.27,1.18,1.18,0,0,1,.44-1,1.71,1.71,0,0,1,1-.27,1.28,1.28,0,0,1-.28-.16,1.82,1.82,0,0,1-.7.42c-.26.1-.53.21-.61.37a.18.18,0,0,1-.17.11h0a.19.19,0,0,1-.17-.1,1,1,0,0,1,0-.16,1.8,1.8,0,0,0-.11.43,1.91,1.91,0,0,0-1.28.92c-.28.36-.43.52-.59.54l-.21,0a.37.37,0,0,0-.36.31.36.36,0,0,0,.27.39l.2,0c.07,0,.11.17.2.51a2,2,0,0,0,1,1.51,2.44,2.44,0,0,0,.23,1.15,1.93,1.93,0,0,0,1.51.89c3.19.91,8.69,1.43,15.1,1.43s11.91-.52,15.14-1.43a1.9,1.9,0,0,0,1.48-.89A2.35,2.35,0,0,0,134,125a2,2,0,0,0,1-1.51c.08-.34.12-.46.19-.51l.2,0a.36.36,0,0,0,.27-.39.37.37,0,0,0-.36-.31l-.21,0c-.16,0-.31-.18-.59-.54a1.91,1.91,0,0,0-1.28-.92,1.8,1.8,0,0,0-.11-.43,1,1,0,0,1-.05.16A.19.19,0,0,1,132.86,120.67Zm-16,.63h.54a2.38,2.38,0,0,1,0-.71h-.61A2.1,2.1,0,0,1,116.84,121.3ZM103.21,118s0,0,0,.06a.84.84,0,0,1,.47-.06,31,31,0,0,0,5.27,1.21h0a24.69,24.69,0,0,0,5.81.26.81.81,0,0,1,.72.66c0-.07,0-.14-.06-.27a.17.17,0,0,1,0-.19.17.17,0,0,1,.16-.11h.06a1.13,1.13,0,0,0-.89-.48h0a11.92,11.92,0,0,1-1.5.08h-.45c-.44,0-.89,0-1.34-.07l-.42,0-1.08-.11-.41,0-.36,0-.16,0h0l-.26,0c-.64-.09-1.26-.2-1.84-.33l-.4-.08-1.12-.28-.35-.09-1.25-.37h0a1.25,1.25,0,0,0-1,.25,1.61,1.61,0,0,1,.31,0A.18.18,0,0,1,103.21,118Zm0,1.94c1.36.38,3.35.76,4.64,1a1.24,1.24,0,0,1,0-.39c-1.29-.23-3.2-.61-4.51-1a1.91,1.91,0,0,1-.32-.17,1.24,1.24,0,0,1,0,.16v0a.42.42,0,0,1-.11.15,1.28,1.28,0,0,0,.28.16l.06,0Zm11.57,1.24a1.11,1.11,0,0,1,0-.28,1.62,1.62,0,0,1-.35.09,20.82,20.82,0,0,1-4.59-.11,1.06,1.06,0,0,1-.11.38,27,27,0,0,0,3.1.19,12.07,12.07,0,0,0,1.65-.09,2.11,2.11,0,0,0,.29-.06A.53.53,0,0,1,114.77,121.22Zm14.07-3.08-1.12.28-.4.08c-.58.13-1.2.24-1.84.33l-.26,0-.16,0-.36,0-.41,0-1.08.11-.42,0c-.45,0-.9.06-1.34.07H121a11.12,11.12,0,0,1-1.45-.08h0a1.19,1.19,0,0,0-.91.48h0a.17.17,0,0,1,.16.11.17.17,0,0,1,0,.19c-.08.13-.1.2,0,.28a.81.81,0,0,1,.76-.67,24.36,24.36,0,0,0,5.76-.26h0a31.4,31.4,0,0,0,5.28-1.21.82.82,0,0,1,.46.06s0,0,0-.06a.18.18,0,0,1,.14-.11,1.63,1.63,0,0,1,.31,0,1.25,1.25,0,0,0-1-.25h0l-1.25.37Zm-7.48,3.35a27,27,0,0,0,3.1-.19,1.06,1.06,0,0,1-.11-.38,20.82,20.82,0,0,1-4.59.11,2.11,2.11,0,0,1-.36-.09.78.78,0,0,1,0,.28.53.53,0,0,1,0,.12,2.11,2.11,0,0,0,.29.06A12.16,12.16,0,0,0,121.36,121.49Zm9.54-1.88c-1.31.37-3.22.75-4.51,1a1.24,1.24,0,0,1,0,.39c1.29-.23,3.28-.62,4.64-1h0l0,0a1.28,1.28,0,0,0,.28-.16.58.58,0,0,1-.11-.15v0a1.24,1.24,0,0,1,0-.16A1.58,1.58,0,0,1,130.9,119.61Zm-29.71,1a1,1,0,0,1,0-.16,2,2,0,0,1,.29-1.84,1.56,1.56,0,0,1,1.33-.65,1.61,1.61,0,0,1,.31,0,.18.18,0,0,1,.14.11s0,0,0,.06,0,.09,0,.12a.7.7,0,0,0-.16.62,1.42,1.42,0,0,1,0,.6,1.24,1.24,0,0,1,0,.16v0a.42.42,0,0,1-.11.15,1.82,1.82,0,0,1-.7.42c-.26.1-.53.21-.61.37a.18.18,0,0,1-.17.11h0A.19.19,0,0,1,101.19,120.57Zm.24-.46a2.52,2.52,0,0,1,.57-.28c.26-.1.52-.2.6-.37a1,1,0,0,0,.05-.56.93.93,0,0,1,.07-.62,1.26,1.26,0,0,0-1,.52A1.7,1.7,0,0,0,101.43,120.11Zm8.33,1.19a1.71,1.71,0,0,1-.4.47.88.88,0,0,0-.41.75.19.19,0,0,1-.19.19.2.2,0,0,1-.19-.19,1.29,1.29,0,0,0-.37-.85,1.81,1.81,0,0,1-.36-.69,1.24,1.24,0,0,1,0-.39.62.62,0,0,1,0-.13,1.21,1.21,0,0,1,1.14-1.11c.6,0,.92.81.92,1.39a1,1,0,0,1,0,.18A1.06,1.06,0,0,1,109.76,121.3Zm-.24-.56c0-.41-.23-1-.54-1a.83.83,0,0,0-.76.75v0a1,1,0,0,0,.29.91,3,3,0,0,1,.27.39,1.79,1.79,0,0,1,.33-.34A.88.88,0,0,0,109.52,120.74Zm6-.57c0-.07,0-.14-.06-.27a.17.17,0,0,1,0-.19.17.17,0,0,1,.16-.11h.06a1.14,1.14,0,0,1,1.05.63,1.12,1.12,0,0,1,.12.35,2.1,2.1,0,0,1,0,.71,3.07,3.07,0,0,1-.52,1.45.21.21,0,0,1-.16.08h-.06a.21.21,0,0,1-.13-.19c0-.27-.3-.48-.6-.69a1.3,1.3,0,0,1-.57-.6.53.53,0,0,1,0-.12,1.11,1.11,0,0,1,0-.28,1.31,1.31,0,0,1,.45-.55A.75.75,0,0,0,115.48,120.17Zm.4-.15c.05.32-.2.52-.38.67s-.35.3-.35.53.23.27.43.41a2.21,2.21,0,0,1,.63.55,2.14,2.14,0,0,0,.13-1.77A.78.78,0,0,0,115.88,120Zm15.27-2.09a1.63,1.63,0,0,1,.31,0,1.56,1.56,0,0,1,1.33.65,2,2,0,0,1,.29,1.84,1,1,0,0,1-.05.16.19.19,0,0,1-.17.1h0a.18.18,0,0,1-.17-.11c-.08-.16-.35-.27-.61-.37a1.82,1.82,0,0,1-.7-.42.58.58,0,0,1-.11-.15v0a1.81,1.81,0,0,1-.06-.76.71.71,0,0,0-.17-.62s0-.07,0-.12,0,0,0-.06A.18.18,0,0,1,131.15,117.93Zm.35.35a.93.93,0,0,1,.07.62,1,1,0,0,0,.05.56c.08.17.34.27.6.37a2.52,2.52,0,0,1,.57.28,1.7,1.7,0,0,0-.3-1.31A1.26,1.26,0,0,0,131.5,118.28Zm-7.15,2.64a1,1,0,0,1,0-.18c0-.58.32-1.39.92-1.39a1.21,1.21,0,0,1,1.14,1.11.62.62,0,0,1,0,.13,1.24,1.24,0,0,1,0,.39,1.81,1.81,0,0,1-.36.69,1.29,1.29,0,0,0-.37.85.2.2,0,0,1-.19.19.19.19,0,0,1-.19-.19.88.88,0,0,0-.41-.75,1.71,1.71,0,0,1-.4-.47A1.06,1.06,0,0,1,124.35,120.92Zm.76.57a1.79,1.79,0,0,1,.33.34,3,3,0,0,1,.27-.39,1,1,0,0,0,.3-.91.09.09,0,0,1,0,0,.83.83,0,0,0-.76-.75c-.31,0-.54.6-.54,1A.88.88,0,0,0,125.11,121.49Zm-6.5-1.88h0a.17.17,0,0,1,.16.11.17.17,0,0,1,0,.19c-.08.13-.1.2,0,.28a.81.81,0,0,0,.21.21,1.23,1.23,0,0,1,.44.55.78.78,0,0,1,0,.28.53.53,0,0,1,0,.12,1.3,1.3,0,0,1-.57.6c-.3.21-.6.42-.6.69a.2.2,0,0,1-.14.19h0a.21.21,0,0,1-.16-.08,3,3,0,0,1-.52-1.44,2.38,2.38,0,0,1,0-.71,1.9,1.9,0,0,1,.12-.36A1.17,1.17,0,0,1,118.61,119.61Zm-.74.8a2.18,2.18,0,0,0,.14,1.77,2.32,2.32,0,0,1,.62-.55c.21-.14.44-.3.44-.41s-.13-.35-.35-.53-.43-.35-.38-.67A.83.83,0,0,0,117.87,120.41Zm-14.43-1.71a.05.05,0,0,0,0,0l1.41.47h0a.13.13,0,0,0,.11-.06.12.12,0,0,0,0-.16,2.4,2.4,0,0,0-1.5-.52.13.13,0,0,0-.09.24Zm9.24,1.84a.14.14,0,0,0,.13.08h0l1.66-.22h0a.12.12,0,0,0,.11-.07.15.15,0,0,0,0-.13.15.15,0,0,0-.13-.07h0a3.64,3.64,0,0,0-1.74.25A.16.16,0,0,0,112.68,120.54Zm-6.92-1.29a.14.14,0,0,0,0,.16h0a.26.26,0,0,0,.09,0l1.66.46h0a.13.13,0,0,0,.13-.08.14.14,0,0,0-.06-.17,5.56,5.56,0,0,0-1.72-.49A.13.13,0,0,0,105.76,119.25Zm4.42,1.15h1.68a.13.13,0,0,0,.12-.08.14.14,0,0,0,0-.15,2,2,0,0,0-1.83,0,.13.13,0,0,0-.07.15A.14.14,0,0,0,110.18,120.4Zm16.36-.55a.13.13,0,0,0,.13.08h0l1.67-.47a.11.11,0,0,0,.07,0,.15.15,0,0,0,0-.17.14.14,0,0,0-.14-.06,5.56,5.56,0,0,0-1.72.49A.14.14,0,0,0,126.54,119.85Zm-6.9.51a.12.12,0,0,0,.1,0h0l1.66.22h0a.14.14,0,0,0,.13-.08.16.16,0,0,0,0-.16,3.67,3.67,0,0,0-1.75-.25h0a.16.16,0,0,0-.14.08.14.14,0,0,0,0,.15Zm2.64-.2a.15.15,0,0,0-.06.11.13.13,0,0,0,.14.13H124a.14.14,0,0,0,.13-.1.13.13,0,0,0-.07-.15A2,2,0,0,0,122.28,120.16Zm6.9-1a.14.14,0,0,0,.11.07h0l1.42-.47a.13.13,0,0,0,.09-.15.12.12,0,0,0-.13-.11,2.56,2.56,0,0,0-1.51.51A.12.12,0,0,0,129.18,119.13ZM104.43,121h0Zm.83,3.84a.26.26,0,0,0-.17.07c-.08,0-.08.07-.08.17a.22.22,0,0,0,.17.24.29.29,0,0,0,.36-.1c.09-.11.06-.23-.11-.34A.17.17,0,0,0,105.26,124.87Zm.84-.14-.15,0c-.47-.13-1-.19-1.45-.33-.33-.08-.63-.19-1-.27s-.4-.13-.6-.18-.43-.08-.46-.3a1.39,1.39,0,0,1,.27-.56.64.64,0,0,1,.49-.26.67.67,0,0,1,.4-.08,1.09,1.09,0,0,0,.15-.39c.11-.22.1-.49.23-.7,0-.28-.37-.18-.49,0a.32.32,0,0,1-.49-.18c0-.23.27-.27.46-.21s.41,0,.61,0a.65.65,0,0,1,.33-.14c.06,0,.1,0,.12.14s-.14.38-.14.59a1.63,1.63,0,0,0-.19.52c-.08.21-.14.41-.21.62s-.09.35-.13.52.1.34.29.35.43,0,.44-.23.17-.39,0-.53.18-.21.28-.28.34-.33.45-.1a2.25,2.25,0,0,1-.15.58c-.06.17-.07.36-.13.54s.19.32.36.31.36.16.52.06a.76.76,0,0,0,.15-.52c-.11-.11-.26-.38,0-.4a1,1,0,0,0,.48-.24c.27-.07.19.24.12.38-.09.35-.17.7-.27,1C106.41,124.56,106.3,124.77,106.1,124.73Zm-2.68-1.52h-.06l-.11,0c-.09,0-.1.06-.1.1s0,.07.19.09l.08-.06C103.5,123.3,103.5,123.24,103.42,123.21Zm.61,1.3c-.19,0-.22,0-.26.15a.26.26,0,0,0,.19.32h0a.34.34,0,0,0,.26-.06c.06,0,.07-.08.06-.18S104.24,124.51,104,124.51Zm-.89-.21c-.22.17-.24.27-.09.41a.22.22,0,0,0,.19.08.23.23,0,0,0,.19-.08c.14-.13.14-.22,0-.37S103.24,124.23,103.14,124.3Zm.18-2a.05.05,0,0,1,.05,0s.12-.16.12-.23-.16-.22-.25-.25-.28,0-.33.24a.23.23,0,0,0,.2.3A.27.27,0,0,0,103.32,122.34Zm16.59,1.94a.28.28,0,0,0,.19-.27c0-.09-.07-.16-.21-.23l-.11,0-.11.06c-.15.08-.16.1-.15.25a.22.22,0,0,0,.18.24C119.8,124.33,119.8,124.33,119.91,124.28Zm3.69.53a.82.82,0,0,0-.2-.35.87.87,0,0,0-.14-.27c0-.08-.16-.17-.23-.08s-.13.26-.2.38-.12.17-.11.28.16.12.23.18a.59.59,0,0,1,.25.29,1.56,1.56,0,0,1,0,.43c0,.11-.12.16-.13.26a1.09,1.09,0,0,1-.41.33.44.44,0,0,0-.25.16s0,0,0,.07h0s0,0,0,0a2.36,2.36,0,0,0,.46,0c.11,0,.16-.08.25-.11a1.14,1.14,0,0,0,.32-.22c0-.08.14-.13.18-.22a1.4,1.4,0,0,0,.06-.5c0-.13-.07-.24-.07-.36A.52.52,0,0,0,123.6,124.81Zm-12-2.29c0,.23,0,.47-.09.7s0,.65-.12,1a8.89,8.89,0,0,1-.13,1c-.07.21-.07.44-.16.65s-.31.35-.54.42a.55.55,0,0,1-.67-.54c0-.16.1-.36-.16-.34a.36.36,0,0,1-.45-.37c-.09-.29-.39,0-.46.16s-.46-.05-.69-.05-.5-.09-.67.08a.8.8,0,0,1-.58.41,1.3,1.3,0,0,1-.73-.09c-.14-.22.24-.16.35-.2s.49-.09.55-.35a.86.86,0,0,0,.09-.68.41.41,0,0,1,0-.61c0-.23.3-.29.35,0a3,3,0,0,1,.14.68c0,.25.23.36.45.36a.48.48,0,0,0,.57-.16c.22-.23-.28-.34-.44-.39s0-.51.22-.56l.41-.13a.77.77,0,0,1,.69-.54.73.73,0,0,1,.36.65c.07.2.32.28.43.47s.16.53-.13.47-.36,0-.45.09a.25.25,0,0,0,.26.34c.2,0,.39.1.33.35,0,.1,0,.21,0,.31.15.07.33.16.36-.09s0-.55.12-.82.09-.52.11-.78.12-.43.08-.67a1.13,1.13,0,0,0,0-.26c-.19-.09-.22-.35,0-.37s.26-.16.38-.2h0C111.55,122.37,111.61,122.39,111.63,122.52Zm-2,1.5a.22.22,0,0,1-.13-.22c0-.09,0-.15-.08-.16s-.1,0-.19.13l-.17.15-.08,0,.06.06a.48.48,0,0,0,.37.14.35.35,0,0,0,.21,0C109.71,124.09,109.71,124,109.66,124Zm21.18.55c-.16.07-.23.16-.23.28s0,.1.08.16.1.07.25.06.17,0,.23-.07.13-.19,0-.37S131,124.48,130.84,124.57Zm.86-1.07c.1.16.59.43.17.52s-1.08.29-1.62.45c-.36,0-.41.33-.66.52s-.73.22-.88,0-.54-.13-.49.11a.75.75,0,0,1-.34.68c-.23.3-.69.05-.91-.17-.07-.4-.44-.37-.76-.28s-.7,0-.75.32a.87.87,0,0,1-.71.69,2.78,2.78,0,0,1-.5,0c0-.33.46-.22.62-.42s.12-.49-.18-.37-.47.13-.54-.11,0-.42,0-.61c.2-.21.34-.49.63-.6s.48-.22.51.11.11.73.49.52a1.55,1.55,0,0,1,.29-.89c.16-.2.64-.33.3-.62s.07-.61.29-.71c.27.18.2.62.33.89.28.08.61.1.79.35s.24.64.6.53.23-.47.51-.58c.22-.28.61,0,.79.16s.72,0,.43-.27a4.34,4.34,0,0,1-.22-1c-.07-.35-.1-.82-.54-.9-.28,0-.56.52-.75.06-.3-.16-.14-.49.17-.47a2.74,2.74,0,0,1,.5-.08h0a.93.93,0,0,1,.76.26,2.25,2.25,0,0,1,.35,1.2c.1.31.08.72.36.93S131.38,123.34,131.7,123.5ZM125,124.82a.17.17,0,0,0-.14-.13h0a.13.13,0,0,0-.16.06.21.21,0,0,0-.05.09s0,0,0,0a.06.06,0,0,0,0,.08l.06.05a.35.35,0,0,0,.26,0C125,125,125,124.91,125,124.82Zm1.7-.34a.24.24,0,0,0-.08-.18.18.18,0,0,0-.11,0,.3.3,0,0,0-.12.08c-.06.06-.06.09-.06.21s0,.19.2.19.16,0,.17-.06A.6.6,0,0,0,126.68,124.48Zm.65.16.15-.06c.09,0,.11,0,.11-.11a.38.38,0,0,0-.22-.29.37.37,0,0,0-.15-.06s-.07,0-.1.07-.05.06,0,.16a.63.63,0,0,1,0,.14S127.27,124.64,127.33,124.64Zm.42.45a.19.19,0,0,0-.13,0,.45.45,0,0,0-.18,0c-.07,0-.08.06-.08.1a.07.07,0,0,0,0,.07.65.65,0,0,0,.34,0A.1.1,0,0,0,127.75,125.09Zm1.65-.75a.2.2,0,0,0-.22-.11c-.13,0-.24.09-.24.18s0,.09.09.14l.12.07.13-.05C129.42,124.51,129.46,124.44,129.4,124.34Zm-7,1.16c0,.14-.07.33-.25.29s-.44.07-.66.07a8,8,0,0,0-1.1.08,1.35,1.35,0,0,1-.45,0s-.12,0-.15,0l0-.06c-.09-.12,0-.27,0-.4a1.38,1.38,0,0,1,.1-.49c.12-.1.18-.24.32-.31s.35-.06.37-.25a1.34,1.34,0,0,0-.07-.52,3.29,3.29,0,0,0,0-.54c0-.11-.37-.19-.19-.33s.26-.25.4-.36h0c.2,0,.21.18.22.32,0,.32.08.65.09,1s.08.53.09.8a1.4,1.4,0,0,0,.06.45c.09.19.32.15.48.09s.32,0,.28-.21a1.32,1.32,0,0,0,0-.44c0-.13-.32-.13-.23-.31s.24-.15.35-.26a.18.18,0,0,1,.32.11,3.38,3.38,0,0,0,.07.63C122.42,125.07,122.33,125.3,122.43,125.5Zm-1.84-.08v-.23h-.1a.17.17,0,0,0-.15.06c-.08.09-.1.16,0,.2l0,0,.13,0Zm.81.72a.27.27,0,0,0-.26.15c0,.07-.09.06-.31,0s-.29-.12-.42,0-.09.1-.09.17,0,.11.09.18h0a.2.2,0,0,0,.21.09c.08,0,.12,0,.15,0a.83.83,0,0,1,.24-.15l.07,0s0,0,.06,0,.1.16.23.18a.19.19,0,0,0,.2-.07c.09-.08.09-.08.09-.22s0-.15-.08-.21A.28.28,0,0,0,121.4,126.14Zm-9.21-.8c0-.12,0-.23,0-.35a3.66,3.66,0,0,1,.05-.57c0-.18,0-.37,0-.56a2.41,2.41,0,0,1,.07-.37.28.28,0,0,1,.15-.31c.09,0,.21-.14.08-.22a2.61,2.61,0,0,1-.43-.45c-.08-.13-.17.08-.17.16s0,.44-.06.66a1.22,1.22,0,0,0-.06.42c-.07.28-.07.56-.12.84a2.63,2.63,0,0,0-.06.48,2,2,0,0,0-.07.49s.06.06.08.09h0a.29.29,0,0,0,.32,0A.48.48,0,0,0,112.19,125.34Zm6.87-.1a5.48,5.48,0,0,1,0,.57c-.07,0-.1.19-.19.19-.5,0-1,0-1.49,0-.17.14-.09.5-.38.59s-.31.22-.45.18-.56-.33-.56-.66c-.17-.19-.57-.1-.82-.16-.48,0-1-.11-1.43-.09-.27.05-.25.45-.49.56a1,1,0,0,1-.87.24c-.14,0-.67-.07-.36-.25s.53,0,.74-.17a.71.71,0,0,0,.34-.72c0-.29-.27-.49-.35-.72.17-.13.27-.51.51-.45a4.07,4.07,0,0,1,.39.88c.21.17.52.06.44-.25.12-.24-.07-.46-.11-.68a.46.46,0,0,1,.44-.37h0a.3.3,0,0,1,.18.06c.06.21,0,.51.32.52a4.35,4.35,0,0,0,.81,0c.31,0,.6.06.91,0s.47,0,.63.15a1.48,1.48,0,0,1,0,.3c-.09.22.17.54.33.27a.84.84,0,0,1,.53-.69c.25,0,.46-.25.71-.18S119,125,119.06,125.24Zm-2.23,0a.29.29,0,0,0-.19-.11c-.29,0-.59,0-.88-.06-.13,0-.26,0-.39,0a1.53,1.53,0,0,0-.3,0,.73.73,0,0,0-.3,0c-.08,0-.18.14-.11.22s.16.07.24.1a2.72,2.72,0,0,0,.64,0l.76,0a.4.4,0,0,1,.21.07.34.34,0,0,1,0,.1c0,.1,0,.21,0,.32a.41.41,0,0,0,.21.15l.07,0c.07-.06,0-.16,0-.24Zm1.74.13a1.31,1.31,0,0,0,0-.15c0-.09,0-.11-.09-.11a.5.5,0,0,0-.23.13.17.17,0,0,0,0,.17c0,.07.2.08.35,0S118.58,125.42,118.57,125.39Zm1.35-1.87a.25.25,0,0,0,0-.36.55.55,0,0,0-.25-.13.39.39,0,0,0-.28.3.34.34,0,0,0,.15.22A.46.46,0,0,0,119.92,123.52Zm6.31-33.93h0a19.45,19.45,0,0,1-.32,4.28,22.78,22.78,0,0,1-.49,2.23c0,.18-.11.35-.17.53a23.23,23.23,0,0,1-1.2,3.17l-.23.48c-.24.49-.5,1-.77,1.42-.09.16-.17.32-.27.47s-.13.19-.2.29c-.33.52-.68,1-1.06,1.52l-.24.3c-.4.5-.82,1-1.26,1.45-.08.1-.18.18-.27.28-.32.33-.64.66-1,1h0c-.5.45-1,.89-1.56,1.31l0,0h-.11l0,0c-.54-.42-1-.85-1.55-1.3h0c-.34-.31-.66-.64-1-1l-.27-.27c-.44-.47-.86-1-1.25-1.46l-.25-.29c-.37-.49-.72-1-1-1.51-.07-.11-.15-.2-.21-.31s-.17-.3-.26-.45c-.27-.46-.53-.94-.77-1.42-.08-.17-.16-.33-.23-.49a21.87,21.87,0,0,1-1.2-3.16c-.06-.19-.12-.37-.17-.55a20.41,20.41,0,0,1-.49-2.21,23.38,23.38,0,0,1-.3-2.44,16.1,16.1,0,0,1,0-1.86h0l0-.2.19,0a4.3,4.3,0,0,0,.73.07,18.14,18.14,0,0,0,4.39-.82,9.41,9.41,0,0,0,3.75-1.79l.14-.16.13.17A7.73,7.73,0,0,0,121,88.74a17.77,17.77,0,0,0,4.34.77,3,3,0,0,0,.73-.08l.19,0Zm-.37,1.86c0-.79,0-1.36,0-1.64a3.94,3.94,0,0,1-.6,0,17.91,17.91,0,0,1-4.43-.78,9.34,9.34,0,0,1-3.67-1.8A10.07,10.07,0,0,1,113.42,89a17.94,17.94,0,0,1-4.49.83,3.86,3.86,0,0,1-.6,0,21.58,21.58,0,0,0,.8,6.22,22.46,22.46,0,0,0,8,11.92,22.41,22.41,0,0,0,8-11.92A23.57,23.57,0,0,0,125.86,91.45Zm-.45-1.18v.14c0,.45,0,.92,0,1.23a22.54,22.54,0,0,1-.75,4.39,21.6,21.6,0,0,1-2.82,6.21,21.92,21.92,0,0,1-4.61,5l-.09.06-.08-.06a21.85,21.85,0,0,1-8.17-15.61c0-.32,0-.8,0-1.26v-.16l.16,0a.93.93,0,0,0,.23,0c1.84,0,6.2-1.08,7.89-2.36l.08-.06.09.07a10.53,10.53,0,0,0,3.8,1.7,16.82,16.82,0,0,0,4,.65h.39ZM120.11,104V89.63a9.71,9.71,0,0,1-3-1.42,12.06,12.06,0,0,1-3.24,1.44v14.16A21.6,21.6,0,0,0,117.1,107,22.11,22.11,0,0,0,120.11,104Zm-8.33-19.51A15.85,15.85,0,0,0,114,80.29a13.86,13.86,0,0,0,.61-3.35,3.6,3.6,0,0,0-.31-2A2.21,2.21,0,0,0,113,73.93a1.14,1.14,0,0,0-.89.29.28.28,0,0,1-.31.06c-.13,0-.2-.2-.22-.45a2.35,2.35,0,0,1,.58-1.83c.73-.48,2.23-.24,3.19,0a.61.61,0,0,1,.13-.27.78.78,0,0,1,.65-.22A7.67,7.67,0,0,1,120,72.75c.52.52,1.12,1.83,1,5.07a15.38,15.38,0,0,0,.61,4.79,9,9,0,0,0,.78,1.9,2.27,2.27,0,0,0,.25.38,1.43,1.43,0,0,0,.5.47l-.08.35a8.82,8.82,0,0,1-1.09-.14,5,5,0,0,1-1.06-.28c.2.56.12.67.09.73a.25.25,0,0,1-.2.09h-.12a4.54,4.54,0,0,1-2.4-1.12,9.8,9.8,0,0,0-1,1.12l-.13.17L115.86,85a9.64,9.64,0,0,1-2.17,1.44l-.34.17.39-1.62a6.2,6.2,0,0,1-2.58.87h-.39l.25-.3s.2-.25.49-.65Zm2.54-4.12a17.5,17.5,0,0,1-2.76,5,7.68,7.68,0,0,0,2.32-1c1.2-1.35,1.87-6.18,1.88-6.22l.37,0c0,.2-.68,4.94-1.95,6.4l-.29,1.21a10.26,10.26,0,0,0,1.82-1.28c.84-1.56,1.1-6.45,1.1-6.5l.38,0c0,.2-.26,4.83-1.09,6.55l1,1a13.27,13.27,0,0,1,1-1,52.33,52.33,0,0,1-.31-6.33h.38s0,1.38.05,2.84a15.92,15.92,0,0,0,.27,3.46,4.15,4.15,0,0,0,2.2,1.09,6.06,6.06,0,0,0-.27-.77h0a10.17,10.17,0,0,1-1.15-3.83c-.21-1.34-.28-2.5-.28-2.52l.38,0c0,.05.28,4.54,1.36,6.14a3.87,3.87,0,0,0,1.79.54,7.7,7.7,0,0,1-1.22-2.56,15.66,15.66,0,0,1-.63-4.92,8.93,8.93,0,0,0-.55-4.32,2,2,0,0,0-1.09-.19l-.25,0a3.7,3.7,0,0,0-.69.11H118a2,2,0,0,0-.58.21,1.22,1.22,0,0,0-.13.19c-.08.15-.18.32-.34.32s-.32-.06-.38-.15l0,0a1.21,1.21,0,0,1-.1-.14c0-.07-.09-.14-.13-.14h0c-.34.06-.87-.19-1.57-.74a2,2,0,0,0-1.76-.59,1.55,1.55,0,0,0-.85.29,2,2,0,0,0-.17.52,2.45,2.45,0,0,0,0,.74l.09-.06c.05-.09.1-.2.17-.31a1.1,1.1,0,0,1,.85-.58c.59,0,1.88.42,3,2.38l.06.1-.12,0c-.31-.07-.86-.14-1,0a.64.64,0,0,0-.14.16A6.38,6.38,0,0,1,115,77,14.07,14.07,0,0,1,114.32,80.39Zm2.44-7.54a.36.36,0,0,0-.36.35.36.36,0,0,0,.71,0A.35.35,0,0,0,116.76,72.85Z" transform="translate(0 0)"/><path class="cls-5" d="M120.75,118.07l.25,1.14a11.12,11.12,0,0,1-1.45-.08h0a1.19,1.19,0,0,0-.91.48,1.17,1.17,0,0,0-1.08.63,1.9,1.9,0,0,0-.12.36h-.61a1.12,1.12,0,0,0-.12-.35,24.4,24.4,0,0,0-1.94-1.11h0a11.92,11.92,0,0,1-1.5.08l.25-1.14.74.73,1.16-.85,1.09-7.79-.46,7.75,1.11,1.41,1.11-1.41-.45-7.75,1.08,7.79,1.16.85ZM217.53,100c-9.67,8.53-17.68,19.13-25.22,30H41.91c-7.54-10.87-15.55-21.47-25.22-30,9.67-8.53,17.68-19.13,25.22-30h150.4C199.85,80.87,207.86,91.47,217.53,100Zm-79.44,19.79-1.46-34.65c-.08-1.77-.64-3-1.69-3.55a4.42,4.42,0,0,0-3.21-.2,13.35,13.35,0,0,0-3.48,1.45h0A10.65,10.65,0,0,1,123,84.52c-.2,0-.4,0-.6,0a9,9,0,0,1-.78-1.9,15.38,15.38,0,0,1-.61-4.79c.13-3.24-.47-4.55-1-5.07a7.67,7.67,0,0,0-3.92-1.25.78.78,0,0,0-.65.22.61.61,0,0,0-.13.27c-1-.23-2.46-.47-3.19,0a2.35,2.35,0,0,0-.58,1.83c0,.25.09.4.22.45a.28.28,0,0,0,.31-.06,1.14,1.14,0,0,1,.89-.29A2.21,2.21,0,0,1,114.27,75a3.6,3.6,0,0,1,.31,2,13.86,13.86,0,0,1-.61,3.35,15.85,15.85,0,0,1-2.19,4.22h-.53A10.66,10.66,0,0,1,106,82.84h0a13.35,13.35,0,0,0-3.48-1.45,4.39,4.39,0,0,0-3.2.2c-1.05.58-1.62,1.78-1.69,3.55l-1.47,34.65a.21.21,0,0,0,.11.18.19.19,0,0,0,.21,0l10.81-9.8L105,118.05l-1.25-.37h0a1.25,1.25,0,0,0-1,.25,1.56,1.56,0,0,0-1.33.65,2,2,0,0,0-.29,1.84,1.8,1.8,0,0,0-.11.43,1.91,1.91,0,0,0-1.28.92c-.28.36-.43.52-.59.54l-.21,0a.37.37,0,0,0-.36.31.36.36,0,0,0,.27.39l.2,0c.07,0,.11.17.2.51a2,2,0,0,0,1,1.51,2.44,2.44,0,0,0,.23,1.15,1.93,1.93,0,0,0,1.51.89c3.19.91,8.69,1.43,15.1,1.43s11.91-.52,15.14-1.43a1.9,1.9,0,0,0,1.48-.89A2.35,2.35,0,0,0,134,125a2,2,0,0,0,1-1.51c.08-.34.12-.46.19-.51l.2,0a.36.36,0,0,0,.27-.39.37.37,0,0,0-.36-.31l-.21,0c-.16,0-.31-.18-.59-.54a1.91,1.91,0,0,0-1.28-.92,1.8,1.8,0,0,0-.11-.43,2,2,0,0,0-.29-1.84,1.56,1.56,0,0,0-1.33-.65,1.25,1.25,0,0,0-1-.25h0l-1.25.37-2.28-8.1.85.69,10,9.29a.17.17,0,0,0,.13,0H138A.21.21,0,0,0,138.09,119.79Zm-15-34.43-.08.35a8.82,8.82,0,0,1-1.09-.14,5,5,0,0,1-1.06-.28c.2.56.12.67.09.73a.25.25,0,0,1-.2.09h-.12a4.54,4.54,0,0,1-2.4-1.12,9.8,9.8,0,0,0-1,1.12l-.13.17L115.86,85a9.64,9.64,0,0,1-2.17,1.44l-.34.17.39-1.62a6.2,6.2,0,0,1-2.58.87h-.39l.25-.3s.2-.25.49-.65h-.28a11,11,0,0,1-5.45-1.74A11,11,0,0,0,101,81.57a3.17,3.17,0,0,0-1.53.36c-.89.49-1.38,1.54-1.47,3.08A6.46,6.46,0,0,1,100.15,84h0l-1.41,33.39.7-.63,1.45-32.25c.47.48,1.89,1.64,2.15,1.9h0l-1.21,28.18,1-.87L104,87.09c.48.47,1.42,1.16,1.68,1.42h0l-.94,23.41,1-.86L106.61,89a14.28,14.28,0,0,0,1.38.62h0l0-.2.19,0a4.3,4.3,0,0,0,.73.07,18.14,18.14,0,0,0,4.39-.82,9.41,9.41,0,0,0,3.75-1.79l.14-.16.13.17A7.73,7.73,0,0,0,121,88.74a17.77,17.77,0,0,0,4.34.77,3,3,0,0,0,.73-.08l.19,0,0,.19h0a14.28,14.28,0,0,0,1.38-.62l.93,21.86,1,.89-.93-23.22h0c.26-.26,1.2-1,1.68-1.42l1.18,26.43,1,.89-1.2-28h0c.26-.26,1.68-1.42,2.15-1.9l1.45,32.18.69.64L134.07,84h0A6.49,6.49,0,0,1,136.23,85c-.09-1.54-.58-2.59-1.48-3.08-1.9-1.05-5,.51-6.31,1.23A10.9,10.9,0,0,1,123,84.9h-.37A1.43,1.43,0,0,0,123.13,85.36ZM108.8,96.11a20.41,20.41,0,0,1-.49-2.21l-.72,15,1-3.64.35-8.65C108.91,96.47,108.85,96.29,108.8,96.11Zm16.45.53.35,8.67,1,3.64-.72-15.07a22.78,22.78,0,0,1-.49,2.23C125.37,96.29,125.31,96.46,125.25,96.64Zm-10.53,13.65h0l.72-3.28c-.34-.31-.66-.64-1-1l-.71.93Zm-5.22-1.18a.21.21,0,0,1,.13.13l.67,2.36,1.52-2a.18.18,0,0,1,.19-.08.21.21,0,0,1,.15.15l.65,3.58,1.64-2.49-1-3.38-1.2,1.57a.23.23,0,0,1-.15.07h-.05a.18.18,0,0,1-.14-.16l-.35-3.22-2,1.92a.19.19,0,0,1-.13,0h0a.24.24,0,0,1-.14-.12l-.52-1.27-1.42,5,2-2A.19.19,0,0,1,109.5,109.11ZM107,112.46l-1.6,5.68,1.12.28,1.52-2.14Zm3,6.53,1.08.11-.41-1.26Zm-3-.49c.58.13,1.2.24,1.84.33l-.61-2Zm5.71-4.34-1.54,2.38a.19.19,0,0,1-.18.09.18.18,0,0,1-.16-.13l-.82-2.49-1.48,2.45.73,2.43.36,0,1-1.65a.17.17,0,0,1,.18-.09.16.16,0,0,1,.16.13l.6,1.8c.45,0,.9.06,1.34.07l.46-2.09Zm-2.24-2a.2.2,0,0,1-.19.08.19.19,0,0,1-.15-.14l-.67-2.41-2.15,2.2,1.1,4,1.49-2.45a.2.2,0,0,1,.17-.09h0a.21.21,0,0,1,.16.13L111,116l1.53-2.38-.64-3.49Zm2.54,1.6.52,2.47,1.07-4.89Zm-.22-9.74c-.37-.49-.72-1-1-1.51l.24,2.28Zm-.43,4.28,1.93-2.53c-.44-.47-.86-1-1.25-1.46l-1,1ZM109.52,107l2-1.92-.36-3.38c-.27-.46-.53-.94-.77-1.42l-1.5,5.31h0Zm14.79,7-.82,2.49a.18.18,0,0,1-.16.13.19.19,0,0,1-.18-.09l-1.54-2.38-.62,3,.46,2.09c.44,0,.89,0,1.34-.07l.6-1.8a.16.16,0,0,1,.16-.13.17.17,0,0,1,.18.09l1,1.65.36,0,.73-2.43Zm-4.81-3.72,1-3.34-.72-.93c-.32.33-.64.66-1,1l.72,3.28Zm2.79-5-1-1c-.4.5-.82,1-1.26,1.45l1.94,2.54Zm.92,13.85,1.08-.11-.67-1.15Zm-1.9-5.36-1.59-2.42,1.07,4.89Zm6.41,4.68,1.12-.28-1.6-5.68-1,3.82Zm-2.24.41c.64-.09,1.26-.2,1.84-.33l-1.23-1.71Zm-1.41-5.33a.21.21,0,0,1,.16-.13.18.18,0,0,1,.19.09l1.49,2.45,1.1-4-2.15-2.2-.67,2.41a.19.19,0,0,1-.15.14.2.2,0,0,1-.19-.08l-1.49-2-.64,3.49,1.53,2.38Zm-1.49-11c-.33.52-.68,1-1.06,1.52l.82.78Zm.47-.76-.36,3.4,2,1.92.58-1.42h0l-1.5-5.33C123.58,100.78,123.32,101.25,123.05,101.71Zm1.76,5.84h0a.19.19,0,0,1-.13,0l-2-1.92-.35,3.22a.18.18,0,0,1-.14.16h-.05a.23.23,0,0,1-.15-.07l-1.2-1.57-1,3.38,1.64,2.49.65-3.58a.21.21,0,0,1,.15-.15.18.18,0,0,1,.19.08l1.52,2,.67-2.36a.21.21,0,0,1,.13-.13.19.19,0,0,1,.19,0l2,2-1.42-5-.52,1.27A.24.24,0,0,1,124.81,107.55ZM131.05,120l0,0a1.77,1.77,0,0,1,1,.27,1.2,1.2,0,0,1,.44,1,.35.35,0,0,0,.43.34c.37-.07.59.15,1,.64a3.74,3.74,0,0,0,.54.59,3.06,3.06,0,0,0-.18.56c-.12.49-.22.91-.79,1.1a.36.36,0,0,0-.24.34c0,.94,0,1.38-1.13,1.58h0c-3.17.89-8.63,1.41-15,1.41h0c-3,0-5.94-.13-8.48-.36a36.3,36.3,0,0,1-6.44-1.05h0c-.73-.13-.94-.36-1-.53a2.3,2.3,0,0,1-.14-1,.36.36,0,0,0-.24-.34c-.57-.19-.67-.61-.79-1.1a3.06,3.06,0,0,0-.18-.56,3.32,3.32,0,0,0,.54-.59c.38-.49.6-.71,1-.64a.32.32,0,0,0,.3-.07.33.33,0,0,0,.14-.27,1.18,1.18,0,0,1,.44-1,1.71,1.71,0,0,1,1-.27l.06,0h0c1.36.38,3.35.76,4.64,1a1.81,1.81,0,0,0,.36.69,1.29,1.29,0,0,1,.37.85.2.2,0,0,0,.19.19.19.19,0,0,0,.19-.19.88.88,0,0,1,.41-.75,1.71,1.71,0,0,0,.4-.47,27,27,0,0,0,3.1.19,12.07,12.07,0,0,0,1.65-.09,2.11,2.11,0,0,0,.29-.06,1.3,1.3,0,0,0,.57.6c.3.21.6.42.6.69a.21.21,0,0,0,.13.19h.06a.21.21,0,0,0,.16-.08,3.07,3.07,0,0,0,.52-1.45h.54a3,3,0,0,0,.52,1.44.21.21,0,0,0,.16.08h0a.2.2,0,0,0,.14-.19c0-.27.3-.48.6-.69a1.3,1.3,0,0,0,.57-.6,2.11,2.11,0,0,0,.29.06,12.16,12.16,0,0,0,1.65.09,27,27,0,0,0,3.1-.19,1.71,1.71,0,0,0,.4.47.88.88,0,0,1,.41.75.19.19,0,0,0,.19.19.2.2,0,0,0,.19-.19h0a1.29,1.29,0,0,1,.37-.85,1.81,1.81,0,0,0,.36-.69c1.29-.23,3.28-.62,4.64-1Zm-27.65,4.37c-.11-.1-.16-.11-.26,0s-.24.27-.09.41a.22.22,0,0,0,.19.08.23.23,0,0,0,.19-.08C103.57,124.58,103.57,124.49,103.4,124.34Zm.88.4c0-.19,0-.23-.25-.23s-.22,0-.26.15a.26.26,0,0,0,.19.32h0a.34.34,0,0,0,.26-.06C104.28,124.87,104.29,124.84,104.28,124.74Zm1.15.17a.17.17,0,0,0-.17,0,.26.26,0,0,0-.17.07c-.08,0-.08.07-.08.17a.22.22,0,0,0,.17.24.29.29,0,0,0,.36-.1C105.63,125.14,105.6,125,105.43,124.91Zm.67-.18c.2,0,.31-.17.32-.34.1-.35.18-.7.27-1,.07-.14.15-.45-.12-.38a1,1,0,0,1-.48.24c-.26,0-.11.29,0,.4a.76.76,0,0,1-.15.52c-.16.1-.36,0-.52-.06s-.52-.08-.36-.31.07-.37.13-.54a2.25,2.25,0,0,0,.15-.58c-.11-.23-.3.08-.45.1s-.48.1-.28.28,0,.36,0,.53-.25.29-.44.23-.45-.15-.29-.35.1-.34.13-.52.13-.41.21-.62a1.63,1.63,0,0,1,.19-.52c0-.21.14-.38.14-.59s-.06-.14-.12-.14h0a.65.65,0,0,0-.33.14c-.2,0-.42.16-.61,0s-.43,0-.46.21a.32.32,0,0,0,.49.18c.12-.16.46-.26.49,0-.13.21-.12.48-.23.7a1.09,1.09,0,0,1-.15.39.67.67,0,0,0-.4.08.64.64,0,0,0-.49.26,1.39,1.39,0,0,0-.27.56c0,.22.28.28.46.3s.4.12.6.18.63.19,1,.27c.48.14,1,.2,1.45.33Zm-3-2.36a.27.27,0,0,0,.21,0,.05.05,0,0,1,.05,0s.12-.16.12-.23-.16-.22-.25-.25-.28,0-.33.24A.23.23,0,0,0,103.11,122.37Zm8.52.15c0-.13-.08-.15-.14-.12h0c-.12,0-.26.21-.38.2s-.23.28,0,.37a1.13,1.13,0,0,1,0,.26c0,.24-.11.43-.08.67s-.09.51-.11.78-.07.55-.12.82-.21.16-.36.09c0-.1,0-.21,0-.31.06-.25-.13-.32-.33-.35a.25.25,0,0,1-.26-.34c.09-.1.31-.07.45-.09s.28-.34.13-.47-.36-.27-.43-.47a.73.73,0,0,0-.36-.65.77.77,0,0,0-.69.54l-.41.13c-.21,0-.51.42-.22.56s.66.16.44.39a.48.48,0,0,1-.57.16c-.22,0-.46-.11-.45-.36a3,3,0,0,0-.14-.68c0-.25-.33-.19-.35,0a.41.41,0,0,0,0,.61.86.86,0,0,1-.09.68c-.06.26-.35.27-.55.35s-.49,0-.35.2a1.3,1.3,0,0,0,.73.09.8.8,0,0,0,.58-.41c.17-.17.45-.08.67-.08s.47.16.69.05.37-.45.46-.16a.36.36,0,0,0,.45.37c.26,0,.16.18.16.34a.55.55,0,0,0,.67.54c.23-.07.47-.17.54-.42s.09-.44.16-.65a8.89,8.89,0,0,0,.13-1c.08-.31.06-.64.12-1S111.61,122.75,111.63,122.52Zm.44,3.17a.48.48,0,0,0,.12-.35c0-.12,0-.23,0-.35a3.66,3.66,0,0,1,.05-.57c0-.18,0-.37,0-.56a2.41,2.41,0,0,1,.07-.37.28.28,0,0,1,.15-.31c.09,0,.21-.14.08-.22a2.61,2.61,0,0,1-.43-.45c-.08-.13-.17.08-.17.16s0,.44-.06.66a1.22,1.22,0,0,0-.06.42c-.07.28-.07.56-.12.84a2.63,2.63,0,0,0-.06.48,2,2,0,0,0-.07.49s.06.06.08.09h0A.29.29,0,0,0,112.07,125.69Zm7,.12a5.48,5.48,0,0,0,0-.57c-.09-.25,0-.56-.16-.76s-.46.16-.71.18a.84.84,0,0,0-.53.69c-.16.27-.42,0-.33-.27a1.48,1.48,0,0,0,0-.3c-.16-.19-.42-.13-.63-.15s-.6-.06-.91,0a4.35,4.35,0,0,1-.81,0c-.31,0-.26-.31-.32-.52a.3.3,0,0,0-.18-.06h0a.46.46,0,0,0-.44.37c0,.22.23.44.11.68.08.31-.23.42-.44.25a4.07,4.07,0,0,0-.39-.88c-.24-.06-.34.32-.51.45.08.23.33.43.35.72a.71.71,0,0,1-.34.72c-.21.19-.49.12-.74.17s.22.24.36.25a1,1,0,0,0,.87-.24c.24-.11.22-.51.49-.56.48,0,.95.08,1.43.09.25.06.65,0,.82.16,0,.33.28.53.56.66s.3-.14.45-.18.21-.45.38-.59c.49,0,1,0,1.49,0C119,126,119,125.86,119.11,125.81Zm.48-2.26a.46.46,0,0,0,.33,0,.25.25,0,0,0,0-.36.55.55,0,0,0-.25-.13.39.39,0,0,0-.28.3A.34.34,0,0,0,119.59,123.55Zm.11.74c.1,0,.1,0,.21,0a.28.28,0,0,0,.19-.27c0-.09-.07-.16-.21-.23l-.11,0-.11.06c-.15.08-.16.1-.15.25A.22.22,0,0,0,119.7,124.29Zm2,2.12c0-.14,0-.15-.08-.21a.28.28,0,0,0-.18-.06.27.27,0,0,0-.26.15c0,.07-.09.06-.31,0s-.29-.12-.42,0-.09.1-.09.17,0,.11.09.18h0a.2.2,0,0,0,.21.09c.08,0,.12,0,.15,0a.83.83,0,0,1,.24-.15l.07,0s0,0,.06,0,.1.16.23.18a.19.19,0,0,0,.2-.07C121.66,126.55,121.66,126.55,121.66,126.41Zm.77-.91c-.1-.2,0-.43-.09-.63a3.38,3.38,0,0,1-.07-.63.18.18,0,0,0-.32-.11c-.11.11-.27.13-.35.26s.19.18.23.31a1.32,1.32,0,0,1,0,.44c0,.18-.16.19-.28.21s-.39.1-.48-.09a1.4,1.4,0,0,1-.06-.45c0-.27-.07-.53-.09-.8s-.07-.66-.09-1c0-.14,0-.36-.22-.32h0c-.14.11-.27.24-.4.36s.14.22.19.33a3.29,3.29,0,0,1,0,.54,1.34,1.34,0,0,1,.07.52c0,.19-.26.15-.37.25s-.2.21-.32.31a1.38,1.38,0,0,0-.1.49c0,.13-.09.28,0,.4l0,.06s.1,0,.15,0a1.35,1.35,0,0,0,.45,0,8,8,0,0,1,1.1-.08c.22,0,.44-.07.66-.07S122.44,125.64,122.43,125.5Zm1.35,0c0-.13-.07-.24-.07-.36a.52.52,0,0,0-.11-.29.82.82,0,0,0-.2-.35.87.87,0,0,0-.14-.27c0-.08-.16-.17-.23-.08s-.13.26-.2.38-.12.17-.11.28.16.12.23.18a.59.59,0,0,1,.25.29,1.56,1.56,0,0,1,0,.43c0,.11-.12.16-.13.26a1.09,1.09,0,0,1-.41.33.44.44,0,0,0-.25.16s0,0,0,.07h0s0,0,0,0a2.36,2.36,0,0,0,.46,0c.11,0,.16-.08.25-.11a1.14,1.14,0,0,0,.32-.22c0-.08.14-.13.18-.22A1.4,1.4,0,0,0,123.78,125.46Zm7.42-.83c-.08-.14-.16-.15-.36-.06s-.23.16-.23.28,0,.1.08.16.1.07.25.06.17,0,.23-.07S131.3,124.81,131.2,124.63Zm-.47-1c-.28-.21-.26-.62-.36-.93a2.25,2.25,0,0,0-.35-1.2.93.93,0,0,0-.76-.26h0a2.74,2.74,0,0,0-.5.08c-.31,0-.47.31-.17.47.19.46.47-.1.75-.06.44.08.47.55.54.9a4.34,4.34,0,0,0,.22,1c.29.32-.21.52-.43.27s-.57-.44-.79-.16c-.28.11-.29.47-.51.58s-.41-.34-.6-.53-.51-.27-.79-.35c-.13-.27-.06-.71-.33-.89-.22.1-.63.51-.29.71s-.14.42-.3.62a1.55,1.55,0,0,0-.29.89c-.38.21-.45-.24-.49-.52s-.31-.23-.51-.11-.43.39-.63.6c0,.19,0,.41,0,.61s.36.13.54.11.42.19.18.37-.66.09-.62.42a2.78,2.78,0,0,0,.5,0,.87.87,0,0,0,.71-.69c.05-.31.5-.26.75-.32s.69-.12.76.28c.22.22.68.47.91.17a.75.75,0,0,0,.34-.68c-.05-.24.38-.24.49-.11s.64.18.88,0,.3-.52.66-.52c.54-.16,1.09-.25,1.62-.45s-.07-.36-.17-.52C131.38,123.34,131.09,124,130.73,123.67Zm-10.16,1.52h-.1a.17.17,0,0,0-.15.06c-.08.09-.1.16,0,.2l0,0,.13,0,.12,0v-.23Zm-11-1.39c0-.09,0-.15-.08-.16s-.1,0-.19.13l-.17.15-.08,0,.06.06a.48.48,0,0,0,.37.14.35.35,0,0,0,.21,0c.06,0,.06-.1,0-.11A.22.22,0,0,1,109.53,123.8Zm6.23,1.29c-.13,0-.26,0-.39,0a1.53,1.53,0,0,0-.3,0,.73.73,0,0,0-.3,0c-.08,0-.18.14-.11.22s.16.07.24.1a2.72,2.72,0,0,0,.64,0l.76,0a.4.4,0,0,1,.21.07.34.34,0,0,1,0,.1c0,.1,0,.21,0,.32a.41.41,0,0,0,.21.15l.07,0c.07-.06,0-.16,0-.24v-.61a.29.29,0,0,0-.19-.11C116.35,125.12,116.05,125.14,115.76,125.09Zm2.69,0a.5.5,0,0,0-.23.13.17.17,0,0,0,0,.17c0,.07.2.08.35,0s.06,0,0-.06a1.31,1.31,0,0,0,0-.15C118.51,125.15,118.5,125.13,118.45,125.13Zm6.39-.44h0a.13.13,0,0,0-.16.06.21.21,0,0,0-.05.09s0,0,0,0a.06.06,0,0,0,0,.08l.06.05a.35.35,0,0,0,.26,0c.08,0,.1-.08.08-.17A.17.17,0,0,0,124.84,124.69Zm-21.48-1.49-.11,0c-.09,0-.1.06-.1.1s0,.07.19.09l.08-.06c.08-.07.08-.13,0-.16Zm25.82,1c-.13,0-.24.09-.24.18s0,.09.09.14l.12.07.13-.05c.14-.06.18-.13.12-.23A.2.2,0,0,0,129.18,124.23Zm-1.59.24a.38.38,0,0,0-.22-.29.37.37,0,0,0-.15-.06s-.07,0-.1.07-.05.06,0,.16a.63.63,0,0,1,0,.14s.13.15.19.15l.15-.06C127.57,124.54,127.59,124.53,127.59,124.47Zm0,.57a.45.45,0,0,0-.18,0c-.07,0-.08.06-.08.1a.07.07,0,0,0,0,.07.65.65,0,0,0,.34,0,.1.1,0,0,0,0-.17A.19.19,0,0,0,127.62,125Zm-1-.74a.18.18,0,0,0-.11,0,.3.3,0,0,0-.12.08c-.06.06-.06.09-.06.21s0,.19.2.19.16,0,.17-.06a.6.6,0,0,0,0-.19A.24.24,0,0,0,126.6,124.3ZM103,119.44a1.42,1.42,0,0,0,0-.6.7.7,0,0,1,.16-.62s0-.07,0-.12a.84.84,0,0,1,.47-.06,31,31,0,0,0,5.27,1.21h0a24.69,24.69,0,0,0,5.81.26.81.81,0,0,1,.72.66.75.75,0,0,1-.22.22,1.31,1.31,0,0,0-.45.55,1.62,1.62,0,0,1-.35.09,20.82,20.82,0,0,1-4.59-.11,1,1,0,0,0,0-.18c0-.58-.32-1.39-.92-1.39a1.21,1.21,0,0,0-1.14,1.11.62.62,0,0,0,0,.13c-1.29-.23-3.2-.61-4.51-1A1.91,1.91,0,0,1,103,119.44Zm7,.86a.14.14,0,0,0,.13.1h1.68a.13.13,0,0,0,.12-.08.14.14,0,0,0,0-.15,2,2,0,0,0-1.83,0A.13.13,0,0,0,110.05,120.3Zm2.67.08a.16.16,0,0,0,0,.16.14.14,0,0,0,.13.08h0l1.66-.22h0a.12.12,0,0,0,.11-.07.15.15,0,0,0,0-.13.15.15,0,0,0-.13-.07h0A3.64,3.64,0,0,0,112.72,120.38Zm-6.82-1.19a.13.13,0,0,0-.14.06.14.14,0,0,0,0,.16h0a.26.26,0,0,0,.09,0l1.66.46h0a.13.13,0,0,0,.13-.08.14.14,0,0,0-.06-.17A5.56,5.56,0,0,0,105.9,119.19Zm-2.46-.49h0a.05.05,0,0,0,0,0l1.41.47h0a.13.13,0,0,0,.11-.06.12.12,0,0,0,0-.16,2.4,2.4,0,0,0-1.5-.52.13.13,0,0,0-.09.24Zm15.31,1.48a.81.81,0,0,1,.76-.67,24.36,24.36,0,0,0,5.76-.26h0a31.4,31.4,0,0,0,5.28-1.21.82.82,0,0,1,.46.06c0,.05,0,.09,0,.12a.71.71,0,0,1,.17.62,1.24,1.24,0,0,0,0,.6,1.58,1.58,0,0,1-.32.17c-1.31.37-3.22.75-4.51,1a.62.62,0,0,0,0-.13,1.21,1.21,0,0,0-1.14-1.11c-.6,0-.92.81-.92,1.39a1,1,0,0,0,0,.18,20.82,20.82,0,0,1-4.59.11,2.11,2.11,0,0,1-.36-.09,1.23,1.23,0,0,0-.44-.55A.81.81,0,0,1,118.75,120.18Zm7.85-.5a.14.14,0,0,0-.06.17.13.13,0,0,0,.13.08h0l1.67-.47a.11.11,0,0,0,.07,0,.15.15,0,0,0,0-.17.14.14,0,0,0-.14-.06A5.56,5.56,0,0,0,126.6,119.68Zm2.6-.71a.12.12,0,0,0,0,.16.14.14,0,0,0,.11.07h0l1.42-.47a.13.13,0,0,0,.09-.15.12.12,0,0,0-.13-.11A2.56,2.56,0,0,0,129.2,119Zm-6.92,1.19a.15.15,0,0,0-.06.11.13.13,0,0,0,.14.13H124a.14.14,0,0,0,.13-.1.13.13,0,0,0-.07-.15A2,2,0,0,0,122.28,120.16Zm-2.67,0a.14.14,0,0,0,0,.15h0a.12.12,0,0,0,.1,0h0l1.66.22h0a.14.14,0,0,0,.13-.08.16.16,0,0,0,0-.16,3.67,3.67,0,0,0-1.75-.25h0A.16.16,0,0,0,119.61,120.21ZM102,119.83c.26-.1.52-.2.6-.37a1,1,0,0,0,.05-.56.93.93,0,0,1,.07-.62,1.26,1.26,0,0,0-1,.52,1.7,1.7,0,0,0-.3,1.31A2.52,2.52,0,0,1,102,119.83Zm7.52.91c0-.41-.23-1-.54-1a.83.83,0,0,0-.76.75v0a1,1,0,0,0,.29.91,3,3,0,0,1,.27.39,1.79,1.79,0,0,1,.33-.34A.88.88,0,0,0,109.52,120.74Zm6,0c-.22.18-.35.3-.35.53s.23.27.43.41a2.21,2.21,0,0,1,.63.55,2.14,2.14,0,0,0,.13-1.77.78.78,0,0,0-.46-.39C115.93,120.34,115.68,120.54,115.5,120.69Zm16-2.41a.93.93,0,0,1,.07.62,1,1,0,0,0,.05.56c.08.17.34.27.6.37a2.52,2.52,0,0,1,.57.28,1.7,1.7,0,0,0-.3-1.31A1.26,1.26,0,0,0,131.5,118.28Zm-6.39,3.21a1.79,1.79,0,0,1,.33.34,3,3,0,0,1,.27-.39,1,1,0,0,0,.3-.91.09.09,0,0,1,0,0,.83.83,0,0,0-.76-.75c-.31,0-.54.6-.54,1A.88.88,0,0,0,125.11,121.49Zm-7.1.69a2.32,2.32,0,0,1,.62-.55c.21-.14.44-.3.44-.41s-.13-.35-.35-.53-.43-.35-.38-.67a.83.83,0,0,0-.47.39A2.18,2.18,0,0,0,118,122.18Zm7.85-30.73a23.57,23.57,0,0,1-.78,4.58,22.41,22.41,0,0,1-8,11.92,22.46,22.46,0,0,1-8-11.92,21.58,21.58,0,0,1-.8-6.22,3.86,3.86,0,0,0,.6,0,17.94,17.94,0,0,0,4.49-.83,10.07,10.07,0,0,0,3.77-1.75,9.34,9.34,0,0,0,3.67,1.8,17.91,17.91,0,0,0,4.43.78,3.94,3.94,0,0,0,.6,0C125.9,90.09,125.91,90.66,125.86,91.45Zm-.45-1v-.14H125a16.82,16.82,0,0,1-4-.65,10.53,10.53,0,0,1-3.8-1.7l-.09-.07-.08.06c-1.69,1.28-6,2.36-7.89,2.36a.93.93,0,0,1-.23,0l-.16,0v.16c0,.46,0,.94,0,1.26A21.61,21.61,0,0,0,117,107.26l.08.06.09-.06a21.92,21.92,0,0,0,4.61-5A21.6,21.6,0,0,0,124.62,96a22.54,22.54,0,0,0,.75-4.39C125.39,91.33,125.42,90.86,125.41,90.41Zm-5.3-.78a9.71,9.71,0,0,1-3-1.42,12.06,12.06,0,0,1-3.24,1.44v14.16A21.6,21.6,0,0,0,117.1,107a22.11,22.11,0,0,0,3-3Zm-8.55-4.19a7.68,7.68,0,0,0,2.32-1c1.2-1.35,1.87-6.18,1.88-6.22l.37,0c0,.2-.68,4.94-1.95,6.4l-.29,1.21a10.26,10.26,0,0,0,1.82-1.28c.84-1.56,1.1-6.45,1.1-6.5l.38,0c0,.2-.26,4.83-1.09,6.55l1,1a13.27,13.27,0,0,1,1-1,52.33,52.33,0,0,1-.31-6.33h.38s0,1.38.05,2.84a15.92,15.92,0,0,0,.27,3.46,4.15,4.15,0,0,0,2.2,1.09,6.06,6.06,0,0,0-.27-.77h0a10.17,10.17,0,0,1-1.15-3.83c-.21-1.34-.28-2.5-.28-2.52l.38,0c0,.05.28,4.54,1.36,6.14a3.87,3.87,0,0,0,1.79.54,7.7,7.7,0,0,1-1.22-2.56,15.66,15.66,0,0,1-.63-4.92,8.93,8.93,0,0,0-.55-4.32,2,2,0,0,0-1.09-.19l-.25,0a3.7,3.7,0,0,0-.69.11H118a2,2,0,0,0-.58.21,1.22,1.22,0,0,0-.13.19c-.08.15-.18.32-.34.32s-.32-.06-.38-.15l0,0a1.21,1.21,0,0,1-.1-.14c0-.07-.09-.14-.13-.14h0c-.34.06-.87-.19-1.57-.74a2,2,0,0,0-1.76-.59,1.55,1.55,0,0,0-.85.29,2,2,0,0,0-.17.52,2.45,2.45,0,0,0,0,.74l.09-.06c.05-.09.1-.2.17-.31a1.1,1.1,0,0,1,.85-.58c.59,0,1.88.42,3,2.38l.06.1-.12,0c-.31-.07-.86-.14-1,0a.64.64,0,0,0-.14.16A6.38,6.38,0,0,1,115,77a14.07,14.07,0,0,1-.63,3.43A17.5,17.5,0,0,1,111.56,85.44ZM116.4,73.2a.36.36,0,0,0,.71,0,.36.36,0,0,0-.71,0Z" transform="translate(0 0)"/></g></svg>