<svg id="FBWC2023_Flags_Digital_Europe_FRA_RGB" xmlns="http://www.w3.org/2000/svg" viewBox="0 0 234.22 200"><defs><style>.cls-1{fill:#c3c3c3;}.cls-2{fill:#ed2d43;}.cls-3{fill:#fff;}.cls-4{fill:#28388f;}</style></defs><path id="Background" class="cls-1" d="M117.11,0a70.17,70.17,0,0,1,31,6.75c37.72,18.14,51.45,72.06,86.12,93.25h0c-34.67,21.19-48.4,75.11-86.12,93.25a70.17,70.17,0,0,1-31,6.75,70.17,70.17,0,0,1-31-6.75C48.4,175.11,34.67,121.19,0,100H0C34.67,78.81,48.4,24.89,86.12,6.75A70.17,70.17,0,0,1,117.11,0Z" transform="translate(0 0)"/><g id="Flag_FRA"><path class="cls-2" d="M186.12,60.93C175.06,44.59,164.53,29,150.58,19.69V180.31c13.95-9.35,24.48-24.9,35.54-41.24,9.41-13.9,19.06-28.17,31.41-39.07C205.18,89.1,195.53,74.83,186.12,60.93Z" transform="translate(0 0)"/><path class="cls-3" d="M143.76,15.76A60.38,60.38,0,0,0,117.69,10h-1.16a60.38,60.38,0,0,0-26.07,5.76,55.57,55.57,0,0,0-6.82,3.93V180.31a55.57,55.57,0,0,0,6.82,3.93A60.38,60.38,0,0,0,116.53,190h1.16a60.38,60.38,0,0,0,26.07-5.76,55.57,55.57,0,0,0,6.82-3.93V19.69A55.57,55.57,0,0,0,143.76,15.76Z" transform="translate(0 0)"/><path class="cls-4" d="M48.1,60.93C38.69,74.83,29,89.1,16.69,100c12.35,10.9,22,25.17,31.41,39.07C59.16,155.41,69.69,171,83.64,180.31V19.69C69.69,29,59.16,44.59,48.1,60.93Z" transform="translate(0 0)"/></g></svg>