<svg id="FBWC2023_Flags_Digital_Europe_GER_RGB" xmlns="http://www.w3.org/2000/svg" viewBox="0 0 234.22 200"><defs><style>.cls-1{fill:#c3c3c3;}.cls-2{fill:#fdce07;}.cls-3{fill:#da1f26;}</style></defs><path id="Background" class="cls-1" d="M117.11,0a70.17,70.17,0,0,1,31,6.75c37.72,18.14,51.45,72.06,86.12,93.25h0c-34.67,21.19-48.4,75.11-86.12,93.25a70.17,70.17,0,0,1-31,6.75,70.17,70.17,0,0,1-31-6.75C48.4,175.11,34.67,121.19,0,100H0C34.67,78.81,48.4,24.89,86.12,6.75A70.17,70.17,0,0,1,117.11,0Z" transform="translate(0 0)"/><g id="Flag_GER"><path class="cls-2" d="M48.1,139.07C60.89,158,73,175.83,90.46,184.24A60.38,60.38,0,0,0,116.53,190h1.16a60.38,60.38,0,0,0,26.07-5.76c17.49-8.41,29.57-26.27,42.36-45.17,1.95-2.89,3.92-5.79,5.92-8.67H42.18C44.18,133.28,46.15,136.18,48.1,139.07Z" transform="translate(0 0)"/><path class="cls-3" d="M16.69,100c9.78,8.64,17.88,19.39,25.49,30.4H192c7.61-11,15.71-21.77,25.49-30.4-9.78-8.63-17.88-19.39-25.49-30.4H42.18C34.57,80.61,26.47,91.36,16.69,100Z" transform="translate(0 0)"/><path d="M143.76,15.76A60.38,60.38,0,0,0,117.69,10h-1.16a60.38,60.38,0,0,0-26.07,5.76C73,24.17,60.89,42,48.1,60.93c-2,2.89-3.92,5.79-5.92,8.67H192c-2-2.88-4-5.78-5.92-8.67C173.33,42,161.25,24.17,143.76,15.76Z" transform="translate(0 0)"/></g></svg>