<svg id="FBWC2023_Flags_Digital_Europe_LAT_RGB" xmlns="http://www.w3.org/2000/svg" viewBox="0 0 234.22 200"><defs><style>.cls-1{fill:#c3c3c3;}.cls-2{fill:#851624;}.cls-3{fill:#fff;}</style></defs><path id="Background" class="cls-1" d="M117.11,0a70.17,70.17,0,0,1,31,6.75c37.72,18.14,51.45,72.06,86.12,93.25h0c-34.67,21.19-48.4,75.11-86.12,93.25a70.17,70.17,0,0,1-31,6.75,70.17,70.17,0,0,1-31-6.75C48.4,175.11,34.67,121.19,0,100H0C34.67,78.81,48.4,24.89,86.12,6.75A70.17,70.17,0,0,1,117.11,0Z" transform="translate(0 0)"/><g id="Flag_LAT"><path class="cls-2" d="M186.12,60.93c4.76,7,9.58,14.16,14.79,20.9H33.31c5.21-6.74,10-13.87,14.79-20.9C60.89,42,73,24.17,90.46,15.76A60.38,60.38,0,0,1,116.53,10h1.16a60.38,60.38,0,0,1,26.07,5.76C161.25,24.17,173.33,42,186.12,60.93Zm-138,78.14C60.89,158,73,175.83,90.46,184.24A60.38,60.38,0,0,0,116.53,190h1.16a60.38,60.38,0,0,0,26.07-5.76c17.49-8.41,29.57-26.27,42.36-45.17,4.76-7,9.59-14.17,14.8-20.91H33.3C38.51,124.9,43.34,132,48.1,139.07Z" transform="translate(0 0)"/><path class="cls-3" d="M16.69,100A130.11,130.11,0,0,1,33.3,118.16H200.92A130.11,130.11,0,0,1,217.53,100a129.64,129.64,0,0,1-16.62-18.17H33.31A129.64,129.64,0,0,1,16.69,100Z" transform="translate(0 0)"/></g></svg>