<svg id="FBWC2023_Flags_Digital_Asia_LBN_RGB" xmlns="http://www.w3.org/2000/svg" viewBox="0 0 234.22 200"><defs><style>.cls-1{fill:#c3c3c3;}.cls-2{fill:#ed3135;}.cls-3{fill:#fff;}.cls-4{fill:#00b05e;}</style></defs><path id="Background" class="cls-1" d="M117.11,0a70.17,70.17,0,0,1,31,6.75c37.72,18.14,51.45,72.06,86.12,93.25h0c-34.67,21.19-48.4,75.11-86.12,93.25a70.17,70.17,0,0,1-31,6.75,70.17,70.17,0,0,1-31-6.75C48.4,175.11,34.67,121.19,0,100H0C34.67,78.81,48.4,24.89,86.12,6.75A70.17,70.17,0,0,1,117.11,0Z" transform="translate(0 0)"/><g id="Flag_LBN"><path class="cls-2" d="M115.88,55H52.13C63.5,38.37,74.81,23.28,90.46,15.76A60.38,60.38,0,0,1,116.53,10h1.16a60.38,60.38,0,0,1,26.07,5.76c15.65,7.52,27,22.61,38.33,39.24Zm66.21,90h-130c11.37,16.63,22.68,31.72,38.33,39.24A60.38,60.38,0,0,0,116.53,190h1.16a60.38,60.38,0,0,0,26.07-5.76C159.41,176.72,170.72,161.63,182.09,145Z" transform="translate(0 0)"/><path class="cls-3" d="M105.89,72.07c1.57.05,1.33,2.87-.22,2.68S104.27,71.77,105.89,72.07Zm-.66,9.19c1.06,1,2.39-.23,3.37-.77a2.24,2.24,0,0,0,.9-3.54A6.59,6.59,0,0,0,107,78.29C106.1,79,104.66,80,105.23,81.26Zm.39,6c1.13-1-.28-3.13-1.61-2.41-1.48-.47-2.62,1.54-1.91,2.74S104.87,88.39,105.62,87.29Zm-8.17,13.58-1.51,0c-1.49.29-3.26,0-4.46,1.08.45,1.27.89,2.73,2.14,3.44,1.66.1,3.16-.68,4.71-1.16,1-.29,2.28-.91,2.15-2.11C100.17,100.89,98.56,100.55,97.45,100.87Zm.42-15a1.62,1.62,0,0,0-1.74.6c-.6,1.38.41,2.87,1.56,3.59,1,1.15,3.37.28,3.23-1.31C100.36,87.49,99.38,86.12,97.87,85.91Zm18.22-2.71c-1.69-.24-1.71,2.46-.18,2.64,1.48.35,2.6-2.1,1.13-2.79A2.56,2.56,0,0,1,116.09,83.2Zm-1.57,28.16a6.82,6.82,0,0,0-.16,2.11c-.08,1.47,2.25,1.89,2.85.62C118.05,112.54,116.06,110.7,114.52,111.36Zm7.2-12.92a1.35,1.35,0,0,0-.32,1.86C122.8,101.51,123.4,98,121.72,98.44Zm-8-3.8c-1.39-.13-1.71,2.23-.34,2.48C114.68,97.2,115.12,94.82,113.75,94.64Zm-10.64,15.87c-.35,0-.57.35-.56.66.37,1.37.36,2.92,1.31,4.07s3-.88,1.9-1.94A2.56,2.56,0,0,0,103.11,110.51Zm18-24.34c1.72.17,2.52-2.66,1-3.4a4.62,4.62,0,0,1-.75.42C119.84,83.38,119.66,85.81,121.07,86.17Zm65.05,52.9c9.41-13.9,19.06-28.17,31.41-39.07-12.35-10.9-22-25.17-31.41-39.07q-2-3-4-5.93H115.88a28.92,28.92,0,0,0,2.45,4.76,10.11,10.11,0,0,0,7.49,4.66,16.57,16.57,0,0,1,7.43,3.16A22.45,22.45,0,0,0,137,69.93c1.14.56,1,2.79-.57,2.15-.91-.47-3.57.07-2.13,1.3a40.19,40.19,0,0,0,5.28,3.68c.73.31,2.76.88,1.34,1.77a12,12,0,0,1-3.48-.4c-1.47-.36-2.83-1.11-4.28-1.54-1-.28-2.46.28-2.37,1.5.25,1.33,1.84,1.51,2.81,2.11,2.68,1.94,5.07,4.23,7.71,6.22A30.37,30.37,0,0,0,149,91.34c1.2.11,2.22,2,.89,2.71-1.56-.35-3.18-.34-4.74-.68-.92-.11-1.75-.85-2.7-.49-1.46.24-1.67,2.43,0,2.53a58.42,58.42,0,0,1,7,1.84c1.31.49,2.9.41,4,1.37,1,1.31-1.22,2.62-2.34,1.86-1.37,0-2.75.15-4.12.25a18.1,18.1,0,0,1-3.68,0c-1.2-.13-2.44,1.42-1.51,2.42a12.73,12.73,0,0,1,3,.15,9,9,0,0,1,4.57,2.49c2.31,1.95,4.22,4.42,6.88,5.92,1.47.18,2.27,2.56.62,3.07a9,9,0,0,1-4.5-1.4c-1.62-1.37-4.2-2-6-.66a2,2,0,0,0,.39,3.49c4.77,3.25,10.4,5.27,14.51,9.43a1.72,1.72,0,0,1,.64,2.18,1.46,1.46,0,0,1-2.11.82c-3.55-1.33-6.16-4.41-9.81-5.56s-7.69-.37-11.53-.46c-2.65.17-5-1.35-7.27-2.4a3.14,3.14,0,0,0-4.47,1.87,30.57,30.57,0,0,0-.16,8.65,12.06,12.06,0,0,0,4.17,7.24,31.66,31.66,0,0,0,4.36,3.56c1.1.48,2.44,1.58,1.74,2.9-1.14,1.28-2.67-.38-3.37-1.34a7.11,7.11,0,0,0-4.3-3.07c-1.34-.09-2.62-.58-4-.64-1.54-.39-2,1.4-1.67,2.58-.4,1.64-2.11-.22-2.63-.95-1.42-.93-3.22-1.72-3.8-3.47-.32-1.49-2.22-1.81-3.43-1.26-1.38.67-2.73-.42-4.1-.59-2.46,0-4.26,2-6.07,3.39-2,1.81-4.8,2.29-7.41,2.57-1.74.06-3.65.51-4.73,2-.4,1.93-3.11-.51-1.3-1.1,2-1.73,4.61-2.16,6.89-3.29a21.59,21.59,0,0,0,8.11-9.49,5.73,5.73,0,0,0,.16-5.9,4.93,4.93,0,0,0-5.76-2.3c-5.17,1.94-10,4.94-15.55,5.78-1.79.08-3.65.56-5.4,0s-.52-3.16,1-2.74c4-1.31,8.17-2.41,11.94-4.39,1.22-.61,2.77-1.47,2.77-3-.24-1.48-2-2-3.34-1.72-1.38.51-2.63,1.34-4,2a33.25,33.25,0,0,1-11.38,4.07c-.94.12-2.52-.5-1.89-1.67,1-.92,2.75-.53,3.4-1.86a40.38,40.38,0,0,1,10.78-8.32c1.39-.51,3-1.36,3.08-3a2.44,2.44,0,0,0-3.18-2.75c-2,1-3.6,2.89-5.93,3-1.1,0-2.43-1-2-2.19A34.14,34.14,0,0,0,83.8,101a9.5,9.5,0,0,1,4.35-3A10.37,10.37,0,0,0,95,92.52c.55-1.46.1-3.56-1.51-4.12-1.76-.39-3.3.95-5,1.12A1.45,1.45,0,0,1,87.11,87c1.16-.84,2.36-1.64,3.6-2.37,2.16-1.26,4.88-1.92,6.32-4.14.69-1.54,2-3.15,3.79-3.21,1.44.45,3-1.52,1.9-2.69-.84-.67-2.91.22-2.84-1.39a13.76,13.76,0,0,1,3.49-2.41c1.4-1,3.14-1.41,4.4-2.59,1.41-1.06-1-2.37-1.9-1.38-1-.74.39-1.71,1-2.21,3.47-2.69,7.11-5.53,9-9.6H52.13q-2,2.94-4,5.93C38.69,74.83,29,89.1,16.69,100c12.35,10.9,22,25.17,31.41,39.07q2,3,4,5.93h130Q184.1,142.06,186.12,139.07ZM116.06,77c1.56,0,1.84-2.72.29-3-.81.15-1.55.52-2.35.68-1,.32-2.41,1.79-1.47,2.79C113.69,78,114.92,77.23,116.06,77Zm5-.75c1.52-.13,1.2-2.91-.33-2.64C118.83,73.42,119.42,76.52,121,76.23Zm-4.22,23.23a1.82,1.82,0,0,0,3.3.43,5,5,0,0,0-2.23-3.75A2.75,2.75,0,0,0,116.79,99.46Zm28,11.81a2,2,0,0,0-1.72-3.2c-.55.2-1.06.49-1.59.72-1.25.44-2.42,1.85-1.84,3.21A3.56,3.56,0,0,0,144.77,111.27ZM109,112.36c-.24,1.29.56,3.11,2.1,3A2.06,2.06,0,0,0,109,112.36ZM127,88.28c1.27.48,3,.32,3.76-1,.52-1.68-1.42-3.34-3-2.84a3.57,3.57,0,0,0-1.88.62C124.6,86,125.58,88.21,127,88.28Zm3.71,21.26a4.57,4.57,0,0,0,6.1-.59c1.19-1-.33-3.29-1.75-2.6a5.47,5.47,0,0,0-1.72.37C132.05,106.94,130.54,108,130.75,109.54ZM136,94.79c1.41-1,.22-3.56-1.42-3.13a2.16,2.16,0,0,0-1.69,1.08C132.23,94.41,134.73,96,136,94.79Zm-10.3-17.68c1.58,0,2.1-2.6.61-3.14a3.75,3.75,0,0,0-1.4.27C123.53,74.83,124.23,77.31,125.71,77.11Zm-18.93,18.8c-.93.92.52,2.83,1.63,2C109.35,97.05,107.9,95.12,106.78,95.91Z" transform="translate(0 0)"/><path class="cls-4" d="M106.84,64.6c-.58.5-2,1.47-1,2.21.89-1,3.31.32,1.9,1.38-1.26,1.18-3,1.61-4.4,2.59a13.76,13.76,0,0,0-3.49,2.41c-.07,1.61,2,.72,2.84,1.39,1.1,1.17-.46,3.14-1.9,2.69-1.83.06-3.1,1.67-3.79,3.21-1.44,2.22-4.16,2.88-6.32,4.14-1.24.73-2.44,1.53-3.6,2.37a1.45,1.45,0,0,0,1.39,2.53c1.71-.17,3.25-1.51,5-1.12,1.61.56,2.06,2.66,1.51,4.12A10.37,10.37,0,0,1,88.15,98a9.5,9.5,0,0,0-4.35,3,34.14,34.14,0,0,1-4.07,3.72c-.47,1.2.86,2.22,2,2.19,2.33-.15,4-2.06,5.93-3a2.44,2.44,0,0,1,3.18,2.75c-.12,1.67-1.69,2.52-3.08,3A40.38,40.38,0,0,0,76.94,118c-.65,1.33-2.44.94-3.4,1.86-.63,1.17.95,1.79,1.89,1.67a33.25,33.25,0,0,0,11.38-4.07c1.33-.64,2.58-1.47,4-2,1.3-.32,3.1.24,3.34,1.72,0,1.56-1.55,2.42-2.77,3-3.77,2-7.91,3.08-11.94,4.39-1.51-.42-2.65,2.26-1,2.74s3.61.12,5.4,0c5.54-.84,10.38-3.84,15.55-5.78a4.93,4.93,0,0,1,5.76,2.3,5.73,5.73,0,0,1-.16,5.9,21.59,21.59,0,0,1-8.11,9.49c-2.28,1.13-4.94,1.56-6.89,3.29-1.81.59.9,3,1.3,1.1,1.08-1.48,3-1.93,4.73-2,2.61-.28,5.38-.76,7.41-2.57,1.81-1.41,3.61-3.36,6.07-3.39,1.37.17,2.72,1.26,4.1.59,1.21-.55,3.11-.23,3.43,1.26.58,1.75,2.38,2.54,3.8,3.47.52.73,2.23,2.59,2.63.95-.32-1.18.13-3,1.67-2.58,1.35.06,2.63.55,4,.64a7.11,7.11,0,0,1,4.3,3.07c.7,1,2.23,2.62,3.37,1.34.7-1.32-.64-2.42-1.74-2.9a31.66,31.66,0,0,1-4.36-3.56,12.06,12.06,0,0,1-4.17-7.24,30.57,30.57,0,0,1,.16-8.65,3.14,3.14,0,0,1,4.47-1.87c2.32,1,4.62,2.57,7.27,2.4,3.84.09,7.78-.65,11.53.46s6.26,4.23,9.81,5.56a1.46,1.46,0,0,0,2.11-.82,1.72,1.72,0,0,0-.64-2.18c-4.11-4.16-9.74-6.18-14.51-9.43a2,2,0,0,1-.39-3.49c1.83-1.32,4.41-.71,6,.66a9,9,0,0,0,4.5,1.4c1.65-.51.85-2.89-.62-3.07-2.66-1.5-4.57-4-6.88-5.92a9,9,0,0,0-4.57-2.49,12.73,12.73,0,0,0-3-.15c-.93-1,.31-2.55,1.51-2.42a18.1,18.1,0,0,0,3.68,0c1.37-.1,2.75-.24,4.12-.25,1.12.76,3.34-.55,2.34-1.86-1.1-1-2.69-.88-4-1.37a58.42,58.42,0,0,0-7-1.84c-1.66-.1-1.45-2.29,0-2.53,1-.36,1.78.38,2.7.49,1.56.34,3.18.33,4.74.68,1.33-.66.31-2.6-.89-2.71a30.37,30.37,0,0,1-7.68-4.62c-2.64-2-5-4.28-7.71-6.22-1-.6-2.56-.78-2.81-2.11-.09-1.22,1.35-1.78,2.37-1.5,1.45.43,2.81,1.18,4.28,1.54a12,12,0,0,0,3.48.4c1.42-.89-.61-1.46-1.34-1.77a40.19,40.19,0,0,1-5.28-3.68c-1.44-1.23,1.22-1.77,2.13-1.3,1.53.64,1.71-1.59.57-2.15a22.45,22.45,0,0,1-3.73-2.35,16.57,16.57,0,0,0-7.43-3.16,10.11,10.11,0,0,1-7.49-4.66A28.92,28.92,0,0,1,115.88,55C114,59.07,110.31,61.91,106.84,64.6Zm-8.51,39.67c-1.55.48-3,1.26-4.71,1.16-1.25-.71-1.69-2.17-2.14-3.44,1.2-1.12,3-.79,4.46-1.08l1.51,0c1.11-.32,2.72,0,3,1.29C100.61,103.36,99.29,104,98.33,104.27ZM97.69,90.1c-1.15-.72-2.16-2.21-1.56-3.59a1.62,1.62,0,0,1,1.74-.6c1.51.21,2.49,1.58,3,2.88C101.06,90.38,98.71,91.25,97.69,90.1ZM109.5,77a2.24,2.24,0,0,1-.9,3.54c-1,.54-2.31,1.82-3.37.77-.57-1.29.87-2.26,1.72-3A6.59,6.59,0,0,1,109.5,77Zm-3.61-4.88c1.57.05,1.33,2.87-.22,2.68S104.27,71.77,105.89,72.07ZM102.1,87.62c-.71-1.2.43-3.21,1.91-2.74,1.33-.72,2.74,1.45,1.61,2.41C104.87,88.39,103,88.84,102.1,87.62Zm1.76,27.62c-1-1.15-.94-2.7-1.31-4.07,0-.31.21-.7.56-.66a2.56,2.56,0,0,1,2.65,2.79C106.84,114.36,104.93,116.34,103.86,115.24ZM108.41,98c-1.11.79-2.56-1.12-1.63-2C107.9,95.12,109.35,97.05,108.41,98Zm2.66,17.39c-1.54.13-2.34-1.69-2.1-3A2.06,2.06,0,0,1,111.07,115.34Zm30.39-6.55c.53-.23,1-.52,1.59-.72a2,2,0,0,1,1.72,3.2,3.56,3.56,0,0,1-5.15.73C139,110.64,140.21,109.23,141.46,108.79ZM132.9,92.74a2.16,2.16,0,0,1,1.69-1.08c1.64-.43,2.83,2.18,1.42,3.13C134.73,96,132.23,94.41,132.9,92.74Zm.48,14a5.47,5.47,0,0,1,1.72-.37c1.42-.69,2.94,1.55,1.75,2.6a4.57,4.57,0,0,1-6.1.59C130.54,108,132.05,106.94,133.38,106.72ZM130.8,87.3c-.72,1.3-2.49,1.46-3.76,1-1.46-.07-2.44-2.27-1.14-3.2a3.57,3.57,0,0,1,1.88-.62C129.38,84,131.32,85.62,130.8,87.3Zm-5.88-13.06a3.75,3.75,0,0,1,1.4-.27c1.49.54,1,3.17-.61,3.14C124.23,77.31,123.53,74.83,124.92,74.24ZM113.41,97.12c-1.37-.25-1-2.61.34-2.48S114.68,97.2,113.41,97.12Zm3.8,17c-.6,1.27-2.93.85-2.85-.62a6.82,6.82,0,0,1,.16-2.11C116.06,110.7,118.05,112.54,117.21,114.09Zm4.19-13.79a1.35,1.35,0,0,1,.32-1.86C123.4,98,122.8,101.51,121.4,100.3Zm-.33-14.13c-1.41-.36-1.23-2.79.2-3a4.62,4.62,0,0,0,.75-.42C123.59,83.51,122.79,86.34,121.07,86.17Zm-.39-12.58c1.53-.27,1.85,2.51.33,2.64C119.42,76.52,118.83,73.42,120.68,73.59Zm-.59,26.3a1.82,1.82,0,0,1-3.3-.43,2.75,2.75,0,0,1,1.07-3.32A5,5,0,0,1,120.09,99.89Zm-4.18-14c-1.53-.18-1.51-2.88.18-2.64a2.56,2.56,0,0,0,1-.15C118.51,83.74,117.39,86.19,115.91,85.84ZM114,74.64c.8-.16,1.54-.53,2.35-.68,1.55.3,1.27,3-.29,3-1.14.25-2.37,1-3.53.45C111.59,76.43,113,75,114,74.64Z" transform="translate(0 0)"/></g></svg>