<?xml version="1.0" encoding="UTF-8"?><svg id="Layer_1" xmlns="http://www.w3.org/2000/svg" width="259" height="80.2" xmlns:xlink="http://www.w3.org/1999/xlink" viewBox="0 0 259 80.2"><defs><style>.cls-1{fill:url(#linear-gradient-2);}.cls-2{fill:#fff;}.cls-3{fill:url(#linear-gradient-6);}.cls-4{fill:url(#radial-gradient);}.cls-5{fill:#ff2d00;}.cls-6{fill:url(#linear-gradient-5);}.cls-7{fill:none;}.cls-8{fill:url(#linear-gradient-7);}.cls-9{fill:url(#linear-gradient-3);}.cls-10{fill:url(#linear-gradient);}.cls-11{fill:#0032ff;}.cls-12{fill:url(#linear-gradient-4);}</style><linearGradient id="linear-gradient" x1="1337.58" y1="54.9" x2="1338.68" y2="40.28" gradientTransform="translate(-1105.41 80) scale(1 -1)" gradientUnits="userSpaceOnUse"><stop offset="0" stop-color="#ff2d00"/><stop offset="1" stop-color="#d70000"/></linearGradient><linearGradient id="linear-gradient-2" x1="1306.19" y1="50.88" x2="1303.52" y2="51.35" xlink:href="#linear-gradient"/><linearGradient id="linear-gradient-3" x1="1295.84" y1="37.58" x2="1307.48" y2="18.54" gradientTransform="translate(-1105.41 80) scale(1 -1)" gradientUnits="userSpaceOnUse"><stop offset="0" stop-color="#d70000"/><stop offset=".3" stop-color="#df0900"/><stop offset=".79" stop-color="#f42100"/><stop offset="1" stop-color="#ff2d00"/></linearGradient><linearGradient id="linear-gradient-4" x1="206.86" y1="48.63" x2="196.45" y2="38.39" gradientTransform="translate(0 80) scale(1 -1)" gradientUnits="userSpaceOnUse"><stop offset="0" stop-color="#000"/><stop offset="1" stop-color="#0032ff"/></linearGradient><linearGradient id="linear-gradient-5" x1="236.68" y1="38.36" x2="233.39" y2="22.67" gradientTransform="translate(0 80) scale(1 -1)" gradientUnits="userSpaceOnUse"><stop offset="0" stop-color="#ffbe00"/><stop offset="1" stop-color="#fff"/></linearGradient><linearGradient id="linear-gradient-6" x1="199.93" y1="42.19" x2="214.37" y2="40.36" gradientTransform="translate(0 80) scale(1 -1)" gradientUnits="userSpaceOnUse"><stop offset="0" stop-color="#fff"/><stop offset=".09" stop-color="#fffcf2"/><stop offset=".26" stop-color="#fff3cf"/><stop offset=".48" stop-color="#ffe597"/><stop offset=".76" stop-color="#ffd14b"/><stop offset="1" stop-color="#ffbe00"/></linearGradient><radialGradient id="radial-gradient" cx="220.29" cy="39.55" fx="220.29" fy="39.55" r="26.28" gradientTransform="translate(0 80) scale(1 -1)" gradientUnits="userSpaceOnUse"><stop offset="0" stop-color="#ff2d00"/><stop offset="1" stop-color="#ffbe00"/></radialGradient><linearGradient id="linear-gradient-7" x1="1330.96" y1="54.74" x2="1320.35" y2="57.72" gradientTransform="translate(-1105.41 80) scale(1 -1)" gradientUnits="userSpaceOnUse"><stop offset="0" stop-color="#ffbe00"/><stop offset="1" stop-color="#ff2d00"/></linearGradient></defs><g id="Symbol"><g id="Red_Heart"><path class="cls-5" d="m236.7,40.5c8.2-2.8,12.9-10.6,12.2-19.4-1.4-14.5-21.8-21.9-36.8-15.2s-20.4,26.7-34.2,34.6c13.8,7.9,19.2,27.9,34.2,34.6s35.4-.7,36.8-15.2c.7-8.8-4-16.6-12.2-19.4Z"/></g><g id="Red_Shadow"><path id="Red_Shadow_3" class="cls-10" d="m241.1,33.6c3.3-5.6,2.1-12.7-2.3-17.5-1.1-1.2-2.5-2.3-4.3-3.1-5.4-2.4-11.5-.8-14,0,2-.7,4.3-.8,6.6-.3,6.9,1.6,12.7,6.1,13.3,12.9.5,6.8-3.9,12.7-10.2,14.9.1,0,6.8,0,10.9-6.9Z"/><path id="Red_Shadow_2" class="cls-1" d="m199.6,27.2c-1.3-.4-3.1.4-2.5,3,0,0,1.3-2.6,3.8-1.7-.2-.5-.5-1-1.3-1.3Z"/><path id="Red_Shadow_1" class="cls-9" d="m189.5,42.7c-1.8.3-3.2.4-3.2.4,0,0,3.7.7,10.5,9.6,3.8,5,6,8.5,12.1,12.5-7.7-5.7-11.9-16.3-19.4-22.5Z"/></g><path id="Red_Heart-2" class="cls-11" d="m207.1,31.4c-3,6.3-9.8,8.1-12.7,9.1,6.8,3.9,10.6,13.7,17.7,17.2,7.5,3.3,17.6-.3,18.3-7.6.3-4.4-2.5-8.3-6.6-9.7,4.1-1.4,6.9-5.3,6.6-9.6-.7-7.5-11-10.6-17.9-7.7l-4.7,3.7c.3,1.8-.2,3.6-.7,4.6Z"/><path id="Blue_Shadow" class="cls-12" d="m194.4,40.5c.6.3,1.2.7,1.8,1.2,5.2-1.7,11.5-5.4,11.8-13.4h0c-.1,1.2-.4,2.4-.8,3.2-3.1,6.2-9.9,8.1-12.8,9Z"/><path id="Twenty-Three" class="cls-2" d="m230.3,40.5c6.3-2.2,10.6-8.2,10.2-14.9-.6-6.8-6.5-11.3-13.3-12.9-7.3-1.7-14.4,3.4-14.6,10.5,6.9-2.8,17.2.2,17.9,7.7.3,4.4-2.5,8.2-6.6,9.6,4.1,1.4,6.9,5.3,6.6,9.7-.7,7.2-10.8,10.9-18.3,7.6-7.1-3.5-10.9-13.3-17.7-17.2,2.9-.9,9.7-2.8,12.7-9.1,1.1-2.3,2-7.9-4.2-9.3-4.9-1.1-10.9,3.8-5.8,8.1-.6-2.6,1.2-3.4,2.5-3,2.6.8.6,4.2-.5,5.5-4.4,5.1-12.7,7.8-12.7,7.8,10.6,6,14.7,21.2,25.7,26.6,11.7,5.2,27.2-.5,28.3-11.7.4-6.8-3.9-12.8-10.2-15Z"/><path id="Yellow_Shadow" class="cls-6" d="m238.2,53.4c0,11.3-12.6,15.3-12.6,15.3h.1c7.6-1.3,14-6.2,14.7-13.2.5-6.8-3.9-12.8-10.2-14.9.1-.1,8,3.4,8,12.8Z"/><path id="Trophy" class="cls-3" d="m217.7,43.6c-.1-.7-.4-1.3-.8-1.8,2.8-.3,3.5-1.3,3.5-1.3,0,0-.8-1.1-3.6-1.3.6-.2,1.3-.4,1.8-.8,1.2-.8,2.1-2.2,2.8-4.3,1-3.2,1.4-7.2,2.1-10.9-3.5-1.3-7.8-1.4-11.2,0,.2-7,7.3-12.2,14.6-10.5q.4.1,0,0c-3.8-.9-8.7-1.2-11.6-1.2-3.4,0-9.1.3-13.1,1.6,5.6,4.2,4.7,14.4,6.9,21,.7,2.1,1.7,3.5,2.8,4.3.6.4,1.2.7,1.8.8-2.8.3-3.6,1.3-3.6,1.3,0,0,.8,1,3.5,1.3-.3.4-.6,1-.8,1.8-.5,2.8-1.8,13.3-6.1,20,1.5,1.4,3.2,2.6,5.1,3.5,5.2,2.3,11.1,2.5,16.2.9-7.7-4.2-9.7-21.3-10.3-24.4Z"/><g id="Trophy_Shadow"><path id="Trophy_Shadow_2" class="cls-4" d="m217.7,43.6c-.1-.7-.4-1.3-.8-1.8,2.8-.3,3.5-1.3,3.5-1.3,0,0-.8-1.1-3.6-1.3.6-.2,1.3-.4,1.8-.8,1.2-.8,2.1-2.2,2.8-4.3,1-3.2,1.4-7.2,2.1-10.9-.7-.3-1.5-.5-2.2-.6-.1,1-.2,2-.3,3-.7,10.1-3.9,12.9-5.1,13.7,1.8,0,2.9,1.4,2.9,1.4,0,0-1.1,1.4-2.7,1.4h0c.3.4.7,1.3.8,3.5.6,13.7,3.4,20.4,6,23.6h.3c1.7-.1,3.4-.4,5-.9-7.9-4.5-9.9-21.6-10.5-24.7Z"/><path id="Trophy_Shadow_1" class="cls-8" d="m212.5,23.2h0s7.5-.5,10.7,2.6c.1-.9.3-1.8.4-2.6-3.5-1.4-7.7-1.5-11.1,0Z"/></g></g><rect class="cls-7" width="259" height="80.2"/><g id="Permanent_Competition_Mark"><path id="Countries_Names" class="cls-2" d="m32.11,67.23c-.31-.15-.62-.15-1.08-.15h-1.86v7.74h1.08v-2.17c0-.31,0-.62-.15-.77h0c.15.15.31.31.62.31.15.15.46.15.77.15.62,0,1.08-.31,1.39-.77s.46-1.08.46-1.86-.15-1.39-.46-1.7c-.15-.46-.46-.62-.77-.77Zm0,3.56c-.15.15-.31.31-.46.46-.15,0-.31.15-.62.15h-.77v-3.09h.77c.31,0,.46,0,.62.15.15,0,.31.15.46.46.15.15.15.62.15,1.08,0,.31-.15.62-.15.77Zm5.57-3.71h1.08v7.74h-1.08v-3.4h-1.86v3.4h-1.08v-7.74h1.08v1.7c0,.93,0,1.7-.15,2.32h0c.15-.15.31-.31.62-.46s.46-.31.77-.31h.62v-3.25h0Zm2.63,0h1.08v7.74h-1.08v-7.74Zm6.03,6.5h0v1.24h-3.4v-7.74h1.08v4.95c0,.62,0,1.39-.15,2.32h0c.15-.15.46-.31.93-.62.62,0,1.08-.15,1.55-.15Zm1.24-6.5h1.08v7.74h-1.08v-7.74Zm5.41.15c-.31-.15-.62-.15-1.08-.15h-1.7v7.74h1.08v-2.17c0-.31,0-.62-.15-.77h0c.15.15.31.31.62.31.15.15.46.15.77.15.62,0,1.08-.31,1.39-.77s.46-1.08.46-1.86-.15-1.39-.46-1.7c-.31-.46-.62-.62-.93-.77Zm0,3.56c-.15.15-.31.31-.46.46-.15,0-.31.15-.62.15h-.77v-3.09h.77c.31,0,.46,0,.62.15.15,0,.31.15.46.46.15.15.15.62.15,1.08,0,.31-.15.62-.15.77Zm5.26-3.56c-.31-.15-.62-.15-1.08-.15h-1.86v7.74h1.08v-2.17c0-.31,0-.62-.15-.77h0c.15.15.31.31.62.31.15.15.46.15.77.15.62,0,1.08-.31,1.39-.77s.46-1.08.46-1.86-.15-1.39-.46-1.7c-.15-.46-.31-.62-.77-.77Zm0,3.56c-.15.15-.31.31-.46.46-.15,0-.31.15-.62.15h-.77v-3.09h.77c.31,0,.46,0,.62.15.15,0,.31.15.46.46.15.15.15.62.15,1.08.15.31,0,.62-.15.77Zm2.63-3.71h1.08v7.74h-1.08v-7.74Zm5.72,0h1.08v7.74h-.93c-.15-.77-.31-1.7-.46-2.63-.31-.93-.46-1.7-.93-2.48-.31-.46-.46-.93-.77-1.08v6.19h-1.08v-7.74h.77c.62.31,1.08.93,1.39,1.7.46.77.77,1.86.93,3.09h.15c0-.62,0-1.08-.15-1.39v-3.4h0Zm2.63,0h3.56v1.24h-2.48v1.7c0,.46,0,.62-.15.93h0c.15-.15.46-.46.93-.46.46-.15.77-.15,1.39-.15v1.24h-2.17v2.32h2.32v1.24h-3.56v-8.04h.15Zm8.2,4.49c.15.31.15.62.15,1.08,0,.77-.15,1.39-.62,1.86-.46.31-.93.62-1.7.62-.31,0-.62,0-.77-.15-.31,0-.46-.15-.77-.31v-1.24c.46.31.93.46,1.39.46s.77-.15.93-.31c.15-.15.31-.46.31-.77s0-.46-.15-.62c-.15-.15-.15-.31-.31-.46-.15-.15-.31-.15-.46-.31l-.15-.15c-.46-.15-.77-.31-.93-.46s-.31-.31-.46-.62-.15-.62-.15-.93c0-.62.15-1.24.62-1.55.31-.31.93-.62,1.55-.62.31,0,.46,0,.77.15.31,0,.46.15.62.31v.93c-.15-.15-.31-.31-.62-.31-.15,0-.46-.15-.77-.15s-.46,0-.62.15c-.15,0-.31.15-.31.31-.15.15-.15.31-.15.62,0,.15,0,.31.15.46,0,.15.15.31.31.31.15.15.31.15.46.31.46.15.77.46.93.62.46.31.62.46.77.77Zm3.09-.93c.15.15.15.31.15.46,0,.31,0,.46-.15.46-.15.15-.31.15-.46.15-.31,0-.46,0-.46-.15-.15-.15-.15-.31-.15-.46,0-.31,0-.46.15-.46.15-.15.31-.15.46-.15.15,0,.31,0,.46.15Zm2.17-3.56h3.4v5.57c0,.46,0,.93-.15,1.24s-.31.62-.62.77-.62.31-1.08.31-.77-.15-1.08-.31c-.31-.15-.46-.46-.62-.77-.15-.31-.15-.77-.15-1.24v-.62h1.08v.62c0,.31,0,.46.15.62,0,.15.15.31.31.46.15.15.31.15.46.15s.31,0,.46-.15.15-.15.31-.46c0-.15.15-.46.15-.62v-4.02c0-.46,0-.62.15-.93h0c-.15.15-.46.46-.93.62-.46.15-.93.15-1.39.15v-1.39h-.46Zm7.58,0h-1.55c-.31,1.24-.62,2.48-.93,3.87-.31,1.39-.46,2.63-.62,3.87h1.08c0-.62.15-1.08.15-1.7h1.86c0,.62.15,1.08.15,1.7h1.08c-.15-1.24-.31-2.48-.62-3.87,0-1.39-.31-2.63-.62-3.87Zm-1.55,4.95c.31-1.7.46-2.94.77-3.87h.15c.15.77.46,2.17.77,3.87h-1.7Zm7.12-4.8c-.31-.15-.62-.15-1.08-.15h-1.86v7.74h1.08v-2.17c0-.31,0-.62-.15-.77h0c.15.15.31.31.62.31.15.15.46.15.77.15.62,0,1.08-.31,1.39-.77s.46-1.08.46-1.86-.15-1.39-.46-1.7c-.15-.46-.46-.62-.77-.77Zm0,3.56c-.15.15-.31.31-.46.46-.15,0-.31.15-.62.15h-.77v-3.09h.77c.31,0,.46,0,.62.15.15,0,.31.15.46.46.15.15.15.62.15,1.08,0,.31-.15.62-.15.77Zm5.11-3.71h-1.55c-.31,1.24-.62,2.48-.93,3.87-.31,1.39-.46,2.63-.62,3.87h1.08c0-.62.15-1.08.15-1.7h1.86c0,.62.15,1.08.15,1.7h1.08c-.15-1.24-.31-2.48-.62-3.87,0-1.39-.31-2.63-.62-3.87Zm-1.55,4.95c.31-1.7.46-2.94.77-3.87h.15c.15.77.46,2.17.77,3.87h-1.7Zm7.27-4.95h1.08v7.74h-.93c-.15-.77-.31-1.7-.46-2.63-.31-.93-.46-1.7-.93-2.48-.31-.46-.46-.93-.77-1.08v6.19h-1.08v-7.74h.77c.62.31,1.08.93,1.39,1.7.46.77.77,1.86.93,3.09h.15c0-.62,0-1.08-.15-1.39v-3.4h0Zm4.18,3.56c.15.15.15.31.15.46,0,.31,0,.46-.15.46-.15.15-.31.15-.46.15-.31,0-.46,0-.46-.15-.15-.15-.15-.31-.15-.46,0-.31,0-.46.15-.46.15-.15.31-.15.46-.15.15,0,.46,0,.46.15Zm2.01-3.56h1.08v7.74h-1.08v-7.74Zm5.72,0h1.08v7.74h-.93c-.15-.77-.31-1.7-.46-2.63-.31-.93-.46-1.7-.93-2.48-.31-.46-.46-.93-.77-1.08v6.19h-1.08v-7.74h.77c.62.31,1.08.93,1.39,1.7.46.77.77,1.86.93,3.09h.15c0-.62,0-1.08-.15-1.39v-3.4h0Zm4.49,0h-1.86v7.74h1.08v-.62h0c.15.31.31.46.62.62.15.15.46.15.77.15s.77-.15.93-.46c.31-.31.46-.77.62-1.39.15-.62.15-1.24.15-2.17,0-1.24-.15-2.32-.62-2.94-.31-.62-.77-.93-1.7-.93Zm1.08,6.19c-.15.46-.46.62-.93.62h-.46c-.15,0-.31,0-.46-.15v-5.41h.77c.46,0,.77.31.93.77s.31,1.08.31,2.01,0,1.7-.15,2.17Zm4.8-6.19c-.77,0-1.39.31-1.7.93-.31.62-.62,1.7-.62,3.09s.15,2.32.62,3.09c.31.62.93.93,1.7.93s1.39-.31,1.7-.93c.31-.62.62-1.7.62-3.09s-.15-2.32-.62-3.09c-.31-.62-.93-.93-1.7-.93Zm.93,6.03c-.15.46-.46.62-.93.62s-.77-.15-.93-.62c-.15-.46-.31-1.08-.31-2.17,0-.93.15-1.7.31-2.17.15-.46.46-.62.93-.62s.77.15.93.62c.15.46.31,1.08.31,2.17s-.15,1.86-.31,2.17Zm5.88-6.03h1.08v7.74h-.93c-.15-.77-.31-1.7-.46-2.63-.31-.93-.46-1.7-.93-2.48-.31-.46-.46-.93-.77-1.08v6.19h-1.08v-7.74h.77c.62.31,1.08.93,1.39,1.7.46.77.77,1.86.93,3.09h.15c0-.62,0-1.08-.15-1.39v-3.4h0Zm2.63,0h3.56v1.24h-2.32v1.7c0,.46,0,.62-.15.93h0c.15-.15.46-.46.93-.46.46-.15.77-.15,1.39-.15v1.24h-2.17v2.32h2.32v1.24h-3.56v-8.04Zm8.2,4.49c.15.31.15.62.15,1.08,0,.77-.15,1.39-.62,1.86-.46.31-.93.62-1.7.62-.31,0-.62,0-.77-.15-.31,0-.46-.15-.77-.31v-1.24c.46.31.93.46,1.39.46s.77-.15.93-.31c.15-.15.31-.46.31-.77s0-.46-.15-.62c-.15-.15-.15-.31-.31-.46-.15-.15-.31-.15-.46-.31l-.15-.15c-.46-.15-.77-.31-.93-.46s-.31-.31-.46-.62-.15-.62-.15-.93c0-.62.15-1.24.62-1.55.31-.31.93-.62,1.55-.62.31,0,.46,0,.77.15.31,0,.46.15.62.31v.93c-.15-.15-.31-.31-.62-.31-.15,0-.46-.15-.77-.15s-.46,0-.62.15c-.15,0-.31.15-.31.31-.15.15-.15.31-.15.62,0,.15,0,.31.15.46,0,.15.15.31.31.31.15.15.31.15.46.31.46.15.77.46.93.62.46.31.62.46.77.77Zm1.39-4.49h1.08v7.74h-1.08v-7.74Zm6.34,3.87c-.31-1.39-.62-2.63-.93-3.87h-1.55c-.31,1.24-.62,2.48-.93,3.87-.31,1.39-.46,2.63-.62,3.87h1.08c0-.62.15-1.08.15-1.7h1.86c0,.62.15,1.08.15,1.7h1.08c.15-1.08,0-2.48-.31-3.87Zm-2.48,1.08c.31-1.7.46-2.94.77-3.87h.15c.15.77.46,2.17.77,3.87h-1.7Z"/><path id="Competition_Name" class="cls-2" d="m43.71,60.89h-1.08c-.46,0-1.24-.15-1.86-1.08-.93-1.55-2.01-4.02-2.63-6.5-.62,2.32-2.01,5.72-3.25,7.74h-1.08c-.46,0-1.39-.15-1.86-1.08-2.48-4.18-4.02-8.66-4.8-14.23h2.48c1.24,0,2.17.62,2.48,2.01.31,2.17.93,4.18,2.01,6.81,1.08-2.63,2.01-6.03,2.48-8.35h1.39c1.55,0,2.63.62,2.94,2.32.46,2.01.93,3.56,2.01,6.03,1.08-2.63,1.86-5.57,2.32-8.97h2.17c1.08,0,1.86.77,1.86,1.86v.62c-1.08,3.56-3.25,9.28-5.57,12.84m13.61-12.38c2.32,0,3.56,1.39,3.56,4.8,0,2.78-1.24,4.33-3.25,4.33-2.32,0-3.56-1.55-3.56-4.8,0-2.63,1.08-4.33,3.25-4.33m-.15,12.53c4.95,0,7.74-3.09,7.74-8.2s-3.56-7.74-7.27-7.74c-4.95,0-7.74,3.25-7.74,8.2,0,4.64,3.25,7.74,7.27,7.74m15.93-12.53c1.24,0,1.7.62,1.7,1.7,0,.93-.62,1.7-1.86,1.7h-1.7v-3.4c.31,0,.62-.15.77-.15h1.08v.15Zm4.95,12.22c.93,0,1.7-.15,2.32-.46v-.15c-.15-.31-.62-.93-1.08-1.86l-1.24-2.48c-.62-1.24-.93-1.7-1.7-2.17,1.39-.31,2.78-2.01,2.78-4.02,0-2.78-2.32-4.49-5.57-4.49h-1.7c-1.24,0-3.56.31-4.64.62v12.38c0,1.39.93,2.48,2.63,2.48h1.55v-5.72h.62c.93.15,1.39.31,2.01,1.7l1.08,2.48c.62,1.08,1.39,1.7,2.94,1.7m10.98.15c2.48,0,3.4-.93,3.4-2.48v-1.39h-.15c-.62.31-2.01.46-3.25.46h-.62c-1.86,0-2.48-.62-2.48-2.63v-6.81c0-1.7-.77-2.63-2.48-2.63h-1.7v9.59c0,3.87,1.7,5.72,5.57,5.72h1.7m10.37-12.22c2.01,0,3.71,1.55,3.71,4.49,0,2.63-1.24,4.33-3.71,4.33h-.62c-.62,0-.93-.46-.93-.93v-7.89c.15,0,.46-.15.62-.15h.93m.62,12.53c4.33,0,7.43-3.4,7.43-8.04,0-5.26-4.02-7.58-7.74-7.58h-1.55c-1.24,0-3.25.31-4.33.77v11.29c0,2.63,2.01,3.71,4.8,3.71h1.39m27.23-10.83v-1.55c0-2.17-1.7-3.56-4.8-3.56-5.11,0-8.2,3.71-8.2,8.2,0,4.8,3.71,7.89,7.89,7.89,2.94,0,4.95-1.55,4.95-3.4v-1.55h-.15c-.77.77-2.63,1.39-4.18,1.39-2.48,0-4.33-1.55-4.33-4.64,0-2.48,1.86-4.18,4.33-4.18,1.7-.15,3.56.46,4.49,1.39h0Zm8.66,10.83c4.64,0,7.12-3.09,7.12-6.81v-5.88c0-2.01-.77-2.78-2.48-2.78h-1.86v8.82c0,2.32-.77,3.25-2.48,3.25-2.01,0-2.94-.77-2.94-3.4v-5.88c0-2.17-1.08-2.94-2.48-2.94h-1.86v8.82c.31,4.18,3.09,6.81,6.96,6.81m15.63-12.53c1.08,0,1.86.46,1.86,2.01,0,1.08-.62,1.7-1.86,1.7-.62,0-1.08,0-1.55-.15v-3.4c.15,0,.62-.15.77-.15h.77m.31,7.12c3.09,0,5.72-2.17,5.72-5.41s-2.48-4.95-5.57-4.95h-1.7c-1.39,0-3.4.31-4.49.62v12.22c0,1.86,1.24,2.63,2.32,2.63h1.86v-5.26c.46,0,1.24.15,1.86.15M31.18,38.15c.77,0,.93.15.93.77,0,.46-.31.62-.93.62h-.62c-.15,0-.31-.15-.31-.31v-1.08h.93m0-2.63c.62,0,.93.15.93.62s-.31.62-.93.62h-.93v-1.24h.93m.31,5.57c1.39,0,2.63-.77,2.63-2.17,0-.62-.62-1.24-1.24-1.55.62-.15,1.08-.77,1.08-1.39,0-1.24-1.08-2.01-2.63-2.01h-.93c-.62,0-1.7.15-2.17.31v5.11c0,1.24.93,1.86,2.32,1.86h.93m13-5.41c.31.62.62,1.39.77,2.17h-1.55c.15-.77.46-1.55.77-2.17m3.56,5.26c-.31-2.32-1.39-5.11-2.01-6.34-.31-.31-.62-.77-1.39-.77h-.77c-1.24,1.24-2.48,5.11-2.48,6.19,0,.46.31.93.93.93h.77c.15-.46.15-1.08.31-1.7h2.48c.15.31.15.62.15.77.15.62.46.77,1.24.77h.77v.15Zm9.75.15c1.86,0,2.94-.93,2.94-2.32,0-1.08-.62-1.7-2.17-2.01-1.24-.31-1.39-.46-1.39-.77,0-.46.31-.62,1.24-.62.77,0,1.55.15,2.01.62h0v-.77c0-.77-.62-1.55-2.32-1.55s-2.94,1.08-2.94,2.32c0,1.08.62,1.55,2.17,1.86,1.08.15,1.39.31,1.39.77s-.31.62-1.24.62c-.77,0-1.7-.31-2.17-.77h0v.62c.15,1.39.93,2.01,2.48,2.01m12.22-6.03c0-.62-.46-1.08-1.24-1.08h-.62v5.88c0,.46.31,1.08,1.08,1.08h.77v-3.25c.77,1.08,1.39,2.01,2.17,2.94.31.31.77.46,1.24.46.62,0,.93-.31,1.24-1.08-.62-.15-.77-.31-1.24-.77-.62-.62-1.08-1.24-1.55-2.01.77-.93,1.86-2.32,2.78-3.25h-1.39c-.62,0-.77,0-1.24.46-.77.77-1.39,1.55-2.01,2.48v-1.86m15.78,6.03c1.24,0,1.7-.31,1.7-1.08v-.77c-.62.15-1.08.15-1.7.15h-.46c-.93,0-1.24-.31-1.24-1.08v-.31h1.7c.62,0,1.08-.31,1.08-.77v-.77h-2.63v-1.24h2.17c.77,0,1.24-.46,1.24-1.08v-.46h-3.87c-.62,0-1.24.31-1.39,1.08-.15.46-.15,1.24-.15,1.86v1.24c0,2.01,1.08,2.94,2.78,2.94h.77m14.23-5.26c.62,0,1.08-.46,1.08-.93v-.62h-4.95c-.77,0-1.08.46-1.08.93v.62h2.01v4.33c0,.77.46.93,1.08.93h.77v-5.41h1.08m11.45,2.63c.77,0,.93.15.93.77,0,.46-.31.62-.93.62h-.62c-.15,0-.31-.15-.31-.31v-1.08h.93m0-2.63c.62,0,.93.15.93.62s-.31.62-.93.62h-.93v-1.24h.93m.15,5.57c1.39,0,2.63-.77,2.63-2.17,0-.62-.62-1.24-1.24-1.55.62-.15,1.08-.77,1.08-1.39,0-1.24-1.08-2.01-2.63-2.01h-.93c-.62,0-1.7.15-2.17.31v5.11c0,1.24.93,1.86,2.32,1.86h.93m13.15-5.41c.31.62.62,1.39.77,2.17h-1.55c.15-.77.46-1.55.77-2.17m3.4,5.26c-.31-2.32-1.39-5.11-2.01-6.34-.31-.31-.62-.77-1.39-.77h-.77c-1.24,1.24-2.48,5.11-2.48,6.19,0,.46.31.93.93.93h.77c.15-.46.15-1.08.31-1.7h2.48c.15.31.15.62.15.77.15.62.46.77,1.24.77h.77v.15Zm10.98,0c1.08,0,1.55-.46,1.55-1.08v-.62h0c-.31.15-.93.15-1.55.15h-.31c-.93,0-1.08-.31-1.08-1.24v-3.09c0-.77-.31-1.24-1.08-1.24h-.77v4.49c0,1.7.77,2.63,2.48,2.63h.77m13.46,0c1.08,0,1.55-.46,1.55-1.08v-.62h0c-.31.15-.93.15-1.55.15h-.31c-.93,0-1.08-.31-1.08-1.24v-3.09c0-.77-.31-1.24-1.08-1.24h-.93v4.49c0,1.7.77,2.63,2.48,2.63h.93"/><path id="FIBA_Wordmark" class="cls-2" d="m78.67,27.94v-11.6c0-.31,0-.46.15-.62s.31-.15.62-.15h5.72v2.32h-4.02v2.63h3.4v2.32h-3.4v5.11h-2.48Zm7.58,0v-11.6c0-.31,0-.46.15-.62s.31-.15.62-.15h1.55v12.38h-2.32Zm3.87,0v-11.6c0-.31,0-.46.15-.62s.31-.15.62-.15h2.78c.93,0,1.7.15,2.17.62.62.31.93.77,1.24,1.24.15.46.31.93.31,1.39,0,.62-.15,1.24-.31,1.55-.15.46-.46.77-.62.93-.15.15-.46.31-.62.31.31.15.62.31.77.62.31.31.46.62.62.93.15.31.15.77.15,1.24,0,.62-.15,1.08-.31,1.55-.15.46-.46.77-.77,1.08-.31.31-.77.46-1.24.62-.46.15-.93.15-1.55.15h-3.4v.15Zm2.32-7.27h1.08c.46,0,.77-.15,1.08-.31.31-.31.46-.62.46-1.08s-.15-.93-.46-1.08c-.31-.31-.62-.31-1.08-.31h-1.08v2.78Zm0,5.11h1.08c.46,0,.77-.15,1.08-.31.31-.31.46-.62.46-1.24,0-.46-.15-.93-.46-1.08-.31-.31-.62-.31-1.08-.31h-1.08v2.94Zm6.19,2.17v-9.28c0-.31,0-.62.15-1.08.15-.31.31-.77.62-1.08s.77-.62,1.24-.93c.46-.15,1.08-.31,1.55-.31s.93,0,1.39.15c.31.15.77.31.93.46.31.15.46.46.62.62.15.31.31.46.46.77s.15.46.15.77v9.9h-2.48v-4.18h-2.32v4.18s-2.32,0-2.32,0Zm2.48-6.5h2.32v-2.48c0-.31,0-.46-.15-.77-.15-.15-.15-.31-.46-.46-.15-.15-.46-.15-.62-.15-.31,0-.62.15-.77.31s-.31.46-.31.62v2.94Z"/><path id="FIBA_Hoop" class="cls-2" d="m116.42,25c-.46-1.55-1.08-3.25-1.7-4.64-.46-1.08-.93-2.17-1.55-3.09-1.39-2.48-3.25-4.8-5.26-6.65-2.17-1.86-4.49-3.4-7.27-4.49-2.63-1.08-5.57-1.55-8.35-1.55-2.94,0-5.72.62-8.35,1.55-2.63,1.08-5.11,2.63-7.27,4.49-2.01,1.86-3.87,4.02-5.26,6.65-.62,1.08-1.08,2.17-1.55,3.4-.62,1.39-1.08,2.94-1.55,4.33h0v.15l.15.15h.31l.15-.15h0c.31-.77.62-1.55,1.08-2.32,2.01-3.71,4.95-6.81,8.51-9.13,2.17-1.39,4.49-2.48,6.81-3.09,2.32-.77,4.8-1.08,7.27-1.08h.31c2.48,0,4.8.31,7.27,1.08,2.32.62,4.64,1.7,6.81,3.09,3.56,2.17,6.34,5.41,8.51,9.13.46.93.77,1.7.93,2.32h.15s.15,0,.15-.15q-.15.15-.31,0h0m-3.87-7.43c-1.55-2.01-3.25-3.71-5.26-5.11-2.17-1.55-4.49-2.78-7.12-3.56-2.48-.77-5.11-1.24-7.89-1.24s-5.41.46-7.89,1.24c-2.63.93-5.11,2.01-7.12,3.56-2.01,1.39-3.71,3.09-5.26,5.11,1.55-2.32,3.25-4.33,5.26-6.03,4.18-3.56,9.59-5.57,14.85-5.57h.15c2.63,0,5.41.46,7.89,1.39s4.8,2.32,6.96,4.18c2.17,1.55,3.87,3.71,5.41,6.03"/></g></svg>