<svg id="FBWC2023_Flags_Digital_Europe_LTU_RGB" xmlns="http://www.w3.org/2000/svg" viewBox="0 0 234.22 200"><defs><style>.cls-1{fill:#c3c3c3;}.cls-2{fill:#c1272d;}.cls-3{fill:#016b44;}.cls-4{fill:#fcb817;}</style></defs><path id="Background" class="cls-1" d="M117.11,0a70.17,70.17,0,0,1,31,6.75c37.72,18.14,51.45,72.06,86.12,93.25h0c-34.67,21.19-48.4,75.11-86.12,93.25a70.17,70.17,0,0,1-31,6.75,70.17,70.17,0,0,1-31-6.75C48.4,175.11,34.67,121.19,0,100H0C34.67,78.81,48.4,24.89,86.12,6.75A70.17,70.17,0,0,1,117.11,0Z" transform="translate(0 0)"/><g id="Flag_LTU"><path class="cls-2" d="M186.12,139.07c2-3,4.1-6.06,6.19-9.07H41.91c2.09,3,4.15,6.05,6.19,9.07C60.89,158,73,175.83,90.46,184.24A60.38,60.38,0,0,0,116.53,190h1.16a60.38,60.38,0,0,0,26.07-5.76C161.25,175.83,173.33,158,186.12,139.07Z" transform="translate(0 0)"/><path class="cls-3" d="M217.53,100c-9.67-8.53-17.68-19.13-25.22-30H41.91c-7.54,10.87-15.55,21.47-25.22,30,9.67,8.53,17.68,19.13,25.22,30h150.4C199.85,119.13,207.86,108.53,217.53,100Z" transform="translate(0 0)"/><path class="cls-4" d="M186.12,60.93C173.33,42,161.25,24.17,143.76,15.76A60.38,60.38,0,0,0,117.69,10h-1.16a60.38,60.38,0,0,0-26.07,5.76C73,24.17,60.89,42,48.1,60.93,46.06,64,44,67,41.91,70h150.4C190.22,67,188.16,64,186.12,60.93Z" transform="translate(0 0)"/></g></svg>