<svg id="FBWC2023_Flags_Digital_Asia_NZL_RGB" xmlns="http://www.w3.org/2000/svg" viewBox="0 0 234.22 200"><defs><style>.cls-1{fill:#c3c3c3;}.cls-2{fill:#273376;}.cls-3{fill:#fff;}.cls-4{fill:#ec1c24;}</style></defs><path id="Background" class="cls-1" d="M117.11,0a70.17,70.17,0,0,1,31,6.75c37.72,18.14,51.45,72.06,86.12,93.25h0c-34.67,21.19-48.4,75.11-86.12,93.25a70.17,70.17,0,0,1-31,6.75,70.17,70.17,0,0,1-31-6.75C48.4,175.11,34.67,121.19,0,100H0C34.67,78.81,48.4,24.89,86.12,6.75A70.17,70.17,0,0,1,117.11,0Z" transform="translate(0 0)"/><g id="Flag_NZL"><path class="cls-2" d="M108.49,20v80.27H17c12.2,10.86,21.78,25,31.1,38.78C60.89,158,73,175.83,90.46,184.24A60.38,60.38,0,0,0,116.53,190h1.16a60.38,60.38,0,0,0,26.07-5.76C158,177.4,168.63,164.31,179,149.5l-.19-.14-6.88,5,2.63-8.09-6.88-5h8.5l2.63-8.09,2.62,8.09h3.21l1.49-2.2c9.41-13.9,19.06-28.17,31.41-39.07a117.82,117.82,0,0,1-12.19-12.66l-.3.22.13-.42c-6.88-8.23-13-17.29-19-26.21l-2.7-4,2.31,7.1-6.12-4.44-6.11,4.44,2.33-7.19-6.11-4.44h7.56l1-3c-10.12-14.38-20.6-27-34.48-33.69A60.38,60.38,0,0,0,117.69,10h-1.16a63.12,63.12,0,0,0-8,.53Zm34,65.8,2.34-7.19,2.33,7.19h7.56l-6.11,4.44,2.33,7.19L144.83,93l-6.12,4.44,2.34-7.19-6.12-4.44ZM52.05,72.56l41.49,27.73H52.05ZM29.68,100.29H17l-.31-.29a118.91,118.91,0,0,0,13-13.62ZM78.73,39.91,108.49,20V39.91Zm-.12,30h29.88v20Z" transform="translate(0 0)"/><path class="cls-3" d="M181.42,141.27h3.21l-.54.8h-3.25l-2-6.29-2,6.29h-6.62l5.35,3.89-2.05,6.29,5.36-3.89.65.47-.46.67-.19-.14-6.88,5,2.63-8.09-6.88-5h8.5l2.63-8.09Zm-11.7-88.85,6.11,4.44-2.33,7.19,6.11-4.44,6.12,4.44L183.42,57l-.5-.74-.47.34L184.2,62l-4.59-3.34L175,62l1.76-5.4-4.59-3.33h5.67l1-2.95c-.19-.28-.38-.55-.58-.82l-1,3ZM141.05,90.26l-6.12-4.44h7.56l2.34-7.19,2.33,7.19h7.56l-6.11,4.44,2.33,7.19L144.83,93l-6.12,4.44ZM142,90l-1.75,5.39L144.83,92l4.59,3.34L147.67,90l4.58-3.34h-5.67l-1.75-5.39-1.75,5.39h-5.67Zm63.35-2.62c-.05-.07-.11-.13-.17-.2l-.13.42ZM64,63.8H47.55v36.49h4.5V72.56l41.49,27.73h14.95L63.11,70H73.24l35.25,23.57V89.93L78.61,70h29.88V63.8H64Zm44.46-17.73V39.91H78.73L108.49,20V10.53l-1.21.16L63.57,39.91H63c-1.57,2-3.1,4.06-4.63,6.16h50.1Zm-74.3,54.22V80.68q-2.2,2.91-4.51,5.7v13.91Z" transform="translate(0 0)"/><path class="cls-4" d="M177.86,53.22l1-2.95c1.37,1.95,2.73,3.94,4.1,5.94l-.47.34L184.2,62l-4.59-3.34L175,62l1.76-5.4-4.59-3.33ZM140.24,95.35,144.83,92l4.59,3.34L147.67,90l4.58-3.34h-5.67l-1.75-5.39-1.75,5.39h-5.67L142,90Zm38.56,40.43-2,6.29h-6.62l5.35,3.89-2.05,6.29,5.36-3.89.65.47c1.55-2.22,3.09-4.48,4.64-6.76h-3.25ZM63.11,70l45.38,30.34V93.52L73.24,70ZM47.55,100.29V63.8h60.94V46.07H58.39c-3.46,4.77-6.85,9.77-10.29,14.86-4.49,6.64-9,13.35-13.91,19.75v19.61Zm59.73-89.6a58.43,58.43,0,0,0-16.82,5.07C79.75,20.91,71.07,29.61,63,39.91h.55Z" transform="translate(0 0)"/></g></svg>