<svg id="FBWC2023_Flags_Digital_Asia_PHI_RGB" xmlns="http://www.w3.org/2000/svg" viewBox="0 0 234.22 200"><defs><style>.cls-1{fill:#c3c3c3;}.cls-2{fill:#cd2028;}.cls-3{fill:#fff;}.cls-4{fill:#fbd015;}.cls-5{fill:#1d439a;}</style></defs><path id="Background" class="cls-1" d="M117.11,0a70.17,70.17,0,0,1,31,6.75c37.72,18.14,51.45,72.06,86.12,93.25h0c-34.67,21.19-48.4,75.11-86.12,93.25a70.17,70.17,0,0,1-31,6.75,70.17,70.17,0,0,1-31-6.75C48.4,175.11,34.67,121.19,0,100H0C34.67,78.81,48.4,24.89,86.12,6.75A70.17,70.17,0,0,1,117.11,0Z" transform="translate(0 0)"/><g id="Flag_PHI"><path class="cls-2" d="M64.87,162.43c7.54,9.28,15.7,17.06,25.59,21.81A60.38,60.38,0,0,0,116.53,190h1.16a60.38,60.38,0,0,0,26.07-5.76c17.49-8.41,29.57-26.27,42.36-45.17,9.41-13.9,19.06-28.17,31.41-39.07h-44Z" transform="translate(0 0)"/><path class="cls-3" d="M64.87,37.57c-2.43,3-4.79,6.15-7.13,9.4l2.75,2.51,5-2.91L63.11,51.8l4.3,3.84L61.68,55l-2.31,5.31L58.2,54.66l-5.46-.55q-2.31,3.38-4.64,6.82C38.69,74.83,29,89.1,16.69,100h0c12.35,10.9,22,25.17,31.41,39.07,2.84,4.2,5.65,8.34,8.49,12.34l.88-4-5-2.84,5.74-.58,1.17-5.65,2.32,5.28,5.73-.64-4.3,3.84L65.49,152l-5-2.9-3.36,3.08c2.54,3.56,5.1,7,7.74,10.25L173.54,100Zm47.41,65.06L101,101.33a8.93,8.93,0,0,1-.14,1l9.72,1.77-1.92,1.5-8-2.19a13.5,13.5,0,0,1-1.41,3.4l7.13,4,.32,2.41-8-5.45-.58.77,8.55,6.51.34,4-3.58.18-7.18-8.71-.76.59,5.72,8-2.41-.27-4.23-7.18a13.14,13.14,0,0,1-3.62,1.53L93.13,121l-1.49,1.92-1.79-9.55-.95.13,1.38,10.67-2.57,3-2.61-2.44,1.1-11.25c-.32,0-.64-.07-1-.13l-1.7,9.74L82,121.18l2.13-8a13.59,13.59,0,0,1-3.67-1.53l-4.08,7.07L74,119l5.58-8-.76-.59-6.64,8.46-4,.27-.09-3.57,8.81-7-.57-.77-8.13,5.61.29-2.42,7.25-4.11a13.89,13.89,0,0,1-1.43-3.45l-7.86,2.18-1.92-1.5,9.55-1.78a7.63,7.63,0,0,1-.13-1l-10.64,1.38-3-2.57,2.44-2.61L74,98.7c0-.37.13-.69.13-1L64.43,96l1.94-1.51,8,2.13a13.85,13.85,0,0,1,1.46-3.54l-7.11-4-.3-2.41,8,5.49.58-.77-8.47-6.5-.32-4,3.57-.12,7.15,8.73.76-.57L74,80.85l2.39.25,4.2,7.2a13.54,13.54,0,0,1,3.65-1.51l-2.12-7.88L83.61,77l1.68,9.59a4.47,4.47,0,0,1,1-.12L85,75.8l2.6-3,2.53,2.45L88.9,86.47a8.93,8.93,0,0,1,1,.14l1.79-9.68,1.5,1.91-2.19,8a13.61,13.61,0,0,1,3.72,1.59l4.2-7,2.41-.24-5.69,7.87.75.6,6.77-8.34,4-.21v3.57l-8.92,6.91.56.77L107,86.89l-.34,2.41-7.3,4a13.46,13.46,0,0,1,1.33,3.35l7.89-2.12,1.9,1.5-9.56,1.72a7.53,7.53,0,0,1,.12,1l10.67-1.3,3,2.6Zm30.85,4.89-3.37-4.68-5.48,1.81L137.7,100l-3.41-4.63,5.48,1.8,3.36-4.69v5.77l5.49,1.75-5.49,1.75ZM56.59,151.41l.06.09-.06-.08Zm.87-100.18L53,53.8c1.29-1.87,2.57-3.72,3.86-5.53ZM57.74,47l-.93,1.3h0l.93-1.3ZM56.65,151.5l.48.68h0ZM53,53.8l-.21.31h0l.21-.3Z" transform="translate(0 0)"/><path class="cls-4" d="M58.2,54.66l-5.47-.55.21-.3,4.52-2.58-.65-3,.93-1.3,2.75,2.52,5-2.91L63.11,51.8l4.3,3.84L61.68,55l-2.31,5.31Zm42.86,44.09a7.53,7.53,0,0,0-.12-1L110.5,96l-1.9-1.5-7.89,2.12a13.46,13.46,0,0,0-1.33-3.35l7.3-4,.34-2.41L98.8,92.36l-.56-.77,8.92-6.91V81.11l-4,.21-6.77,8.34-.75-.6,5.69-7.87-2.41.24-4.2,7A13.61,13.61,0,0,0,91,86.84l2.19-8-1.5-1.91L89.9,86.61a8.93,8.93,0,0,0-1-.14l1.21-11.22L87.58,72.8l-2.6,3,1.31,10.67a4.47,4.47,0,0,0-1,.12L83.61,77l-1.49,1.91,2.12,7.88a13.54,13.54,0,0,0-3.65,1.51l-4.2-7.2L74,80.85l5.69,8.08-.76.57-7.15-8.73-3.57.12.32,4L77,91.39l-.58.77-8-5.49.3,2.41,7.11,4a13.85,13.85,0,0,0-1.46,3.54l-8-2.13L64.43,96l9.73,1.7c0,.31-.1.63-.13,1L62.8,97.53l-2.44,2.61,3,2.57L74,101.33a7.63,7.63,0,0,0,.13,1l-9.55,1.78,1.92,1.5,7.86-2.18a13.89,13.89,0,0,0,1.43,3.45L68.54,111l-.29,2.42,8.13-5.61.57.77-8.81,7,.09,3.57,4-.27,6.64-8.46.76.59L74,119l2.42-.28,4.08-7.07a13.59,13.59,0,0,0,3.67,1.53l-2.13,8,1.51,1.91,1.7-9.74c.31.06.63.1,1,.13l-1.1,11.25,2.61,2.44,2.57-3L88.9,113.5l.95-.13,1.79,9.55L93.13,121l-2.19-7.86a13.14,13.14,0,0,0,3.62-1.53l4.23,7.18,2.41.27-5.72-8,.76-.59,7.18,8.71L107,119l-.34-4-8.55-6.51.58-.77,8,5.45-.32-2.41-7.13-4a13.5,13.5,0,0,0,1.41-3.4l8,2.19,1.92-1.5-9.72-1.77a8.93,8.93,0,0,0,.14-1l11.29,1.3,2.45-2.58-3-2.6ZM61.7,143.57l-2.32-5.28-1.17,5.65-5.74.58,5,2.84-.88,4.06.54.76,3.36-3.08,5,2.9-2.36-5.23,4.3-3.84Zm81.43-45.32V92.48l-3.36,4.69-5.48-1.8L137.7,100l-3.42,4.65,5.48-1.81,3.37,4.68v-5.77l5.49-1.75Z" transform="translate(0 0)"/><path class="cls-5" d="M217.53,100c-12.35-10.9-22-25.17-31.41-39.07C173.33,42,161.25,24.17,143.76,15.76A60.38,60.38,0,0,0,117.69,10h-1.16a60.38,60.38,0,0,0-26.07,5.76c-9.89,4.75-18,12.53-25.59,21.81L173.54,100Z" transform="translate(0 0)"/></g></svg>