<svg id="FBWC2023_Flags_Digital_Europe_SLO_RGB" xmlns="http://www.w3.org/2000/svg" viewBox="0 0 234.22 200"><defs><style>.cls-1{fill:#c3c3c3;}.cls-2{fill:#ec2227;}.cls-3{fill:#005ea5;}.cls-4{fill:#fff;}.cls-5{fill:#fddb00;}</style></defs><path id="Background" class="cls-1" d="M117.11,0a70.17,70.17,0,0,1,31,6.75c37.72,18.14,51.45,72.06,86.12,93.25h0c-34.67,21.19-48.4,75.11-86.12,93.25a70.17,70.17,0,0,1-31,6.75,70.17,70.17,0,0,1-31-6.75C48.4,175.11,34.67,121.19,0,100H0C34.67,78.81,48.4,24.89,86.12,6.75A70.17,70.17,0,0,1,117.11,0Z" transform="translate(0 0)"/><g id="Flag_SLO"><path class="cls-2" d="M42,130.11H192.23c-2.06,3-4.09,6-6.11,9-12.79,18.9-24.87,36.76-42.36,45.17A60.38,60.38,0,0,1,117.69,190h-1.16a60.38,60.38,0,0,1-26.07-5.76C73,175.83,60.89,158,48.1,139.07,46.08,136.09,44.05,133.09,42,130.11ZM69.84,92.29A30.74,30.74,0,0,0,82.74,100,30.79,30.79,0,0,0,104.6,72.49l.16-2.6,1.56-24.73c-.54-.26-1.1-.52-1.66-.76l-.88,14-.73,11.51-.15,2.48A29,29,0,0,1,88.24,95.8a28.71,28.71,0,0,1-5.5,2.42A29,29,0,0,1,62.59,72.37l-1.77-28c-.56.24-1.11.5-1.66.76l1.57,24.73.16,2.6A30.75,30.75,0,0,0,69.84,92.29Z" transform="translate(0 0)"/><path class="cls-3" d="M104.76,69.89h87.47c7.56,10.91,15.6,21.55,25.3,30.11-9.7,8.56-17.74,19.2-25.3,30.11H42c-7.56-10.91-15.6-21.55-25.3-30.11,9.7-8.56,17.73-19.2,25.3-30.11H60.73l.16,2.6A30.77,30.77,0,0,0,82.74,100,30.79,30.79,0,0,0,104.6,72.49Zm-1.87,2.48A29,29,0,0,1,88.24,95.8,29,29,0,0,0,102.9,72.37l.15-2.48h0ZM82.74,98.22A29.08,29.08,0,0,1,71,91.09,29,29,0,0,0,82.74,98.22ZM60.82,44.4h0a54.31,54.31,0,0,1,43.84,0h0l-.88,14-.73,11.51-.16,2.48A29.13,29.13,0,0,1,82.74,98.22,29,29,0,0,1,62.59,72.37Zm34.65,43a5.94,5.94,0,0,1-3.89-.72,5.87,5.87,0,0,0-5.9,0h0a5.89,5.89,0,0,1-5.9,0,5.88,5.88,0,0,0-5.89,0,5.91,5.91,0,0,1-1.42.59,6.06,6.06,0,0,1-2.47.13,27.9,27.9,0,0,0,2.23,2.52,27.43,27.43,0,0,0,10.5,6.54,27.36,27.36,0,0,0,10.5-6.54A27.9,27.9,0,0,0,95.47,87.37Zm2.86-4.53-.85.41h0a6,6,0,0,1-5.9,0,5.88,5.88,0,0,0-5.89,0,6,6,0,0,1-5.9,0,5.88,5.88,0,0,0-5.89,0,6.35,6.35,0,0,1-1.42.59A5.94,5.94,0,0,1,68,83.25l-.85-.41c.41.81.85,1.59,1.34,2.36a5.9,5.9,0,0,0,4,.34A6.35,6.35,0,0,0,73.9,85h0a5.92,5.92,0,0,1,2.95-.79,5.79,5.79,0,0,1,2.94.79,5.94,5.94,0,0,0,4.48.59A6.35,6.35,0,0,0,85.69,85a5.92,5.92,0,0,1,3-.79,5.79,5.79,0,0,1,2.94.79,5.94,5.94,0,0,0,4.48.59L97,85.2C97.48,84.43,97.92,83.65,98.33,82.84ZM87.6,44.61l-1,1.33,1.63-.18.67,1.5.67-1.5,1.63.18-1-1.33,1-1.33-1.63.18L88.93,42l-.67,1.5-1.63-.18Zm-6.19,8.25-1,1.33L82.08,54l.66,1.51L83.41,54l1.63.18-1-1.33,1-1.32-1.63.17-.67-1.5-.66,1.5-1.64-.17Zm-6.19-8.25-1,1.33,1.64-.18.66,1.5.67-1.5,1.63.18-1-1.33,1-1.33-1.63.18L76.55,42l-.66,1.5-1.64-.18Zm-1.32,20L65.06,76.44a5.89,5.89,0,0,0,8.84,5.11A5.54,5.54,0,0,1,75.32,81a5.87,5.87,0,0,1,4.47.59,5.9,5.9,0,0,0,5.9,0A5.87,5.87,0,0,1,90.16,81a5.54,5.54,0,0,1,1.42.59,5.89,5.89,0,0,0,8.84-5.11L91.58,64.65l-3.53,4.71-5.31-10.6-5.3,10.6Z" transform="translate(0 0)"/><path class="cls-4" d="M186.12,60.93c2,3,4,6,6.11,9H104.76l1.56-24.73c-.54-.26-1.1-.52-1.66-.76h0a54.31,54.31,0,0,0-43.84,0h0c-.56.24-1.11.5-1.66.76l1.57,24.73H42c2.06-3,4.09-6,6.11-9C60.89,42,73,24.17,90.46,15.76A60.38,60.38,0,0,1,116.53,10h1.16a60.38,60.38,0,0,1,26.07,5.76C161.25,24.17,173.33,42,186.12,60.93Zm-83.07,9,.73-11.51-.73,11.51ZM91.58,86.65a5.87,5.87,0,0,0-5.9,0h0a5.89,5.89,0,0,1-5.9,0,5.88,5.88,0,0,0-5.89,0,5.91,5.91,0,0,1-1.42.59,6.06,6.06,0,0,1-2.47.13,27.9,27.9,0,0,0,2.23,2.52,27.43,27.43,0,0,0,10.5,6.54,27.36,27.36,0,0,0,10.5-6.54,27.9,27.9,0,0,0,2.23-2.52A5.94,5.94,0,0,1,91.58,86.65Zm5.9-3.4a6,6,0,0,1-5.9,0,5.88,5.88,0,0,0-5.89,0,6,6,0,0,1-5.9,0,5.88,5.88,0,0,0-5.89,0,6.35,6.35,0,0,1-1.42.59A5.94,5.94,0,0,1,68,83.25l-.85-.41c.41.81.85,1.59,1.34,2.36a5.9,5.9,0,0,0,4,.34A6.35,6.35,0,0,0,73.9,85h0a5.92,5.92,0,0,1,2.95-.79,5.79,5.79,0,0,1,2.94.79,5.94,5.94,0,0,0,4.48.59A6.35,6.35,0,0,0,85.69,85a5.92,5.92,0,0,1,3-.79,5.79,5.79,0,0,1,2.94.79,5.94,5.94,0,0,0,4.48.59L97,85.2c.49-.77.93-1.55,1.34-2.36l-.85.41ZM65.06,76.44a5.89,5.89,0,0,0,8.84,5.11A5.54,5.54,0,0,1,75.32,81a5.87,5.87,0,0,1,4.47.59,5.9,5.9,0,0,0,5.9,0A5.87,5.87,0,0,1,90.16,81a5.54,5.54,0,0,1,1.42.59,5.89,5.89,0,0,0,8.84-5.11L91.58,64.65l-3.53,4.71-5.31-10.6-5.3,10.6L73.9,64.65Z" transform="translate(0 0)"/><path class="cls-5" d="M74.25,45.94l1-1.33-1-1.33,1.64.18.66-1.5.67,1.5,1.63-.18-1,1.33,1,1.33-1.63-.18-.67,1.5-.66-1.5ZM82.08,54l.66,1.51L83.41,54l1.63.18-1-1.33,1-1.32-1.63.17-.67-1.5-.66,1.5-1.64-.17,1,1.32-1,1.33Zm6.18-8.25.67,1.5.67-1.5,1.63.18-1-1.33,1-1.33-1.63.18L88.93,42l-.67,1.5-1.63-.18,1,1.33-1,1.33Z" transform="translate(0 0)"/></g></svg>