<?xml version="1.0" encoding="UTF-8"?><svg id="FBWC2023_Flags_Digital_Africa_SSD_RGB" xmlns="http://www.w3.org/2000/svg" xmlns:xlink="http://www.w3.org/1999/xlink" viewBox="0 0 234.22 200"><defs><style>.cls-1{fill:none;}.cls-2{clip-path:url(#clippath);}.cls-3{fill:#00b6ef;}.cls-4{fill:#fff;}.cls-5{fill:#fadb01;}.cls-6{fill:#c3c3c3;}.cls-7{fill:#d91f26;}.cls-8{fill:#128944;}</style><clipPath id="clippath"><path class="cls-1" d="m116.53,190c-9.23,0-18.24-1.99-26.07-5.76-17.49-8.41-29.57-26.27-42.36-45.17-9.41-13.9-19.06-28.17-31.41-39.07,12.35-10.9,22.01-25.17,31.41-39.07,12.79-18.9,24.87-36.76,42.36-45.17,7.83-3.77,16.84-5.76,26.07-5.76h1.17c9.22,0,18.24,1.99,26.07,5.76,17.49,8.41,29.57,26.27,42.36,45.17,9.41,13.9,19.06,28.17,31.41,39.07-12.35,10.9-22.01,25.17-31.41,39.07-12.79,18.9-24.87,36.76-42.36,45.17-7.83,3.77-16.84,5.76-26.07,5.76h-1.17Z"/></clipPath></defs><g id="Flag_SSD"><path id="Background" class="cls-6" d="m117.11,0c10.55-.08,21.24,2.05,30.99,6.74,37.72,18.15,51.46,72.06,86.12,93.25h0c-34.67,21.2-48.4,75.11-86.12,93.26-9.75,4.69-20.44,6.83-30.99,6.74-10.55.08-21.24-2.05-30.99-6.74C48.4,175.11,34.67,121.19,0,100h0C34.67,78.81,48.4,24.89,86.12,6.75,95.87,2.05,106.56-.08,117.11,0Z"/><g id="Flag_SSD-2"><g class="cls-2"><rect class="cls-8" x="2.31" y="9.73" width="362.65" height="181.32"/><rect class="cls-7" x="2.31" y="73.2" width="362.65" height="54.4"/><path class="cls-4" d="m2.31,127.59h362.65v9.06H2.31v-9.06Zm0-63.47v9.07h362.65v-9.07H2.31Z"/><rect x="2.31" y="9.73" width="362.65" height="54.39"/><polygon class="cls-3" points="2.31 9.73 2.31 191.06 153.43 100.39 2.31 9.73"/><polygon class="cls-5" points="69.1 100.39 81.34 83.55 61.54 89.99 49.31 73.15 49.31 93.96 29.51 100.39 49.31 106.83 49.31 127.64 61.54 110.8 81.34 117.24 69.1 100.39"/></g></g></g></svg>