<svg id="FBWC2023_Flags_Digital_Americas_USA_RGB" xmlns="http://www.w3.org/2000/svg" viewBox="0 0 234.22 200"><defs><style>.cls-1{fill:#c3c3c3;}.cls-2{fill:#212f64;}.cls-3{fill:#bf2033;}.cls-4{fill:#fff;}</style></defs><path id="Background" class="cls-1" d="M117.11,0a70.17,70.17,0,0,1,31,6.75c37.72,18.14,51.45,72.06,86.12,93.25h0c-34.67,21.19-48.4,75.11-86.12,93.25a70.17,70.17,0,0,1-31,6.75,70.17,70.17,0,0,1-31-6.75C48.4,175.11,34.67,121.19,0,100H0C34.67,78.81,48.4,24.89,86.12,6.75A70.17,70.17,0,0,1,117.11,0Z" transform="translate(0 0)"/><g id="Flag_USA"><path class="cls-2" d="M118.38,93.07V10l-.69,0h-1.16a60.38,60.38,0,0,0-26.07,5.76c-1.32.63-2.59,1.33-3.85,2.07h2.64L86,20.19,87.24,24,84,21.66,80.72,24l1-3A71.62,71.62,0,0,0,74,27.55h3.9l-3.26,2.37,1.24,3.83-3.26-2.37-3.26,2.37.73-2.23q-2.55,2.76-5,5.75h1.44L63.3,39.64l1.25,3.84-2.75-2c-4.66,6.1-9.14,12.7-13.7,19.45-2.94,4.35-5.91,8.73-9,13l.72,2.2h4l-3.26,2.37,1.25,3.83L38.59,80l-3.26,2.36,1.25-3.83-.51-.37c-2,2.63-3.94,5.22-6,7.73h2.45l-3.26,2.37,1.25,3.83-3.26-2.37-1.18.86c-2.53,2.83-5.16,5.54-7.93,8.08l1,3.16-2.33-1.7c2.42,2.14,4.73,4.42,7,6.79h94.59Zm-76.52,8.76-3.27-2.37-3.26,2.37L36.58,98l-3.26-2.36h4l1.24-3.84,1.25,3.84h4L40.61,98ZM53.2,92.1l-3.26-2.37L46.68,92.1l1.24-3.83L44.66,85.9h4l1.24-3.84,1.25,3.84h4L52,88.27ZM52,68.82l1.25,3.83-3.26-2.37-3.26,2.37,1.24-3.83-3.26-2.37h4l1.24-3.83,1.25,3.83h4Zm12.6,33-3.26-2.37L58,101.83,59.27,98,56,95.63h4l1.25-3.84,1.24,3.84h4L63.3,98ZM63.3,78.54l1.25,3.83L61.29,80,58,82.37l1.25-3.83L56,76.17h4l1.25-3.83,1.24,3.83h4Zm0-19.45,1.25,3.84-3.26-2.37L58,62.93l1.25-3.84L56,56.72h4l1.25-3.83,1.24,3.83h4Zm12.59,33-3.26-2.37L69.37,92.1l1.25-3.83L67.36,85.9h4l1.24-3.84,1.25,3.84h4l-3.26,2.37ZM74.65,68.82l1.24,3.83-3.26-2.37-3.26,2.37,1.25-3.83-3.26-2.37h4l1.24-3.83,1.25,3.83h4Zm0-19.45,1.24,3.83-3.26-2.37L69.37,53.2l1.25-3.83L67.36,47h4l1.24-3.83L73.88,47h4Zm12.59,52.46L84,99.46l-3.26,2.37L82,98,78.7,95.63h4L84,91.79l1.24,3.84h4L86,98ZM86,78.54l1.25,3.83L84,80l-3.26,2.36L82,78.54,78.7,76.17h4L84,72.34l1.24,3.83h4Zm0-19.45,1.25,3.84L84,60.56l-3.26,2.37L82,59.09,78.7,56.72h4L84,52.89l1.24,3.83h4Zm0-19.45,1.25,3.84L84,41.11l-3.26,2.37L82,39.64,78.7,37.27h4L84,33.44l1.24,3.83h4ZM98.59,92.1l-3.27-2.37L92.06,92.1l1.25-3.83L90.05,85.9h4l1.24-3.84,1.25,3.84h4l-3.26,2.37ZM97.34,68.82l1.25,3.83-3.27-2.37-3.26,2.37,1.25-3.83-3.26-2.37h4l1.24-3.83,1.25,3.83h4Zm0-19.45,1.25,3.83-3.27-2.37L92.06,53.2l1.25-3.83L90.05,47h4l1.24-3.83L96.57,47h4Zm0-19.45,1.25,3.83-3.27-2.37-3.26,2.37,1.25-3.83-3.26-2.37h4l1.24-3.84,1.25,3.84h4Zm12.59,71.91-3.26-2.37-3.26,2.37L104.65,98l-3.26-2.36h4l1.24-3.84,1.24,3.84h4L108.68,98Zm-1.25-23.29,1.25,3.83L106.67,80l-3.26,2.36,1.25-3.83-3.26-2.37h4l1.25-3.83,1.24,3.83h4Zm0-19.45,1.25,3.84-3.26-2.37-3.26,2.37,1.25-3.84-3.26-2.37h4l1.25-3.83,1.24,3.83h4Zm0-19.45,1.25,3.84-3.26-2.37-3.26,2.37,1.25-3.84-3.26-2.37h4l1.25-3.83,1.24,3.83h4Zm0-19.45L109.93,24l-3.26-2.37L103.41,24l1.24-3.84-3.25-2.36h4L106.67,14l1.24,3.84h4Z" transform="translate(0 0)"/><path class="cls-3" d="M118.38,93.07h92c2.28,2.42,4.64,4.75,7.11,6.93-2.47,2.18-4.83,4.5-7.1,6.92H118.38Zm0-41.56h61.31c-3.37-4.84-6.75-9.51-10.27-13.85h-51Zm37.69-27.7a58.75,58.75,0,0,0-12.31-8A60.1,60.1,0,0,0,118.38,10V23.81ZM90.46,184.24A60.38,60.38,0,0,0,116.53,190h1.16a60.38,60.38,0,0,0,26.07-5.76,58.75,58.75,0,0,0,12.31-8.05H78.15A58.75,58.75,0,0,0,90.46,184.24Zm27.92-105h80.54c-3.38-4.52-6.61-9.18-9.79-13.85H118.38Zm80.54,41.56H35.3c3.38,4.52,6.61,9.18,9.79,13.85h144C192.31,130,195.54,125.3,198.92,120.78ZM64.8,162.34H169.42c3.52-4.34,6.9-9,10.27-13.85H54.53C57.9,153.33,61.28,158,64.8,162.34Z" transform="translate(0 0)"/><path class="cls-4" d="M64.8,162.34H169.42a99.4,99.4,0,0,1-13.35,13.85H78.15A99.4,99.4,0,0,1,64.8,162.34ZM45.09,134.63l3,4.44c2.15,3.18,4.29,6.33,6.43,9.42H179.69c2.14-3.09,4.28-6.24,6.43-9.42l3-4.44Zm73.29-41.56h92a162.41,162.41,0,0,1-11.5-13.85H118.38Zm92.05,13.85H23.79A162.67,162.67,0,0,1,35.3,120.78H198.92A162.67,162.67,0,0,1,210.43,106.92ZM118.38,65.37h70.75l-3-4.44c-2.15-3.18-4.29-6.33-6.43-9.42H118.38Zm0-27.71h51a100,100,0,0,0-13.35-13.85H118.38ZM106.67,14l-1.24,3.84h-4l3.25,2.36L103.41,24l3.26-2.37L109.93,24l-1.24-3.84L112,17.83h-4Zm0,38.9-1.25,3.83h-4l3.26,2.37-1.25,3.84,3.26-2.37,3.26,2.37-1.25-3.84L112,56.72h-4Zm0,19.45-1.25,3.83h-4l3.26,2.37-1.25,3.83L106.67,80l3.26,2.36-1.25-3.83L112,76.17h-4Zm0-38.9-1.25,3.83h-4l3.26,2.37-1.25,3.84,3.26-2.37,3.26,2.37-1.25-3.84L112,37.27h-4ZM95.32,43.17,94.08,47h-4l3.26,2.37L92.06,53.2l3.26-2.37,3.27,2.37-1.25-3.83L100.6,47h-4Zm12.59,52.46-1.24-3.84-1.24,3.84h-4L104.65,98l-1.24,3.84,3.26-2.37,3.26,2.37L108.68,98l3.26-2.36Zm-12.59-33-1.24,3.83h-4l3.26,2.37-1.25,3.83,3.26-2.37,3.27,2.37-1.25-3.83,3.26-2.37h-4Zm0-38.91-1.24,3.84h-4l3.26,2.37-1.25,3.83,3.26-2.37,3.27,2.37-1.25-3.83,3.26-2.37h-4Zm-77.18,75c-.48.45-1,.9-1.45,1.33l.14.13,2.33,1.7ZM51.19,85.9l-1.25-3.84L48.7,85.9h-4l3.26,2.37L46.68,92.1l3.26-2.37L53.2,92.1,52,88.27l3.26-2.37ZM30.51,92.1l-1.25-3.83,3.26-2.37H30.07c-1.3,1.59-2.64,3.16-4,4.69l1.18-.86Zm9.33,3.53-1.25-3.84-1.24,3.84h-4L36.58,98l-1.25,3.84,3.26-2.37,3.27,2.37L40.61,98l3.26-2.36Zm10.1-33L48.7,66.45h-4l3.26,2.37-1.24,3.83,3.26-2.37,3.26,2.37L52,68.82l3.26-2.37h-4Zm34-41L87.24,24,86,20.19l3.26-2.36H86.61a58,58,0,0,0-4.93,3.23l-1,3ZM72.63,31.38l3.26,2.37-1.24-3.83,3.26-2.37H74c-1.33,1.28-2.64,2.59-3.91,4l-.73,2.23ZM62.53,95.63l-1.24-3.84L60,95.63H56L59.27,98,58,101.83l3.27-2.37,3.26,2.37L63.3,98l3.26-2.36Zm.77-56,3.26-2.37H65.12C64,38.64,62.9,40.05,61.8,41.48l2.75,2ZM96.57,85.9l-1.25-3.84L94.08,85.9h-4l3.26,2.37L92.06,92.1l3.26-2.37,3.27,2.37-1.25-3.83,3.26-2.37ZM35.33,82.37,38.59,80l3.27,2.36-1.25-3.83,3.26-2.37h-4L39.12,74q-1.5,2.11-3,4.2l.51.37ZM85.22,95.63,84,91.79l-1.25,3.84h-4L82,98l-1.24,3.84L84,99.46l3.26,2.37L86,98l3.26-2.36ZM84,52.89l-1.25,3.83h-4L82,59.09l-1.25,3.84L84,60.56l3.26,2.37L86,59.09l3.26-2.37h-4Zm0,19.45-1.25,3.83h-4L82,78.54l-1.25,3.83L84,80l3.26,2.36L86,78.54l3.26-2.37h-4Zm0-38.9-1.25,3.83h-4L82,39.64l-1.25,3.84L84,41.11l3.26,2.37L86,39.64l3.26-2.37h-4ZM72.63,43.17,71.39,47h-4l3.26,2.37L69.37,53.2l3.26-2.37,3.26,2.37-1.24-3.83L77.91,47h-4ZM61.29,52.89,60,56.72H56l3.26,2.37L58,62.93l3.27-2.37,3.26,2.37L63.3,59.09l3.26-2.37h-4Zm0,19.45L60,76.17H56l3.26,2.37L58,82.37,61.29,80l3.26,2.36L63.3,78.54l3.26-2.37h-4ZM73.88,85.9l-1.25-3.84L71.39,85.9h-4l3.26,2.37L69.37,92.1l3.26-2.37,3.26,2.37-1.24-3.83,3.26-2.37ZM72.63,62.62l-1.24,3.83h-4l3.26,2.37-1.25,3.83,3.26-2.37,3.26,2.37-1.24-3.83,3.26-2.37h-4Z" transform="translate(0 0)"/></g></svg>